<svg xmlns="http://www.w3.org/2000/svg" viewBox="0 0 374.26 88.17"><defs><style>.cls-1{fill:none;stroke:#fce300;stroke-miterlimit:10;stroke-width:2px;}</style></defs><g id="Слой_2" data-name="Слой 2"><g id="Слой_1-2" data-name="Слой 1"><path class="cls-1" d="M10.7,62.9c54.7,19.57,114.71-2.32,172.79-2.42,27.07,0,53.91,4.71,80.94,6.25,32.75,1.87,65.56-1,98.23-3.82L362.3,9.29A712,712,0,0,1,234.58,3.85c-13-1.74-26.18-3.84-39.24-2.33-10.21,1.19-20,4.55-30.09,6.67C111.4,19.53,54.05-5.25,1.07,9.68L7.87,81l91.77-9.92c18.23-2,36.49-4,54.82-4.69,27.41-1.11,54.84.54,82.25,1.67q65.18,2.68,130.42,1.43,1.86-31,.86-62c-11.29-1.61-22.74-1.61-34.14-1.61H5.67l5.72,79.9c10.92-12,30.28-4.1,46.45-2.88,11.08.84,22.07-2,33-4.16,49.5-10,100.54-7.36,151-5.48q51.53,1.94,103.07,2.8c5.95.1,12.2.13,17.43-2.71,10.31-5.59,12.31-19.72,10.21-31.26s-7-22.84-5.91-34.52L258.45,3.8C204.63,1.92,150.71,0,96.88,2.54,78,3.42,34-.75,18.16,10.16,4,20,10.52,47.38,10.7,62.9Z"/></g></g></svg>