<svg xmlns="http://www.w3.org/2000/svg" viewBox="0 0 390.48 341.3"><defs><style>.cls-1,.cls-2{fill:none;stroke-miterlimit:10;stroke-width:2px;}.cls-1{stroke:#000;}.cls-2{stroke:#fce300;}</style></defs><title>Ресурс 1</title><g id="Слой_2" data-name="Слой 2"><g id="Слой_1-2" data-name="Слой 1"><path class="cls-1" d="M79.69,84.74l3.46,159.6"/><path class="cls-1" d="M214.67,178.34c.26,18.31,1.39,38.72,14.64,51.36,5.17,4.94,12.43,8.27,19.44,6.91,5.46-1.06,10-4.76,13.82-8.83,24.43-26.29,22.67-67.08,16.35-102.42-2.09-11.69-4.88-24-13.24-32.49C222,48.77,214.4,159.68,214.67,178.34Z"/><path class="cls-2" d="M331,11.8C388.35,79.3,406,190.27,372.91,276c-4.84,12.54-10.72,24.68-18.84,34.44C327,343,283,342,244.15,338.79,209.67,336,174.77,333,141.74,320.15c-26.93-10.51-52.17-27.57-73.69-49.83a190.57,190.57,0,0,1-25.92-33.09C8.74,182.53,11.72,95.73,57.4,58.11,76,42.79,99,36.85,121.49,33.08a428.29,428.29,0,0,1,193.8,12.5c9.92,3,19.94,6.38,28.61,13,23,17.47,31.22,52.38,35.91,84.24,4.86,33,7.7,68.41-4,98.43C355.25,293.74,300,309.39,251.44,315.4c-37.26,4.61-75.47,7-112.06-4C87.61,295.75,41.74,252.21,17.07,195.3c-9.18-21.17-15.58-44.39-16-68-.21-10.87,1-22.36,6.66-30.74,3.5-5.22,8.39-8.78,13.18-12.24C53.46,60.78,86.64,37,123.69,25.65c25.72-7.86,52.57-9.46,79.2-11,26.83-1.57,53.88-3.14,80.57,1.69a232.2,232.2,0,0,1,37.07,10.32c16.25,5.86,33.38,14.1,42.58,31.26,5.81,10.84,7.66,23.87,9.39,36.5,5.05,37,10.13,74.47,6.78,111.5s-16.23,74.14-41,96.16c-23.11,20.52-53.23,25.57-82,30-20.22,3.11-40.63,6.22-61,4.09-13.28-1.38-26.36-5-39.4-8.54l-50-13.7c-15.54-4.26-32.18-9.27-42.86-23.6-12.46-16.72-13.22-41-18.91-62.26-7.73-28.81-25.4-54-28.26-83.93C11,93.34,49.94,53.17,88.58,32.65a268.24,268.24,0,0,1,209-18.59c24.58,8,50.14,21.15,63.47,47.24,7.22,14.12,10.1,30.64,12.84,46.77,7.08,41.56,13.25,88.68-7.46,122.34-8.42,13.68-21.58,27.27-18.26,44.06C314,294.7,279.28,315.13,241.68,324s-79.1,5.07-111.63-20.42c-11.51-9-21.91-20.69-34.86-26.09-9.47-4-19.68-4.28-29.29-7.7-24-8.56-41.07-35.79-48.24-64.5s-6.11-59.12-5-88.84c.31-8.24.65-16.64,3.12-24.27C19,82.15,25.72,74.32,32.7,67.53c30.89-30,71.6-45.39,111.81-42.16"/><path class="cls-1" d="M326.25,159.32l23.87.27c4.75,5.59,2,14.6-3.34,19.68s-12.45,7.66-18.56,11.74S316.67,201.88,318,209.1c1.21,6.55,7.8,11,14.4,12s13.25-.91,19.67-2.73"/><path class="cls-1" d="M321.41,183.56H348"/><path class="cls-1" d="M306.91,200.48H333.5"/><path class="cls-1" d="M132.34,108.39c8.09-8.52,16.76-17.4,28-20.51s25.73,2.21,28.25,13.73c2.16,9.84-4.74,19.13-11.21,26.81l-40.63,48.26c11.84-4.17,26.48-7.84,35.71.73a24.48,24.48,0,0,1,6,9.59c6.13,16.48-.06,36.77-14.33,46.91s-35.29,9.2-48.61-2.17"/></g></g></svg>