<svg xmlns="http://www.w3.org/2000/svg" viewBox="0 0 56.74 92.74"><defs><style>.cls-1{fill:none;stroke:#000;stroke-miterlimit:10;stroke-width:2px;}</style></defs><g id="Слой_2" data-name="Слой 2"><g id="Слой_1-2" data-name="Слой 1"><path class="cls-1" d="M18.55,58.18C11.4,47.44,1.11,37.33,1,24.43A23.76,23.76,0,0,1,12.11,4.38,23.76,23.76,0,0,1,35,3.55c8.22,4.26,13.12,12.91,16.86,21.38,2.14,4.85,4.1,10,3.85,15.28C55.53,44.3,54,48.2,52.41,52a154.54,154.54,0,0,1-12.2,22.77c-3.21,4.94-6.32,10.6-8.93,15.42C27.88,78.92,25.19,68.17,18.55,58.18Z"/><path class="cls-1" d="M26.11,40.3c-4.57-.57-8.81-4-9.71-8.53s2.15-9.63,6.68-10.44,8.78,2.45,11,6.42c2.62,4.79,2.71,11.23-.86,15.36s-11,4.55-14.24.13c-2.22-3.07-1.94-7.22-1.56-11"/></g></g></svg>