<svg xmlns="http://www.w3.org/2000/svg" viewBox="0 0 877.79 79.55"><defs><style>.cls-1,.cls-2{fill:none;stroke:#000;stroke-miterlimit:10;}.cls-1{stroke-width:2px;}</style></defs><g id="Слой_2" data-name="Слой 2"><g id="Слой_1-2" data-name="Слой 1"><path class="cls-1" d="M1,1.17v55.5"/><path class="cls-1" d="M45.08,1.64V78.79"/><path class="cls-1" d="M4.15,42.67a178.82,178.82,0,0,0,40.73-4.9"/><path class="cls-1" d="M70.37,78.26c-2.4-9.78,3.42-19.48,8.45-28.5A227.69,227.69,0,0,0,98.71,2.17"/><path class="cls-1" d="M93.47,7.11a180.79,180.79,0,0,1,9.83,66.22"/><path class="cls-1" d="M76.6,39.36a84.19,84.19,0,0,0,23.56,1.45"/><path class="cls-1" d="M120.74,4l2.4,71,47.86,1"/><path class="cls-1" d="M169.44,76.39l5.34-59.51"/><path class="cls-1" d="M145.82,75V15.39"/><path class="cls-1" d="M193.18,1.19q2.07,39,2.64,78.05a8.8,8.8,0,0,1,1.33-5c7.31-14.45,19.78-27.39,22-43,1.18-8.45-.75-17.24,2.12-25.38V75"/><path class="cls-1" d="M302.36,5.09q-1.44,30.77-1.11,61.56l0-47.29a30.39,30.39,0,0,1,.62-7.5,4.2,4.2,0,0,1,1.66-2.7,6.5,6.5,0,0,1,2.87-.7l22.74-1.92,0,68.8"/><path class="cls-1" d="M349.8,9.07l-.23,62.29,1-32.16c.19-6.39.5-13.11,4.41-18.54s12.77-8.79,19-5.35c3.88,2.14,5.7,6.16,7,10,1.07,3.11,1.89,6.7-.15,9.42-2.24,3-6.9,3.65-11,4l-20.07,1.89"/><path class="cls-1" d="M394.43,33l21.3.26c2.44,0,5,0,7.17-.91,5.4-2.36,5.57-8.82,5-14a5.3,5.3,0,0,0-1-3.1,10.72,10.72,0,0,0-3-1.87c-2.27-1.26-3.86-3.3-6.18-4.5-5.08-2.64-12.06-.27-15.62,3.81s-4.58,9.36-5.49,14.4c-2,11.15-4,22.59-1.29,33.62,1.23,5,4.27,10.56,10.1,11.73A14,14,0,0,0,415.65,70a33.92,33.92,0,0,0,7.14-7.22"/><path class="cls-1" d="M451.2,8.84,451.35,6c-.42,19.47-.84,39,1.51,58.37C461.42,45.7,470.07,26.7,472,6.71q.4,33.89-2.33,67.73"/><path class="cls-1" d="M491.74,2.38l-.44,75.41c-4.47-22.7,5.81-45.86,3.39-68.78L508.6,40.16l3-11.93c.67-2.62,1.38-5.32,3.2-7.5a45.7,45.7,0,0,1,4.79-4.27,17.61,17.61,0,0,0,5.8-10.83A586.13,586.13,0,0,0,518,78.05"/><path class="cls-1" d="M591.63,1.69a653.43,653.43,0,0,1-.42,66.39c5.28-1.26,10.71,1,16.08,2,13.58,2.46,27.63-3.42,41.38-1.74a15.71,15.71,0,0,1-2.93,10.44"/><path class="cls-1" d="M540.54,5.59c5,13.22,10.34,26.48,16.67,39.29,4.51-5.92,7.17-13.14,10.28-19.78l6.89-14.67c1.09-2.32,2.2-4.82,1.59-7.27"/><path class="cls-1" d="M560.15,40.25c-.31,3.85-2.08,7.5-3.82,11.06q-6.35,13-12.68,26"/><path class="cls-1" d="M635.77,68.4,635,12"/><path class="cls-1" d="M614.75,69.15a368,368,0,0,1,1.53-57.87"/><path class="cls-1" d="M658.41,33l21.31.26c2.44,0,5,0,7.17-.91,5.39-2.36,5.56-8.82,5-14a5.37,5.37,0,0,0-1-3.1,10.72,10.72,0,0,0-3-1.87c-2.27-1.26-3.86-3.3-6.18-4.5-5.08-2.64-12.06-.27-15.62,3.81s-4.58,9.36-5.49,14.4c-2,11.15-4,22.59-1.29,33.62,1.23,5,4.27,10.56,10.1,11.73A14,14,0,0,0,679.64,70a33.92,33.92,0,0,0,7.14-7.22"/><path class="cls-1" d="M727.85,13.69,727.52,10c-4.19-.4-8.65-.7-12.45.88-5.21,2.18-7.76,7.25-9.55,12a114.38,114.38,0,0,0-4.73,16c-1,4.52-1.68,9.18-.72,13.71s3.59,8.84,6.18,13a12.46,12.46,0,0,0,3,3.64c2.88,2.13,7.36,1.92,10.71.39s5.84-4.14,8.23-6.67"/><path class="cls-1" d="M759.93,11.66q.47,28.58,2.17,57.12Z"/><path class="cls-2" d="M780.75,9.71c-12.68-4.53-29.39-1.19-42.46.53a148.68,148.68,0,0,0,21.34.7C764.72,10.86,776.31,8.13,780.75,9.71Z"/><path class="cls-1" d="M800.14,6.5c2.64,20.92,2.38,42,2.13,63.05l-.08-40.2c0-4.3,0-8.7,1.77-12.72a12.87,12.87,0,0,1,7.59-7.17c5-1.64,11,.51,14.27,4.19s4.25,8.54,4,13.17a13.64,13.64,0,0,1-2.8,8.41,17.5,17.5,0,0,1-5.58,4A50.76,50.76,0,0,1,808,43.86c7.21-.6,15.37-.94,20.7,3.27,3.36,2.65,4.84,6.6,5.93,10.41.57,2,1,4.17.13,6.07-.78,1.62-2.47,2.78-4.16,3.76a51.52,51.52,0,0,1-34.65,5.69"/><path class="cls-1" d="M858.23,8.21a268.58,268.58,0,0,0-7.73,64c-3.16-11.35,3-22.93,4.26-34.55a70.19,70.19,0,0,1,1-8.68c1.5-6.29,6.14-12.66,3.47-18.66a246.75,246.75,0,0,0,17.6,52.79"/><path class="cls-1" d="M849.88,49.1l18.8-2.6c.6-.08,2.15.25,2.74.25"/></g></g></svg>