<svg xmlns="http://www.w3.org/2000/svg" viewBox="0 0 470.6 95.64"><defs><style>.cls-1{fill:none;stroke:#000;stroke-miterlimit:10;stroke-width:2px;}</style></defs><g id="Слой_2" data-name="Слой 2"><g id="Слой_1-2" data-name="Слой 1"><path class="cls-1" d="M1,2.81V62.86"/><path class="cls-1" d="M33.73.08a513.64,513.64,0,0,0-1.21,61.41"/><path class="cls-1" d="M46.27,64.33Q53.6,48.16,59.54,31.42"/><path class="cls-1" d="M2.37,33a149.64,149.64,0,0,1,30.07.84"/><path class="cls-1" d="M58.78,33.15,69.63,64.08"/><path class="cls-1" d="M80.91,39.49A89.73,89.73,0,0,1,83,62.77a162.74,162.74,0,0,1,29.84,1.57"/><path class="cls-1" d="M48.77,52A55.68,55.68,0,0,1,66.5,53.33"/><path class="cls-1" d="M113.28,62.81l-3.07-25.89"/><path class="cls-1" d="M94.47,60.22a102.34,102.34,0,0,1-.56-21.92"/><path class="cls-1" d="M131.78,38.31l1.78,23.17"/><path class="cls-1" d="M126.71,16.34a3,3,0,0,1,1.41-4,27.11,27.11,0,0,1,2.49,9.51,6.38,6.38,0,0,1-8.4-4.88,6.39,6.39,0,0,1,7-6.76"/><path class="cls-1" d="M197.84,75.07a155,155,0,0,1-3.09-36.78h27.33V72.41"/><path class="cls-1" d="M237.16,51.33c7.62,1.78,17.61,2.57,21.31-4.33,3-5.52-1.93-13.42-8.19-13.22-4.18.12-7.8,3.2-9.78,6.87s-2.61,7.9-3.2,12c-.69,4.91-1.35,10.08.45,14.7s7,8.32,11.66,6.73c4.07-1.39,6.05-5.89,7.57-9.92"/><path class="cls-1" d="M272.22,43.76l1.53,51.85"/><path class="cls-1" d="M309.77,51.82c4.86,3.11,12.45-.57,13-6.32s-6.2-10.8-11.55-8.66c-5.7,2.27-7.17,9.57-7.28,15.7a103.93,103.93,0,0,0,.49,12.35,6,6,0,0,0,1.32,3.8,5.35,5.35,0,0,0,3.85,1.13,20.15,20.15,0,0,0,18-12.23"/><path class="cls-1" d="M272.57,46.48l.14-6.61,7.18-1.06c3.67,5.84,7.22,12.1,7.66,19s-3.18,14.5-9.8,16.46"/><path class="cls-1" d="M378.29,38.82c-2.62,3.87-5.3,7.88-6.22,12.46s.39,9.95,4.32,12.48c5.65,3.63,13.67-.6,16.43-6.72s1.83-13.2.84-19.84c-.2-1.32-.47-2.78-1.53-3.6a5.3,5.3,0,0,0-2.71-.83c-3-.34-6.12-.62-8.85.62s-4.74,4.57-3.47,7.29"/><path class="cls-1" d="M414.5,39.66v32.5l.09-32.3,17.61-2"/><path class="cls-1" d="M391.57,42.43a34.9,34.9,0,0,0,6.76,26.43,19.34,19.34,0,0,0,4.08-8.68"/><path class="cls-1" d="M444.81,41a242,242,0,0,0,3.39,29.77c.29,1.68.67,3.47,1.9,4.64,2.92,2.8,7.79,0,10.17-3.23,7.31-10,6.73-23.58,5.83-36a238.34,238.34,0,0,0,3.52,38.82"/><path class="cls-1" d="M338.86,40.85l6.33,29.74A94.6,94.6,0,0,1,342,44.27c.09-4.82,2.47-11.24,7.22-10.38,2.71.49,4.3,3.33,5.11,6,1.95,6.35,0,15.25-6.59,16.22,3.63-3.37,10.11-1.22,12.5,3.12A11.15,11.15,0,0,1,343.8,73.51"/></g></g></svg>