<svg xmlns="http://www.w3.org/2000/svg" viewBox="0 0 454.56 751.88"><defs><style>.cls-1,.cls-2,.cls-3,.cls-4{fill:none;stroke-miterlimit:10;}.cls-1,.cls-2,.cls-3{stroke:#000;}.cls-1{stroke-width:2px;}.cls-2,.cls-4{stroke-width:3px;}.cls-4{stroke:#fce300;}</style></defs><g id="Слой_2" data-name="Слой 2"><g id="Слой_1-2" data-name="Слой 1"><path class="cls-1" d="M1.88,98.48C1.7,72.27,16.47,58,33.41,40.06,48.61,24,73.92-2.15,97.62,1.31"/><path class="cls-2" d="M143.55,272.19C160.81,198.1,210.09,126,279.58,97.6"/><path class="cls-1" d="M122.64,243.45c5.13-34.07,27.28-62.32,48.59-88.71l12.56-15.55c18.79-23.26,39.41-47.78,67.55-55.48"/><path class="cls-1" d="M109.9,228.89C121.33,187,147.49,151,177.12,120.26,194.05,102.71,212.34,86.5,232.39,73"/><path class="cls-1" d="M32,63.53c-.13-6.66,5.53-12.87,11.9-13.05L34.79,66.81A72.46,72.46,0,0,1,56.58,51.62L50.09,68.71A73.2,73.2,0,0,1,72.27,49.09,80.4,80.4,0,0,1,61.5,73.68,46.36,46.36,0,0,1,80.17,63.16,141.61,141.61,0,0,0,66.09,88.74a231.1,231.1,0,0,1,26.6-16.38,68,68,0,0,1-5.7,20,28.15,28.15,0,0,0,13-10A27.41,27.41,0,0,1,95,101.07a138.65,138.65,0,0,1,30.41-15.91,248.1,248.1,0,0,1-17.59,35.11L137.24,98.9l-21.1,44.9,26.71-21.43a27.73,27.73,0,0,1-5.56,11.86,6.43,6.43,0,0,1,5.36-5.1"/><path class="cls-1" d="M1.88,98.48c31.19,27.93,66.1,71.58,90.64,106,8.51,11.95,16.62,24.29,26.62,34.9,9.68,10.27,21.29,19.15,27.44,32.07"/><path class="cls-1" d="M97.81,1.49c21.12,22.88,51.27,31.34,79.17,44,4.56,2.07,13.58,2.09,17.33,5.48s6.17,7.67,10,10.67c5.16,4.09,11.9,5.08,18,7.3,5.28,1.92,10.18,4.81,15.05,7.68l39.42,23.26"/><path class="cls-1" d="M45.86,32.54l-.62,7.86a51.36,51.36,0,0,0,14.83-7.78L50.51,57A24.64,24.64,0,0,1,70.27,47.4a36.9,36.9,0,0,1-1,18.13,71.62,71.62,0,0,0,16.23,0,56.55,56.55,0,0,1-2.7,11c4.77,1.16,10.22,2.89,12.06,7.63.6,1.53.74,3.25,1.53,4.69,3.1,5.71,11.48,2.08,17.64,3.38a3,3,0,0,1,2.23,1.38,3.9,3.9,0,0,1-.07,2.73l-4.62,17.09a85.16,85.16,0,0,1,25.21-9.14l-.29,10.89c2.09-.73,4.37-1.45,6.46-.73s3.59,3.6,2.23,5.42"/><path class="cls-1" d="M125,244.67c7.2-35.86,31.22-65.13,54.39-92.69,8-9.47,15.95-19,24.76-27.58C219,109.89,236,98.05,253,86.29"/><path class="cls-2" d="M276.89,103.19c-24.22,64.2-66.45,120.9-120,161.21-3.68,2.77-7.41,5.46-11.13,8.15,11-1.81-38-49.76-40.39-63-6.8-37.49,27.33-70.71,58.91-93.57,13.5-9.77,34.73-27.56,58.49-27.71,16.31-.1,43.16.8,56.9,9.16-4.18,4.66-12.54-2.92-18.51-4.14"/><path class="cls-3" d="M66.35,10.39l-5.11.89q14.7.62,29.41-.12C73.07,16.85,52.18,22.61,40.77,37.74"/><path class="cls-3" d="M24,51.71A187,187,0,0,0,3.48,103.26"/><path class="cls-3" d="M144.2,265.84A214.39,214.39,0,0,1,159,206.48c4.28-10.45,9.51-20.7,17.24-28.7,5.88-6.09,13.13-10.81,18-17.84,2.54-3.7,4.3-7.91,6.7-11.7,14.78-23.36,49.84-26.36,62.31-51.13"/><path class="cls-3" d="M.43,92.12A445.6,445.6,0,0,1,39.13,35a5.3,5.3,0,0,1,2.62-2.13c1.09-.27,2.47.57,2.32,1.74A128,128,0,0,1,89.07.9"/><path class="cls-3" d="M95,4.55c2.15.39,3.5,2.55,4.8,4.38,9.78,13.71,28,16.22,43.45,21.84a96.31,96.31,0,0,1,19.31,9.6,94.88,94.88,0,0,1,17.13,14.15"/><path class="cls-3" d="M61.48,166.88c4.66.14,7.46,5.23,9.72,9.49a83.27,83.27,0,0,0,13.24,18.32c3.47,3.62,7.26,6.9,10.64,10.62,4.79,5.26,8.69,11.31,12.57,17.33"/><path class="cls-3" d="M178,48.17l17.9,17.6c1.84,1.8,3.81,3.68,6.28,4.22,2.23.48,4.53-.21,6.81-.33a14.21,14.21,0,0,1,12.39,6.43c5.92.4,14.65,8.48,19.1,12.56A22.76,22.76,0,0,0,260.91,94"/><path class="cls-3" d="M3.27,95.14c6,9.25,16.64,13.63,25.21,20.3,7.14,5.56,12.9,12.79,18.58,19.95l43.64,55"/><path class="cls-3" d="M28.89,61.3c1.64,6.59,9.53,8.31,15.81,10.12,18.67,5.42,32.59,21.26,45.44,36.4L105,125.29"/><path class="cls-3" d="M148.24,262.92l1.5-8.28-.21,9.73a119.56,119.56,0,0,0,15.64-29.59L164,251l2.82-10.35-.51,9.7,11.41-15.48.36,7.14,5.34-10.72-.53,5.34,8.49-23.82-.54,12.78a174.12,174.12,0,0,0,12.34-23.9l1.26,7.34,5.68-12.55c.56-1.22,1.34-2.62,2.63-2.73s2,2.38.68,2.46q1.59-5.38,3.2-10.76l1.33,6.93,4.28-17.43L225,186l5.75-14.06a10.34,10.34,0,0,1,2.67,8.63l10.83-25,.33,9.09,9-26.2-.81,10.79,7.56-26,1.77-5.76c.52-1.67,1.46-3.69,3.14-3.66s1.1,3.73-.18,2.59c1.86-3.6,0-13.55,1.81-17.15-6.8,7.6-13.89,15.41-23.06,19.44-3.54,1.55-7.31,2.5-10.85,4a37,37,0,0,0-16.23,13.92c-37.2,23.34-63.21,65.32-68.33,110.31"/><path class="cls-4" d="M194.41,199.68a143.57,143.57,0,0,0,42.66,21.85"/><path class="cls-4" d="M206.4,238.54c-3.22-5.68.38-12.62,3.52-18.34A92.16,92.16,0,0,0,219,197.63"/><path class="cls-4" d="M291.82,254.94a179,179,0,0,0,31.14,3.7"/><path class="cls-4" d="M312,239l-13,46.44"/><path class="cls-4" d="M194,285.73a88,88,0,0,0-7.46,40.61"/><path class="cls-4" d="M177.73,301a140.81,140.81,0,0,1,32.43,1.23"/><path class="cls-4" d="M255.27,322.05h38.08"/><path class="cls-4" d="M265.11,343.21a114.4,114.4,0,0,1,3.14-31"/><path class="cls-4" d="M278.74,200.94c8.94-3.59,20.25.41,24.94,8.83"/><path class="cls-4" d="M289.06,220.51a129.3,129.3,0,0,1,11.38-32.39"/><path class="cls-4" d="M167.85,434.86h33.84"/><path class="cls-4" d="M166.21,465.79l18.57-47.85"/><path class="cls-4" d="M213,394h31"/><path class="cls-4" d="M224.07,409.48a65.31,65.31,0,0,1,7.52-32.28"/><path class="cls-4" d="M221.54,338.57l21.18,5.5"/><path class="cls-4" d="M231,351.62a121.18,121.18,0,0,1,9.76-31.15"/><path class="cls-4" d="M220,278.3A128.64,128.64,0,0,0,248.23,277"/><path class="cls-4" d="M230.78,293.72a224.09,224.09,0,0,0,5-28"/><path class="cls-4" d="M309.81,304.52A42.93,42.93,0,0,0,330,310.09"/><path class="cls-4" d="M315.73,320.63a97.72,97.72,0,0,1,4.45-23.95"/><path class="cls-4" d="M303.23,365.89a110.54,110.54,0,0,1,26.83.94"/><path class="cls-4" d="M305.48,392.84a148,148,0,0,0,7.35-37"/><path class="cls-4" d="M252.45,385.47a61.35,61.35,0,0,1,25.39,4.25"/><path class="cls-4" d="M266.68,406.65a197.22,197.22,0,0,1,.93-35.29"/><path class="cls-4" d="M347.07,402l25.3,8.7"/><path class="cls-4" d="M356.45,424.94a77.35,77.35,0,0,1,13.61-34.8"/><path class="cls-4" d="M286.3,432l28.08,7.53"/><path class="cls-4" d="M294.52,446.44c2.12.52,3.58-2,4.26-4.09q3.8-11.66,7.61-23.31"/><path class="cls-4" d="M157,350.92l27.71,15"/><path class="cls-4" d="M158.4,375.76a76.4,76.4,0,0,1,26.08-38.56"/><path class="cls-4" d="M243.08,246.92q6.43-14.76,14-29"/><path class="cls-4" d="M239.89,224.27l22.5,5.88"/><path class="cls-4" d="M205.93,168.25a21.13,21.13,0,0,1,14,7.2"/><path class="cls-4" d="M207,183.72a118,118,0,0,1,14.66-23.63"/><path class="cls-4" d="M229.52,159.15c7.19-3.59,14.49-3,18.85-9.69a54.58,54.58,0,0,1-16.11-7.22"/><path class="cls-4" d="M169.68,539.68l26.09,15.75"/><path class="cls-4" d="M155.89,573.21c7.32-3.25,10.49-11.65,14.53-18.57a56.66,56.66,0,0,1,25.38-22.85"/><path class="cls-4" d="M315.84,499.86,337,509.79"/><path class="cls-4" d="M320.4,516.7a53.71,53.71,0,0,1,16.17-28.78"/><path class="cls-4" d="M339.85,566.08a29.88,29.88,0,0,1,15.48,14"/><path class="cls-4" d="M339.22,588.39a38.41,38.41,0,0,1,16.1-22.5"/><path class="cls-4" d="M273.3,572.92c-7,8.31-14.38,17.83-13.61,28.66"/><path class="cls-4" d="M251.75,582.84a50.61,50.61,0,0,1,24.08,5.51"/><path class="cls-4" d="M204.85,660.64l8.47-16.91"/><path class="cls-4" d="M198.57,641.58a34,34,0,0,0,27,18.13"/><path class="cls-4" d="M303.63,697.4a90.21,90.21,0,0,1,31.78-30.31"/><path class="cls-4" d="M306.62,667.23a101.22,101.22,0,0,0,21.63,28.87"/><path class="cls-4" d="M402.39,707.56A214.62,214.62,0,0,1,454,675.67"/><path class="cls-4" d="M423.58,676c-2.69,14.62,14.19,26.09,15.45,40.9"/><path class="cls-4" d="M377.41,465a126.58,126.58,0,0,0,19.46,17.24"/><path class="cls-4" d="M378.66,483.51a147.79,147.79,0,0,1,13.84-24.15"/><path class="cls-4" d="M228.46,723.94a83.76,83.76,0,0,0,21.39,19.39"/><path class="cls-4" d="M224.46,750.9,244,728.2"/><path class="cls-4" d="M233.92,487.22a69.67,69.67,0,0,0,25.66,17.95"/><path class="cls-4" d="M242.21,509.53a37.8,37.8,0,0,1,16-25.08"/><path class="cls-4" d="M243.81,180.6A25.91,25.91,0,0,0,258,165.51"/><path class="cls-4" d="M244.88,163.71a35.69,35.69,0,0,0,14.68,15.83"/><path class="cls-4" d="M253.77,129.06l19.65,10.05"/><path class="cls-4" d="M260.73,143a47.47,47.47,0,0,1,5.9-18.27"/><path class="cls-4" d="M276.07,160a20.81,20.81,0,0,0,14.44,15.5"/><path class="cls-4" d="M274.49,182.08l15.4-21.64"/><path class="cls-4" d="M258.08,198a37.47,37.47,0,0,0-19.73,2.73C242,193.84,258.11,205.85,258.08,198Z"/><path class="cls-4" d="M249.63,186.68v24"/><path class="cls-4" d="M190.7,253.07,182,275.55"/><path class="cls-4" d="M176.87,256.36a142.07,142.07,0,0,1,15.95,12.56"/><path class="cls-4" d="M173.33,230.09l1.9-22.22"/><path class="cls-4" d="M159.83,215.31A163.73,163.73,0,0,0,183,225.19"/></g></g></svg>