<svg xmlns="http://www.w3.org/2000/svg" viewBox="0 0 661.29 261.64"><defs><style>.cls-1,.cls-2{fill:none;stroke-miterlimit:10;}.cls-1{stroke:#fce300;stroke-width:2px;}.cls-2{stroke:#000;}</style></defs><g id="Слой_2" data-name="Слой 2"><g id="Слой_1-2" data-name="Слой 1"><path class="cls-1" d="M43.47,170.58c93,33.28,195.14-4,294-4.12,46.05-.08,91.72,8,137.7,10.63,55.71,3.18,111.53-1.66,167.12-6.49l-.62-91.23A1210.31,1210.31,0,0,1,424.35,70.1c-22.16-3-44.55-6.53-66.76-4-17.37,2-34.08,7.74-51.19,11.35C214.78,96.79,117.2,54.62,27.09,80L38.65,201.34l156.11-16.89c31-3.36,62.08-6.72,93.27-8,46.63-1.89,93.3.93,139.93,2.85q110.88,4.57,221.89,2.43,3.16-52.68,1.46-105.5c-19.21-2.73-38.69-2.74-58.09-2.73h-273l-285.37,0,9.73,135.93c18.58-20.38,51.52-7,79-4.9,18.86,1.43,37.55-3.36,56.09-7.09C264,180.55,350.81,185,436.65,188.18q87.65,3.28,175.35,4.77c10.12.17,20.75.21,29.65-4.62,17.55-9.51,20.95-33.54,17.37-53.18S647,96.29,649,76.42L465,70c-91.57-3.19-183.29-6.38-274.87-2.13-32.21,1.5-107.07-5.6-133.92,13C32,97.55,43.16,144.16,43.47,170.58Z"/><path class="cls-2" d="M254.94,44.61l-1-27.32c-3.21.24-7.71-3.83-8.73-6.88a7.51,7.51,0,0,1,3-8.45C250.75.37,253.92.43,256.87.55a4.19,4.19,0,0,1,1.92.39A3.8,3.8,0,0,1,260,2.32c1.79,2.87,2.85,6.46,1.75,9.66s-5,5.49-8,4"/><path class="cls-2" d="M252.92,25.59A25.56,25.56,0,0,0,243.17,33a7.41,7.41,0,0,0,5.62,1.66"/><path class="cls-2" d="M253.24,25.45a58,58,0,0,1,5.94,9.2l4.64-8.5"/><path class="cls-2" d="M254.8,45.19c5.21,1.51,9.68-5.69,15-4.86a54.17,54.17,0,0,0,3.29,10.48"/><path class="cls-2" d="M250.45,62.26a34.31,34.31,0,0,1,11.5-7.14c-2.4-3.51-5.07-6.77-7.48-10.28"/><path class="cls-2" d="M115.21,48.33a136.38,136.38,0,0,1-.62-25.42c-2.54-.08-4.07-2.27-6.61-2.35a13.36,13.36,0,0,1-1.69-13A12,12,0,0,1,117.73.64c5.93.43,10.69,6.38,9.46,11.83C126,17.61,120.83,21,115.83,23.31"/><path class="cls-2" d="M113.85,25.74c.35,3.85-4.38,8.45-7.38,10.9,5.23,2.2,9.51,6,13.82,9.71"/><path class="cls-2" d="M113.51,27.37l1.7,4.28a26.58,26.58,0,0,0,2.91,5.87c-.33-.7.74-1.16,1.51-1.28a8.07,8.07,0,0,0,5-2.9"/><path class="cls-2" d="M107,67.68l4.6-11.1.41-1,2.62-6.33a25.17,25.17,0,0,1,8.95-3.37l-1.89,8.52"/><path class="cls-2" d="M49.67,70.5l-.14-13.61c0-1.05-.18-2.35-1.16-2.74a2.69,2.69,0,0,0-1.53,0L35.31,56.58c-2.66,8.22-7.17,17.16-9.1,25.58"/><path class="cls-2" d="M35.18,57.71a10.49,10.49,0,0,1,.77-4.39l7-21.5c-2.1.28-3.81-1.58-5.11-3.25-2.64-3.41-5.43-7.76-3.73-11.72,3.12-7.29,16.8-6.8,19.65.45,1.57,4,2.92,8.68.83,12.44s-6.42,5-10.41,6.05A2.49,2.49,0,0,1,42,35.7a2.45,2.45,0,0,1-.62-.89l-1.59-3.23"/><path class="cls-2" d="M28.88,55a51,51,0,0,0-3.73-7.91c4.67.42,8.12-5.55,12.78-5,.45,4,4.8,7.38,7.3,10.5l8.7-10.42"/><path class="cls-2" d="M31.31,136.49c-.66.13-4.61.48-7.31.6-1.55.07-4.81-1.41-6.09-2.29-2.61-1.81-1.45-.13-5.46-7.28,2,4.53,5.46,1.82,9.77,2.65a18.5,18.5,0,0,1,8-10.07"/><path class="cls-2" d="M14.27,123.88c-3.37,1.27-7.5.27-10.44-2.2-2.11-1.77-3-4.6-3.26-7.34a13.58,13.58,0,0,1,2-8.93,8.38,8.38,0,0,1,8-3.69c3.69.66,6.21,4.23,7.25,7.83a19.55,19.55,0,0,1,.48,8.78A4.58,4.58,0,0,1,17,121.15c-.74.62-1,2.72-4.6,2.72"/><path class="cls-2" d="M12.45,123.88a253.24,253.24,0,0,1,.13,26.41"/><path class="cls-2" d="M12.93,149.37a16.76,16.76,0,0,0,7.32-3.55,3.37,3.37,0,0,1,1.26-.8A2.92,2.92,0,0,1,24,146.08a22.71,22.71,0,0,1,3.27,3.81c1,1.49,2.05,3.25,3.81,3.62"/><path class="cls-2" d="M12.32,149.9c1,2.12,3.7,2.69,6,2.8s5,.15,6.57,1.85a31.45,31.45,0,0,1,1.83,2.74c1.34,1.75,3.85,3.14,3.5,5.32l.4-1.42"/><path class="cls-2" d="M44.71,204.12c.35,4.93-.6,13.27-1.41,18.15"/><path class="cls-2" d="M38,217.65c3.16,1.31,5.39,4.3,6.58,7.51a37.45,37.45,0,0,1,1.73,10.1"/><path class="cls-2" d="M44.83,223.93c3.12-1.15,9.57-5.43,12-7.71"/><path class="cls-2" d="M24.13,219.48a7.54,7.54,0,0,0,7.14,3.22c5.35-.88,7.69-10,4.13-13.1a7.2,7.2,0,0,0-3.83-3.12c-5-1.33-9.5,5.94-8.66,10.22A7.21,7.21,0,0,0,24.13,219.48Z"/><path class="cls-2" d="M46.71,261.62c.69-13.43-.25-21.56-.17-27.48A54,54,0,0,0,56.88,247.3c1.87,1.74,2.79,5.59,4.34,7.62"/></g></g></svg>