<svg xmlns="http://www.w3.org/2000/svg" viewBox="0 0 85.51 71.01"><defs><style>.cls-1,.cls-2,.cls-3{fill:none;stroke:#000;stroke-miterlimit:10;}.cls-2{stroke-width:0.25px;}.cls-3{stroke-width:0.75px;}</style></defs><g id="Слой_2" data-name="Слой 2"><g id="Слой_1-2" data-name="Слой 1"><path class="cls-1" d="M2.93,15.11,3.65,64a1.42,1.42,0,0,0,.3,1,1.41,1.41,0,0,0,.91.27,705,705,0,0,0,77.25.24Q81.65,39.24,79,13L61.33,8.16a7.3,7.3,0,0,0-4-.31,11.29,11.29,0,0,0-2.82,1.74c-6.31,4.3-14.7.47-22.3-.36a27.3,27.3,0,0,0-15.33,2.84,17.22,17.22,0,0,1-4.51,2c-1.76.33-3.61-.07-5.36.3-3,.62-5.16,3.41-6,6.37S.52,26.78.84,29.82L4.13,61.23a5.38,5.38,0,0,0,.68,2.49c1.24,1.85,4,1.46,6.18,1.81a23.1,23.1,0,0,1,4.48,1.52c5.25,2,11,2.1,16.62,2.18l35,.48c7.14.1,9.61,2.46,15.58-1.46-5.25-3.36-.38-13.18-.09-19.4l1.16-25c.18-4,0-8.64-3.26-10.84-1.69-1.14-3.83-1.3-5.86-1.43l-31.88-2c-12-.77-24.87-1.32-35.08,5a9.19,9.19,0,0,0-4,4.08,10.7,10.7,0,0,0-.57,3.15q-1.4,18-1.46,36c0,1.85,0,3.83,1.1,5.35,2.15,3,6.7,2.37,10.42,2.57C17.73,66,22,68,26.48,68.6A45.42,45.42,0,0,0,37,68.34a409.41,409.41,0,0,1,47.1-1.91c3.1-12.27-3.3-25-2.65-37.64.19-3.75,1-7.66-.43-11.14C79,12.6,73,10.36,67.52,10.11c-7.21-.33-14.3,1.79-21.5,2.34s-14.54-.51-21.75-1.56l-20.15-3a160.31,160.31,0,0,0-.5,60.3"/><path class="cls-2" d="M18.23,35.06c3-.47,6,.1,9,.68a38.4,38.4,0,0,1,.57-7.29,5.41,5.41,0,0,1-2.32-.24c-2.23-.45-4.56.06-6.81-.29a28.58,28.58,0,0,0-.12,6.74.51.51,0,0,0,.11.32c.13.14.36.09.54,0a7.34,7.34,0,0,1,4.21.63c1.09.41,2.41.81,3.34.1a3.14,3.14,0,0,0,.94-2.16,13.25,13.25,0,0,0-.37-5.68h-4a7.32,7.32,0,0,1-1.47-.1c-.69-.14-1.33-.48-2-.58A1.66,1.66,0,0,0,18,28a2.19,2.19,0,0,0-.12.88q0,3.08,0,6.17a.41.41,0,0,0,.49.5l6.34.45c.93.07,2,.05,2.57-.71a2.62,2.62,0,0,0,.36-1.14A32.76,32.76,0,0,0,28,30.28a2.65,2.65,0,0,0-.14-1.13,2.8,2.8,0,0,0-1.78-1.26c-1.9-.68-4.85-1.63-6.47.17C18.13,29.69,18.42,33,18.23,35.06Z"/><path class="cls-2" d="M37.33,35.4c3-.47,6,.1,9,.68a38.39,38.39,0,0,1,.57-7.29,5.41,5.41,0,0,1-2.32-.24c-2.23-.45-4.56.06-6.81-.29A28.59,28.59,0,0,0,37.65,35a.52.52,0,0,0,.11.32c.13.14.36.09.54,0a7.34,7.34,0,0,1,4.21.63c1.09.41,2.41.81,3.34.1a3.14,3.14,0,0,0,.94-2.16,13.25,13.25,0,0,0-.37-5.68h-4a7.31,7.31,0,0,1-1.48-.1c-.69-.14-1.33-.48-2-.58a1.66,1.66,0,0,0-1.81.76,2.19,2.19,0,0,0-.12.88q0,3.08,0,6.16a.42.42,0,0,0,.49.5l6.34.45c.93.07,2,.05,2.57-.71a2.61,2.61,0,0,0,.36-1.14,32.71,32.71,0,0,0,.33-3.87A2.65,2.65,0,0,0,47,29.48a2.8,2.8,0,0,0-1.78-1.26c-1.9-.68-4.85-1.63-6.47.17C37.23,30,37.52,33.39,37.33,35.4Z"/><path class="cls-2" d="M57,35.53c3-.47,6,.1,9,.68a38.4,38.4,0,0,1,.57-7.29,5.41,5.41,0,0,1-2.32-.24c-2.23-.45-4.56.06-6.81-.29a28.59,28.59,0,0,0-.12,6.74.51.51,0,0,0,.11.32c.13.14.36.09.54,0a7.34,7.34,0,0,1,4.21.63c1.09.41,2.41.81,3.34.1a3.14,3.14,0,0,0,.94-2.16,13.25,13.25,0,0,0-.37-5.68h-4a7.33,7.33,0,0,1-1.48-.1c-.69-.14-1.33-.48-2-.58a1.66,1.66,0,0,0-1.81.76,2.19,2.19,0,0,0-.12.88q0,3.08,0,6.17a.41.41,0,0,0,.49.5l6.34.45c.93.07,2,.05,2.57-.71a2.62,2.62,0,0,0,.36-1.14,32.74,32.74,0,0,0,.33-3.87,2.65,2.65,0,0,0-.14-1.13,2.8,2.8,0,0,0-1.78-1.26c-1.9-.68-4.85-1.63-6.47.16C56.89,30.17,57.18,33.52,57,35.53Z"/><path class="cls-2" d="M19.41,47.22c3-.47,6,.1,9,.68A38.4,38.4,0,0,1,29,40.62a5.41,5.41,0,0,1-2.32-.24c-2.23-.45-4.56.06-6.81-.29a28.59,28.59,0,0,0-.12,6.74.52.52,0,0,0,.11.32c.13.14.36.09.54,0a7.34,7.34,0,0,1,4.21.63c1.09.41,2.41.81,3.34.1a3.14,3.14,0,0,0,.94-2.16,13.25,13.25,0,0,0-.37-5.68h-4A7.33,7.33,0,0,1,23,40c-.69-.14-1.33-.48-2-.58a1.66,1.66,0,0,0-1.81.76,2.19,2.19,0,0,0-.12.88l0,6.16a.41.41,0,0,0,.49.5l6.34.45c.93.07,2,.05,2.57-.71a2.62,2.62,0,0,0,.36-1.14,32.74,32.74,0,0,0,.33-3.87A2.65,2.65,0,0,0,29,41.31a2.8,2.8,0,0,0-1.78-1.26c-1.9-.68-4.85-1.63-6.47.17C19.31,41.86,19.6,45.21,19.41,47.22Z"/><path class="cls-2" d="M38.52,47.56c3-.47,6,.1,9,.68A38.39,38.39,0,0,1,48.08,41a5.4,5.4,0,0,1-2.32-.24c-2.23-.45-4.56.06-6.81-.29a28.59,28.59,0,0,0-.12,6.74.52.52,0,0,0,.11.32c.13.14.36.09.54,0a7.34,7.34,0,0,1,4.21.63c1.09.41,2.41.81,3.34.1A3.14,3.14,0,0,0,48,46.09a13.25,13.25,0,0,0-.37-5.68h-4a7.32,7.32,0,0,1-1.47-.1c-.69-.14-1.33-.48-2-.58a1.66,1.66,0,0,0-1.81.76,2.19,2.19,0,0,0-.12.88l0,6.17a.41.41,0,0,0,.49.5L45,48.5c.93.07,2,.05,2.57-.71a2.62,2.62,0,0,0,.36-1.14,32.76,32.76,0,0,0,.33-3.87,2.66,2.66,0,0,0-.14-1.13,2.8,2.8,0,0,0-1.78-1.26c-1.9-.68-4.85-1.63-6.47.17C38.41,42.2,38.7,45.55,38.52,47.56Z"/><path class="cls-2" d="M58.18,47.7c3-.47,6,.1,9,.68a38.39,38.39,0,0,1,.57-7.29,5.41,5.41,0,0,1-2.32-.24c-2.23-.45-4.56.06-6.81-.29a28.59,28.59,0,0,0-.12,6.74.51.51,0,0,0,.11.32c.13.14.36.09.54,0a7.34,7.34,0,0,1,4.21.63c1.09.41,2.41.81,3.34.1a3.14,3.14,0,0,0,.94-2.16,13.25,13.25,0,0,0-.37-5.68h-4a7.32,7.32,0,0,1-1.47-.1c-.69-.14-1.33-.48-2-.58a1.66,1.66,0,0,0-1.81.76,2.19,2.19,0,0,0-.12.88q0,3.08,0,6.17a.41.41,0,0,0,.49.5l6.34.45c.93.07,2,.05,2.57-.71a2.61,2.61,0,0,0,.36-1.14,32.74,32.74,0,0,0,.33-3.87,2.65,2.65,0,0,0-.14-1.13A2.8,2.8,0,0,0,66,40.52c-1.9-.68-4.85-1.63-6.47.17C58.08,42.33,58.37,45.69,58.18,47.7Z"/><path class="cls-2" d="M19.32,60.58c3-.47,6,.1,9,.68A38.39,38.39,0,0,1,28.89,54a5.41,5.41,0,0,1-2.32-.24c-2.23-.45-4.56.06-6.81-.29a28.58,28.58,0,0,0-.12,6.74.51.51,0,0,0,.11.32c.13.14.36.09.54,0a7.34,7.34,0,0,1,4.21.63c1.09.41,2.41.81,3.34.1a3.14,3.14,0,0,0,.94-2.16,13.25,13.25,0,0,0-.37-5.68h-4a7.33,7.33,0,0,1-1.47-.1c-.69-.14-1.33-.48-2-.58a1.66,1.66,0,0,0-1.81.76,2.19,2.19,0,0,0-.12.88l0,6.17a.41.41,0,0,0,.49.5l6.34.45c.93.07,2,.05,2.57-.71a2.62,2.62,0,0,0,.36-1.14,32.74,32.74,0,0,0,.33-3.87,2.66,2.66,0,0,0-.14-1.13,2.8,2.8,0,0,0-1.78-1.26c-1.9-.68-4.85-1.63-6.47.16C19.22,55.21,19.51,58.57,19.32,60.58Z"/><path class="cls-2" d="M38.43,60.92c3-.47,6,.1,9,.68A38.39,38.39,0,0,1,48,54.31a5.41,5.41,0,0,1-2.32-.24c-2.23-.45-4.56.06-6.81-.29a28.58,28.58,0,0,0-.12,6.74.51.51,0,0,0,.11.32c.13.14.36.09.54,0a7.34,7.34,0,0,1,4.21.63c1.09.41,2.41.81,3.34.1a3.14,3.14,0,0,0,.94-2.16,13.25,13.25,0,0,0-.37-5.68h-4a7.32,7.32,0,0,1-1.47-.1c-.69-.14-1.33-.48-2-.58a1.66,1.66,0,0,0-1.81.76,2.19,2.19,0,0,0-.12.88l0,6.17a.41.41,0,0,0,.49.5l6.34.45c.93.07,2,.05,2.57-.71A2.62,2.62,0,0,0,47.86,60a32.74,32.74,0,0,0,.33-3.87A2.65,2.65,0,0,0,48,55a2.8,2.8,0,0,0-1.78-1.26c-1.9-.68-4.85-1.63-6.47.17C38.32,55.55,38.61,58.91,38.43,60.92Z"/><path class="cls-2" d="M58.14,60.05c3-.47,6,.1,9,.68a38.39,38.39,0,0,1,.57-7.29,5.41,5.41,0,0,1-2.32-.24c-2.23-.45-4.56.06-6.81-.29a28.59,28.59,0,0,0-.12,6.74.52.52,0,0,0,.11.32c.13.14.36.09.54,0a7.34,7.34,0,0,1,4.21.63c1.09.41,2.41.81,3.34.1a3.14,3.14,0,0,0,.94-2.16,13.25,13.25,0,0,0-.37-5.68h-4a7.33,7.33,0,0,1-1.47-.1c-.69-.14-1.33-.48-2-.58a1.66,1.66,0,0,0-1.81.76,2.19,2.19,0,0,0-.12.88q0,3.08,0,6.17a.41.41,0,0,0,.49.5l6.34.45c.93.07,2,.05,2.57-.71a2.62,2.62,0,0,0,.36-1.14,32.74,32.74,0,0,0,.33-3.87,2.66,2.66,0,0,0-.14-1.13A2.8,2.8,0,0,0,66,52.88c-1.9-.68-4.85-1.63-6.47.17C58,54.69,58.33,58,58.14,60.05Z"/><path class="cls-1" d="M2.23,21.89A321.62,321.62,0,0,1,50,22.07c9.8.77,20,1.92,29.15-1.76a11.6,11.6,0,0,0-.37-1.73c-1.3-4-6.19-5.31-10.34-6L50.2,9.5c-3.1-.52-6.27-1-9.36-.49-2.47.44-4.76,1.55-7.15,2.32a53.49,53.49,0,0,1-11.57,1.93L6.4,14.7c-2.3.21-5.28,1.11-5.26,3.43a244.8,244.8,0,0,1,35.72.5c1.69.15,3.38.31,5.08.37,3.73.13,7.46-.26,11.19-.39A82.5,82.5,0,0,1,68,19.43c3.2.47,6.72,1.06,9.45-.67L68,13.83a7.57,7.57,0,0,0-2.47-.95,9.18,9.18,0,0,0-3.17.41,43.09,43.09,0,0,1-9.49.7H27.58c-8,0-16.34.07-23.48,3.68a2.89,2.89,0,0,0-1.18.9c-.66,1,.15,2.44,1.26,2.87a6,6,0,0,0,3.53-.11,159.5,159.5,0,0,1,16.45-3.57c3.65-.48,7.34-.61,11-.74l9.17-.32c9.8-.35,19.6-.69,29.4-.67"/><path class="cls-3" d="M17.37,11.82l.39-8.59a3.06,3.06,0,0,1,.41-1.7c.76-1,2.57-.62,3.25.47a5.37,5.37,0,0,1,.34,3.77,8,8,0,0,0-.12,3.83c-.45-1.2.06-2.51.28-3.77s-.11-2.89-1.35-3.21C19.07,2.24,18,4.17,18,5.72s.44,3.28-.45,4.56L17.66,6c0-1.55.41-3.51,1.92-3.85,1.74-.39,2.89,1.81,3,3.59s-.11,3.87,1.26,5"/><path class="cls-3" d="M38.34,9.17c-.36-1.84-.7-3.82.05-5.54S41.47.77,43,1.9l-.29,5.53a4.41,4.41,0,0,0,.14-4.82,3,3,0,0,0-4.44-.5,4.5,4.5,0,0,0-.91,2.34,25.25,25.25,0,0,0-.23,6.41,12.15,12.15,0,0,1,.14-5.92c.69-1.87,2.7-3.42,4.62-2.88l.33,3.79"/><path class="cls-3" d="M57.77,8.52c-.06-2.82.28-6.29,2.87-7.4A2.18,2.18,0,0,1,62.32,1c1.1.46,1.29,1.91,1.31,3.1l.1,5.3c-.53-1.47,0-3.08.3-4.62s.08-3.46-1.31-4.18C61-.28,59,1.49,58.47,3.36s-.23,3.91-.85,5.74a12.28,12.28,0,0,1,1.5-4.34,4.18,4.18,0,0,1,3.87-2,1.16,1.16,0,0,1,.82.41,1.43,1.43,0,0,1,.15.91l-.35,5.7"/></g></g></svg>