<svg xmlns="http://www.w3.org/2000/svg" viewBox="0 0 71.78 71.63"><defs><style>.cls-1,.cls-2{fill:none;stroke:#000;stroke-miterlimit:10;}.cls-1{stroke-width:0.75px;}</style></defs><g id="Слой_2" data-name="Слой 2"><g id="Слой_1-2" data-name="Слой 1"><path class="cls-1" d="M1.62,46.14c-4-11.67,2.07-25,10.56-33a46.53,46.53,0,0,1,9-7.15c7.58-4.22,17-3.85,25.25-1.08,8.66,2.92,16.65,8.63,20.81,16.77C70,27.2,71,33.48,71.4,39.66c-3.18,3.58-2.83,9-4.22,13.54-2.26,7.49-9.34,12.73-16.84,14.93S34.85,70,27,69.65l-2.31-.1c-5.44-.25-11.55-.82-15-5-2.47-3-2.91-7.14-3.25-11L5.35,40.76C4.7,33.47,4.12,25.81,7.14,19.15c1.67-3.7,4.35-6.83,7-9.91A28.82,28.82,0,0,1,20.6,3.12C25.28.25,31.13.29,36.62.42c5.7.13,11.67.34,16.64,3.14,3.62,2,6.37,5.3,8.9,8.6,3.8,5,7.36,10.48,7.91,16.7.32,3.61-.41,7.23-1.13,10.78C67.15,48.46,65,58,58.09,63.76c-7.84,6.63-19.31,6.34-29.46,4.81-5-.75-10.1-1.77-14.37-4.47C8.7,60.58,5.11,54.44,3.66,48S2.72,34.85,4,28.38C5,23,6.7,17.47,10.41,13.4a31,31,0,0,1,7.88-5.82C23.42,4.67,29,2.17,34.87,1.92c7.31-.31,14.65,2.86,21.8,1.34C61.32,14,67.85,22.37,69,34.2c1,9.75-.27,21.54-7.37,29C44.79,80.77,8.78,67.16,1.62,46.14Z"/><path class="cls-2" d="M32.06,10.14c0-.63.31-1.44,1.1-1.47a179,179,0,0,0,3,33.1,119.86,119.86,0,0,1-2-34c1.94,9.61,5.13,25.17.39,34.07C31.78,31.55,31.35,20.61,32.06,10.14Z"/><path class="cls-2" d="M36.42,41.78a54.5,54.5,0,0,1,21.89-4l1,2.24q-12.75.8-25.55,1l13.61-2.42a19.77,19.77,0,0,1,4.11-.44c3.76.13,7.55,2.34,11,1.14-.48-1.68-3.23-2.29-5.31-1.82s-3.79,1.62-5.77,2.31c-5.34,1.85-11.77,0-17.22,1.66a38.92,38.92,0,0,1,14.73-1.64"/></g></g></svg>