<svg xmlns="http://www.w3.org/2000/svg" viewBox="0 0 259.56 99.34"><defs><style>.cls-1{fill:none;stroke:#000;stroke-miterlimit:10;stroke-width:2px;}</style></defs><g id="Слой_2" data-name="Слой 2"><g id="Слой_1-2" data-name="Слой 1"><path class="cls-1" d="M4.56,13.52c0,27-5.26,58.25-3,84"/><path class="cls-1" d="M58.79,19.84C61,32.28,71.56,55.6,85.56,56.85c22.51,2,16.22-34.56,15.23-49-2.91,15.27-9.3,94.79-34.08,90"/><path class="cls-1" d="M1.57,66C1.08,45.7,28,36.32,28.56,15"/><path class="cls-1" d="M130.56,12c0,27.73-7.67,55.76-6,81.82,0-14.77,5.85-106.94,31.12-66.9,3.84,6.09,9.41,27,3.56,33.55-9.42,10.57-31.34-1.34-37.68-9.47"/><path class="cls-1" d="M3.06,55.51c12.86,3.11,32,26.79,33,40.5"/><path class="cls-1" d="M202.56,18c-26.13-11.91-26.36,34-27,48-.52,11.3-.21,21.93,13.5,23.67,10.72,1.36,19.8-5.26,19.5-16.2"/><path class="cls-1" d="M228.2,17c.53,24.94-2.59,50-.24,74.93,15.68-15.45,24.77-56.05,30.24-77.67,1.75,11.37-3.41,30.67-3.06,45.37.31,13.23.88,26.46,1.32,39.68l-.67-20.2"/></g></g></svg>