<svg xmlns="http://www.w3.org/2000/svg" viewBox="0 0 265.17 88.64"><defs><style>.cls-1{fill:none;stroke:#000;stroke-miterlimit:10;stroke-width:2px;}</style></defs><g id="Слой_2" data-name="Слой 2"><g id="Слой_1-2" data-name="Слой 1"><path class="cls-1" d="M1,1.08C6.22,26.81,11.48,52.73,11.4,78.91c-2.51-12.28-5-25.11-1.17-37.1,3.16-9.92,10.35-18.25,17.26-26.39C31,11.24,34.77,6.2,33.33,1.06c1.9-.53,1.82,2.6.64,4.06L12.68,31.5c1.17,3.69,1.85,13.47,5.66,15A58.18,58.18,0,0,1,45.75,69.14"/><path class="cls-1" d="M61.55,3.08a83.07,83.07,0,0,0,3.88,21.59c1,3.23,2.49,6.67,5.64,8.39,5.84,3.17,13.38-1.81,15.8-7.65S88.76,13,90.77,7.07c-1.91,9.71-.5,19.68-.07,29.55s-.3,20.25-5.9,28.67-17.37,14-27.34,10.43l-.1-3.58"/><path class="cls-1" d="M112,3.11q5.43,36.72,8.77,73.7l-2.07-41.16c-.27-5.26-.52-10.66,1.09-15.68s5.48-9.68,10.69-10.69c6.44-1.26,12.89,3.55,15.43,9.55s2,12.84.87,19.25L119,45.21"/><path class="cls-1" d="M185.24,5.82c-7.62-5.78-18.83-1.94-23.05,7.89a37.65,37.65,0,0,0-2.43,9.76,85.53,85.53,0,0,0,4.43,41.05c1.33,3.54,3,7,5.5,9.36,4,3.65,9.57,3.6,14.21,1.41s8.55-6.2,12.38-10.15"/><path class="cls-1" d="M207.85,3.11l3.6,66.34L211.94,37c.06-3.88,2.72-9.37,5.85-7.25,4.54-8.19,12.67-2.89,19.74,3.07,7.29,6.14,11.71,16.19,10.12,25.77s-9.81,17.92-19.2,18.17c-4.21.11-8.62-1.45-11.25-4.85"/><path class="cls-1" d="M261.85,3.11a301.06,301.06,0,0,0,2.33,73.7"/></g></g></svg>