<svg xmlns="http://www.w3.org/2000/svg" viewBox="0 0 92.2 68.3"><defs><style>.cls-1{fill:none;stroke:#000;stroke-miterlimit:10;stroke-width:2px;}</style></defs><g id="Слой_2" data-name="Слой 2"><g id="Слой_1-2" data-name="Слой 1"><path class="cls-1" d="M3.68,58.67A471.69,471.69,0,0,0,90.82,65l.37-49.53c0-2.63,0-5.41-1.42-7.69C87.7,4.41,83.28,3.1,79.22,2.3,64.35-.62,29.2,1.78,5.5,5.41-.28,6.29,0,58.05,3.68,58.67Z"/><path class="cls-1" d="M2.46,6.64l54.36,34.3c-1.37-5.08,4.3-9.11,8.76-12.3A51.41,51.41,0,0,0,84.94,1.91"/><path class="cls-1" d="M5,9.35a378.34,378.34,0,0,1-1.6,57c9.67,2.61,19.86-.78,29.69-2.83A111.36,111.36,0,0,1,85,65.17"/><path class="cls-1" d="M5.8,62.9c9.45.86,18.55-3.67,26-9.2S45.6,41.5,53.64,36.79C61.93,50.37,84.51,53,90.48,67.62"/></g></g></svg>