<svg xmlns="http://www.w3.org/2000/svg" viewBox="0 0 77.18 71.56"><defs><style>.cls-1{fill:none;stroke:#fce300;stroke-miterlimit:10;stroke-width:0.75px;}</style></defs><title>Ресурс 2</title><g id="Слой_2" data-name="Слой 2"><g id="Слой_1-2" data-name="Слой 1"><path class="cls-1" d="M11.53,18.68C8,22.37,4.35,26.16,2.2,30.81c-1.7,3.68-2.55,8.43-1,12.32S6,49.66,7.67,53.29c1.9,4,2.77,7.1,6.82,9.71,7.09,4.57,18.36,6.42,26.65,6.67,7.23.22,14.79-1.58,20.18-6.41,4-3.61,6.53-8.61,8.33-13.7,3.3-9.39,7-24.9,1.09-34C68,11.27,63,8.94,58,7.72c-14.51-3.55-30.06.73-42.85,8.46C9.62,19.51,4.25,23.78,2,29.79-.1,35.19.63,41.22,1.47,46.94c.45,3.07,1,6.31,3.05,8.64,2.19,2.52,5.62,3.46,8.73,4.67,8.14,3.15,15.32,8.87,23.89,10.49,11,2.08,22.54-3.31,30-11.71,8.1-9.16,12-22.34,8.22-34.23C72.5,16,65.18,8.51,56.17,6.27c-8.6-2.14-17.6.4-26.46.43-4.45,0-9.12-.56-13.18,1.27-3.1,1.39-5.44,4-7.46,6.76C4.78,20.5,1.4,27.25,1.12,34.43.67,45.56,7.83,55.86,16.89,62.32,26.2,69,38.53,72.38,49.27,68.47c8.8-3.21,15.41-10.93,19.07-19.56C73.51,36.7,77,18.09,66.62,7.6,62.41,3.35,56.37,1.37,50.42.67,31.75-1.5,12.21,8.32,3.76,25.31c-1.84,3.71-3.19,8-1.91,12,1,3.12,3.55,5.61,4.35,8.79.85,3.37-.38,6.93,0,10.38.6,5,4.57,9,9,11.28A26.24,26.24,0,0,0,29.92,70.5c5.61-.58,11-3,16.64-2.76,2.73.1,5.49.82,8.16.27,4.12-.85,7-4.44,9.47-7.86,4.3-6,8.35-12.4,10.43-19.51s2-15.13-1.62-21.59A28.07,28.07,0,0,0,61.15,8.25a39.94,39.94,0,0,0-34.09-1A40,40,0,0,0,7.42,26.64c-4.66,9.87-2,21.38.08,31.65"/></g></g></svg>