<svg xmlns="http://www.w3.org/2000/svg" viewBox="0 0 221.92 13.32"><defs><style>.cls-1{fill:#fff;stroke:#fff4f4;stroke-miterlimit:10;stroke-width:2px;}</style></defs><title>Ресурс 1</title><g id="Слой_2" data-name="Слой 2"><g id="Слой_1-2" data-name="Слой 1"><g id="Слой_2-2" data-name="Слой 2"><g id="Слой_1-2-2" data-name="Слой 1-2"><path class="cls-1" d="M16.26,4.43H220.72c-.5,2.74-3.86,3.34-7.25,3.55a289.14,289.14,0,0,1-67-3.65C138.92,3,131.35,1.38,123.6,1.06,114.28.68,105,2.19,95.82,3.47A549.91,549.91,0,0,1,9.14,8.59c7.36.14,14.72.78,22.08.92H98.53c7.8,0,15.24-1.83,23-2.58a86.43,86.43,0,0,1,14.83.28c13.52,1,27.18,1.27,40.71,2.3h36.17C207.85,4.87,199.85,4.43,192,4.43H158.36c-14.23,2.83-29,3.05-43.63,3.05H93.54c-9.28,4.09-20.65,1.21-31.16.34a168.81,168.81,0,0,0-21.1,0L6.36,9.41c18.88-7,41.29-.18,61.55-3.77C76.94,4,86.3.39,95,3c4.71,1.41,8.35,4.5,12.74,6.48,18.7,8.48,42-5.1,63-1.6"/></g></g></g></g></svg>