<svg xmlns="http://www.w3.org/2000/svg" viewBox="0 0 221.9 13.32"><defs><style>.cls-1{fill:none;stroke:#fce300;stroke-miterlimit:10;stroke-width:2px;}</style></defs><g id="Слой_2" data-name="Слой 2"><g id="Слой_1-2" data-name="Слой 1"><path class="cls-1" d="M16.25,4.43H220.71c-.5,2.74-3.86,3.34-7.25,3.55a288.93,288.93,0,0,1-67-3.65C138.91,3,131.34,1.38,123.59,1.06,114.27.68,105,2.19,95.81,3.47A550,550,0,0,1,9.13,8.59c7.36.14,14.72.78,22.08.92H98.52c7.8,0,15.24-1.83,23-2.58a86.49,86.49,0,0,1,14.83.28c13.52,1,27.18,1.27,40.71,2.3h36.17C207.84,4.87,199.84,4.43,192,4.43H158.35c-14.23,2.83-29,3.05-43.63,3.05H93.53c-9.28,4.09-20.65,1.21-31.16.34a168.82,168.82,0,0,0-21.1,0L6.35,9.41c18.88-7,41.29-.18,61.55-3.77C76.93,4,86.29.39,95,3c4.71,1.41,8.35,4.5,12.74,6.48,18.7,8.48,42-5.1,63-1.6"/></g></g></svg>