<svg xmlns="http://www.w3.org/2000/svg" viewBox="0 0 1696.88 726.74"><defs><style>.cls-1,.cls-4{isolation:isolate;font-size:338.96px;font-family:TimesNewRomanPSMT, Times New Roman;}.cls-1,.cls-2{fill:#fce300;}.cls-3,.cls-4{fill:#fff;}.cls-3,.cls-5{stroke:#000;stroke-miterlimit:10;stroke-width:3px;}.cls-5{fill:none;}</style></defs><title>Ресурс 3</title><g id="Слой_2" data-name="Слой 2"><g id="Слой_1-2" data-name="Слой 1"><text class="cls-1" transform="translate(285.64 621.56) scale(1.03 1)">ellow</text><path class="cls-2" d="M280.37,135.52q12.25-14.07,24.15-28.41c8-9.51,15.86-19.17,24.21-28.49,2.09-2.33,4.17-4.67,6.31-7s4.28-4.58,6.45-6.85c4.36-4.51,8.86-8.88,13.41-13.21,2.28-2.15,4.61-4.26,6.91-6.39l7-6.26c4.69-4.15,9.52-8.16,14.46-12.1s10.06-7.74,15.42-11.27A134.68,134.68,0,0,1,415.54,6c2.95-1.4,6-2.64,9-3.78l.57-.22.66-.22,1.35-.43c.91-.24,1.82-.5,2.74-.66A35.62,35.62,0,0,1,435.4,0a43,43,0,0,1,20.72,5A51.33,51.33,0,0,1,465,10.76a44.77,44.77,0,0,1,7.46,7.61,34.2,34.2,0,0,1,5.34,9.91,28.25,28.25,0,0,1,1.2,5.89,37,37,0,0,1,0,5.57,65.55,65.55,0,0,1-5.17,19.7A129.51,129.51,0,0,1,465,76.72c-1.63,2.75-3.43,5.51-5.22,8.08s-3.63,5.18-5.48,7.73c-3.71,5.08-7.49,10.08-11.39,15-7.78,9.82-15.8,19.4-24,28.83-16.36,18.85-33.26,37.16-50.42,55.23s-34.67,35.78-53,52.75c-4.56,4.24-9.19,8.44-13.89,12.54s-9.43,8.21-14.29,12.16a267.34,267.34,0,0,1-30.62,22.07,106.86,106.86,0,0,1-17.3,8.61c-1.56.54-3.09,1.14-4.73,1.56-.82.21-1.6.49-2.45.65l-2.51.52a31.78,31.78,0,0,1-10.79.13,20.86,20.86,0,0,1-10.53-5.1c-.71-.68-1.37-1.41-2-2.14s-1.14-1.54-1.71-2.32a21.38,21.38,0,0,1-2.6-5.19,25.06,25.06,0,0,1-1.29-5.54,30.51,30.51,0,0,1-.22-5.49,46.77,46.77,0,0,1,1.64-10.3,88.8,88.8,0,0,1,7.42-18.33,184.38,184.38,0,0,1,10-16.48,333.59,333.59,0,0,1,23.24-30c8.21-9.55,16.77-18.77,25.57-27.72q6.61-6.69,13.42-13.22l13.47-12.87c17.84-17.25,35.74-34.61,54.48-51.26,9.42-8.28,19-16.48,29.3-24A128.12,128.12,0,0,1,395.7,62a48.54,48.54,0,0,1,4.89-2.18,29.42,29.42,0,0,1,5.83-1.59c.59-.06,1.17-.13,1.77-.17s1.26,0,2,0a13.36,13.36,0,0,1,2.18.34c.39.1.76.19,1.15.32a11.79,11.79,0,0,1,1.18.49,11.93,11.93,0,0,1,2.24,1.38,12.87,12.87,0,0,1,1.77,1.77,13.47,13.47,0,0,1,2.15,3.82,16.34,16.34,0,0,1,.78,7.53,25.82,25.82,0,0,1-1.48,5.89A53.22,53.22,0,0,1,415.43,89a136.77,136.77,0,0,1-11.62,15.66c-8.26,9.72-17.12,18.64-26.08,27.38s-18.2,17.13-27.15,25.64-17.88,17.2-26.78,25.88C306,201,288.29,218.41,270.13,235.44l-.93-.9C285.73,215.93,302.25,197.35,319,179l12.64-13.78q6.38-6.84,12.84-13.6c8.67-9,17.43-17.81,26-26.74s16.84-18,24.38-27.53A126.65,126.65,0,0,0,405.1,82.76a41,41,0,0,0,3.46-7.3,13.47,13.47,0,0,0,.72-3.15,3.75,3.75,0,0,0-.15-1.66c-.08-.09-.08-.16-.17-.21s0,.1.13.12a.43.43,0,0,1,.25.19.11.11,0,0,0,.11,0H409a3.45,3.45,0,0,1-.55.07,16.93,16.93,0,0,0-3.12,1,39,39,0,0,0-3.58,1.69,115.25,115.25,0,0,0-14.63,9.71c-9.59,7.33-18.91,15.39-28.06,23.63-18.35,16.48-36.15,33.75-54.37,50.75L291,170.29q-6.75,6.28-13.35,12.76c-8.78,8.62-17.34,17.46-25.52,26.6A341.18,341.18,0,0,0,229,238.17a172.17,172.17,0,0,0-9.71,15.19,85.31,85.31,0,0,0-7.11,15.92c-1.67,5.37-2.32,10.89-.93,15.4a12.19,12.19,0,0,0,1.42,3.19c.33.48.6,1,1,1.48l1.11,1.29a11.59,11.59,0,0,0,5.91,3.18,23.25,23.25,0,0,0,7.76.23,48.43,48.43,0,0,0,8.33-1.94,99.19,99.19,0,0,0,16.41-7.24,242.54,242.54,0,0,0,30.74-20.23c9.86-7.42,19.36-15.39,28.61-23.63s18.24-16.81,27.08-25.51q6.63-6.54,13.06-13.26c4.32-4.46,8.53-9,12.74-13.57,16.8-18.28,32.72-37.35,47.94-56.92,7.58-9.8,15-19.71,22.15-29.8,3.55-5,7.1-10.09,10.49-15.21s6.69-10.29,9.58-15.48a132.38,132.38,0,0,0,7.66-16.09,58,58,0,0,0,4.1-16.28,25.94,25.94,0,0,0,0-3.74,17.71,17.71,0,0,0-.64-3.29,22.45,22.45,0,0,0-3.51-6.4,38,38,0,0,0-12.28-10.18,32.28,32.28,0,0,0-15.11-3.89,23.2,23.2,0,0,0-3.72.36c-.61.09-1.2.26-1.8.4l-.88.26-.45.14-.52.19c-2.77,1-5.52,2.06-8.21,3.29-10.82,4.8-21,11.44-30.73,18.78-4.89,3.67-9.69,7.53-14.5,11.39l-7.15,5.87-7,6q-7,6.07-13.7,12.4-3.37,3.15-6.7,6.38c-2.22,2.13-4.4,4.33-6.59,6.51-8.77,8.81-17.31,17.81-26,26.81S290.43,128,281.31,136.44Z"/><path class="cls-2" d="M1.09,23l15,15,15,15.16Q46,68.38,60.54,83.87t28.76,31.3q14.27,15.78,27.76,32.25c17.94,22,34.72,45,52.33,67.25,8.77,11.17,17.66,22.23,26.28,33.57,2.13,2.86,4.31,5.69,6.38,8.61l3.12,4.39,3,4.53c1,1.55,1.87,3.18,2.81,4.77l1.27,2.52c.41.85.76,1.7,1.15,2.56A104.25,104.25,0,0,1,217.11,286a215.19,215.19,0,0,1,5.12,21.09q1,5.3,1.91,10.62t1.53,10.64c1.87,14.21,3,28.45,3.84,42.69q.63,10.68,1.08,21.35t.68,21.34c.39,14.23.36,28.45.13,42.67-.15,7.11-.28,14.21-.57,21.31s-.52,14.2-.92,21.29l-1.17,21.28c-.46,7.08-1,14.17-1.51,21.25s-1.14,14.15-1.78,21.23l-1,10.6L223.34,584c-1.49,14.13-3.19,28.24-5.35,42.3l-1.39-.09c-.29-14.21-.37-28.4-.41-42.58v-42.5l.24-84.85.19-42.35V392.73c-.06-7.05-.14-14.1-.3-21.14q-.51-21.12-1.8-42.14c-1-14-2-28-4.8-41.53a97.39,97.39,0,0,0-2.6-9.9c-.28-.79-.53-1.61-.83-2.38s-.6-1.55-.94-2.31c-.76-1.52-1.47-3-2.28-4.56A189.09,189.09,0,0,0,191.89,251c-8.1-11.54-16.86-22.67-26-33.49-18.22-21.66-38.38-41.68-57.64-62.43Q93.81,139.52,80,123.4T52.38,91.06c-9.1-10.87-18.11-21.83-26.92-33-4.41-5.56-8.73-11.2-13-16.87S3.93,29.8,0,23.84Z"/><path class="cls-3" d="M1352.22,155.8q0-11.91,6.71-17.94c4.44-4,10.27-6,17.44-6h10.73v-18H1274.42v18h10.73q13.39,0,18.78,6c3.6,4,5.37,10,5.37,17.94V347.17H1151V155.8q0-11.91,6.7-17.94t17.44-6h10.73v-18H1073.2v18h10.73q13.39,0,18.78,6c3.6,4,5.37,10,5.37,17.94V583.48q0,12-5.37,18t-18.78,6h-13.41v17.94h118v-18H1175.1c-7.17,0-13-2-17.44-6s-6.7-10-6.7-18V365.17H1309.3V583.48c0,8-1.81,14-5.37,18s-9.85,6-18.78,6h-13.41v17.94h118v-18h-13.41c-7.17,0-13-2-17.44-6s-6.71-10-6.71-18Z"/><text class="cls-4" transform="translate(1405.88 622.8) scale(1.03 1)">ill</text><path class="cls-5" d="M1463,468.68l-46.92,18.54,2.38,6a34.73,34.73,0,0,1,11.56-2.48,10.83,10.83,0,0,1,7,2.07c1.7,1.38,2.94,3.83,3.74,7.36q1.53,7.29,1.53,31.94v58.43q0,14.07-2.3,19a14.8,14.8,0,0,1-6.2,7.12q-3.91,2.15-15.3,2.15v6h75.64v-6q-11,0-15.21-2.32a14.57,14.57,0,0,1-6.29-7q-2.13-4.71-2.12-19V468.68Zm-19-74.39a16.49,16.49,0,0,0-.36,23.31l.45.44a16.87,16.87,0,0,0,12.24,5,16.58,16.58,0,0,0,12.15-5,16.17,16.17,0,0,0,5-11.92,15.94,15.94,0,0,0-5-11.83,16.78,16.78,0,0,0-12.15-4.89A17,17,0,0,0,1444,394.29Z"/><path class="cls-5" d="M1559.38,389.4,1513,407.94l2.89,5.79q6.79-2.64,11.22-2.64a10.38,10.38,0,0,1,6.72,2.15c1.75,1.43,3,4.11,3.82,8s1.19,14.42,1.19,31.53v137.7q0,14.07-2.21,19a14.39,14.39,0,0,1-6.12,7.12q-3.91,2.14-14.62,2.15v6h76.33v-6q-12.08,0-16.49-2.4a14.79,14.79,0,0,1-6.55-7q-2.13-4.62-2.12-18.87V389.4Z"/><path class="cls-5" d="M1656.1,389.4l-46.41,18.54,2.89,5.79c4.54-1.76,8.27-2.64,11.22-2.64a10.38,10.38,0,0,1,6.72,2.15c1.75,1.43,3,4.11,3.82,8s1.19,14.42,1.19,31.53v137.7q0,14.07-2.21,19a14.39,14.39,0,0,1-6.12,7.12q-3.92,2.14-14.62,2.15v6h76.33v-6q-12.08,0-16.49-2.4a14.79,14.79,0,0,1-6.55-7q-2.11-4.62-2.12-18.87V389.4Z"/></g></g></svg>