<svg xmlns="http://www.w3.org/2000/svg" viewBox="0 0 702.25 329.6"><defs><style>.cls-1{opacity:0.69;}.cls-2,.cls-3,.cls-4{fill:none;}.cls-2{stroke:#fce300;}.cls-2,.cls-3,.cls-4,.cls-7{stroke-miterlimit:10;}.cls-3,.cls-4,.cls-7{stroke:#000;}.cls-4{stroke-width:0.75px;}.cls-5{font-size:132.78px;font-family:TimesNewRomanPSMT, Times New Roman;}.cls-5,.cls-6{fill:#fce300;}.cls-7{fill:#fff;stroke-width:3px;}.cls-8{font-size:19.08px;font-family:CenturyGothic, Century Gothic;}</style></defs><title>Ресурс 2</title><g id="Слой_2" data-name="Слой 2"><g id="Слой_1-2" data-name="Слой 1"><g class="cls-1"><path class="cls-2" d="M182.34,322.61c3.75-1.1,7.12-3,10.94-4,3.61-1,7.53-1.06,11.33-2.26,7.72-2.45,13.3-9.14,19.22-14.22,5-4.28,13.11-2.64,19.29-4.21,1.51-.38,4.14-.94,4.89-2.33,1-1.77.44-8.72.26-10.53-.28-2.81-2.27-.52-.56-4.1a23.18,23.18,0,0,1,5.2-5.74c3.36-2,6.44.94,8.13-3.93a12,12,0,0,0,.58-3.68c3.4.4,10.1-3.82,13.42-5.14,4.35-1.73,9.43-2.86,13.11-5.88,1.63-1.34,1.78-3.05,2.88-4.34,2-2.37,6.86-1.6,10.38-3,4.28-1.7,8.18-4.46,12.61-5.82,4.07-1.26,7.57-2.41,11.27-5,4.2-3,7.73-5.55,12.43-7,4-1.26,7.37-1.2,11.62-1.72,10.74-1.32,21.51-5.56,31.76-9.21,4.26-1.52,7.48-2.21,11-5.38,4.6-4.09,6-7,11.84-9.13,11.82-4.2,24.92-5.3,36.85-9.12,9.19-2.95,19.54-5.32,28.72-8.82,3.09-1.18,6.05-3.18,9.3-4.31,3-1.06,8-1.61,10.4-3.63,1.82-1.51,2.18-3.15,3.79-4.66,2.22-2.08,6-2.83,8.69-4.09,1.14-.53,6.84-2.67,5.52-4.78-.91-1.44-6.76.2-8.31,0a7.23,7.23,0,0,0-.75-4.35c2.91-.73,6.12-1.5,9-2.49.39,2.51,1.53,4.38,4.29,4-.42-2.77-6.31-4.73-9-5.13-4.42-.66-8.25,1.15-12.4,1.91-2.11.39-4.45.24-6.57.64-2.83.54-3.32,1.65-5.71,3.1-3.81,2.3-9.87,1.48-14.29,1.22a3.1,3.1,0,0,1,3.4-3.93c-1.7-1-4.41-.59-4.51-2.88,5.58-.32,9.89-2.92,15-5.25,2.95-1.35,12.62-3.09,11.57-6.79-4.4-.23-7.54,1.71-11.61,2.13s-8.05.57-12,1.12c-4.53.62-8.73,2.42-13.13,3.34-2,.42-5.23,1.48-7.29,1s-2.72-2.23-5.05-2.61a6.45,6.45,0,0,0,0-1,5.06,5.06,0,0,0,3.2-.87c-3-3.44-7.64,1.12-10.84.39a30.78,30.78,0,0,1-.75-3.65c-14.59,8.45-30.88,15.43-46.28,21.6-3.52,1.41-16.06,12.17-20.17,8.84-3.64-2.94,1.51-6.48,2.58-7.74,3-3.58-2-4-5.08-5.05,1-1,2.3-1.83,3.3-2.63-.95-1.14-2.22-2.23-2.55-3.6,5.89-1.56,7.71-5.89,12.05-9.43,2.18-1.78,5.13-2.91,7.15-4.46,3-2.3,2.87-5.48,5.2-8.25,3.61-4.29,10.66-5,15.32-7.92,3.34-2.07,11.38-5.88,12.65-9.32-3.46-.56-7.16,1.42-10.48,1.34,1.42-2,2.89-4.06,4.36-6.06.68-.91,1.35-.76,1.85-1.9s-.5-2.58.33-3.65c1.41-1.81,5.68-1.22,7.69-2.53s2.92-3.19,4.17-4.7c-1.6-.08-3.25-.08-4.85,0-.38,2.21-3.32,5.11-5.73,4.61-1.13-.23-3.23-3.7-3.81-4.66-2.08-3.42-1.19-4.32,1.36-7A44.18,44.18,0,0,0,414,90a19.36,19.36,0,0,0,1.73-2.61c1.42-2.48,1.86-4.32,5.11-5.56,2.28-.86,7.51-.78,8.78-2.81.48-.78.66-5.35.7-6.21.1-2.23-.74-4-.78-6.15-.34-.15-1.93-.7-2.14-.74a36.35,36.35,0,0,0-4,3.25c-.76.65-1.52.4-2.3,1.08s-.93,2.27-1.69,2.94c-1.15,1-3.22,1.68-4.6,2.81-1.9,1.55-2.58,2.43-5.58,2.33.36,3.27-2.82,1.52-4.71,2.42s-1.92,2.15-3.36,3.72-4.09,2-5.79,3.36c-1.44,1.19-.07,2.84-3.33,2.85"/><path class="cls-2" d="M241.42,319.69c-6.14-2-8.42-4.32-8-10.89,3.11-1.49,6.5-1.77,9.25-4.05,3.35-2.79,2.9-5.94,7.39-4.29,2.2.81,5.16,3.82,7,1,1.07-1.6-1.09-6.87,3.56-4.41.53-3.29-3.28-4.63-2.79-7.62.43-2.61,4.14-2,1-5.83"/><path class="cls-2" d="M251.64,278.11c8.78,0,11.95,1.7,18.58,6.93,1.06.84,4.09,1.71,4.68,2.52,1.32,1.79.05,3.6,1.54,5.15.34.36,1.83.07,2.18.42a15.26,15.26,0,0,1,1.1,1.76c.53.39,1.65,3.76,3.22,1.11.87-1.45-2.63-9.7-3.6-10.77-1.89-2.07-7.13-5.79-.72-8.14,3.87-1.42,4.66,2.65,7.31,2,1.48-.34,1.28-3.22,3.93-.4,1.26,1.34,1.48,4.18,1.52,5.91,2.1-.25,4.07-.87,6.2-.64-.21,2.16,0,4.77,2.56,5.36,1.2.27,2.61-1.21,3.3-1.05.23.05,1-.42,1.47-.3.72.17.12,2.13.32,2.17,4.11.7,3.22-6.54,5.85-6.64,2.11-.07,2.37,4,4.74,4.42"/><path class="cls-2" d="M302,316a4.73,4.73,0,0,1-.22-3.23c1.53.48,5,3.11,5.67.09-1.82,0-4,2.07-3.58,4.2,3,.83,4-1.06,4.78-3.43.53-1.61-.76-4.79-.37-5.58,1.19-2.37,13-1.49,6.67-6,2.89,1.09,5,3.38,5.29-.68.21-3.06-2.84-3.7-2.67-6.2.16-2.27,2.74-4.72,3-7.29.44-3.84-.06-3.61,3.52-4.35-4.86-5.45,2.31-9.38,7.37-9.82a6.93,6.93,0,0,0,.76,3.55c2.7-.44,6.27-9.32,9.43-6.16s-2.87,9-3.63,11.63c-4.46-.31-5,2.67-.71,3.77-.24.7.06,1.74-.28,2.39a33.66,33.66,0,0,0,3.18,1.24c.48,2-.88,3.34-1,5.22.32-3.35.45-7.72,3.34-9.95,1.75-1.34,2.91.24,3.58-2.61.4-1.7-.55-3.46-1-5,1.33-.82,4.82-2.2,6.19-.92.81.75-.37,2.72.31,3.35,1.63,1.51,5.35-.81,6.8-1.52,5.14-2.51,10.51-3,16.11-4,2.43-.44,4.62-.46,5.49-3.27.28-.91-.7-2.22-.39-2.91,1.06-2.33,1.18-.53,3.21-1.54,4.9-2.46,10.87-5.66,6-11.51,2-.75,2.17-2.6,3.84-3.83,1.06-.77,6.2-2.49,7.71-1.66,3,1.66,2.46,8.07,4.76,10.76.05-1.24,0-2.59.12-3.84,2.66.48,1.88,4.36,4,5.62s4.22-.92,6.09-2.55c4.79-4.18,1-7.39,1.5-12.61.42-4.65,7.42-7.39,10.22-10.2.47-.48.46-1.6,1.36-2.31s2.13-.15,3-.69c1.59-.95,3.07-1.8,2.93-3.87a7.39,7.39,0,0,1,4.37-.8c1.2,0,3.37,1.2,4,1.14,5.16-.48,3-6.62,5.44-9.45,2.94-3.45,4.93-1.15,3.67-6.3-1.12-4.55.11-6.06,4.91-8.29,3-1.39,6.58-1.87,9.52-3.46,3.26-1.76,5.34-5.5,8.27-7.49,3.3-2.23,5.68-1.63,7.66-6.07,1.21-2.69.56-5.53,2.46-7.86"/><path class="cls-2" d="M128.37,324.07c5.07-1.56,9.58-3.68,14.59-5.45,5.23-1.85,11.31-3.61,16.85-5.49,4.69-1.59,9.34-2.05,14.08-3.27,4.29-1.1,7.24-4.66,11-6.58,4.5-2.29,10-2.56,14.33-5,3.67-2.07,7.05-3.73,11-5.65,3.47-1.7,5.6-4,9.26-5.49,4.35-1.78,9.14-2.69,13.69-4.16,4.72-1.54,7.26-5.24,11.5-7.86,3.44-2.13,6.52-2.44,10.28-3.45a17.45,17.45,0,0,0,5.1-2c1.22-.78,2-2.64,2.92-3.2,2.54-1.5,7.31-1.85,10.56-3.27,4.06-1.77,7.49-4.52,11.48-6.46a87.74,87.74,0,0,1,14.66-5.6c4.45-1.32,9-2,12.93-4.35a143.2,143.2,0,0,1,14.85-8.12,68.55,68.55,0,0,1,14.35-4.14c5.61-1.12,11.44.31,16.28-2.52,6.52-3.81,11.63-8.27,19-10.74,6.38-2.15,14.79-3.92,20-7.3,3.05-2,5.72-4.68,9.3-6.05,5.78-2.21,12.89-1.26,18.84-3.59.13-5.09,8.11-7.12,12-7.15,5,0,8.36-.89,13.13-1.84a74.29,74.29,0,0,0,11.31-3c2.93-1.07,5.34-2.76,8.16-3.86,2.12-.83,4.29-.82,5.84-1.8s3-2.72,4.93-3.55c3.74-1.59,7.64-1.93,11.35-3.93a25.32,25.32,0,0,0,6.17-4.63c2.69-2.64,5.58-3.78,8.47-6.2"/><path class="cls-2" d="M101.38,305.83c5.57-2.32,10.46-6.85,16.14-9.4,3.72-1.66,7.81-1.46,12-2.24,8.5-1.57,17.07-5.37,25.07-8.43,17.17-6.56,35.47-12.37,53.22-17.68,6.54-1.95,11.44-6.78,18.1-8.29,8.49-1.92,16.36-3.3,23.6-8.23,2.15-1.47,4.31-3.08,6.54-4.44,4.32-2.63,9.59-2.15,14.26-3,6.24-1.17,10.78-3.68,16.44-6.47,9.3-4.59,18-9.91,28.47-11.3a130.51,130.51,0,0,0,15.2-2.47c5.5-1.42,9.05-4.84,14.26-7a126.92,126.92,0,0,0,17.12-8.93,34.35,34.35,0,0,1,15.07-5c10.19-1.21,18.23-7.35,27.54-11.3,3.13-1.33,8.34-2,11-4,1.61-1.22,1.21-3.52,2-4.34,1.3-1.25,3.8-.72,5.54-.56,3.83.37,8.91,1.28,13.1.57,5.78-1,10.54-6.22,15.66-8.82,3.84-2,7.37-2.8,11.37-4.31,3.2-1.21,7.25-5.78,10.54-5.47"/><path class="cls-2" d="M237.78,244.56c4.35-1.94,8.51-4.66,13.08-6.21,6.18-2.09,12.57-3.25,18.71-5.45s13.27-3.59,18.87-6.66c5.88-3.22,10.15-9.52,16.41-12.6a92.93,92.93,0,0,1,13.45-5.12c6.05-1.83,12.07-4.18,18.28-6.26a315.29,315.29,0,0,0,40.75-16.74c5.74-2.91,9.88-6.83,16.36-8.34,8.92-2.08,14.94-4.1,22.35-9.22,3.75-2.61,7.17-3.85,11.33-5.51,5.75-2.3,6.4-7.18,11.72-9.43"/><path class="cls-2" d="M108.67,320.78c-.21-2.29.73-7.68,4.37-6.95,2.38.48,1.74,3.74,2.06,5.84a12.45,12.45,0,0,1,7.11-6.86c1.23,2.25.58,5.12.76,7.55a39.56,39.56,0,0,1,9.09-9.17c.64,1.92.25,4.55.4,6.64,2.07-1.51,4-4.28,6.57-4.71,0,.78.52,2,.37,2.91,3.93-2,5.64-7.91,10.24-10.08,1.55,1.51,1,4.29,1,6.41-.29-1.41-.09-2.92,1-3.6.07.54.38,1.31.5,1.89,3.12-1.76,5.37-5.31,9.12-6,.44,1.41.58,3.29,1.25,4.48.53-1.91,1.48-5.21,3.67-5.39,0,0,.1,1.22.1,1.21.27-3.41,7.91-3.32,9.95-6.74.24.15.38.4.67.64a8,8,0,0,0,2.53-2.5"/><path class="cls-2" d="M188.91,296.71c2,3.11,5.19-6.39,6.29-7.74.87,1.56.54,3.69,1,5,2.79-6.32,5.43-12,10.07-17.26.53,4,1.92,7.91,2.08,12,1.93-2.17,2.78-5.3,4.37-7.81,0,.81.47,2.09.45,2.94a38.6,38.6,0,0,1,3.8-4"/><path class="cls-2" d="M241.79,272.64c5.37-.81,9.06-10.61,11.35-14.59,0,1.42-.07,2.88,0,4.26,1.67-2.05,1.89-4.87,3.67-6.77a54.17,54.17,0,0,0,.08,7.65c1.71-3.88,1.72-8.82,4.56-12.09-.1.91.24,2.06.18,2.91,1.12-1.19,2-2.77,3.15-3.86.08,2.6-.61,6,.41,8.37,3.74-.69,8.16-6,9.39-9.57a57.45,57.45,0,0,1-1,5.82c1-1.75,2.34-3.24,3.31-4.93-.07,2,.22,4.17-.32,6.13,3.26-3.43,4.46-9.67,6.85-13.91a15.48,15.48,0,0,0-.34,3.6c1.15-.9,2.13-2,3.25-3,.12,2.08-.69,4.05-1.1,6,1.75.28,3.08-1,4.34-1.91.06.35,0,.63,0,1a4.42,4.42,0,0,0,1.13-2.45"/><path class="cls-2" d="M84.24,322.61c-.75-2.68-1-7.64.37-10,.91,1.81,1.23,4.54,1.6,6.59,3.42-2.86,10.39-13.7,9.66-2.79.56-2,.37-4.93,2.46-5.44,0,.58.24,1.33.28,1.81,2.73-3.15,4.82-7.58,8.36-9.87,1.48,1.31,1.22,4.63.69,6.14,0-.65,0-1.35-.08-2,0,.87,0,1.74,0,2.61a7.48,7.48,0,0,1,1.91-4.25,23.57,23.57,0,0,0,0,3.94,58.17,58.17,0,0,0,2.9-7.11,17.59,17.59,0,0,1-.8,6.34,12.72,12.72,0,0,1,4.36-9.16c-.21.9.24,2.13.1,3.06,4,.25,5.61-7.86,9.44-9.07"/><path class="cls-2" d="M396.79,238v1.94a11,11,0,0,1,1.46-6.38c1.15,2.54.41,7.13.34,10.09a5,5,0,0,1,1.35-3.78c.22,1.74.06,3.7.23,5.36,1.79-2.51,2.53-5.57,4-8.27-.12,2.43.49,5.31-.81,7.46.09-3.14-.54-6.66,1.06-9.49.35,4.94-.52,9-1.42,13.72-.57-3.25,3.55-8,5.16-11.35-.09,3.34,0,6.7,0,10-.35-5.59,1.68-10.63,2.94-15.92a42,42,0,0,1-3.61,16.46,87.34,87.34,0,0,1,.31-17.11c.15,6.52-3.31,11.44-4.1,17.64a38.51,38.51,0,0,1,3.3-13.18c.29,3.81.67,9.52-1.31,12.79-.48-2.26-1.15-5.3-2.2-7.09-.13,1.89-.08,3.84-.08,5.76.21-2.42-.09-5.71-1.39-7.49a10.74,10.74,0,0,0,.32,4.58,5.72,5.72,0,0,0-1.06-3.46c-.41,3.28,5.08,6.35,5.72,9.69-1.93-2.16-2.35-14.07.05-16.82,2.53,3.17,1.6,8.4,2.58,12.34-.07-4,0-7.94,0-11.91"/><path class="cls-2" d="M280.45,262.8c1.82-2.17,6.52-3.69,7.22.27a15.35,15.35,0,0,1,.4-3.07c1.38,1.07,1.38,3.24,1.13,4.91a10.54,10.54,0,0,0-.33-2.71,11.66,11.66,0,0,0-1.13,6.69c0-2.74.08-5.51-.05-8.23-2.19-.26-1.87,3.68-4,2.75-1.19-.53-1.12-3.48-.82-4.26a10.4,10.4,0,0,1,1.63,3.84c1.26-1.28,1.32-3.72,3.16-3.83a20.75,20.75,0,0,1,.8,4.27,10.33,10.33,0,0,1,2.1-6.29c.46,1.72,1.32,3.33,1.17,5.15a8.8,8.8,0,0,1,.74-2.47,36,36,0,0,1,.87,3.87,14.28,14.28,0,0,1,2.4-4.25c.48.84,1.38,1.26,1.57,2.59,1.34-6.2,3.12.9,3.57,2.85a3.66,3.66,0,0,1,.64-3.17A18.38,18.38,0,0,1,302,267c0-.78,0-1.54,0-2.32,1.19,1.26,1.18,3.63,1,5.52v-8.52a45.89,45.89,0,0,0,.14,5.64c1.29-2.33,1.37-5.13,2.81-7.44a13.2,13.2,0,0,1,.25,5c-.13-.24-.17-.61-.27-.81-.17,1-.63,2-.83,3-.54-2.29-.27-4.76-.28-7.12v5.4c-.06-2.2-.48-5.09,1.21-6.67a25.84,25.84,0,0,1,.22,5.9,3.22,3.22,0,0,1,3.26-2.46c-.22,1.44-.13,2.79.78,3.64a53,53,0,0,1,2.25-5.79c3.22,1.28,5.72-3.2,8.28-4.53a54.53,54.53,0,0,0,.2,6,16.32,16.32,0,0,0,1.6-3.53c0,.45.07,1.13.07,1.67,0-1.3,1.05-7.09,3-6.6.89.21,1,4.53,1.64,5.47a13.17,13.17,0,0,1,1.1-6.32,7.65,7.65,0,0,1-.32,3.49c-.07-.68-.06-3.41.77-4.67.69,2.28.34,5,.35,7.39a8,8,0,0,1,1.09-4.26c.69.38,1.42.11,2.13.41.11.29.22.59.32.89,1.22-2.68.73-5.85,2.33-8.38-.19,1.71.52,1.66,1,2.68,3-3.28,3.77,2.53,3.71,4.69v-3a12.69,12.69,0,0,1-.28,3.42c-.19-2.6-.63-5.89.68-8.26,0,1.17,0,2.36-.05,3.54,0-1.39,1.24-7.18,3.43-5.44,1.17.92.24,7.9.21,9.39.15-1.74,1.08-3.23,1.49-4.89a18.61,18.61,0,0,0,0,3.5c2.22-.75,1.57-4.17,3.92-4.7a9.45,9.45,0,0,1,0,3.27,7.24,7.24,0,0,1,.08-2.11c1,5.12,2.77,3.24,5-.08.07.36,0,.68.09,1a3.76,3.76,0,0,0,3.18-1.4c0,.66.35,1.54.34,2.07.57-1.12,1.09-2.26,1.58-3.42,0,.21,0,.41,0,.62a7.68,7.68,0,0,0,0-1.79c-.39.89-1.12,1.6-1.51,2.51a15,15,0,0,1-.41-2.23c-.85,2.72-6.31,4-5.36.14,2,2.87,6-.49,7.5-2.44-.11.59.23,1.63.16,2.29a8.73,8.73,0,0,1,3.21-.36c.62.18,1.26,1.72,1.43,1.73,2,.14,2.2-.88,3.93-1.44a22.54,22.54,0,0,1,6.24-.93c0,.51.21,1.21.15,1.73.76.2.52-.31,1-.68"/><path class="cls-2" d="M342.81,271.55c0-2.47,1.59-6.24,4-6.49.84,2.43.69,5,.77,7.54.81-2.13,2.17-5.48,4-7.16a14.17,14.17,0,0,1,.4,2c.68-1.54,1.68-3.18,1.76-5.05"/><path class="cls-2" d="M329.68,274.47c-1.48-.91-.94-5,.28-6.57a24.16,24.16,0,0,1-2.41,1.46,7.77,7.77,0,0,1,1.37-5.47,8.94,8.94,0,0,1-.78,3.29,46.78,46.78,0,0,1,3.76-8.08c0-.46-.25.27-.39.41"/><path class="cls-2" d="M276.8,279.57c1.7-.52,3.43-1.33,5.05-1.81.57,2.5-1.59,4.12-2.73,6.12,1.69-.58,3.53-1.68,5.33-2.37.47,3.06-2.53,5.22-4.5,7.13a9.91,9.91,0,0,1,4.55-3.11c-.16.77.19,1.77.06,2.44,3.28-.93,5.14-5.63,8.43-6.61.2,2.91-1.74,6.23-3.39,8.52a6.05,6.05,0,0,1,1.83-4.82,16,16,0,0,1-5.49,8.33c-.07-1.76.9-3.18,2-4.58a10.21,10.21,0,0,1-.19,5.14c.16-.75.38-1.42.6-2.15.29,2,.56,5-.2,7-.84-1.76-.37-4.62-.35-6.7-.5,2.83-1.9,5.46-2.88,8.2-.11-2.15-.05-4.34-.06-6.5a35.58,35.58,0,0,1-.38,7.44A83.53,83.53,0,0,1,286,286.85c.43,1.52,0,3.78.55,5.35.16-2.1.07-4.24.08-6.35a12.48,12.48,0,0,1-.72,2.89c-2-2-.77-9.1-.72-12-.08,1.49-1.45,7.66-3.27,7.94-2.85.44-2.76-3.18-2.59-5.07,0,.92,0,1.86,0,2.78a22.5,22.5,0,0,0,1.18-4.65c1.13,2.72,0,8.92,4.33,6.17a54,54,0,0,0,.94,5.47c1.74-2.08,1.88-5.17,3-7.59.15,2.08.07,4.27.07,6.39v-5.33c0,2.07.43,4.1-.77,5.88.06-2.32,0-4.64,0-6.95a11.47,11.47,0,0,1-.29,3.9c-.19-2.08-.09-4.27-.07-6.39-.21,2-.1,6.73-2.5,6.74a24.5,24.5,0,0,0-1.17-6.81,45.36,45.36,0,0,1-3.67,14.65c.36-2.33,2-7.27,1.84-10.2.52,3.26,1.38,6.74,1.09,10.05.48-2.36,1.4-5.67,2.87-7.3,1.3,4.9.44,10.66.44,15.72a14.28,14.28,0,0,1,.28-2.7c.17,2.39-.2,4.9.42,7.14a6.41,6.41,0,0,1,2.17-2.68c-.16,2.87.79,5.83.76,8.81.14-1.78.22-3.9,1.33-5.35a41.52,41.52,0,0,1,.14,5.72c-.12-5.58,1-10.66,2.15-16.09.39,4.64-1.46,10.09-3.18,14.31-.27-3.19-.85-8.38,1.34-10.89.22,3.67-.45,7.37-.3,11-.24-3.46.11-7.68,2.82-10.14.46,4.26.09,7.92-2,11.63-.71-2.68,2.81-6.22,4.51-8.17a61.48,61.48,0,0,1,.1,6.66c0-2.51,1.23-4.73,2.34-6.93.68,2.14-.11,4.68-.8,6.69-.1-4.13,3.12-7.14,6-9.76.92,2.18.47,4.89.49,7.3-.05.47,0-1.89,0-2.4a8.82,8.82,0,0,1-2.13,4.16,12.27,12.27,0,0,1-.5-4.18,43,43,0,0,1-1.69,6c-.16-2.31-.07-4.68-.07-7a23.46,23.46,0,0,1-4.38,14.38c-1.9-2.69-.65-6.28-1.42-9.15-1.41,1.19-1.95,3.19-3.68,4.13-1.8-2.23-1.52-5-1.43-7.75-.71,3.16-1.88,6.73-4,9.13a19.32,19.32,0,0,0-1.48-4.58c0,.56-.09,1.25-.07,1.86-.09-2.17.49-4.26.37-6.42,0,1.54,0,3.08,0,4.61.13-3.34.81-6.59,3.37-8.94-.18,3.26-.09,6.57-.07,9.83a8.72,8.72,0,0,0,3-2.2c1.15,1.68,1.12,3.91,1.17,5.81a4.39,4.39,0,0,0,2.37-2.78,12,12,0,0,1-.3,3.47c1.23-2.42,1.24-6.44,3.23-8.19A25.82,25.82,0,0,1,296,319.27c1.12-2.73,3.5-4.73,4.91-7.33.72,2.27.31,5.94.29,8.65-.17-2.54.86-4.84,1.89-7.1.23,3.12-1.39,5.08-1.89,8-.06-2.06-.35-4.42,1-6.08a24,24,0,0,0,.33,3.5,2.39,2.39,0,0,1,.45-1"/><path class="cls-2" d="M234.49,310.94a5.67,5.67,0,0,1,1.11-3.73c1.31,3.42.81,8.55.68,12.44a27.43,27.43,0,0,1,2.89-9c.11,2,.1,4.1,0,6.14.66-1.76.73-3.9,1.81-5.34.2,3.32.07,6.7,0,10a10.84,10.84,0,0,1,2.31-6.73,18.47,18.47,0,0,1,.57,5.93,33.81,33.81,0,0,1,2.77-6.45c.73,3.94.28,8.52.16,12.59,1.84-4.58,1.21-9.63,2.6-14.28,1.12,5.65-5.77,4.67-5.12-2.29a3.42,3.42,0,0,1-1.09,3.64c-1.62-1.68-1-4.58-2.62-6.55.3,3.64-2.33.81-4.34,1-.3,1.22-.4,2.89-.71,4.29a18,18,0,0,1,.08-2.75c.13.18.37.59.55.88,1.1-1.31,2-2.91,3.14-4.27,1.54,1.34,1.44,4.82,1.38,7a17.3,17.3,0,0,0,1.54-3.36,24.13,24.13,0,0,1,.33,4,8.14,8.14,0,0,0,.35-1,8,8,0,0,1,1.24,4.1,37.72,37.72,0,0,1,4.14-1.89,17.8,17.8,0,0,0,1,5.08c3-1.17,5.82-3.33,8.89-4.3.1,1.48.17,3.41,1.38,4.49.37-.87,1.21-1.7,1.43-2.67-.07.9.15,1.94.07,2.83a31.12,31.12,0,0,0,2.1-5c.09,1.63.05,3.26.06,4.9-.25-2.08-.1-4.23,1.78-5.44a19.59,19.59,0,0,0,.36,4.2,11.83,11.83,0,0,0,1.6-3.48,18.38,18.38,0,0,1,.23,5.1c.13-1.2,1-2.1,1.51-2.94.69,1.48.39,4,.29,5.9,1.3-2.58,2.1-5.7,4-7.86a16.7,16.7,0,0,1,0,2.92v.58"/><path class="cls-2" d="M255.28,307.29c-.39-3.05,3-1.91,3.37.24.91-1.3,1-3.07,2.12-4.34.21.72,1,1.6,1.12,2.59a5.94,5.94,0,0,1,4,.66,1.34,1.34,0,0,0,.74-.61"/><path class="cls-2" d="M260.75,295.26a8,8,0,0,0-.3,3.58c2.31.54,2.5,3.1,5,2.74-.42,3,4.64,2.41,6.35,3.5s5.73,3.46,6.1,5.49"/><path class="cls-2" d="M272.42,297.81c2.54.17,2.25,6.06,2.24,8.33.68-1.16,1.35-2.46,2.45-2.82,0,1.48.55,2.07,1.15,2.15"/><path class="cls-2" d="M307.07,283.59c-.61-2.32-.91-5.9.35-8a6.23,6.23,0,0,1,2.05,3c.18-2.48,1.81-5,3.4-6.69a1.62,1.62,0,0,1,0,.9c.76-2,1.12-4.36,1.84-6.31.38.06.34.27.72.33a23.47,23.47,0,0,0,2.94-6.57"/><path class="cls-2" d="M353,274.1c-.72-7.53,8.18,1,2.56.37"/><path class="cls-2" d="M358.49,259.88a7.92,7.92,0,0,0-.36,3.65"/><path class="cls-2" d="M363.24,265.35a4.33,4.33,0,0,1,1.09,1.09"/><path class="cls-2" d="M364,274.1c.36.87,1.36,1,2.56.73"/><path class="cls-2" d="M367.61,260.61a2.33,2.33,0,0,0,2.92-1.1"/><path class="cls-2" d="M366.15,254.77a4.28,4.28,0,0,0,1.1-2.91"/><path class="cls-2" d="M361.05,251.13a4.59,4.59,0,0,0-1.1,4"/><path class="cls-2" d="M364.69,266.08a1.49,1.49,0,0,0,1.46,1.46"/><path class="cls-2" d="M371.26,257c-.09.33,0,.69-.06,1-.32-.05-.6.1-1,0-.31-1.1-1.19-1.46-1.89-2.12"/><path class="cls-2" d="M371.26,250c2.07-.28,3.35,1.34,3.28,3.28"/><path class="cls-2" d="M377.46,259.88c-.49,1.93.6,3.2,2.19,2.19"/><path class="cls-2" d="M373.45,265.35c-1.54.39-2.88.16-2.92-1.46"/><path class="cls-2" d="M381.83,258.78c.05-.36,0-.67.05-1,1.84-.39,3.65.52,5.08,1.28.53-1.14,1.05-2.42,1.44-3.53"/><path class="cls-2" d="M380.74,247.11a3.45,3.45,0,0,1-1.4-2.87c2,.54,3,1.64,5.39,1.8,1.89.13,4.23,0,6.22,0"/><path class="cls-2" d="M312.91,313.86C312.19,305.74,321.79,303,328,300c2-1,5.11-2.3,6.83-.93-4.54,2.13-10,5.47-13.41,9.18,5.18-5.29,15.67-6.23,22.27-9.1,3.2-1.39,6.68-2.21,9.81-3.4-1.64,1.65-4.06,2.4-6.11,3.48,3.6-1.7,7-4.36,10.58-5.83,3.38-1.39,7.26-1.73,10.91-2.24,4.46-.62,11.13-.05,14.74-2.92A59.59,59.59,0,0,0,366,293.1c-2.38,1.09-5.19,2.51-7.93,2.48,3.84-4.56,10.36-6.32,15.34-9.27,3.36-2,6.08-5.28,9.56-6.94,2.83-1.35,6.88-1.43,9.44-3.26-7.62,3.3-14.49,8.47-22.19,11.5,9.05.7,18.82-6.61,26.57-10.63,2.79-1.46,6.19-2,8.8-3.49-4.51,2.06-9,6-12.95,8.7,4.24-.18,14.61-7.33,17-11.32-7.13-1.65-15.31,8.67-21.1,11.66,7.73.17,12.3-.83,18.32-6,5.71-4.9,9.66-13.51,16.28-17-1,3.74-8.29,8.74-11.66,10.55-.37-5.09,8.23-9.64,11.48-12.5,4.05-3.56,7.8-8.75,12.24-11.68,2.26,4.26-9.35,10.48-12.27,12.42-1.86-4.48,14-10.28,16.91-12.35,4.39-3.12,8.86-6.47,13.46-9.44-7.78,6.58-17.49,8.65-23.7,17.18,12.49-8.06,25-15.68,36.82-24.82,2.41-1.86,6.05-3.74,7.75-6.2-5.95.34-14.18,8.52-19,11.89-3.05,2.14-7.79,6.34-11.52,6.59,7.48-8.53,18.43-14.79,28-20.77,2.2-1.37,4.81-2.83,7.11-3.95-2.75,7.42-15.64,8.18-21.63,12.16,7.95-5.08,16.53-9.14,24-14.77a130.43,130.43,0,0,1,11.61-7.56c-1.71,3.7-10.66,8.08-14.53,9.46,1.62-8.9,18.49-14.62,25.39-18.95,2.15-1.35,9.43-4.84,8.33-7.95-3.11,2.09-11.72,5.78-12.69,9.39,4.07.41,11.58-5.72,14.29-8.85,1.35-1.57,2-3.82,3.17-5.54-.67,1.47-2.18,3.06-2.76,4.83,2.55-1.56,3.38-5.67,3.66-8.57-6.35,5.46-7.5,15.83-14.32,20.3-3.13,2.05-6.83,2.34-10.23,3.66"/><path class="cls-2" d="M417.58,318.23c5.85,0,12.57-5.88,17.18-9.05,3.22-2.22,6.41-4.51,9.56-6.82-5.41,4.17-11.43,8.36-17.66,11.17,1.17-3.58,6-5.58,8.91-7.62,4.88-3.43,9.8-6.76,14.84-10,4.11-2.6,8.29-5.19,12.4-7.62-9.85,2.54-17.39,10-26.22,14.58,7-7.56,15.41-12.28,24.65-16.44.24,3.71-6.37,9.46-9,12.29,1.31-7.38,14.4-14.15,20.77-17.22a6.22,6.22,0,0,1-1.87,5.58c3.5-4.57,9.18-8.28,13.51-11.18,4.51-3,7.41-9,12-12.42.06,3.73-5,6.51-7.51,8.71,1.25-5.35,8.91-8.47,12.53-12.18-.09.66.28,1.93.18,2.7,5.2-2.7,9.87-7.08,15.14-9.45.36,1.87-1.44,3.44-2.3,4.67,4.18-1.19,7.59-5.14,11.23-7.48-.14,2.14-1.84,3.8-2.56,5.79,3-3.64,6.69-6.7,9.32-10.69a4.62,4.62,0,0,1-1,4c2.07-3.77,4.34-8.25,6-11.78a29.43,29.43,0,0,1-.91,4.54c.7-4.27,3.73-8.78,3.7-13.09,0,1.14,0,2.28,0,3.42v-2.6a21.67,21.67,0,0,0,0,3c1.53-2.36,1.54-5,1.41-7.68v1.37c0-3.68-.25-7.39.81-10.93.88,3,.79,6.22,1.39,9.24,0-3.11-.14-6.27.05-9.37a12,12,0,0,1,1.33,2.23c0-2.19,1-5.22.07-7"/><path class="cls-2" d="M120.34,291.61c1.84-2.67,8.33-2.2,10.88-5.07,1.12-1.27,1-3.89,1.87-5.42,1.41-2.49,4.34-4.32,6.9-5.77,10.3-5.8,21.18-10.54,31.79-15.47,5.72-2.67,11.64-4.91,17.22-8a30.32,30.32,0,0,1,7.18-3.29c2.73-.76,5.64-.79,8.34-1.49a63.09,63.09,0,0,0,8.27-3.31c11.59-4.91,24.72-4.1,35.67-10.46A144.89,144.89,0,0,0,261,225.16c8-5.84,9.76-16.83,16.08-23.92,3.94-4.4,8.84-4.49,14.62-4.45,6.52,0,7.73-4.92,13.26-7,4.78-1.84,8.69-2.3,13.32-5.07s7.86-7.12,12.41-9.89c4.76-2.89,8.42-4.93,11.84-9.29a41.54,41.54,0,0,1,13.74-11.86c5.11-2.65,10.44-4.92,15.17-8,4.34-2.8,4.32-6.8,7.48-10.15,2.93-3.11,8.75-5,12.38-7.2,2.62-1.61,9.06-4.87,10.23-7.37"/><path class="cls-2" d="M294.31,171.62c-.58-4.54,4.76-9,7.18-12.35,3.42-4.76,5.19-10.05,7.51-15.08,2.5-5.42,9-7.1,13-11.16,1.14-1.15,2.74-3.9,4.37-4.47s4.74.06,6.47,0c.46-.79.8-.73,1.32-1.36.35,1.26.16,3.12.56,4.33,4.41-3.13,11.16-2.09,15.73-5,2-1.28,1.46-1.55,2.81-3.33a24.05,24.05,0,0,1,6.34-6.1c5-3.4,11.29-4.3,16.29-7.39,2.53-1.57,5-2.93,7.38-4.31,1.32-.76,3.15-3.23,4.46-3.65,2.34-.75,4.47,1.24,6.86.68s4.08-3.3,5.83-4.83c1.82,4.5,8.9,7.84,13.86,5.9"/><path class="cls-2" d="M68.19,257.69c6.55-5.8,17.49-8.61,25.88-10.67,9.89-2.43,19.9-3.51,29.76-6,9.32-2.36,16.33-9.47,26.13-11,11.66-1.85,20.57-9.08,32.33-10.24a22.78,22.78,0,0,0,8.81-2.18c2.42-1.15,4.39-3.2,7.29-2.9"/><path class="cls-2" d="M258.57,200.07c8.82-1.42,13.66-8.5,20-13.2,3.26-2.44,7-3.76,10-6.48,3.1-2.87,6.13-5.8,9.4-8.44a133.74,133.74,0,0,1,19.68-13.09c6.7-3.75,11.79-9.26,18.57-13,7.6-4.12,15.51-6.84,23.62-10,7.22-2.85,12.92-7.92,19.5-11.65,2.45-1.39,5.05-2,7.5-3.65s3.59-3.61,5.65-5.6c4.81-4.61,13.41-6.6,19-10.09"/><path class="cls-2" d="M345.36,215.75c-.21-4.1,5.77-5,8.33-6.65,2.87-1.89,1.9-2.64,2.89-5.46.94-2.66,3.32-4.36,4.19-6.94s-.73-5.76,1.37-7.94"/><path class="cls-2" d="M454.41,169.8c-2.71.26-8.73,2.64-11,1.83-2.61-1-2.09-5.32-.47-7.38,3.4-4.32,11.43-6.21,16-9.33-5-.77-9.59,2.58-14.42,3.22a74.33,74.33,0,0,1-9.47.72"/><path class="cls-2" d="M295,168c2.39,5,7.1,1.61,8.34-2.89.7-2.52.46-5.35.37-8,1,1.89,1.48,4,2.66,5.78,3.67-3.32,2.19-12.21,3.11-16.78.84,3.34.79,10.33,3.19,12.81,2.94-6.12,1.36-14.65,4.56-20.14,2.45,3.49-.37,12.6,3.6,15.26-.12-4.82,1-11.08,1.94-15.88,1.76,3.79.75,9.57.65,13.72,1.17-5.38,3.22-11.37,3.3-16.79,0,4.95-1.23,11.75,2.12,15.77,2.82-6.54-.21-15.08,1.82-21.58.17,3.3,0,12.3,2.55,14.51,2.23-3.43,1.8-9.42,4.17-13,1.67,2.45,2,5.73,3.25,8.39,2.69-1.58.95-6.72,3.79-8,1.23,2.81.81,7.32,2.69,9.5,3.17-1.74,1.26-9.55,1.58-12.76,1.16,3.87.12,8.38,1.29,12,0-3.8.9-13.18,5.12-14.54.54,3.06,2,5.63,3.49,8.31,4.62-1.91,4.16-12.88,7.18-16.64.64,2.92.73,6.17,1.55,9.08,2.12-2.27,4-7.1,4.33-10.16a51.16,51.16,0,0,1,1.82,11.37c.47-3.29.58-10.42,2.57-13,1.72,1.6,1.11,4.53,1.73,6.59,1.76-1.81,1-5.65,1.67-8a11.69,11.69,0,0,1,3-5.46A51,51,0,0,0,384.42,122c3.56-4.91,5.36-11.07,8.53-16,1.26,1.7.76,4.86,1.36,7.14,1.76-5.44,2.14-11.27,5.39-4.51,1.76-1.61,1.84-4.81,3.66-6.34.68.37.55.85.72,1.51"/><path class="cls-2" d="M416.48,121.66c2.57.16,7.73-3.1,9.61-1.51,1.3,1.11.88,6.73,1,8.42.33,6.12,0,12.2.73,18.25"/><path class="cls-2" d="M365.79,161.41c2.3.29,6.51,6.26,7.21,8.71.43-6.26-.24-12.65.14-18.93,3.5,4.78,1.88,12.52,3.13,18.11.88-5.49.38-13.51,3-18.27,2.93,4.86.31,12,2.62,16.32,5.11-4.73,4.68-12.75,6.58-19.1,1.16,6,1.21,11.71,1.43,17.7,2.3-8.54,3.14-18.12,3.67-26.93,4.08,5.42,2.7,17.39,1.36,23.66.33-9.6.83-18.87,2.74-28.25,2.73,5.42,1,14.5.92,20.5,1-6.57.73-15.46,3.3-21.25,1.84,5.78.57,14.27,0,20.34-.17-7,.95-14.72,1.53-21.74,1.43,4.48-1.78,15.7,1.3,18.56a48,48,0,0,0,3.84-8c1.18-2.76,2-8,3.92-10,3.94,4.7-.69,13.53,2.29,18.75,3.37-6.55-1.78-16.46,2.4-23.24C416,135.5,415.66,143,414,150c-.53-7.48.93-15.67,2.63-22.88,5.15,4.11-2,18.38,2.62,21.13.93-6.17,0-15.79,3.82-20.92-.11,5.15-.38,10.28-.39,15.44,0-4.72.45-9.48.37-14.18"/><path class="cls-2" d="M419.76,107.07c.75-1.7,4.13-3.65,6.08-4.67.34,3.23-.31,6.51-.2,9.7,2.83,1.23,1.36,8.2,1.44,11,5.54,0,3.54,2.55,3.54,7,0,5,.56,11.88,6.17,13.75-1.57.92-4.17,1.5-3.9,3.75"/><path class="cls-2" d="M431.8,71c0,13.06-.82,26.64,1,39.39,1,6.88.65,14,1.9,20.92.72,4,2.27,7.63,3.75,11.46,1.08,2.77,2.08,6.92,4.29,8.83"/><path class="cls-2" d="M635.3,319.33c-1.48-.88-2-5.56-2.56-7.64a77.2,77.2,0,0,0-2.64-8.79,103.91,103.91,0,0,0-6.26-12.84c-2.55-4.35-3-8.6-4.24-13.81-.93-3.86-1.18-8.81-3.9-11.86-2.55,2.16-1.41,6.05-3.73,8.21-1.85,1.72-5.18,2-7.7,2.44-2.24.4-10.22,2.29-12.31.82s-1.48-6.11-4.07-7.94-8.78-.31-10.54-2.65c-.55-.73-.09-3.32-.39-4.31-1.39-4.54-5.13-4.55-8.06-7.27-5.16-4.79-3-20.56-13-17.55-.3-4-3.7-6.84-5.56-10.1-2-3.61-2.87-7.2-4-11-2.41-7.86-8.68-14.06-12.62-20.94-1.65-2.88-3.38-5.78-5-8.81-1.14-2.1-.93-2.71-3.13-3.45s-5.42,1-7.35,0c-2.67-1.32-1.43-4.23-2.43-6.59-1.86-4.36-7.94-1.85-8.76-5.84"/><path class="cls-2" d="M288.84,156.67c0-4.24.75-8.44,4.37-11.23,1.11-.85,3.41-.78,4.23-1.87,1-1.31.5-3.95.51-5.49,0-1.84-.44-4,.72-5.5s3.28-1.33,4.49-3.34c2.14-3.55,0-7.87,1.26-11.61,1-3.13,3.88-5.11,4.49-8.37.52-2.75-1-6.51-.05-9.11.68-1.9,3.32-3.92,4.4-5.61a13,13,0,0,0,1.84-4.6,88.75,88.75,0,0,1,4-12.32c2.32-5.74,3.68-11.8,5.54-17.59,1.74-5.43,4.39-9,7.67-13.5a74.8,74.8,0,0,0,7.93-14.61c1.64-3.84,4.81-7.34,6.64-11.25,1.08,1.46,1.33,3.55,2.09,5.43,1.42,3.5,4.5,5,5.16,8.77.46,2.7-1.48,7.08-.43,9.41s4.28,2.36,4.78,5.17"/><path class="cls-2" d="M635.3,233.26c-10.8-3.88-21.27-8-31.44-13.75-9.48-5.36-17.33-12.38-26.81-17.61a241.14,241.14,0,0,0-23.51-11.8c-6.74-2.81-14.2-5.54-20.35-9.45-10-6.38-17.36-16.32-24.46-25.39S495,137,485.43,131c-9.37-5.92-19.58-12.51-27.73-20-4.35-4-6.16-7.35-6.94-13.06s-1.35-11.32-3.37-16.61a236,236,0,0,0-10.76-24.82,88.92,88.92,0,0,1-5.29-11.4c-.61-1.77-1-4.4-2.56-5.42-.82-.53-7.25-.49-7.88.06-.89.77-.53,2.76-.75,3.8-1.33,6.28-8.76,12.91-6.59,19.43"/><path class="cls-2" d="M350.11,27.2c-.38-3.57,3.89-6,5.78-8.49,1.13-1.48,2.22-5.85,4-6.4,3.77-1.15,2.57,3.26,5.47-.79a39.8,39.8,0,0,0,3.73-7.61c4.58-.23,5.3-.45,6.14,3.8.54,2.73.9,5.81,1.45,8.64,1.78,9.11,3.92,18.44,8.79,26.26,3.75,6,7.72,10.55,10.7,17,2.74,6,5.08,14.68,9.7,19"/><path class="cls-2" d="M304.88,129.32c5.4-2.28,9.43-7.69,13.76-11,3.67-2.82,3.1-3.91,4.47-7.94.88-2.58,3.63-4.57,5.49-1.11,3.15-3.9,6.86-7.17,9.1-12,1.79-3.85,1.54-4.88,5.93-5.1s5.7-.45,8.32-4.2,3-8.8,8.08-10.77c3-1.16,4.14.25,6-3.28,1.24-2.32.55-5.33,2.36-7.24,3.52.34,10.91,8.4,12,12"/><path class="cls-2" d="M335.15,125.3c5.38,0,11.59-9.41,15.6-12.56,4.89-3.83,5.16-6.58,6.28-12.59,1-5.46,3.78-4.92,6.19-9,2.52-4.26,3-10.08,9.5-10.34"/><path class="cls-2" d="M390.59,91c.54-4.56-2.62-5.62-5.59-7.92-2.64-2-2.88-5-5.35-7-2.56,1.7-3,4.72-4.38,7.27"/><path class="cls-2" d="M302.33,137c-2.44-.16,4.4-12.44,5.93-3.8.43-2.06,2.78-9.57,5.31-5.49.81-2.56,1.9-7.9,4.74-8.53.22.81,1,1.61,1.16,2.23.32-1.48,1.52-6.29,2.86-6.63a8.17,8.17,0,0,0,1.22,3.19c1.94-2.37,2.89-5.74,4.31-8,.67,1.55.8,4,1.81,5.61,2.39-2,2-4.48,2.65-7.23.48-2,2.17-5.45,3.18-1.68.92-2.3,1.08-6.45,3-7.95,1.41,1.61,1.7,4.43,2,6.39-.15-3,1.44-7.58,3.1-10,1.28,1.9,1.16,5.54,2.15,8,3.34,0,2.37-8.39,3.64-10.83a1,1,0,0,1,.88-.07c.84,2,.12,4.32.89,6.24.92-2.59.78-4.28,2.49-6.73,2.23-3.17,6-5.55,8.4-8.23.07.56.28,1.24.33,1.71a31.44,31.44,0,0,0-.13-8.58c-1.71,2-3.52,6.83-4.19,9.52,0-1.29,0-3.67,0-5.38a34.92,34.92,0,0,1-1.53,11C353.23,88,359.26,79.51,362.83,78a32.82,32.82,0,0,0,1.05,7.46,82,82,0,0,1,2.72-13.33c.38,2.52,1.19,5.38,1.07,8,1.57-2.58.82-7.82,2.8-9.53-.05,2.7.41,5.4.43,8.14-.19-1.72.53-3.22.72-4.87"/><path class="cls-2" d="M336.61,80.08c0-2.09-.12-8.63,2.64-9.51,3-.95,3.87,4.06,7.53-.22,2.45-2.88,3.39-8.11,5.51-11.43,1.85-2.88,4.07-5.09,5.17-8.32a1.45,1.45,0,0,1,.68-.13A33.24,33.24,0,0,1,360.29,57c2.69-3.16,2.49-8.23,4.43-11.87.66-1.23.2-3.17,2.17-2.29,1.22.54,1.24,3,1.09,4"/><path class="cls-2" d="M351.56,25.74a24.87,24.87,0,0,0,4.31-2.53c1.13,3,.11,6.72.59,9.88,3.39-.16,6.18-4.3,9.24-5.85,1,6.77-6.8,9.85-9.72,15.17,2.23-.65,4.25-2.19,6.44-2.27a32.65,32.65,0,0,1,.09,4.2"/><path class="cls-2" d="M369.44,42.15c3.58.48,4.89-3.4,7.85-3.85,1.56,9.55-2.68,18.17.55,27.59,1.34,3.9,3.25,6.13,6.19,9.08,2.69,2.7,3.46,5.85,5.46,8.76"/><path class="cls-2" d="M385.12,40.33c-.46-3.93,2.77-7.92,4.83-11,1.68-2.48,3.87-7.57,6.39-9.08,1.65,3.49,1.82,7.83,3.1,11.56,1.72,5,4.93,8.84,6.47,14.33,1.44,5.13,2.39,10,4.37,14.9,1.75,4.36,2.94,9,4.38,13.53"/><path class="cls-2" d="M434.35,49.81c2.11-.05,4.19-3.52,5.85-3.35,1.17.12,2.15,2.61,3.19,3.3.71-1.32,1-3.13,2-4.32,1.94-2.41,2.62-1.55,6-1.37,4.84.24,5.45-2.79,8.82-6,6-5.81,15.55-16.82,24.44-10.84a30,30,0,0,1,10.66,11.52c1.24,2.54,1.69,5.62,3.44,7.87,1.3,1.68,3.6,2,4.94,3.55,1.66,1.89,1.43,3.2,1.74,5.5.55,4.12.29,3.85,4.5,5.4,6.7,2.47,1.82,8.13,6.73,12.24,3.08,2.57,5.42,1.73,7.46,5.25.83,1.44,1.11,3.38,2.26,4.9,2.75,3.64,5.69,6.25,7.22,10.52,2.63,7.35,3,16,9,21.87,2.86,2.79,7.38,4.69,9.43,8.12,1.89,3.16-.65,9.81,1.6,12.23s9.34-.84,12.61,1.35c2.85,1.89,3.62,6.9,5.63,9.58,1.22,1.62,2.64,3.48,4,5,2,2.29,2.53,3.57,4.22,6.46a32,32,0,0,0,7.48,8.54c3.25,2.75,6.72,6.3,10.77,8,2.39,1,5.09.91,7.57,1.9s4.06,2.82,6.16,4.39c3.58,2.66,7.55,4.8,10.61,7.68A62.92,62.92,0,0,0,633,196.86c4.35,2.73,8.83,5.26,12.87,8.39,2.51,2,3.6,3.73,5.46,6.48,2.38,3.51,2.6,7.1,5.11,10.59a54.26,54.26,0,0,0,13.15,13.12"/><path class="cls-2" d="M307.07,123.85c1.4-4.09,6.85-9.19,9.85-12.38s6.38-6.15,8.74-9.85c1.95-3.05,5.45-6.75,6.5-10.23s-1-8.06-1-11.67"/><path class="cls-2" d="M466.45,109.26c-.61-5.52,5.15-13.59,8.27-17.86,2.9-4,2.84-6.05,3.74-10.69,1.16-6,6.13-9.78,9.5-14.75,3-4.35,5.39-9.47,7.88-14.2,1,6.27.12,13.21.88,19.56.69,5.82,2.77,11,3.62,16.77.76,5.12,2.77,9.79,4.32,14.66.88,2.77,2.15,5.42,2.72,8.34.65,3.32.16,6.5,1.46,9.83,10.23-2.21,6,11,8,15.66,1.67,4,5.39,3.78,6.17,9.14.51,3.44-.32,7.24.72,10.58"/><path class="cls-2" d="M445.29,68.05c0-5.44.46-10.45,5-13.5,4.22-2.8,6.53-2.5,8.51-6.92,2.56-5.69,4.21-5.88,9.79-5.38,3.72.34,6.6-1,7-5.15,4.24.91,6.17-3.28,6.87-7"/><path class="cls-2" d="M498.18,43.61c0-1.41.84-7,2.81-7,2.19,0,.89,2.95,1.64,3.71,1.55,1.6,2.39.87,4.7.62,7-.76,11.91,1.53,14.29,8.12,1.87,5.22,1.45,11.43,2.82,16.79,1.64,6.36,3.1,13.18,5.46,19.32"/><path class="cls-2" d="M535.37,108.89c-.31,4.63,2.46,10,3.74,14.42,1.41,4.8,2.52,9.5,4.65,14,1.2,2.52,2.83,5.45,3.23,8.28.44,3.11-.61,6.4.7,9.28,1.42,3.16,4.91,4.53,7.13,6.91,2.48,2.67,3.46,5.78,4.6,9.09,2.54,7.37,4.85,14.1,8.05,21.18"/><path class="cls-2" d="M594.82,176.36c2.32,3.5,2.6,8.34,4.92,12.11,2,3.26,4.65,5.91,6.13,9.43,1.75,4.15,1.27,8.89,2.73,13.12a39.43,39.43,0,0,0,4.46,9.47"/><path class="cls-2" d="M467.54,323.34c2.7.31,4.83-4.08,6.92-5.89,4.4,3.61,7.52-3.65,9.51-6.52,1.66,4.08,9.89-2.6,12.26-4a8.83,8.83,0,0,1-1.28,1.21c.1-4.83,9.46-3.52,12.21-7.12a14.33,14.33,0,0,0-1.34.79c1.3-4.17,11.92-6.6,15.66-9.8-.12.9.16,1.89,0,2.81,5.34-6.54,14.4-10.67,17.59-18.67a6.51,6.51,0,0,1-1.54,4.42,88.58,88.58,0,0,1,4.82-8.46c-.05-3.93.2-7.94-.1-11.84a26.68,26.68,0,0,0-.6,4.89c2.37-3.62,2.69-8.41,5.45-11.68-.05,1.88.15,3.69-.43,5.5,1.11-3.36,2-7.7,3.87-10.64,2.84-4.34,7.72-6,11.84-8.58,0,1.47,0,3,0,4.43a6.66,6.66,0,0,0-1.1-4"/><path class="cls-2" d="M384.75,322.61c2.81-2.84,5.15-6.49,7.65-9.62,1.56,1.42,1.28,3.63.74,5.55-.81-4.14,5-9,8.73-9.76,0,.47.05.94.09,1.39,3.81.7,8.25-3.23,11.29-5.24a2.41,2.41,0,0,1-2.55,2.7c-.31-4.76,1.25-9.34,5.78-11.64a13.06,13.06,0,0,1-1.87,2.42c.44-3.76,2.92-6.55,4.73-9.65-.23,1.08,0,2.09-.55,3.2,2.48-.15,4.86-1.5,7.15-2.28a10.18,10.18,0,0,1-3.06,3.07c.11-6.34,11.1-12.13,15.42-16.3a3.4,3.4,0,0,1-1.7,4.21c-.16-1.61,1.06-2.8,2.58-3.4a4.31,4.31,0,0,1-1.25,3.43c4.88-1.94,9.64-5.42,13.78-8.56a3.18,3.18,0,0,1-3.2,2.78c1.25-5.41,10-13,15.37-14.28a7.72,7.72,0,0,1-2.52,4c-.59-3.49,7.68-7.93,10.42-9.71a.86.86,0,0,1,.18.62c3.35-2.78,6.76-6.05,10.12-9-.07,1.88-2.58,4-4.37,4.19,2.64-5.74,12.09-5.43,16.22-9.81a3.88,3.88,0,0,0-3.49.66c3.88-1.19,9.81-4.48,11.62-8.23a11.69,11.69,0,0,0-1.28.84c0-2.18,4.24-3.67,5.52-5.61a2.85,2.85,0,0,1-1.27,3.83c1.09-3.17,7.85-7.58,9.86-8.19-.57-1,3.7-3.95,5.14-5a26.48,26.48,0,0,1,0,3.45,74.61,74.61,0,0,0,4.12-8.9c-.07.65,0,1.36-.1,2,.32-2.79,2.55-5.37,3.72-7.92,0,.88,0,1.81,0,2.68,0-4.58.77-6.82,2.58-10.92,0,1,0,2,0,2.93.49-2.7.3-7.52,2.2-9.39"/><path class="cls-2" d="M146.24,275.2c0,.73-.11,1.18.33,1.78,3.19-1.12,6.35-3.83,9.11-5.69.09,2.11.06,4.25,0,6.36-.3-3.1,4.65-9.82,7.63-10.47-.13,1.15.18,2.45.08,3.63,2.82-.79,4.22-5,6.84-5.71.12,2,.08,4,0,6,.71-1.61.11-3.51.8-5.25,1.37-3.44,6.94-6.57,10.41-7.39.19,1.32,0,3,.25,4.18,1.82-1.46,3.41-3.35,5.34-4.6-.16.84.2,2.2.11,2.83,3.56-3.29,7.05-8,11.08-10.41a28.32,28.32,0,0,1-.15,7.91,43.63,43.63,0,0,1,5.05-4.86c0,.69.5,1.87.43,2.65,2.32.36,7-7.59,7.35-9.49a9.3,9.3,0,0,1,.54,1.52c3.22-.09,7.65-3.81,10.59-5.36.13.7,1,1.74.9,2.65,2-1.27,3.54-3.5,5.62-4.52-.85,4.92,5.88-.37,7.68-.42.05.4,0,.78,0,1.19,1.92.54,3.31-1.06,4.48-2.6.15.38.85,1,1,1.48,2.8-.89,2.45-5.27,5.09-6.23.56,1.56.36,3.41.39,5.09,1.76-.33,2.36-2.31,2.51-4"/><path class="cls-2" d="M277.17,215a10.58,10.58,0,0,0,0-1.69c-1.8,2.91-4.25,6.92-6.52,8.95-.28-4.15,6.68-9.12,10.17-10.67a21.87,21.87,0,0,0,.19,3.07,21.67,21.67,0,0,0,4.24-6.45c0,1.56-.23,3.29.29,4.62a28.29,28.29,0,0,0,5.66-7.29,23.17,23.17,0,0,1,.23,4.82c1.11-3,4.18-9.9,6.86-11.4.1,1.79.06,3.61.05,5.41.1-1.83.34-3.88,1.51-5.36-.15.8.08,1.67,0,2.46,1.93,0,4.56-3.79,6.21-4.82,5.15-3.2,16.49-9.32,22.65-8.73.2,1.47,0,2.35-1,3a7.82,7.82,0,0,1-.16-2.9"/><path class="cls-2" d="M471.55,114.73c1.49-4.18,5.57-7.25,7.2-11.41.9-2.29,1-7.95,3.76-8.27,3.35,7.88,8.1,15.07,11.55,22.92,1.74,4,3.2,5.72,5.81,8.94,1.58,2,1.32,2.67,1.95,5,1.45,5.41,7,9.4,8,14.86,0,.45-.25.46-.7,0"/><path class="cls-2" d="M485.05,85.55c.89-2.06-.38-5.29.35-7.65.9-2.9,3-3.49,4.91-5.56,3.74-4.14-.54-6,.21-10.86"/><path class="cls-2" d="M462.43,67.68c3.47.9.45,9.4,1.07,11.95.58,2.38,2.49,3.13,2.58,5.92s-1.66,4.37,1.1,5.84"/><path class="cls-2" d="M452.22,77.16c-.19-4.39,3.5-7.68,4.58-2.19.51,2.56-.09,5.15.89,7.66"/><path class="cls-2" d="M476.66,53.82c.71,2.13,2.48.19,4,1.52.89.79,1,4.32.81,5.49-.75,5-2.28,3.78.33,8"/><path class="cls-2" d="M477.75,42.15a3,3,0,0,1,2.87-2.87c.08,1.76,0,3.67.17,5.37.59-.11,1.44.22,2,.11.35,2.61,1.91,4,3,5.78"/><path class="cls-2" d="M490.88,42.88c-.33.77-1.31,2.55-1.12,3.32.43,1.73,2.15.7,2.55,1.73.89,2.3-1.11,4.73-2.44,6.2a20.62,20.62,0,0,1,2.06.11A10.17,10.17,0,0,1,492,57.1"/><path class="cls-2" d="M488.69,102.69c-1.28-2,1.55-3.54,3.31-4.35,1.67,4.53-3.55,9.11,1.8,11.28"/><path class="cls-2" d="M509.12,95.76c.92,2.11.33,5.82,0,8.32a3.23,3.23,0,0,1,.91.2c.32,2.46-1.23,7.52,2.64,7.22.7,2.8-1.28,3.75-2.83,5.34,1,.88.64,1.66.7,3"/><path class="cls-2" d="M523,98c.82,2.5.51,7.51,4.33,6.6a4.54,4.54,0,0,1-1.77,4.79c1.6,1,3.4.78,4.65,2.45,1,1.41.55,3.69,1.23,5.15,1,2.15,2.25.74,1.8,3.9-.29,2.08-3.79,3.14,0,4.83"/><path class="cls-2" d="M524.43,149c-.28-2.3,6.28-6.56,8.37-6.5-.84.84-.64,1.63-1,2.44,2.55.14,5.62.54,7.92-.64-1.75,2.4-10.62,5.29-14.2,4.7"/><path class="cls-2" d="M505.83,120.93c1.93,1.62,2.5,4.54,3.87,6.69-.08-1.65,0-3.76-1-5.43a8.87,8.87,0,0,0,1.45,3,10.06,10.06,0,0,0-1.35-5.16c-.07,1.4-.06,4.3-.06,5.05,0-2.07-.54-4-.36-6.13a31,31,0,0,1,0,3.2,8,8,0,0,1-1.13-2.28"/><path class="cls-2" d="M454.41,58.56a8.51,8.51,0,0,0,0,1c-.27-2.28,1.46-5.67,2.85-7.46.29,1.88.73,3.8,1.18,5.59-.45-3,1.37-7.62,2.63-10.43.1.32.55.92.69,1.43,1.68-1.16,2.13-3.66,3.7-5,.26,1.13,1,1.49,1.65,2.11a7.72,7.72,0,0,1,1.52-3.29"/><path class="cls-2" d="M507.29,56.38c5-7.43,4,1.08,8.61-.67.44-.17,2-4,2-4.46-.08-.73-1.88-1.84-2.16-2.84,3.55,0,2.59-3.15,1-4.51-1.82-1.59-5.34-1.7-7.62-2.34.39,5.14-4.23,4.69-4.41.23"/><path class="cls-2" d="M470.46,83.36c0-3.28-.52-7.25,1.13-10.16-.1,3.34,0,6.68-.06,10A10.91,10.91,0,0,1,473,79.85c.12,2.28.05,5.93.05,7.62v2.46"/><path class="cls-2" d="M548.87,217.94c.3,3.15,6.23,6,9.16,6.94a62.57,62.57,0,0,1,13.18,5.84c8,4.67,16.19,8.52,24.26,13.12,15.76,9,32.86,16,49.32,23.62C664,276.34,681,288.84,701,296"/><path class="cls-2" d="M531.36,188c.22,3.51,7.79,5.67,10.51,7.41,3,1.91,6.06,3.76,9.25,5.88,10.19,6.75,21.46,10.29,30.65,18.33,12.77,11.18,29.09,17.44,43.72,25.37,8.87,4.79,18.1,9.95,26.85,15.21,5.25,3.15,11.49,5,17.2,7.65,3.55,1.66,7,3.85,10.62,4.76"/><path class="cls-2" d="M552.15,226.69c2.13,2.91,7.66,5.91,10.84,7.74,4.24,2.44,8.87,2.8,13.24,4.36,6.3,2.24,11.94,8,17.32,11.59,14.38,9.72,33.75,12.45,49.06,21.61,8.9,5.34,18.64,10.84,28.11,14.25a32.43,32.43,0,0,1,6.89,3.64c3.25,2.09,7.2,3.22,10.84,4.9,4.54,2.1,9.46,4.17,13.23,7"/><path class="cls-2" d="M539.39,199c1.64,5.49,15.82,9.67,20.79,12.42,7.69,4.26,13.48,9.14,20.27,15.24,15.1,13.55,35.85,16,53,24.89,8.27,4.26,15.81,10.71,24.61,14.64a144.34,144.34,0,0,0,15,5.67c5.13,1.66,10,4.48,15.08,5.92"/><path class="cls-2" d="M529.9,185.85c3.37.92,6.56,5.15,9.83,6.83,4,2,8.33,2.49,12.09,4.56,6.5,3.58,12.9,7.73,19.6,11.4,14.72,8.06,27.25,17.68,43,23.59,6.27,2.36,12,6.28,18.33,9,7.08,3,13.59,6.75,20.6,9.95,5.67,2.58,11.33,4.88,16.95,7.58,2.76,1.32,5.68,1.93,8.51,3s5.58,3.11,8.66,3.67"/><path class="cls-2" d="M547.41,212.47c2.27-.25,3.38.92,5.12,2,3.36,2.1,7,3.53,10.51,5.37s6.27,5,9.74,7.23c3.83,2.44,8.27,3.76,12.19,6.19,3,1.86,6.19,3.72,9.14,5.54,13.63,8.39,30,11.17,44.11,18.77,17.71,9.53,36.21,17.5,54.71,26"/><path class="cls-2" d="M565.28,243.1c1.72,2.61,7.19,4.49,9.92,6.28,3.57,2.35,7.84,3.83,11.87,5.3,6.76,2.47,16.18,5.36,21.61,9.94"/><path class="cls-2" d="M620.72,271.91a177.53,177.53,0,0,0,33.91,15.32"/><path class="cls-2" d="M613.79,250c2.79-.47,4.9,2.17,7.31,3.12s4.74,1.49,7.27,2.74c7.17,3.53,14.85,6.67,22.24,10.08,3.51,1.61,6.26,4.37,9.42,6.33a41,41,0,0,0,10.51,4.24A109.41,109.41,0,0,1,695.48,288"/><path class="cls-2" d="M618.16,258.79c3.84.41,7.08,3,10.3,4.67s7.2,2.83,10.85,4,5.12,1.66,7.94,4.2a25.05,25.05,0,0,0,8.42,5.11c3.42,1.31,6.79,3.26,10.19,4.75a51.7,51.7,0,0,0,7,2.36c3.37.91,3.33,1.33,5.52,3.36,7,6.51,15.43,6.88,23.63,10.58"/><path class="cls-2" d="M624.36,266.44c-.5,1.13,30.71,16.92,34.94,18.9,6.49,3,13.16,5,20,7.44,5.38,1.91,10.65,5.7,15.47,8.68"/><path class="cls-2" d="M612.33,234.35c4,1,7.53,4.05,11,6.2s7.49,3.32,11.29,4.91c6.2,2.61,11.64,6.34,17.93,8.87,6.92,2.79,12.73,7.22,19.58,9.94,4.69,1.87,11.5,2.72,15.65,5.46"/><path class="cls-2" d="M329,318.6c7.36-1.35,14.49-3.22,21.95-4.2,6.12-.8,13.48-3.31,19.66-2.71a29.62,29.62,0,0,1-15,2.84c-1.11-6.55,16.65-11.89,22.58-12.74a43.78,43.78,0,0,0-6.52,2c6.78-3.75,15.87-6.3,23.47-8.48-5.44-.41-11.09,1.73-16.46,2.48a118.74,118.74,0,0,1,22.85-9.07c5.07-1.46,19.33-5.28,20.86-11.29-5.1-.46-11.89,3.42-16.84,4.7.48-4.39,16.88-5.39,20.52-8.61-.68.52-1.87.83-2.61,1.29-1-4.34,10.24-12.18,13.87-13.44-1.31,4.56-5.85,5.94-7.8,9.64,7.38-4,15.08-11.69,20.48-18.22-1.59,2.83-3.32,5.9-6,7.89,2.54-5.13,7.75-9.33,11.14-14,2.5-3.4,6.49-8.72,10.83-9.37.11,4.06-7.88,8.23-10.67,10.9,2.78-6.88,10.89-8.28,15-13.77-.36.63-.57,1.26-.92,1.92,2.34-3.24,5.27-6,7.75-9.16,1.84-2.34,3.62-6.07,6.42-7.25.18,4-2.76,7.6-4.84,10.68,6-2,12.45-6.81,17.63-10.44a23.36,23.36,0,0,1-4.85,3.95c4-6.55,11.77-9.86,15.56-16-2.85,1.55-5.09,4.5-7.75,6.49,2.91-4.63,8.4-7.25,11.09-11.89a15.54,15.54,0,0,0-2.18,3.46c4.67-1.13,8.43-6.61,10.45-10.73-1.27,2.12-3.21,4-3.38,6.49,3.63-2.23,8.05-8.83,9.13-13.2"/><path class="cls-2" d="M383.66,223.41c1.29,1.39,1.16,3.48,1.51,5.43,4.16.53,5-1.3,5.78,3.15.43,2.43,0,5.39,0,7.83"/><path class="cls-2" d="M417.94,294.16c0,2.42,0,4.84,0,7.25,0-2.42,1.76-4.11,2.21-6.45,0,2.33.27,4.81-.41,7,1.55-3.25,4.1-5.88,5.56-9.17,0,4.22-1.19,12-3.32,15.4.25-4,5.18-7.73,6.84-11.16.24,3.72.07,7.52.07,11.26.05-.44.05-.93.07-1.37.8,1.15.79,3,.63,4.6.14-1,.75-1.49,1.13-2.42"/><path class="cls-2" d="M441.28,280.67c-.27,2.72-.93,5.62-.72,8.36,3.11-.32,3.53-4.18,4.82-6.45-.92,3-2.34,6.05-3.49,9-1-3.26,1.94-6.65,2.35-9.88,2.24,2,.86,7,1.15,9.92,2.25-.92,4-4.2,4.68-6.54-.08,2.4,0,4.82,0,7.23"/><path class="cls-2" d="M479.21,249.3c-1.72,2-3.18,8.78-3.09,11.25,2.58-1,5.2-5.33,6.33-7.87.22,5.25-.28,9.69-3.12,14.21a6.57,6.57,0,0,1,2-4,17.54,17.54,0,0,1-1.06,8.31"/><path class="cls-2" d="M532.46,202.26c0,4-1.13,10,.46,13.8A47.51,47.51,0,0,1,537.13,206c.52,4.82-2,9-1.75,13.64a11.36,11.36,0,0,1,1.77-7.08c.11,3,.91,7.27-1.4,9.6a10.22,10.22,0,0,1,1.85-4.83c-.09,3.49,0,7,0,10.48"/><path class="cls-2" d="M449.67,300c3.55-2.22,5.09,8.21,5.08,10.46,1.15-3,1.59-6.64,2.95-9.33.92,2.35.77,6.85,0,9.31a7.85,7.85,0,0,1,1.88-3.15c1.16,2,.56,4.87.7,7.25.56-.4,1.78-.56,2.46-1.28.75,1.43.39,3.58.4,5.34"/><path class="cls-2" d="M481.4,301.46a5.17,5.17,0,0,0-.76,3.51,7.36,7.36,0,0,1,.61-3.35,5.34,5.34,0,0,1,2,2.75"/><path class="cls-2" d="M474.83,303.28c1.8.72,7.74,1.27,9.41-.53a11.41,11.41,0,0,1-2.06,7.25c-.28-2.57,0-5.85,1.41-7.89.93,1.78.39,5.43.34,7.68a11.23,11.23,0,0,1,1.14-2.44,5.2,5.2,0,0,1,.34,2.86"/><path class="cls-2" d="M492,297.08c5.89.45,12.14-3.57,16.19-7.61,0,2.53-3,3.86-5.13,3.93,7.86-6.29,15.44-9.65,21.69-17.31a8,8,0,0,1-2,6.89c2.24-3.84,6.73-6.42,8.75-10a5.74,5.74,0,0,0-2,1.66c2.07-3.45,4.6-7.41,7-10.64-.44,1.2-1,2.51-1.35,3.62,2.85-3,5.27-9.23,5.75-13.11a15.65,15.65,0,0,0-.17,4.61c4.47-.63,5.56-10.52,6.65-14.17,0,1.2-.15,2.52-.28,3.77-.14-3.87,1.35-8.54,2.57-12.08a41.39,41.39,0,0,1-.42,6.95c.85-3.64,1.76-8.37,3.68-11.48"/><path class="cls-2" d="M475.56,230c-.59-.25.18,2.12,1.11,2.95,3.39,3.05,12.53-2.39,15.86-3.38-4.58,1.22-8.59,3.94-13.09,5.25,2.55-.49,5.35-2.2,7.85-2.12,0,3.68-5.09,5.63-6.2,9a6.53,6.53,0,0,0,3.57-1.36c-.05,2.12-2.39,3-3.61,4.22,2.57.19,5.66-.49,8,.43"/><path class="cls-2" d="M479.58,195c-.11-.78.06-1.27-.71-1.75-1.45,1.48-3.25,3.65-3.23,5.69,2.83-1.33,5.61-3.39,8.38-4.94-2.28,1.34-4.67,2.7-6.87,4.06a23.39,23.39,0,0,0,6.77-.75,19.87,19.87,0,0,1-1.52,2.1c.43.11,1.25.58,1.7.66-2.42,1.47-5.81,2.54-7.49,4.8,1.92.53,14.63.7,5.52,3.26"/><path class="cls-3" d="M177.91,319.3c3.75-1.1,7.12-3,10.94-4,3.6-1,7.52-1.06,11.32-2.26,7.73-2.45,13.3-9.14,19.22-14.21,5-4.29,13.11-2.65,19.29-4.22,1.51-.38,4.14-.94,4.9-2.33,1-1.77.43-8.72.25-10.52-.28-2.82-2.26-.53-.56-4.11a23,23,0,0,1,5.21-5.74c3.35-2,6.43.94,8.12-3.92a11.84,11.84,0,0,0,.58-3.69c3.4.4,10.1-3.82,13.42-5.14,4.35-1.73,9.43-2.86,13.11-5.88,1.64-1.34,1.78-3.05,2.88-4.34,2-2.37,6.86-1.6,10.38-3,4.29-1.7,8.19-4.46,12.61-5.82,4.07-1.26,7.57-2.41,11.27-5,4.21-3,7.73-5.55,12.44-7,4-1.26,7.37-1.2,11.61-1.72,10.75-1.32,21.51-5.56,31.76-9.21,4.27-1.52,7.49-2.21,11-5.38,4.6-4.09,6-7,11.84-9.13,11.82-4.2,24.92-5.3,36.85-9.12,9.19-2.95,19.55-5.32,28.72-8.82,3.09-1.18,6.05-3.18,9.3-4.31,3-1.06,8-1.61,10.4-3.63,1.82-1.51,2.18-3.15,3.8-4.66,2.21-2.08,5.95-2.83,8.68-4.09,1.15-.53,6.84-2.67,5.52-4.78-.91-1.44-6.76.2-8.31,0a7.15,7.15,0,0,0-.75-4.35c2.92-.73,6.12-1.5,9-2.49.39,2.51,1.54,4.38,4.29,4-.41-2.77-6.31-4.73-9-5.13-4.41-.66-8.25,1.15-12.4,1.92-2.11.39-4.44.23-6.57.64-2.83.53-3.31,1.64-5.71,3.09-3.81,2.3-9.87,1.49-14.28,1.22a3.09,3.09,0,0,1,3.4-3.93c-1.71-1-4.42-.59-4.52-2.88,5.58-.32,9.89-2.92,15-5.24,2.95-1.36,12.62-3.1,11.58-6.8-4.41-.23-7.54,1.71-11.62,2.14s-8,.56-12,1.11c-4.53.62-8.73,2.42-13.12,3.34-2,.42-5.23,1.49-7.3,1s-2.72-2.23-5.05-2.61a6.45,6.45,0,0,0,0-1,5,5,0,0,0,3.2-.87c-3-3.44-7.64,1.12-10.84.39a32.92,32.92,0,0,1-.75-3.65c-14.58,8.46-30.88,15.43-46.28,21.6-3.52,1.42-16.05,12.17-20.16,8.84-3.65-2.94,1.51-6.48,2.57-7.74,3-3.58-2-4-5.07-5.05,1-1,2.29-1.83,3.29-2.63-.94-1.14-2.21-2.23-2.54-3.59,5.88-1.57,7.7-5.9,12-9.44,2.18-1.78,5.13-2.91,7.15-4.46,3-2.3,2.87-5.48,5.19-8.25,3.61-4.29,10.66-5.05,15.32-7.92,3.34-2.07,11.39-5.88,12.65-9.32-3.46-.56-7.16,1.42-10.48,1.34,1.42-2,2.89-4.06,4.36-6,.68-.92,1.35-.77,1.86-1.91s-.51-2.58.33-3.65c1.41-1.81,5.67-1.22,7.68-2.53s2.92-3.19,4.18-4.7c-1.61-.08-3.26-.08-4.86,0-.37,2.21-3.32,5.11-5.73,4.62-1.12-.24-3.23-3.71-3.81-4.67-2.08-3.42-1.19-4.32,1.37-7a45.73,45.73,0,0,0,3.47-3.88,19.9,19.9,0,0,0,1.73-2.6c1.42-2.49,1.87-4.33,5.11-5.56,2.28-.87,7.51-.79,8.78-2.82.48-.78.66-5.35.7-6.21.11-2.23-.74-4-.77-6.15-.35-.15-1.94-.7-2.14-.74a37.4,37.4,0,0,0-4,3.25c-.76.65-1.51.4-2.29,1.08s-.93,2.27-1.7,2.94c-1.15,1-3.21,1.68-4.6,2.81-1.9,1.55-2.57,2.43-5.57,2.33.35,3.27-2.82,1.52-4.72,2.42s-1.92,2.15-3.35,3.72-4.1,2-5.79,3.36c-1.45,1.19-.08,2.84-3.34,2.85"/><path class="cls-3" d="M237,316.38c-6.15-2-8.43-4.32-8-10.89,3.11-1.49,6.5-1.77,9.25-4.05,3.35-2.79,2.9-5.94,7.39-4.29,2.2.81,5.16,3.82,7,1,1.07-1.6-1.1-6.87,3.55-4.41.53-3.29-3.28-4.63-2.79-7.62.43-2.61,4.14-2,1-5.83"/><path class="cls-3" d="M247.2,274.8c8.78,0,11.95,1.7,18.58,6.93,1.06.84,4.09,1.71,4.68,2.52,1.32,1.79.05,3.6,1.54,5.15.34.36,1.83.07,2.19.42a16.41,16.41,0,0,1,1.09,1.76c.53.39,1.65,3.76,3.22,1.11.87-1.45-2.63-9.7-3.6-10.77-1.89-2.07-7.13-5.79-.71-8.14,3.87-1.42,4.65,2.65,7.3,2,1.48-.34,1.28-3.22,3.93-.4,1.27,1.34,1.48,4.18,1.52,5.91,2.11-.25,4.07-.87,6.2-.64-.21,2.16,0,4.77,2.56,5.36,1.2.27,2.61-1.21,3.31-1.05.22.05,1-.42,1.46-.3.73.17.12,2.13.32,2.17,4.11.71,3.22-6.54,5.86-6.64,2.1-.07,2.36,4,4.74,4.42"/><path class="cls-3" d="M297.53,312.73a4.73,4.73,0,0,1-.23-3.23c1.53.48,5,3.11,5.67.09-1.82,0-4,2.07-3.58,4.2,3,.83,4-1.06,4.78-3.43.53-1.61-.76-4.79-.37-5.58,1.2-2.37,13-1.49,6.68-6,2.88,1.09,5,3.38,5.28-.68.21-3.06-2.84-3.7-2.67-6.2.16-2.27,2.75-4.72,3-7.29.43-3.84-.06-3.61,3.52-4.35-4.86-5.45,2.3-9.38,7.36-9.82a7.14,7.14,0,0,0,.76,3.55c2.7-.44,6.27-9.32,9.44-6.16s-2.88,9-3.64,11.63c-4.46-.31-5,2.67-.7,3.77-.25.7.05,1.74-.28,2.39a32.47,32.47,0,0,0,3.17,1.24c.49,2-.87,3.34-1,5.22.33-3.35.45-7.72,3.34-9.95,1.75-1.34,2.92.24,3.59-2.61.4-1.7-.56-3.46-1-5,1.33-.82,4.82-2.2,6.19-.92.82.76-.37,2.72.31,3.35,1.63,1.51,5.35-.81,6.81-1.52,5.14-2.51,10.5-3,16.1-4,2.44-.44,4.63-.46,5.49-3.27.28-.91-.7-2.22-.39-2.91,1.06-2.33,1.18-.53,3.21-1.54,4.91-2.46,10.87-5.66,6-11.51,2-.75,2.16-2.6,3.83-3.83,1.06-.77,6.2-2.49,7.72-1.66,3.05,1.66,2.45,8.07,4.75,10.76.05-1.24,0-2.59.12-3.84,2.66.48,1.89,4.36,4,5.62s4.22-.92,6.08-2.55c4.79-4.18,1-7.39,1.5-12.61.42-4.65,7.43-7.38,10.22-10.2.47-.48.46-1.6,1.36-2.31s2.13-.15,3-.69c1.59-.95,3.07-1.8,2.93-3.87a7.41,7.41,0,0,1,4.37-.8c1.2,0,3.37,1.2,4,1.14,5.16-.48,3-6.62,5.44-9.45,2.94-3.45,4.94-1.15,3.67-6.3-1.12-4.55.11-6.06,4.91-8.29,3-1.39,6.59-1.87,9.52-3.46,3.26-1.76,5.35-5.5,8.27-7.49,3.3-2.23,5.68-1.63,7.67-6.07,1.2-2.69.55-5.53,2.45-7.86"/><path class="cls-3" d="M123.93,320.76c5.08-1.56,9.59-3.68,14.59-5.45,5.23-1.85,11.31-3.61,16.85-5.49,4.69-1.59,9.34-2.05,14.09-3.27,4.28-1.1,7.23-4.66,11-6.58,4.5-2.29,10-2.56,14.32-5,3.68-2.07,7.05-3.73,11-5.65,3.47-1.7,5.6-4,9.27-5.48,4.34-1.79,9.13-2.7,13.68-4.17,4.72-1.54,7.27-5.24,11.5-7.86,3.44-2.13,6.52-2.44,10.28-3.45a17.59,17.59,0,0,0,5.11-2c1.21-.79,2-2.65,2.92-3.21,2.54-1.5,7.3-1.85,10.55-3.27,4.06-1.77,7.49-4.52,11.48-6.46a88.07,88.07,0,0,1,14.66-5.6c4.45-1.32,9-2,12.93-4.35A142.34,142.34,0,0,1,323,235.33a68.2,68.2,0,0,1,14.35-4.14c5.6-1.12,11.43.31,16.27-2.52,6.53-3.81,11.63-8.27,19-10.74,6.39-2.15,14.79-3.92,20-7.3,3.05-2,5.71-4.68,9.29-6,5.78-2.21,12.89-1.26,18.85-3.59.12-5.09,8.11-7.11,12-7.15,5,0,8.36-.89,13.13-1.84a74.11,74.11,0,0,0,11.32-3c2.92-1.07,5.33-2.76,8.15-3.86,2.12-.83,4.29-.81,5.85-1.8s3-2.72,4.92-3.55c3.74-1.59,7.64-1.93,11.35-3.93a25.37,25.37,0,0,0,6.18-4.63c2.69-2.63,5.57-3.78,8.47-6.2"/><path class="cls-3" d="M96.94,302.52c5.57-2.32,10.46-6.85,16.14-9.4,3.72-1.66,7.82-1.46,12-2.24,8.5-1.57,17.08-5.37,25.08-8.43,17.17-6.56,35.47-12.37,53.22-17.68,6.53-1.95,11.43-6.78,18.1-8.29,8.48-1.92,16.35-3.3,23.6-8.23,2.14-1.47,4.3-3.08,6.53-4.44,4.33-2.63,9.6-2.15,14.27-3,6.23-1.17,10.78-3.68,16.43-6.47,9.3-4.59,18-9.91,28.47-11.3a130.17,130.17,0,0,0,15.2-2.47c5.5-1.42,9.05-4.84,14.26-7a127.64,127.64,0,0,0,17.13-8.93,34.31,34.31,0,0,1,15.07-5c10.19-1.21,18.22-7.35,27.53-11.3,3.13-1.33,8.34-2,11-4.05,1.61-1.22,1.21-3.52,2-4.34,1.3-1.25,3.8-.72,5.54-.55,3.83.36,8.91,1.27,13.1.56,5.79-1,10.54-6.22,15.66-8.82,3.84-2,7.37-2.8,11.37-4.31,3.21-1.21,7.25-5.78,10.54-5.47"/><path class="cls-3" d="M233.34,241.25c4.35-1.94,8.51-4.66,13.08-6.21,6.18-2.09,12.57-3.25,18.72-5.45S278.4,226,284,222.93c5.87-3.22,10.15-9.52,16.41-12.6a92.81,92.81,0,0,1,13.44-5.12c6.05-1.83,12.07-4.18,18.28-6.26a315.29,315.29,0,0,0,40.75-16.74c5.75-2.91,9.88-6.83,16.37-8.34,8.92-2.08,14.94-4.1,22.34-9.22,3.76-2.61,7.18-3.85,11.33-5.51,5.76-2.3,6.4-7.18,11.73-9.43"/><path class="cls-3" d="M104.24,317.48c-.22-2.3.73-7.69,4.37-7,2.37.48,1.73,3.74,2,5.84a12.51,12.51,0,0,1,7.11-6.86c1.23,2.25.59,5.12.76,7.55a39.6,39.6,0,0,1,9.1-9.17c.63,1.92.24,4.55.39,6.64,2.07-1.51,4-4.28,6.57-4.71,0,.78.52,2,.37,2.91,3.93-2,5.64-7.91,10.24-10.08,1.56,1.51,1,4.29,1,6.41-.3-1.41-.1-2.92,1-3.6.06.54.37,1.31.5,1.89,3.11-1.76,5.36-5.31,9.12-6,.43,1.4.57,3.28,1.24,4.47.53-1.9,1.48-5.21,3.67-5.39,0,0,.1,1.22.1,1.22.27-3.42,7.91-3.33,10-6.75.23.15.37.4.66.64A8.08,8.08,0,0,0,175,293"/><path class="cls-3" d="M184.47,293.4c2,3.11,5.19-6.38,6.3-7.74.86,1.56.54,3.69,1,5,2.79-6.32,5.43-12,10.07-17.26.53,4,1.92,7.91,2.08,12,1.94-2.17,2.78-5.29,4.38-7.81,0,.81.46,2.09.44,2.94a38.6,38.6,0,0,1,3.8-4"/><path class="cls-3" d="M237.35,269.33c5.37-.81,9.06-10.61,11.35-14.59,0,1.42-.07,2.88,0,4.26,1.66-2.05,1.88-4.87,3.66-6.77a54.17,54.17,0,0,0,.08,7.65c1.72-3.88,1.72-8.82,4.57-12.09-.11.91.23,2.06.18,2.91,1.12-1.19,2-2.77,3.14-3.86.09,2.6-.61,6,.41,8.37,3.74-.69,8.16-6,9.4-9.57a54.8,54.8,0,0,1-1,5.82c1-1.74,2.34-3.24,3.31-4.93-.07,2,.22,4.17-.32,6.13,3.26-3.43,4.46-9.67,6.85-13.91a15.48,15.48,0,0,0-.34,3.6c1.15-.9,2.14-2,3.25-3,.13,2.08-.69,4-1.09,6,1.75.29,3.07-1,4.33-1.91a7.87,7.87,0,0,1,0,1,4.35,4.35,0,0,0,1.13-2.45"/><path class="cls-3" d="M79.8,319.3c-.75-2.68-1-7.64.38-10,.9,1.81,1.23,4.54,1.59,6.59,3.42-2.86,10.4-13.7,9.66-2.79.56-2,.38-4.93,2.46-5.44,0,.58.24,1.33.28,1.81,2.73-3.15,4.82-7.58,8.36-9.87,1.49,1.31,1.22,4.63.69,6.14,0-.65,0-1.35-.08-2,0,.87,0,1.75,0,2.61a7.48,7.48,0,0,1,1.91-4.25,23.57,23.57,0,0,0,0,3.94,56.68,56.68,0,0,0,2.91-7.11,17.82,17.82,0,0,1-.8,6.34,12.67,12.67,0,0,1,4.35-9.16c-.21.9.24,2.13.1,3.06,4,.25,5.62-7.86,9.44-9.07"/><path class="cls-4" d="M392.35,234.69c0,.64,0,1.29,0,1.94a11,11,0,0,1,1.47-6.38c1.14,2.55.4,7.13.33,10.09a5,5,0,0,1,1.35-3.78c.22,1.75.06,3.7.23,5.36,1.8-2.51,2.53-5.57,4-8.27-.13,2.43.48,5.31-.82,7.46.09-3.14-.53-6.66,1.07-9.49.35,4.94-.53,9-1.43,13.73-.56-3.26,3.55-8,5.16-11.36-.09,3.34,0,6.7,0,10-.34-5.59,1.68-10.63,2.94-15.92A41.83,41.83,0,0,1,403,244.57a88.12,88.12,0,0,1,.31-17.11c.15,6.53-3.31,11.44-4.1,17.64a38.3,38.3,0,0,1,3.31-13.18c.28,3.81.66,9.52-1.32,12.79a26.61,26.61,0,0,0-2.2-7.09c-.13,1.89-.08,3.84-.07,5.76.2-2.42-.09-5.71-1.4-7.49a10.59,10.59,0,0,0,.33,4.58,5.79,5.79,0,0,0-1.06-3.46c-.42,3.28,5.07,6.35,5.72,9.69-1.94-2.16-2.36-14.07,0-16.82,2.53,3.17,1.6,8.4,2.58,12.34-.07-4,0-7.94,0-11.91"/><path class="cls-3" d="M276,259.49c1.82-2.17,6.52-3.69,7.22.27a16.11,16.11,0,0,1,.4-3.07c1.38,1.07,1.38,3.24,1.13,4.91a10.12,10.12,0,0,0-.32-2.71,11.67,11.67,0,0,0-1.14,6.69c0-2.74.08-5.51,0-8.23-2.2-.26-1.88,3.69-4,2.75-1.19-.53-1.12-3.48-.81-4.26a10.54,10.54,0,0,1,1.63,3.85c1.26-1.29,1.31-3.73,3.15-3.84a20.76,20.76,0,0,1,.81,4.27,10.33,10.33,0,0,1,2.09-6.28c.46,1.71,1.32,3.32,1.18,5.14a8.81,8.81,0,0,1,.73-2.47,31.71,31.71,0,0,1,.87,3.87,14.09,14.09,0,0,1,2.41-4.25c.47.84,1.38,1.26,1.56,2.59,1.34-6.2,3.12.91,3.57,2.85a3.66,3.66,0,0,1,.64-3.17,18.08,18.08,0,0,1,.44,5.34c0-.79,0-1.55.05-2.33,1.19,1.26,1.18,3.63,1,5.52v-8.52a44,44,0,0,0,.15,5.64c1.28-2.33,1.37-5.13,2.81-7.44a13.21,13.21,0,0,1,.24,5c-.13-.24-.17-.61-.27-.81-.17,1-.63,2-.83,3-.53-2.29-.27-4.76-.27-7.12V262c-.06-2.19-.49-5.09,1.21-6.67a25.84,25.84,0,0,1,.21,5.9,3.23,3.23,0,0,1,3.26-2.46c-.22,1.44-.13,2.79.79,3.64a51.06,51.06,0,0,1,2.25-5.79c3.21,1.28,5.71-3.2,8.27-4.53a52.17,52.17,0,0,0,.21,6,16.79,16.79,0,0,0,1.59-3.53c0,.45.08,1.13.07,1.67,0-1.3,1.05-7.08,3-6.6.9.21,1,4.53,1.64,5.47a13.17,13.17,0,0,1,1.1-6.32,7.65,7.65,0,0,1-.31,3.49c-.08-.68-.06-3.41.76-4.67.7,2.28.34,5,.35,7.39a8,8,0,0,1,1.1-4.26c.68.38,1.41.11,2.12.41l.33.89c1.21-2.68.72-5.85,2.32-8.38-.19,1.71.52,1.66,1,2.68,3-3.28,3.78,2.53,3.72,4.69v-3a12.69,12.69,0,0,1-.29,3.42c-.19-2.6-.63-5.89.68-8.26,0,1.17,0,2.36,0,3.54,0-1.39,1.23-7.17,3.42-5.44,1.17.92.24,7.9.21,9.39.15-1.74,1.09-3.23,1.49-4.89a17.81,17.81,0,0,0,0,3.5c2.21-.75,1.56-4.17,3.91-4.7a9.45,9.45,0,0,1,0,3.27,7.61,7.61,0,0,1,.08-2.11c1,5.12,2.78,3.24,5-.08.07.36,0,.68.09,1a3.76,3.76,0,0,0,3.18-1.4c0,.66.35,1.54.35,2.07.56-1.12,1.08-2.26,1.57-3.42,0,.21,0,.41,0,.62a8.28,8.28,0,0,0,.05-1.79c-.39.89-1.13,1.6-1.51,2.51a16.27,16.27,0,0,1-.42-2.23c-.85,2.72-6.31,4-5.36.14,2,2.87,6-.49,7.5-2.44-.11.59.23,1.63.16,2.29a8.76,8.76,0,0,1,3.22-.36c.61.18,1.25,1.72,1.42,1.73,2,.14,2.2-.88,3.93-1.44a22.55,22.55,0,0,1,6.25-.93c0,.51.2,1.21.14,1.73.76.2.52-.31,1-.68"/><path class="cls-3" d="M338.37,268.24c0-2.47,1.59-6.24,4-6.49.84,2.43.69,5,.77,7.54.81-2.13,2.18-5.48,4-7.16a15.66,15.66,0,0,1,.41,2c.67-1.54,1.67-3.17,1.76-5.05"/><path class="cls-3" d="M325.24,271.16c-1.48-.91-.94-5,.28-6.57a23.07,23.07,0,0,1-2.41,1.46,7.77,7.77,0,0,1,1.37-5.47,9.23,9.23,0,0,1-.77,3.3,45.77,45.77,0,0,1,3.75-8.09c0-.46-.25.27-.39.42"/><path class="cls-4" d="M272.36,276.26c1.7-.52,3.44-1.33,5.05-1.81.58,2.5-1.58,4.12-2.72,6.12,1.68-.58,3.52-1.68,5.33-2.37.47,3.06-2.53,5.23-4.51,7.13a10,10,0,0,1,4.55-3.11c-.16.77.19,1.77.06,2.44,3.28-.92,5.14-5.63,8.43-6.61.21,2.91-1.74,6.23-3.39,8.52a6.09,6.09,0,0,1,1.83-4.82,16.05,16.05,0,0,1-5.48,8.33c-.08-1.76.89-3.18,1.95-4.57a10.17,10.17,0,0,1-.19,5.13c.16-.75.38-1.42.6-2.15.29,2,.57,5-.2,7-.84-1.76-.37-4.62-.35-6.7-.5,2.83-1.89,5.46-2.88,8.2-.11-2.15-.05-4.34-.05-6.5a35.58,35.58,0,0,1-.39,7.44,82.38,82.38,0,0,1,1.59-14.37c.43,1.51,0,3.77.54,5.34.17-2.1.08-4.23.08-6.35a11.55,11.55,0,0,1-.72,2.89c-2-2-.77-9.1-.72-12-.07,1.49-1.44,7.66-3.27,7.94-2.84.44-2.76-3.18-2.58-5.07,0,.92,0,1.86,0,2.78a22.5,22.5,0,0,0,1.18-4.65c1.13,2.72,0,8.92,4.33,6.17a51.39,51.39,0,0,0,.95,5.47c1.73-2.08,1.87-5.17,3-7.59.15,2.08.07,4.27.07,6.39v-5.33c0,2.07.44,4.1-.77,5.88.07-2.32,0-4.64,0-6.95a11.47,11.47,0,0,1-.28,3.9c-.19-2.08-.1-4.27-.08-6.39-.21,2-.1,6.73-2.5,6.74a24.2,24.2,0,0,0-1.17-6.81A45.6,45.6,0,0,1,276,290.59c.35-2.33,2-7.27,1.83-10.2.52,3.26,1.38,6.74,1.09,10.05.48-2.36,1.4-5.67,2.87-7.3,1.3,4.9.44,10.66.44,15.73a14.3,14.3,0,0,1,.28-2.71c.17,2.39-.2,4.9.42,7.14a6.41,6.41,0,0,1,2.17-2.68c-.16,2.88.79,5.83.76,8.81.14-1.78.22-3.89,1.33-5.35a40,40,0,0,1,.15,5.72c-.13-5.58,1-10.66,2.14-16.09.4,4.64-1.46,10.09-3.17,14.31-.27-3.19-.86-8.38,1.34-10.89.21,3.67-.46,7.37-.31,11-.24-3.46.11-7.68,2.82-10.14.46,4.26.09,7.92-2,11.63-.7-2.68,2.81-6.22,4.51-8.17a61.48,61.48,0,0,1,.1,6.66c0-2.51,1.23-4.73,2.34-6.93.69,2.14-.11,4.68-.8,6.69-.1-4.13,3.13-7.14,6-9.76.92,2.18.48,4.89.49,7.3,0,.47,0-1.89,0-2.4a9,9,0,0,1-2.13,4.16,12,12,0,0,1-.51-4.18,44.36,44.36,0,0,1-1.68,6c-.17-2.3-.08-4.68-.08-7a23.51,23.51,0,0,1-4.37,14.38c-1.91-2.69-.66-6.28-1.43-9.15-1.41,1.19-1.95,3.19-3.68,4.13-1.8-2.23-1.51-5-1.42-7.75-.72,3.16-1.89,6.73-4,9.13a19.76,19.76,0,0,0-1.47-4.58c0,.56-.1,1.25-.08,1.86-.09-2.17.49-4.26.38-6.42,0,1.54,0,3.08,0,4.61.13-3.34.81-6.59,3.37-8.94-.17,3.26-.08,6.57-.07,9.83a8.72,8.72,0,0,0,3-2.2c1.15,1.68,1.12,3.92,1.17,5.81a4.43,4.43,0,0,0,2.38-2.78,12.37,12.37,0,0,1-.31,3.47c1.23-2.42,1.24-6.44,3.23-8.19A25.82,25.82,0,0,1,291.59,316c1.12-2.73,3.5-4.73,4.91-7.33.73,2.27.31,5.94.29,8.65-.17-2.54.86-4.84,1.89-7.1.24,3.12-1.39,5.08-1.89,8-.06-2.06-.35-4.42,1-6.08a23.91,23.91,0,0,0,.33,3.5,2.39,2.39,0,0,1,.45-1"/><path class="cls-4" d="M230.06,307.63a5.6,5.6,0,0,1,1.1-3.73c1.31,3.42.81,8.55.68,12.44a27.21,27.21,0,0,1,2.9-9c.11,2,.09,4.1,0,6.14.66-1.76.73-3.9,1.81-5.34.2,3.32.07,6.7,0,10a10.87,10.87,0,0,1,2.32-6.73,18.76,18.76,0,0,1,.57,5.93,33.15,33.15,0,0,1,2.76-6.45c.73,3.94.28,8.52.16,12.59,1.84-4.58,1.21-9.63,2.61-14.28,1.11,5.65-5.77,4.67-5.12-2.29a3.42,3.42,0,0,1-1.1,3.64c-1.62-1.68-1-4.58-2.62-6.55.31,3.65-2.33.81-4.33,1-.31,1.22-.41,2.89-.72,4.29a18,18,0,0,1,.08-2.75c.14.18.38.59.56.88,1.1-1.31,2-2.91,3.13-4.27,1.54,1.34,1.44,4.82,1.38,7a17.3,17.3,0,0,0,1.54-3.36,23.08,23.08,0,0,1,.33,4,8.18,8.18,0,0,0,.36-1,8,8,0,0,1,1.23,4.1,37.72,37.72,0,0,1,4.14-1.89,17.8,17.8,0,0,0,1.05,5.08c3-1.17,5.82-3.33,8.89-4.3.1,1.48.17,3.41,1.38,4.49.37-.87,1.21-1.7,1.43-2.67-.07.9.15,1.94.08,2.83a31.07,31.07,0,0,0,2.09-5c.09,1.63.05,3.26.06,4.9-.24-2.08-.1-4.22,1.79-5.44a19,19,0,0,0,.35,4.2,11.47,11.47,0,0,0,1.6-3.48,18,18,0,0,1,.23,5.1c.13-1.2,1-2.1,1.52-2.94.68,1.48.38,4,.28,5.9,1.31-2.58,2.1-5.7,4-7.86a17.74,17.74,0,0,1,0,2.92v.58"/><path class="cls-3" d="M250.85,304c-.4-3.05,3-1.91,3.36.24.92-1.3,1-3.07,2.12-4.34.21.72,1,1.6,1.13,2.59a5.92,5.92,0,0,1,4,.66,1.31,1.31,0,0,0,.74-.61"/><path class="cls-3" d="M256.32,292a7.89,7.89,0,0,0-.31,3.58c2.31.54,2.5,3.1,5,2.74-.42,3,4.64,2.41,6.36,3.5s5.72,3.46,6.1,5.49"/><path class="cls-3" d="M268,294.5c2.53.17,2.24,6.06,2.23,8.33.69-1.16,1.35-2.46,2.46-2.82,0,1.48.54,2.07,1.14,2.15"/><path class="cls-3" d="M302.63,280.28c-.61-2.32-.91-5.9.35-8a6.23,6.23,0,0,1,2,3c.19-2.48,1.81-5,3.4-6.69a1.62,1.62,0,0,1,0,.9c.76-2,1.13-4.36,1.84-6.31.39.06.35.27.72.33a23.07,23.07,0,0,0,2.94-6.57"/><path class="cls-3" d="M348.59,270.79c-.73-7.53,8.17,1,2.55.37"/><path class="cls-3" d="M354.06,256.57a7.78,7.78,0,0,0-.37,3.65"/><path class="cls-3" d="M358.8,262a4.17,4.17,0,0,1,1.09,1.09"/><path class="cls-3" d="M359.53,270.79c.36.88,1.36,1,2.55.73"/><path class="cls-3" d="M363.17,257.3a2.34,2.34,0,0,0,2.92-1.09"/><path class="cls-3" d="M361.72,251.46a4.28,4.28,0,0,0,1.09-2.91"/><path class="cls-3" d="M356.61,247.82a4.56,4.56,0,0,0-1.09,4"/><path class="cls-3" d="M360.26,262.77c0,.87.58,1.32,1.46,1.46"/><path class="cls-3" d="M366.82,253.65c-.09.33,0,.69-.05,1-.33-.05-.61.1-1,0-.31-1.1-1.19-1.46-1.89-2.12"/><path class="cls-3" d="M366.82,246.72c2.07-.28,3.35,1.34,3.28,3.28"/><path class="cls-3" d="M373,256.57c-.49,1.93.61,3.2,2.19,2.19"/><path class="cls-3" d="M369,262c-1.54.39-2.87.16-2.92-1.46"/><path class="cls-3" d="M377.4,255.48a9,9,0,0,1,0-1c1.84-.38,3.66.52,5.08,1.28a35.43,35.43,0,0,0,1.44-3.53"/><path class="cls-3" d="M376.3,243.81a3.5,3.5,0,0,1-1.4-2.88c2.05.54,3,1.64,5.39,1.8,1.89.13,4.23,0,6.23,0"/><path class="cls-3" d="M308.47,310.55c-.72-8.12,8.88-10.88,15.06-13.86,2.05-1,5.11-2.3,6.84-.93-4.54,2.13-10,5.48-13.42,9.18,5.18-5.29,15.67-6.23,22.27-9.1,3.21-1.39,6.68-2.21,9.81-3.4-1.63,1.65-4,2.4-6.1,3.48,3.59-1.7,7-4.36,10.57-5.83,3.38-1.39,7.26-1.73,10.91-2.24,4.46-.62,11.14-.05,14.74-2.91a59.21,59.21,0,0,0-17.6,4.85c-2.39,1.09-5.2,2.52-7.93,2.48C357.45,287.71,364,286,369,283c3.36-2,6.08-5.28,9.56-6.94,2.83-1.35,6.88-1.43,9.45-3.26-7.63,3.3-14.5,8.47-22.2,11.5,9.05.7,18.82-6.61,26.57-10.63,2.8-1.46,6.2-2,8.8-3.49-4.51,2.06-9,6-12.95,8.7,4.24-.18,14.62-7.33,17-11.32-7.13-1.64-15.3,8.67-21.1,11.66,7.73.17,12.31-.83,18.32-6,5.71-4.91,9.67-13.52,16.29-17-1,3.74-8.3,8.74-11.67,10.55-.37-5.09,8.23-9.64,11.49-12.5,4-3.56,7.8-8.75,12.23-11.68,2.26,4.26-9.35,10.48-12.27,12.42-1.86-4.48,14-10.28,16.91-12.35,4.4-3.12,8.86-6.47,13.46-9.44-7.77,6.58-17.48,8.65-23.69,17.18,12.48-8.06,25-15.68,36.81-24.82,2.41-1.86,6.06-3.74,7.75-6.2-5.95.34-14.18,8.52-19,11.89-3.05,2.14-7.79,6.34-11.52,6.59,7.49-8.53,18.43-14.79,28-20.77,2.2-1.37,4.81-2.83,7.11-4-2.74,7.42-15.64,8.18-21.63,12.16,7.95-5.07,16.53-9.14,24-14.77A127.59,127.59,0,0,1,488.33,203c-1.72,3.7-10.66,8.08-14.54,9.46,1.63-8.9,18.49-14.62,25.39-18.95,2.15-1.35,9.44-4.84,8.34-7.95-3.12,2.09-11.73,5.78-12.7,9.39,4.07.41,11.59-5.72,14.29-8.85,1.36-1.57,2-3.82,3.17-5.54-.67,1.47-2.18,3.06-2.76,4.83,2.55-1.56,3.38-5.67,3.66-8.57-6.35,5.46-7.49,15.83-14.32,20.3-3.13,2-6.82,2.34-10.23,3.66"/><path class="cls-3" d="M413.14,314.92c5.86,0,12.57-5.88,17.19-9.05,3.22-2.21,6.41-4.51,9.55-6.82-5.41,4.17-11.42,8.36-17.66,11.17,1.17-3.58,6-5.58,8.91-7.62,4.88-3.43,9.8-6.76,14.84-10,4.11-2.59,8.29-5.19,12.41-7.62-9.86,2.54-17.39,10-26.22,14.58,7-7.56,15.4-12.28,24.64-16.44.25,3.71-6.37,9.46-9,12.3,1.31-7.39,14.39-14.16,20.76-17.23a6.19,6.19,0,0,1-1.87,5.58c3.5-4.57,9.18-8.28,13.52-11.18,4.5-3,7.4-9,12-12.42.06,3.73-5,6.51-7.52,8.71,1.25-5.35,8.92-8.47,12.53-12.18-.09.66.29,1.93.18,2.7,5.2-2.7,9.87-7.08,15.14-9.45.37,1.87-1.44,3.44-2.3,4.68,4.18-1.2,7.59-5.15,11.23-7.49-.13,2.14-1.84,3.8-2.55,5.79,3-3.64,6.68-6.7,9.31-10.69a4.62,4.62,0,0,1-1,4c2.07-3.77,4.33-8.25,6-11.78a29.2,29.2,0,0,1-.91,4.54c.71-4.27,3.73-8.78,3.7-13.09,0,1.14,0,2.28,0,3.42v-2.6a23.33,23.33,0,0,0,.05,3c1.54-2.36,1.54-5,1.41-7.68v1.37c0-3.68-.25-7.39.81-10.93.89,3,.8,6.22,1.39,9.24,0-3.11-.14-6.27,0-9.37a12,12,0,0,1,1.33,2.23c0-2.19,1-5.22.07-7"/><path class="cls-3" d="M115.91,288.3c1.83-2.67,8.32-2.2,10.87-5.07,1.13-1.27,1-3.89,1.87-5.41,1.42-2.5,4.34-4.33,6.9-5.78,10.3-5.8,21.19-10.54,31.79-15.47,5.73-2.67,11.64-4.91,17.22-8a30.32,30.32,0,0,1,7.18-3.29c2.73-.76,5.64-.78,8.34-1.49a61.73,61.73,0,0,0,8.27-3.31c11.6-4.91,24.72-4.1,35.67-10.46a144.89,144.89,0,0,0,12.54-8.17c8-5.84,9.76-16.83,16.09-23.92,3.93-4.4,8.83-4.49,14.61-4.45,6.53,0,7.73-4.92,13.26-7,4.78-1.84,8.7-2.3,13.33-5.07s7.85-7.12,12.4-9.89c4.76-2.89,8.42-4.93,11.84-9.29a41.39,41.39,0,0,1,13.74-11.85c5.12-2.66,10.44-4.93,15.17-8,4.34-2.81,4.32-6.81,7.48-10.16,2.93-3.11,8.76-5,12.38-7.2,2.62-1.61,9.06-4.87,10.23-7.37"/><path class="cls-3" d="M289.87,168.31c-.57-4.54,4.76-9,7.18-12.35,3.42-4.76,5.19-10.05,7.51-15.08,2.5-5.42,9-7.1,13-11.16,1.14-1.15,2.75-3.9,4.37-4.47s4.74.06,6.47,0c.46-.79.8-.73,1.32-1.36.36,1.26.16,3.12.56,4.33,4.41-3.13,11.16-2.09,15.73-5,2-1.28,1.46-1.55,2.81-3.33a24.05,24.05,0,0,1,6.34-6.1c5-3.4,11.29-4.3,16.29-7.39,2.53-1.57,5-2.93,7.39-4.31,1.31-.76,3.14-3.23,4.45-3.65,2.35-.75,4.48,1.24,6.86.68s4.08-3.3,5.84-4.82c1.82,4.49,8.89,7.83,13.86,5.89"/><path class="cls-3" d="M63.75,254.38c6.55-5.8,17.5-8.61,25.88-10.67,9.89-2.43,19.9-3.51,29.76-6,9.32-2.36,16.33-9.47,26.13-11,11.67-1.85,20.57-9.08,32.33-10.24a22.74,22.74,0,0,0,8.81-2.18c2.42-1.15,4.39-3.2,7.29-2.9"/><path class="cls-3" d="M254.13,196.76c8.82-1.42,13.66-8.49,20-13.2,3.26-2.44,7-3.76,10-6.48,3.1-2.87,6.14-5.8,9.4-8.44a133.3,133.3,0,0,1,19.69-13.09c6.69-3.74,11.78-9.26,18.57-12.94,7.6-4.13,15.51-6.85,23.61-10.05,7.22-2.85,12.92-7.92,19.5-11.65,2.45-1.39,5.05-2,7.5-3.65s3.59-3.61,5.66-5.6c4.8-4.61,13.4-6.6,19-10.09"/><path class="cls-3" d="M340.93,212.44c-.22-4.1,5.76-5,8.32-6.65,2.87-1.89,1.9-2.64,2.89-5.46.95-2.66,3.33-4.36,4.19-6.94s-.73-5.76,1.37-7.94"/><path class="cls-3" d="M450,166.49c-2.71.26-8.73,2.64-10.94,1.83-2.61-1-2.1-5.32-.48-7.38,3.4-4.32,11.43-6.21,16-9.33-5-.77-9.59,2.58-14.41,3.22a74.49,74.49,0,0,1-9.48.72"/><path class="cls-3" d="M290.6,164.66c2.39,5,7.1,1.61,8.35-2.89.69-2.51.45-5.34.37-8,1,1.89,1.47,4,2.66,5.78,3.66-3.32,2.18-12.2,3.1-16.78.84,3.35.8,10.34,3.19,12.81,2.94-6.12,1.36-14.65,4.56-20.14,2.46,3.49-.37,12.6,3.6,15.26-.12-4.82,1-11.08,1.95-15.88,1.75,3.79.74,9.57.64,13.72,1.18-5.38,3.22-11.37,3.31-16.79,0,4.95-1.23,11.75,2.11,15.77,2.82-6.54-.21-15.08,1.82-21.58.18,3.3,0,12.3,2.55,14.51,2.24-3.43,1.8-9.42,4.17-13,1.67,2.45,2,5.73,3.25,8.39,2.69-1.58.95-6.72,3.79-8,1.23,2.81.82,7.32,2.69,9.5,3.17-1.74,1.26-9.55,1.58-12.76,1.16,3.87.12,8.38,1.3,12,0-3.8.9-13.18,5.11-14.54a26.43,26.43,0,0,0,3.49,8.31c4.62-1.91,4.17-12.88,7.18-16.64.65,2.92.74,6.17,1.56,9.08,2.12-2.27,4-7.1,4.33-10.16A51.73,51.73,0,0,1,369.07,124c.47-3.28.58-10.42,2.57-13,1.72,1.6,1.11,4.53,1.73,6.59,1.76-1.81,1-5.65,1.67-8a11.69,11.69,0,0,1,3-5.46A50.67,50.67,0,0,0,380,118.7c3.55-4.91,5.35-11.07,8.52-16,1.26,1.7.77,4.86,1.36,7.14,1.76-5.44,2.14-11.27,5.39-4.51,1.76-1.61,1.84-4.81,3.67-6.34.67.37.55.85.71,1.51"/><path class="cls-3" d="M412,118.35c2.57.16,7.73-3.1,9.61-1.51,1.3,1.11.88,6.73,1,8.42.33,6.12,0,12.2.73,18.25"/><path class="cls-3" d="M361.35,158.1c2.3.29,6.51,6.26,7.21,8.71.43-6.26-.23-12.64.14-18.92,3.51,4.77,1.88,12.51,3.14,18.1.87-5.49.38-13.51,3-18.27,2.93,4.86.32,12,2.63,16.32,5.11-4.72,4.67-12.75,6.57-19.1,1.16,6,1.21,11.71,1.43,17.7,2.31-8.54,3.14-18.12,3.67-26.93,4.09,5.42,2.7,17.39,1.36,23.66.33-9.6.84-18.86,2.74-28.25,2.73,5.42,1,14.5.92,20.5,1-6.57.73-15.46,3.3-21.25,1.84,5.78.57,14.27,0,20.34-.16-7,1-14.72,1.54-21.73,1.43,4.47-1.79,15.69,1.29,18.55a47.66,47.66,0,0,0,3.84-8c1.18-2.76,2-8,3.92-10,4,4.7-.69,13.53,2.29,18.75,3.37-6.55-1.78-16.46,2.41-23.24-1.12,7.16-1.51,14.64-3.16,21.66-.54-7.48.93-15.67,2.62-22.88,5.15,4.11-2,18.38,2.62,21.13.93-6.17,0-15.79,3.83-20.92-.12,5.16-.38,10.28-.4,15.45,0-4.73.45-9.49.37-14.19"/><path class="cls-3" d="M415.33,103.76c.74-1.7,4.13-3.65,6.07-4.67.34,3.23-.31,6.51-.19,9.7,2.82,1.23,1.36,8.2,1.43,11,5.54,0,3.55,2.55,3.55,7,0,5,.55,11.88,6.16,13.75-1.57.93-4.17,1.5-3.89,3.75"/><path class="cls-3" d="M427.36,67.65c0,13.06-.81,26.64,1,39.39,1,6.88.64,14,1.89,20.92.73,4,2.28,7.63,3.76,11.46,1.07,2.77,2.07,6.92,4.28,8.83"/><path class="cls-3" d="M630.87,316c-1.49-.88-2-5.56-2.56-7.64a79.38,79.38,0,0,0-2.65-8.79,103.91,103.91,0,0,0-6.26-12.84c-2.55-4.35-3-8.6-4.23-13.81-.94-3.86-1.19-8.81-3.91-11.86-2.55,2.16-1.41,6.05-3.73,8.21-1.85,1.72-5.18,2-7.69,2.44-2.25.4-10.23,2.29-12.32.82s-1.48-6.11-4.06-7.94-8.79-.31-10.55-2.65c-.54-.73-.09-3.32-.39-4.31-1.38-4.54-5.13-4.55-8.06-7.27-5.16-4.79-3-20.56-13-17.55-.31-4-3.71-6.84-5.57-10.1-2-3.61-2.86-7.2-4-11-2.42-7.85-8.68-14.06-12.62-20.94-1.65-2.88-3.38-5.78-5-8.81-1.14-2.09-.93-2.71-3.13-3.45s-5.42,1-7.35,0c-2.67-1.32-1.42-4.23-2.43-6.59-1.85-4.36-7.93-1.85-8.76-5.84"/><path class="cls-3" d="M284.4,153.36c0-4.24.75-8.44,4.38-11.23,1.1-.85,3.4-.78,4.22-1.87,1-1.31.5-3.95.52-5.49,0-1.84-.44-4,.72-5.5s3.27-1.32,4.48-3.34c2.15-3.55,0-7.87,1.26-11.61,1-3.13,3.88-5.11,4.5-8.37.51-2.75-1-6.51-.06-9.11.69-1.9,3.32-3.92,4.4-5.61a12.78,12.78,0,0,0,1.84-4.6,89.19,89.19,0,0,1,4-12.32c2.32-5.74,3.68-11.8,5.54-17.59,1.75-5.43,4.39-9,7.67-13.5a74.8,74.8,0,0,0,7.93-14.61c1.64-3.84,4.81-7.34,6.65-11.25,1.07,1.46,1.32,3.55,2.09,5.43,1.41,3.5,4.49,5,5.15,8.78.47,2.69-1.47,7.07-.43,9.4s4.29,2.36,4.79,5.17"/><path class="cls-3" d="M630.87,230c-10.81-3.88-21.28-8-31.45-13.75-9.47-5.36-17.33-12.38-26.81-17.61a240,240,0,0,0-23.51-11.8c-6.74-2.81-14.19-5.54-20.35-9.45C518.72,171,511.39,161,504.29,152s-13.74-18.26-23.3-24.31c-9.36-5.92-19.58-12.51-27.73-20-4.34-4-6.16-7.35-6.93-13.06S445,83.28,443,78a236.86,236.86,0,0,0-10.76-24.82,87.52,87.52,0,0,1-5.28-11.4c-.62-1.77-1-4.4-2.57-5.42-.82-.53-7.25-.49-7.88.06-.89.77-.53,2.76-.75,3.8-1.32,6.28-8.75,12.91-6.58,19.43"/><path class="cls-3" d="M345.67,23.89c-.37-3.57,3.89-6,5.78-8.49,1.13-1.48,2.23-5.85,4.05-6.4,3.76-1.15,2.56,3.27,5.47-.79A39.77,39.77,0,0,0,364.69.6c4.59-.23,5.31-.45,6.14,3.8.54,2.73.9,5.81,1.45,8.64,1.78,9.11,3.92,18.44,8.79,26.26,3.75,6,7.73,10.55,10.7,17.05,2.74,6,5.09,14.68,9.7,19"/><path class="cls-3" d="M300.45,126c5.39-2.28,9.42-7.69,13.76-11,3.66-2.82,3.09-3.91,4.46-7.94.89-2.58,3.64-4.57,5.49-1.11,3.15-3.9,6.86-7.17,9.11-12,1.78-3.85,1.53-4.88,5.93-5.1s5.69-.45,8.31-4.19,3-8.81,8.08-10.78c3-1.16,4.14.25,6-3.28,1.24-2.32.56-5.33,2.37-7.24,3.51.34,10.9,8.4,12,12"/><path class="cls-3" d="M330.72,122c5.37,0,11.59-9.41,15.6-12.56,4.88-3.83,5.16-6.58,6.27-12.59,1-5.46,3.79-4.92,6.2-9,2.52-4.26,3-10.08,9.49-10.34"/><path class="cls-3" d="M386.15,87.71c.54-4.56-2.62-5.62-5.59-7.92-2.64-2-2.88-5-5.35-7-2.56,1.7-3,4.72-4.38,7.27"/><path class="cls-3" d="M297.89,133.67c-2.44-.17,4.4-12.45,5.93-3.81.44-2.06,2.78-9.57,5.31-5.49.82-2.55,1.9-7.9,4.75-8.53.21.81,1,1.61,1.15,2.23.32-1.48,1.53-6.29,2.86-6.63a8.33,8.33,0,0,0,1.22,3.19c1.94-2.37,2.89-5.74,4.31-8,.67,1.55.8,4,1.81,5.61,2.39-2,2-4.48,2.65-7.23.49-2,2.17-5.45,3.19-1.68.92-2.3,1.07-6.45,3-7.95,1.4,1.61,1.69,4.43,2,6.39-.16-3,1.43-7.58,3.09-10.05,1.28,1.9,1.17,5.54,2.15,8,3.34,0,2.37-8.39,3.64-10.83a1,1,0,0,1,.88-.07c.84,2,.13,4.32.89,6.24.92-2.59.78-4.28,2.49-6.73,2.23-3.17,6-5.54,8.4-8.23.07.56.28,1.24.34,1.71a31.43,31.43,0,0,0-.14-8.58c-1.7,2-3.51,6.83-4.18,9.53,0-1.3,0-3.68,0-5.39a34.92,34.92,0,0,1-1.53,11c-3.37-3.64,2.66-12.14,6.23-13.65a32.28,32.28,0,0,0,1.06,7.46,80.63,80.63,0,0,1,2.71-13.32c.38,2.51,1.19,5.37,1.07,8,1.57-2.58.82-7.82,2.8-9.53,0,2.7.41,5.4.43,8.14-.19-1.72.53-3.22.73-4.87"/><path class="cls-3" d="M332.17,76.77c0-2.09-.11-8.63,2.64-9.51,3-1,3.88,4.06,7.53-.22,2.45-2.88,3.39-8.11,5.52-11.43,1.84-2.88,4.07-5.09,5.17-8.32a1.41,1.41,0,0,1,.67-.13,32.59,32.59,0,0,1,2.15,6.55c2.7-3.16,2.5-8.23,4.44-11.87.65-1.23.19-3.17,2.16-2.29,1.22.54,1.25,3,1.09,4"/><path class="cls-3" d="M347.13,22.43a25.16,25.16,0,0,0,4.3-2.53c1.13,3,.11,6.72.59,9.88,3.4-.16,6.18-4.3,9.24-5.85,1,6.77-6.8,9.85-9.71,15.17,2.23-.65,4.25-2.19,6.43-2.27a30.93,30.93,0,0,1,.09,4.2"/><path class="cls-3" d="M365,38.84c3.59.48,4.89-3.4,7.86-3.85,1.55,9.55-2.68,18.17.54,27.59,1.34,3.9,3.26,6.13,6.2,9.08,2.68,2.7,3.46,5.85,5.46,8.76"/><path class="cls-3" d="M380.68,37c-.45-3.93,2.77-7.92,4.83-11,1.69-2.48,3.87-7.57,6.39-9.08,1.65,3.49,1.82,7.84,3.1,11.56,1.73,5,4.93,8.84,6.48,14.33,1.44,5.13,2.39,10,4.36,14.9,1.75,4.36,2.94,9,4.38,13.53"/><path class="cls-3" d="M429.92,46.5c2.11,0,4.18-3.52,5.85-3.35,1.16.12,2.14,2.61,3.18,3.31.72-1.33,1-3.14,2-4.33,1.94-2.41,2.62-1.55,6-1.37,4.84.24,5.45-2.79,8.82-6,6.05-5.8,15.56-16.82,24.44-10.84a30,30,0,0,1,10.66,11.52c1.25,2.54,1.7,5.62,3.44,7.87,1.3,1.68,3.6,2,4.94,3.55,1.66,1.89,1.44,3.21,1.74,5.5.55,4.12.3,3.85,4.5,5.4,6.7,2.47,1.82,8.13,6.74,12.24,3.07,2.57,5.41,1.73,7.45,5.25.83,1.44,1.11,3.38,2.26,4.91,2.75,3.63,5.69,6.24,7.22,10.51,2.64,7.35,2.95,16,9,21.87,2.86,2.79,7.38,4.69,9.43,8.12,1.9,3.16-.65,9.81,1.6,12.23s9.34-.84,12.62,1.35c2.84,1.89,3.61,6.9,5.62,9.58,1.22,1.62,2.65,3.48,4,5,2,2.29,2.53,3.57,4.22,6.46a32,32,0,0,0,7.48,8.54c3.26,2.75,6.72,6.3,10.77,8,2.39,1,5.1.91,7.58,1.9s4.05,2.82,6.16,4.39c3.57,2.67,7.54,4.8,10.6,7.69a63.88,63.88,0,0,0,10.27,7.7c4.35,2.73,8.83,5.26,12.87,8.39,2.52,2,3.61,3.73,5.46,6.48,2.38,3.51,2.6,7.1,5.11,10.59a54.44,54.44,0,0,0,13.15,13.12"/><path class="cls-3" d="M302.63,120.54c1.4-4.09,6.86-9.19,9.85-12.38s6.38-6.15,8.75-9.85c1.94-3,5.44-6.75,6.5-10.23s-1-8.06-1-11.67"/><path class="cls-3" d="M462,106c-.61-5.52,5.15-13.59,8.28-17.86,2.9-4,2.84-6,3.74-10.69,1.16-6,6.12-9.78,9.49-14.75,3-4.35,5.4-9.47,7.88-14.2,1,6.27.12,13.21.88,19.56.7,5.82,2.78,11,3.63,16.77.75,5.12,2.77,9.79,4.31,14.67.88,2.76,2.15,5.42,2.73,8.33.65,3.32.16,6.5,1.45,9.83,10.23-2.21,6,11,8,15.66,1.66,4,5.38,3.78,6.17,9.14.5,3.45-.33,7.24.72,10.58"/><path class="cls-3" d="M440.86,64.74c0-5.44.45-10.45,5-13.5,4.22-2.8,6.53-2.49,8.51-6.92,2.56-5.69,4.21-5.88,9.79-5.38,3.72.34,6.6-1,7-5.15,4.24.91,6.18-3.27,6.88-7"/><path class="cls-3" d="M493.74,40.3c0-1.41.84-7,2.82-7,2.18,0,.89,3,1.63,3.72,1.55,1.59,2.39.86,4.7.61,7-.76,11.92,1.53,14.29,8.12C519.06,51,518.64,57.2,520,62.56c1.63,6.37,3.09,13.18,5.46,19.32"/><path class="cls-3" d="M530.94,105.58c-.32,4.63,2.45,10,3.73,14.42,1.41,4.8,2.52,9.51,4.66,14,1.2,2.52,2.83,5.45,3.22,8.28.44,3.11-.61,6.4.7,9.28,1.43,3.16,4.92,4.53,7.14,6.92,2.47,2.66,3.45,5.77,4.59,9.08,2.55,7.37,4.86,14.1,8,21.19"/><path class="cls-3" d="M590.38,173.05c2.32,3.5,2.6,8.34,4.92,12.11,2,3.26,4.65,5.91,6.13,9.43,1.75,4.15,1.27,8.89,2.73,13.12a39.82,39.82,0,0,0,4.46,9.47"/><path class="cls-3" d="M463.1,320c2.71.31,4.83-4.08,6.92-5.89,4.41,3.62,7.52-3.65,9.52-6.52,1.65,4.08,9.89-2.6,12.25-4a9,9,0,0,1-1.28,1.22c.1-4.84,9.47-3.53,12.22-7.13a14.52,14.52,0,0,0-1.35.79c1.3-4.17,11.92-6.6,15.66-9.8-.11.9.17,1.9,0,2.81,5.35-6.54,14.41-10.67,17.59-18.67a6.55,6.55,0,0,1-1.53,4.42,86.43,86.43,0,0,1,4.81-8.46c0-3.93.2-7.94-.09-11.84a26.69,26.69,0,0,0-.61,4.89c2.38-3.62,2.69-8.41,5.45-11.68,0,1.88.15,3.69-.43,5.5,1.11-3.36,1.95-7.7,3.87-10.64,2.84-4.34,7.72-6,11.84-8.58,0,1.47,0,3,0,4.43a6.66,6.66,0,0,0-1.1-4"/><path class="cls-3" d="M380.32,319.3c2.8-2.84,5.14-6.49,7.64-9.62,1.56,1.42,1.29,3.63.74,5.55-.81-4.14,5.05-9,8.74-9.76,0,.47.05.94.08,1.39,3.82.7,8.25-3.23,11.29-5.23a2.41,2.41,0,0,1-2.55,2.69c-.31-4.76,1.25-9.34,5.78-11.64a13.06,13.06,0,0,1-1.87,2.42c.44-3.76,2.92-6.55,4.74-9.65-.23,1.08,0,2.09-.55,3.2,2.47-.15,4.85-1.5,7.14-2.28a10.26,10.26,0,0,1-3.05,3.07c.11-6.34,11.1-12.13,15.41-16.3a3.39,3.39,0,0,1-1.7,4.21c-.16-1.61,1.06-2.8,2.59-3.4a4.35,4.35,0,0,1-1.26,3.44c4.88-1.95,9.65-5.43,13.78-8.57a3.18,3.18,0,0,1-3.2,2.78c1.25-5.41,10-13,15.37-14.28a7.76,7.76,0,0,1-2.51,4c-.59-3.49,7.67-7.93,10.41-9.71a.82.82,0,0,1,.18.62c3.35-2.78,6.76-6.05,10.12-9-.07,1.88-2.58,4-4.37,4.19,2.65-5.74,12.09-5.43,16.22-9.8a3.85,3.85,0,0,0-3.49.65c3.88-1.19,9.81-4.48,11.62-8.23a10.71,10.71,0,0,0-1.27.84c0-2.18,4.23-3.67,5.51-5.61a2.84,2.84,0,0,1-1.27,3.83c1.09-3.17,7.85-7.58,9.86-8.19-.56-1,3.7-4,5.14-5a24.83,24.83,0,0,1,0,3.45,73.07,73.07,0,0,0,4.12-8.9c-.07.65,0,1.37-.1,2,.32-2.79,2.56-5.37,3.72-7.92,0,.88,0,1.81,0,2.68,0-4.58.77-6.82,2.58-10.92,0,1,0,2,0,2.93.49-2.7.3-7.52,2.2-9.39"/><path class="cls-3" d="M141.8,271.89c0,.73-.1,1.18.33,1.78,3.19-1.12,6.35-3.83,9.11-5.69.09,2.11.07,4.25,0,6.36-.3-3.1,4.65-9.82,7.63-10.47-.13,1.15.19,2.46.08,3.63,2.82-.79,4.22-5,6.85-5.71.12,2,.08,4,0,6,.72-1.61.11-3.51.8-5.25,1.37-3.44,6.94-6.57,10.41-7.39.19,1.32,0,3,.25,4.18,1.83-1.46,3.41-3.35,5.34-4.6-.16.84.2,2.2.11,2.83,3.56-3.29,7.05-8,11.09-10.41a28.71,28.71,0,0,1-.16,7.91,42.92,42.92,0,0,1,5.06-4.86c-.05.69.5,1.87.43,2.65,2.31.36,7-7.59,7.34-9.49a8.28,8.28,0,0,1,.55,1.52c3.22-.09,7.64-3.81,10.58-5.36.13.71,1,1.74.9,2.65,2-1.27,3.54-3.5,5.63-4.52-.86,4.92,5.87-.37,7.67-.42a9.4,9.4,0,0,1,0,1.19c1.92.54,3.31-1.06,4.48-2.6.15.38.85,1,1,1.48,2.79-.89,2.45-5.27,5.09-6.23.55,1.56.35,3.41.38,5.09,1.76-.33,2.36-2.31,2.52-4"/><path class="cls-3" d="M272.73,211.71a10.58,10.58,0,0,0,0-1.69c-1.81,2.91-4.26,6.92-6.53,8.95-.28-4.15,6.69-9.12,10.18-10.67a23.61,23.61,0,0,0,.18,3.07,21.48,21.48,0,0,0,4.24-6.45,13,13,0,0,0,.29,4.62,28.08,28.08,0,0,0,5.66-7.29,23.17,23.17,0,0,1,.23,4.82c1.12-3,4.18-9.9,6.87-11.4.09,1.79.05,3.61,0,5.41.1-1.83.34-3.88,1.52-5.36-.16.8.07,1.67,0,2.46,1.93,0,4.56-3.79,6.21-4.82,5.15-3.2,16.49-9.32,22.65-8.73.21,1.47,0,2.35-1,3a7.61,7.61,0,0,1-.15-2.9"/><path class="cls-3" d="M467.12,111.42c1.48-4.18,5.57-7.25,7.2-11.41.9-2.29,1-8,3.76-8.27,3.34,7.88,8.09,15.07,11.54,22.92,1.74,4,3.21,5.72,5.82,8.94,1.57,2,1.31,2.67,1.94,5,1.45,5.41,7,9.4,8,14.87,0,.44-.25.45-.7,0"/><path class="cls-3" d="M480.61,82.24c.89-2.06-.37-5.29.36-7.65.89-2.9,3-3.49,4.91-5.56,3.73-4.14-.55-6,.2-10.86"/><path class="cls-3" d="M458,64.37c3.47.9.44,9.4,1.07,11.95.57,2.38,2.49,3.13,2.57,5.92s-1.66,4.37,1.1,5.84"/><path class="cls-3" d="M447.79,73.85c-.2-4.39,3.49-7.68,4.57-2.19.51,2.56-.08,5.15.9,7.66"/><path class="cls-3" d="M472.22,50.51c.72,2.13,2.48.2,4,1.52.89.79,1,4.32.8,5.49-.75,5-2.27,3.78.34,7.95"/><path class="cls-3" d="M473.31,38.84A3,3,0,0,1,476.18,36c.08,1.76,0,3.67.17,5.37.59-.11,1.44.22,2,.11.35,2.61,1.91,3.95,3,5.78"/><path class="cls-3" d="M486.44,39.57c-.33.77-1.3,2.55-1.11,3.32.42,1.73,2.14.7,2.54,1.73.9,2.3-1.1,4.73-2.44,6.2a20.31,20.31,0,0,1,2.06.11,9.87,9.87,0,0,1,.05,2.87"/><path class="cls-3" d="M484.26,99.38c-1.29-2,1.54-3.54,3.3-4.35,1.68,4.53-3.55,9.11,1.8,11.28"/><path class="cls-3" d="M504.68,92.45c.92,2.11.33,5.82,0,8.32a3.16,3.16,0,0,1,.91.2c.33,2.46-1.23,7.52,2.65,7.22.69,2.8-1.29,3.75-2.83,5.34,1,.88.63,1.66.69,3"/><path class="cls-3" d="M518.54,94.64c.82,2.5.51,7.52,4.34,6.6a4.56,4.56,0,0,1-1.77,4.79c1.59,1,3.39.78,4.64,2.45,1,1.41.55,3.69,1.23,5.15,1,2.15,2.25.74,1.8,3.9-.29,2.08-3.79,3.14,0,4.83"/><path class="cls-3" d="M520,145.7c-.29-2.3,6.27-6.56,8.37-6.5-.84.84-.65,1.63-1,2.44,2.55.14,5.62.54,7.91-.64-1.74,2.4-10.61,5.29-14.2,4.7"/><path class="cls-3" d="M501.4,117.62c1.92,1.62,2.49,4.54,3.86,6.69-.08-1.65,0-3.76-1-5.43a8.71,8.71,0,0,0,1.46,3,10.26,10.26,0,0,0-1.35-5.16c-.08,1.4-.06,4.3-.07,5,0-2.07-.53-4-.36-6.13a31,31,0,0,1,0,3.2,7.71,7.71,0,0,1-1.13-2.28"/><path class="cls-3" d="M450,55.25a8.51,8.51,0,0,0,0,1c-.27-2.28,1.46-5.67,2.85-7.46.29,1.88.73,3.8,1.19,5.59-.46-3,1.36-7.62,2.62-10.43a15,15,0,0,1,.69,1.43c1.69-1.16,2.13-3.66,3.7-5,.26,1.13,1,1.49,1.66,2.11a7.49,7.49,0,0,1,1.52-3.29"/><path class="cls-3" d="M502.86,53.07c5-7.43,4,1.09,8.6-.67.44-.17,2-4,2-4.46-.08-.73-1.88-1.84-2.16-2.84,3.56,0,2.59-3.15,1-4.51-1.82-1.59-5.34-1.7-7.62-2.34.39,5.14-4.23,4.69-4.41.23"/><path class="cls-3" d="M466,80.05c0-3.28-.52-7.25,1.13-10.16-.1,3.34,0,6.68-.06,10a10.91,10.91,0,0,1,1.43-3.37c.12,2.28.05,5.94.05,7.62v2.46"/><path class="cls-3" d="M544.43,214.63c.3,3.15,6.24,6,9.16,6.94a62.57,62.57,0,0,1,13.18,5.84c8.06,4.67,16.19,8.52,24.26,13.12,15.76,9,32.86,16,49.32,23.62,19.18,8.88,36.18,21.38,56.16,28.53"/><path class="cls-3" d="M526.93,184.72c.22,3.51,7.78,5.67,10.5,7.41,3,1.91,6.06,3.76,9.25,5.88,10.2,6.75,21.47,10.29,30.66,18.33,12.77,11.18,29.08,17.44,43.72,25.37,8.86,4.79,18.1,9.95,26.84,15.21,5.25,3.15,11.49,5,17.2,7.65,3.56,1.66,7,3.85,10.62,4.76"/><path class="cls-3" d="M547.71,223.38c2.13,2.91,7.66,5.91,10.85,7.74,4.23,2.44,8.86,2.8,13.23,4.36,6.3,2.24,11.94,8,17.32,11.59,14.38,9.72,33.75,12.45,49.06,21.62,8.9,5.33,18.64,10.83,28.11,14.24a32.43,32.43,0,0,1,6.89,3.64c3.25,2.09,7.2,3.22,10.84,4.9,4.55,2.1,9.46,4.17,13.23,7"/><path class="cls-3" d="M535,195.66c1.64,5.49,15.82,9.67,20.79,12.42,7.69,4.26,13.48,9.14,20.27,15.24,15.1,13.55,35.85,16,53,24.89,8.26,4.26,15.81,10.71,24.6,14.64a146.08,146.08,0,0,0,15,5.67c5.13,1.66,10,4.48,15.08,5.92"/><path class="cls-3" d="M525.47,182.54c3.37.92,6.55,5.15,9.83,6.83,4,2,8.33,2.49,12.08,4.56,6.5,3.58,12.91,7.73,19.6,11.4,14.72,8.06,27.26,17.68,43,23.59,6.27,2.36,12,6.28,18.33,9,7.09,3,13.6,6.75,20.61,9.95,5.66,2.58,11.32,4.88,16.94,7.58,2.77,1.32,5.68,1.93,8.51,3S680,261.48,683,262"/><path class="cls-3" d="M543,209.16c2.27-.25,3.39.92,5.12,2,3.36,2.1,7,3.53,10.51,5.37s6.27,5,9.74,7.23c3.83,2.44,8.27,3.76,12.19,6.19,3,1.86,6.19,3.72,9.14,5.54,13.64,8.39,30,11.17,44.12,18.77,17.7,9.53,36.2,17.5,54.7,26"/><path class="cls-3" d="M560.84,239.79c1.72,2.61,7.19,4.49,9.92,6.28,3.57,2.35,7.84,3.83,11.88,5.3,6.76,2.47,16.17,5.36,21.6,9.94"/><path class="cls-3" d="M616.28,268.61a178.19,178.19,0,0,0,33.92,15.31"/><path class="cls-3" d="M609.35,246.72c2.8-.47,4.9,2.17,7.31,3.12,2.56,1,4.74,1.49,7.27,2.74,7.17,3.53,14.85,6.68,22.24,10.08,3.51,1.61,6.26,4.37,9.42,6.33a41.15,41.15,0,0,0,10.51,4.24A109.41,109.41,0,0,1,691,284.65"/><path class="cls-3" d="M613.73,255.48c3.84.41,7.07,3,10.29,4.67s7.2,2.83,10.86,4,5.11,1.66,7.93,4.2a25.05,25.05,0,0,0,8.42,5.11c3.42,1.31,6.79,3.26,10.19,4.75a51.7,51.7,0,0,0,7,2.36c3.38.91,3.33,1.33,5.52,3.36,7,6.51,15.43,6.88,23.64,10.58"/><path class="cls-3" d="M619.93,263.13c-.5,1.13,30.7,16.92,34.94,18.9,6.48,3,13.15,5,20,7.44,5.38,1.91,10.65,5.7,15.47,8.68"/><path class="cls-3" d="M607.89,231c4,1,7.54,4.05,11,6.2s7.49,3.32,11.29,4.91c6.2,2.61,11.64,6.34,17.93,8.87,6.93,2.79,12.73,7.22,19.58,9.94,4.69,1.87,11.5,2.72,15.65,5.46"/><path class="cls-3" d="M324.52,315.29c7.36-1.35,14.48-3.22,22-4.2,6.11-.8,13.47-3.31,19.66-2.71a29.67,29.67,0,0,1-15,2.84c-1.11-6.55,16.65-11.89,22.59-12.74a43.42,43.42,0,0,0-6.52,2c6.77-3.75,15.86-6.3,23.46-8.48-5.43-.41-11.09,1.73-16.45,2.48a118.39,118.39,0,0,1,22.84-9.07c5.07-1.46,19.33-5.28,20.86-11.29-5.1-.46-11.89,3.42-16.83,4.7.47-4.39,16.87-5.39,20.51-8.61-.68.52-1.86.83-2.6,1.29-1.05-4.34,10.23-12.18,13.87-13.44-1.32,4.56-5.86,5.94-7.81,9.64,7.38-4,15.08-11.69,20.48-18.22-1.59,2.83-3.31,5.9-6,7.89,2.54-5.13,7.75-9.33,11.15-14,2.49-3.4,6.49-8.72,10.83-9.37.1,4.06-7.89,8.24-10.68,10.9,2.79-6.88,10.89-8.28,15-13.77-.36.63-.56,1.26-.92,1.92,2.35-3.24,5.27-6,7.75-9.16,1.85-2.34,3.63-6.07,6.42-7.25.18,4-2.76,7.6-4.84,10.68,6-2,12.46-6.81,17.64-10.44a23.68,23.68,0,0,1-4.86,4c4-6.55,11.77-9.86,15.57-16-2.86,1.55-5.09,4.5-7.76,6.49,2.91-4.63,8.41-7.25,11.09-11.89a15.92,15.92,0,0,0-2.18,3.46c4.67-1.13,8.44-6.6,10.45-10.73-1.27,2.12-3.21,4-3.38,6.49,3.64-2.23,8-8.83,9.14-13.2"/><path class="cls-3" d="M379.22,220.1c1.29,1.39,1.16,3.48,1.51,5.43,4.16.53,5-1.3,5.79,3.15.43,2.43,0,5.39,0,7.83"/><path class="cls-3" d="M413.5,290.85c0,2.42,0,4.84,0,7.25,0-2.42,1.77-4.11,2.22-6.45,0,2.33.27,4.81-.42,7,1.55-3.25,4.1-5.88,5.56-9.17,0,4.22-1.19,12-3.32,15.4.25-4,5.18-7.73,6.84-11.16.25,3.72.07,7.52.08,11.26,0-.44,0-.93.07-1.37.79,1.15.78,3,.62,4.6.15-1,.76-1.49,1.13-2.42"/><path class="cls-3" d="M436.84,277.36c-.27,2.73-.93,5.62-.71,8.36,3.1-.32,3.52-4.18,4.81-6.45-.92,3-2.33,6.06-3.49,9-1-3.26,1.95-6.65,2.35-9.88,2.24,2,.86,7,1.16,9.92,2.24-.92,4-4.2,4.68-6.54-.08,2.4,0,4.82,0,7.23"/><path class="cls-3" d="M474.77,246c-1.72,2-3.18,8.78-3.09,11.25,2.58-1,5.2-5.33,6.33-7.87.22,5.25-.28,9.69-3.12,14.21a6.57,6.57,0,0,1,2-4,17.29,17.29,0,0,1-1.06,8.31"/><path class="cls-3" d="M528,199c0,4-1.13,10,.46,13.8a47,47,0,0,1,4.22-10.08c.51,4.82-2,9-1.76,13.64a11.3,11.3,0,0,1,1.78-7.08c.1,3,.9,7.27-1.41,9.6a10.32,10.32,0,0,1,1.85-4.83c-.09,3.49,0,7,0,10.48"/><path class="cls-3" d="M445.23,296.69c3.56-2.22,5.09,8.21,5.08,10.46,1.15-3,1.59-6.64,2.95-9.33.92,2.35.77,6.85,0,9.31a8.08,8.08,0,0,1,1.88-3.15c1.16,2,.56,4.88.71,7.25.55-.4,1.77-.56,2.46-1.28.74,1.43.38,3.58.4,5.34"/><path class="cls-3" d="M477,298.15a5.28,5.28,0,0,0-.76,3.51,7.36,7.36,0,0,1,.62-3.35,5.46,5.46,0,0,1,2,2.75"/><path class="cls-3" d="M470.4,300c1.79.72,7.73,1.27,9.4-.53a11.35,11.35,0,0,1-2.06,7.25c-.28-2.57,0-5.85,1.42-7.89.92,1.78.38,5.43.33,7.68a10.8,10.8,0,0,1,1.15-2.44,5.2,5.2,0,0,1,.33,2.86"/><path class="cls-3" d="M487.54,293.77c5.89.45,12.15-3.56,16.2-7.61-.05,2.53-3,3.86-5.14,3.93,7.87-6.29,15.45-9.65,21.7-17.31a8,8,0,0,1-2,6.89c2.25-3.84,6.73-6.42,8.75-9.95a5.71,5.71,0,0,0-2,1.66c2.06-3.45,4.59-7.41,7-10.64-.44,1.2-1,2.51-1.36,3.62,2.86-2.95,5.28-9.23,5.76-13.11a15.32,15.32,0,0,0-.17,4.61c4.47-.63,5.55-10.51,6.64-14.17,0,1.2-.15,2.52-.28,3.77-.14-3.87,1.35-8.54,2.57-12.08a41.39,41.39,0,0,1-.42,7c.85-3.64,1.76-8.37,3.68-11.48"/><path class="cls-3" d="M471.13,226.66c-.6-.25.18,2.12,1.1,3,3.39,3,12.53-2.39,15.86-3.38-4.58,1.22-8.59,3.94-13.09,5.25,2.55-.49,5.35-2.2,7.85-2.12,0,3.68-5.09,5.63-6.19,9a6.53,6.53,0,0,0,3.56-1.36c-.05,2.12-2.38,3-3.6,4.22,2.56.19,5.65-.49,8,.43"/><path class="cls-3" d="M475.14,191.65c-.11-.78.07-1.27-.71-1.75-1.44,1.48-3.24,3.65-3.23,5.69,2.84-1.33,5.61-3.39,8.38-4.94-2.28,1.34-4.66,2.7-6.87,4.06a23.35,23.35,0,0,0,6.77-.75,18.64,18.64,0,0,1-1.51,2.1c.42.11,1.25.58,1.69.66-2.42,1.47-5.81,2.54-7.49,4.8,1.92.53,14.63.7,5.52,3.26"/></g><text class="cls-5" transform="translate(112.03 265.16) scale(1.03 1)">ellow</text><path class="cls-6" d="M110.13,73.47c3.17-3.7,6.28-7.43,9.37-11.2s6.17-7.55,9.43-11.22,6.64-7.26,10.22-10.64,7.23-6.65,11.11-9.75A66.08,66.08,0,0,1,163,22.42c1.16-.55,2.35-1,3.56-1.49a18.12,18.12,0,0,1,2.15-.61,13,13,0,0,1,2.23-.24,16.91,16.91,0,0,1,8.3,2,19.07,19.07,0,0,1,6.52,5.32,14.52,14.52,0,0,1,2.15,4,13.41,13.41,0,0,1,.47,4.63,26,26,0,0,1-2.06,7.83,53.33,53.33,0,0,1-3.49,6.82c-1.3,2.21-2.78,4.21-4.22,6.21s-3,4-4.5,5.86c-3.07,3.84-6.23,7.58-9.44,11.27s-6.49,7.31-9.82,10.89-6.65,7.15-10,10.68c-6.74,7.06-13.61,14-20.76,20.67s-14.47,13.22-23,18.42a42.85,42.85,0,0,1-6.8,3.43A15.87,15.87,0,0,1,86,139.24a8.4,8.4,0,0,1-4.28-2.06,9.8,9.8,0,0,1-2.58-3.91,11.89,11.89,0,0,1-.63-4.44,17.71,17.71,0,0,1,.22-2.11,18.35,18.35,0,0,1,.43-2,34.31,34.31,0,0,1,2.92-7.27,72.65,72.65,0,0,1,3.91-6.5,127.27,127.27,0,0,1,9.12-11.8q4.85-5.62,10-10.89,2.58-2.64,5.25-5.2L115.68,78q5.2-5.08,10.54-10.12c3.55-3.36,7.11-6.72,10.8-10s7.47-6.43,11.53-9.41a50.29,50.29,0,0,1,6.58-4.18,14.3,14.3,0,0,1,4.34-1.51,6.11,6.11,0,0,1,3.48.43,5.06,5.06,0,0,1,1,.59,4.57,4.57,0,0,1,.76.77,5.55,5.55,0,0,1,.91,1.6,5.89,5.89,0,0,1,.38,1.67,10.47,10.47,0,0,1,0,1.49c-.07.43-.15.86-.25,1.28l-.35,1.13a22.3,22.3,0,0,1-1.91,3.75,52.19,52.19,0,0,1-4.6,6.18c-3.26,3.81-6.74,7.3-10.27,10.72s-7.16,6.69-10.68,10L127.34,92.49l-10.53,10.14c-3.51,3.38-7,6.75-10.63,10.05l-.43-.42,9.67-11c3.22-3.65,6.43-7.32,9.71-10.93s6.57-7.23,9.94-10.77l10.12-10.51c3.32-3.51,6.56-7.08,9.49-10.79a49.57,49.57,0,0,0,4-5.66A17.21,17.21,0,0,0,160,49.85l.17-.62.09-.52c0-.27,0-.47-.05-.43s0,0,0,0a1.59,1.59,0,0,0,.31.24c.26.11.19,0-.11.1a10.29,10.29,0,0,0-2.48,1,45.68,45.68,0,0,0-5.67,3.77c-3.74,2.85-7.37,6-10.94,9.25s-7.14,6.51-10.67,9.85-7,6.7-10.63,10l-5.38,5c-1.76,1.63-3.51,3.29-5.23,5q-5.16,5-10,10.4a133,133,0,0,0-9,11.1A45.85,45.85,0,0,0,83.82,126a10.21,10.21,0,0,0-.39,5.82,5.65,5.65,0,0,0,1.26,2.21,4.24,4.24,0,0,0,2.15,1.18A12.22,12.22,0,0,0,93,134.6a38.2,38.2,0,0,0,6.4-2.79,97.05,97.05,0,0,0,12-7.87c3.88-2.88,7.61-6,11.24-9.21a283.78,283.78,0,0,0,20.7-20.49q4.92-5.38,9.59-11t9.1-11.38c3-3.84,5.85-7.74,8.62-11.7s5.53-8,7.8-12a48.82,48.82,0,0,0,3-6.26A23.78,23.78,0,0,0,183,35.64a8.16,8.16,0,0,0-.25-2.61,9.33,9.33,0,0,0-1.32-2.39,14.73,14.73,0,0,0-4.68-3.87,13.7,13.7,0,0,0-2.83-1.13,10.75,10.75,0,0,0-2.89-.36,9.34,9.34,0,0,0-1.4.12c-.23,0-.44.12-.66.17a7.25,7.25,0,0,0-.71.2c-1.08.39-2.14.8-3.19,1.28a62.82,62.82,0,0,0-12,7.29c-3.81,2.89-7.6,5.92-11.25,9.06s-7.16,6.43-10.6,9.84c-6.82,6.85-13.46,14.09-20.69,20.65Z"/><path class="cls-6" d="M1.09,29.15A251.24,251.24,0,0,1,26.53,51.06q6,5.84,11.62,12A140,140,0,0,1,48.86,75.84c6.64,9,12.17,18.91,18.89,27.81,3.33,4.47,6.83,8.81,10.39,13.17l2.63,3.35,1.35,1.67,1.28,1.85,1.29,1.86,1.15,2.1c.36.71.63,1.4,1,2.11s.58,1.4.83,2.1a81.79,81.79,0,0,1,2.65,8.42c.37,1.4.69,2.8,1,4.21s.58,2.81.85,4.22c1,5.63,1.6,11.26,2.1,16.88a281.07,281.07,0,0,1,1.27,33.66,331.16,331.16,0,0,1-2.81,33.43Q91.6,241,90,249.28c-1.08,5.52-2.27,11-3.86,16.49l-1.4-.1c-1.65-11.22-2.47-22.33-3.1-33.43s-1-22.13-1.09-33.15.38-22,.46-32.94c0-5.47-.06-10.92-.1-16.34a142.61,142.61,0,0,0-.73-16,18.4,18.4,0,0,0-.3-1.9c-.12-.6-.22-1.26-.37-1.84s-.31-1.15-.49-1.73l-.79-1.74-.8-1.76-1-1.76c-.71-1.15-1.35-2.35-2.11-3.48A117.55,117.55,0,0,0,64.24,106.5C56.93,98.18,48,91.25,40.05,83.5A156.86,156.86,0,0,1,28.81,71.26q-5.37-6.33-10.44-13c-3.39-4.42-6.66-8.94-9.78-13.6C7.05,42.33,5.51,40,4.07,37.54,3.35,36.33,2.63,35.1,2,33.86S.61,31.32,0,30Z"/><path class="cls-7" d="M532.5,248.8c0,3.13.87,5.47,2.63,7a9.76,9.76,0,0,0,6.83,2.35h5.25v7H501v-7h5.26c3.49,0,5.94-.77,7.35-2.35s2.1-3.89,2.1-7V163.27h-62V248.8c0,3.13.87,5.47,2.63,7a9.76,9.76,0,0,0,6.83,2.35h5.25v7H422.15v-7h5.25c3.5,0,6-.77,7.36-2.35s2.1-3.89,2.1-7V81.26q0-4.67-2.1-7c-1.41-1.55-3.86-2.34-7.36-2.34h-4.2v-7h44.14v7h-4.2a9.9,9.9,0,0,0-6.83,2.34c-1.76,1.58-2.63,3.92-2.63,7v75h62v-75q0-4.67-2.1-7c-1.41-1.55-3.86-2.34-7.35-2.34H502v-7h44.14v7H542a9.9,9.9,0,0,0-6.83,2.34c-1.76,1.58-2.63,3.92-2.63,7Z"/><path class="cls-7" d="M576.16,203.68V251.4c0,3.72.27,6.19.83,7.42a5.75,5.75,0,0,0,2.46,2.76q1.63.92,6,.91v2.33H555.78v-2.33c3,0,5-.28,6-.84a5.88,5.88,0,0,0,2.44-2.79c.59-1.3.89-3.78.89-7.46V228.52q0-9.68-.6-12.52a5,5,0,0,0-1.46-2.88,4.23,4.23,0,0,0-2.73-.81,13.63,13.63,0,0,0-4.53,1l-.93-2.34,18.38-7.26Zm-5.53-31.05a6.58,6.58,0,0,1,4.76,1.91,6.24,6.24,0,0,1,2,4.64,6.32,6.32,0,0,1-2,4.66,6.5,6.5,0,0,1-4.76,1.95,6.61,6.61,0,0,1-4.79-1.95,6.45,6.45,0,0,1,0-9.3A6.68,6.68,0,0,1,570.63,172.63Z"/><path class="cls-7" d="M614,172.63V251.4q0,5.58.83,7.39a5.84,5.84,0,0,0,2.57,2.76q1.73.94,6.45.94v2.33H593.94v-2.33q4.18,0,5.72-.84a5.76,5.76,0,0,0,2.4-2.79c.58-1.3.86-3.78.86-7.46V197.46q0-10.05-.46-12.35A5.36,5.36,0,0,0,601,182a4,4,0,0,0-2.63-.84,12.73,12.73,0,0,0-4.39,1l-1.14-2.27L611,172.63Z"/><path class="cls-7" d="M651.87,172.63V251.4c0,3.72.27,6.18.83,7.39a5.82,5.82,0,0,0,2.56,2.76q1.74.94,6.46.94v2.33h-29.9v-2.33q4.2,0,5.73-.84a5.76,5.76,0,0,0,2.4-2.79c.57-1.3.86-3.78.86-7.46V197.46q0-10.05-.46-12.35a5.36,5.36,0,0,0-1.5-3.15,4,4,0,0,0-2.63-.84,12.78,12.78,0,0,0-4.4,1l-1.13-2.27,18.18-7.26Z"/><text class="cls-8" transform="translate(168.14 105.78)">курсы <tspan x="0" y="22.9">подготовки</tspan><tspan x="0" y="45.79">к ЗНО</tspan></text></g></g></svg>