<svg xmlns="http://www.w3.org/2000/svg" viewBox="0 0 1296.11 599.94"><defs><style>.cls-1,.cls-2,.cls-3,.cls-4{fill:none;stroke-miterlimit:10;}.cls-1,.cls-4{stroke:#fce300;}.cls-2,.cls-3{stroke:#000;}.cls-3{stroke-width:0.75px;}.cls-4{stroke-width:2px;}</style></defs><g id="Слой_2" data-name="Слой 2"><g id="Слой_1-2" data-name="Слой 1"><path class="cls-1" d="M345.63,589.47c6.86-2,13-5.48,20-7.37,6.59-1.78,13.75-1.92,20.7-4.13,14.13-4.48,24.32-16.71,35.15-26,9.15-7.84,24-4.83,35.27-7.7,2.76-.7,7.57-1.72,8.95-4.27,1.76-3.24.8-15.94.47-19.24-.52-5.15-4.14-1-1-7.5,1.12-2.35,7.1-9.09,9.52-10.5,6.14-3.59,11.77,1.72,14.85-7.18a21.88,21.88,0,0,0,1.07-6.75c6.21.75,18.47-7,24.53-9.39,8-3.16,17.25-5.23,24-10.74,3-2.46,3.25-5.59,5.26-7.94,3.7-4.33,12.55-2.92,19-5.47,7.84-3.1,15-8.15,23.06-10.65,7.45-2.3,13.85-4.4,20.61-9.23,7.69-5.48,14.13-10.14,22.74-12.83,7.37-2.3,13.47-2.2,21.23-3.15,19.65-2.41,39.34-10.17,58.07-16.84,7.8-2.77,13.69-4,20.21-9.84,8.4-7.48,11-12.88,21.65-16.68,21.61-7.7,45.56-9.7,67.37-16.69,16.81-5.39,35.74-9.72,52.52-16.12,5.65-2.16,11.06-5.82,17-7.89,5.56-1.93,14.57-2.94,19-6.64,3.32-2.75,4-5.75,6.93-8.51,4.06-3.81,10.89-5.18,15.89-7.48,2.09-1,12.5-4.88,10.08-8.74-1.65-2.63-12.36.37-15.18-.05a13.18,13.18,0,0,0-1.38-8c5.33-1.33,11.18-2.74,16.53-4.54.71,4.58,2.81,8,7.85,7.31-.77-5.08-11.55-8.66-16.42-9.38-8.08-1.21-15.09,2.09-22.67,3.49-3.87.72-8.13.44-12,1.17-5.18,1-6.06,3-10.44,5.66-7,4.2-18,2.72-26.12,2.24a5.66,5.66,0,0,1,6.21-7.19c-3.11-1.91-8.07-1.08-8.25-5.27,10.2-.59,18.08-5.34,27.35-9.59,5.39-2.47,23.08-5.66,21.17-12.42-8.05-.42-13.79,3.12-21.24,3.9s-14.71,1-22,2c-8.29,1.13-16,4.43-24,6.11-3.69.77-9.56,2.71-13.33,1.85s-5-4.08-9.24-4.78a11.92,11.92,0,0,0,0-1.79c2.49.28,3.78-.56,5.84-1.59-5.52-6.28-14,2-19.82.71a57.4,57.4,0,0,1-1.36-6.68c-26.67,15.47-56.48,28.22-84.63,39.51-6.44,2.58-29.35,22.24-36.87,16.17-6.67-5.39,2.76-11.85,4.71-14.17,5.52-6.55-3.62-7.23-9.28-9.22,1.86-1.77,4.2-3.35,6-4.82-1.73-2.09-4.06-4.08-4.66-6.57,10.76-2.86,14.09-10.77,22-17.26,4-3.25,9.38-5.32,13.08-8.15,5.48-4.2,5.24-10,9.5-15.08,6.59-7.84,19.48-9.23,28-14.49,6.12-3.78,20.83-10.74,23.14-17-6.32-1-13.09,2.61-19.16,2.46,2.6-3.62,5.27-7.44,8-11.08,1.24-1.66,2.47-1.4,3.39-3.49s-.92-4.71.6-6.67c2.58-3.31,10.38-2.23,14.05-4.62s5.34-5.83,7.64-8.59c-2.93-.15-6-.15-8.88,0-.68,4-6.06,9.34-10.48,8.43-2.05-.42-5.9-6.77-7-8.53-3.8-6.25-2.17-7.89,2.5-12.81a82.43,82.43,0,0,0,6.36-7.09,38,38,0,0,0,3.17-4.77c2.59-4.54,3.4-7.92,9.34-10.17,4.16-1.58,13.73-1.44,16-5.15.88-1.41,1.21-9.78,1.28-11.35.19-4.07-1.36-7.23-1.42-11.24-.62-.28-3.54-1.29-3.91-1.35a66.65,66.65,0,0,0-7.34,5.93c-1.4,1.2-2.77.73-4.2,2s-1.7,4.16-3.1,5.38c-2.1,1.84-5.88,3.08-8.41,5.14-3.47,2.83-4.71,4.44-10.19,4.27.65,6-5.16,2.77-8.62,4.42s-3.51,3.93-6.14,6.8c-2.78,3-7.49,3.6-10.59,6.15-2.63,2.17-.13,5.18-6.1,5.2"/><path class="cls-1" d="M453.66,584.14c-11.23-3.62-15.4-7.9-14.58-19.91,5.69-2.74,11.89-3.25,16.91-7.42,6.13-5.09,5.3-10.85,13.51-7.83,4,1.48,9.44,7,12.88,1.81,2-2.94-2-12.57,6.5-8.07,1-6-6-8.47-5.09-13.93.78-4.78,7.57-3.71,1.88-10.67"/><path class="cls-1" d="M472.33,508.12c16.06,0,21.86,3.1,34,12.66,1.94,1.54,7.47,3.12,8.56,4.61,2.41,3.27.09,6.58,2.81,9.41.63.66,3.36.14,4,.77a31.65,31.65,0,0,1,2,3.22c1,.72,3,6.87,5.9,2,1.58-2.66-4.81-17.73-6.6-19.69-3.45-3.78-13-10.6-1.3-14.9,7.08-2.59,8.51,4.86,13.35,3.75,2.72-.62,2.35-5.9,7.19-.75,2.32,2.47,2.7,7.66,2.79,10.82,3.84-.45,7.43-1.6,11.33-1.17-.39,4,0,8.72,4.68,9.79,2.19.5,4.77-2.21,6-1.92.41.1,1.77-.76,2.68-.54,1.33.31.22,3.89.59,4,7.52,1.3,5.88-12,10.7-12.13,3.85-.14,4.32,7.36,8.67,8.08"/><path class="cls-1" d="M564.36,577.47a8.7,8.7,0,0,1-.42-5.92c2.8.89,9.19,5.69,10.37.17-3.33-.09-7.35,3.79-6.55,7.68,5.44,1.52,7.32-1.94,8.75-6.27,1-2.94-1.39-8.77-.67-10.2C578,558.59,599.59,560.2,588,552c5.28,2,9.17,6.18,9.67-1.24.38-5.59-5.19-6.77-4.88-11.33.29-4.17,5-8.64,5.55-13.34.8-7-.11-6.61,6.43-8-8.88-10,4.21-17.15,13.47-17.94a12.89,12.89,0,0,0,1.39,6.47c4.93-.8,11.47-17,17.25-11.26s-5.25,16.54-6.65,21.27c-8.15-.56-9.18,4.89-1.28,6.89-.45,1.29.09,3.18-.51,4.38,1.95.65,3.83,1.82,5.79,2.27.89,3.64-1.59,6.09-1.88,9.53.6-6.11.82-14.11,6.12-18.18,3.19-2.46,5.32.42,6.55-4.77.73-3.12-1-6.33-1.79-9.09,2.44-1.5,8.81-4,11.32-1.7,1.49,1.39-.67,5,.57,6.13,3,2.76,9.78-1.48,12.44-2.78C677,504.79,686.8,504,697,502.1c4.45-.81,8.46-.85,10-6,.51-1.66-1.28-4.06-.71-5.32,1.94-4.26,2.15-1,5.87-2.82,9-4.49,19.87-10.34,10.9-21,3.67-1.37,4-4.77,7-7,1.94-1.41,11.33-4.56,14.1-3.05,5.58,3.05,4.48,14.76,8.7,19.69.09-2.27.07-4.73.22-7,4.87.88,3.44,8,7.37,10.28s7.72-1.67,11.13-4.66c8.76-7.65,1.87-13.51,2.74-23.06.77-8.51,13.58-13.5,18.69-18.66.85-.86.85-2.92,2.48-4.21,1.8-1.42,3.9-.28,5.55-1.27,2.9-1.74,5.61-3.29,5.35-7.07,2.6-1.48,5-1.59,8-1.47,2.21.09,6.17,2.19,7.3,2.09,9.43-.87,5.54-12.11,9.94-17.28,5.39-6.31,9-2.11,6.71-11.52-2-8.32.21-11.09,9-15.15,5.49-2.54,12-3.43,17.41-6.34,5.95-3.22,9.77-10.05,15.12-13.68,6-4.09,10.38-3,14-11.11,2.2-4.92,1-10.11,4.49-14.36"/><path class="cls-1" d="M246.94,592.14c9.28-2.86,17.53-6.73,26.68-10,9.56-3.38,20.68-6.6,30.81-10,8.58-2.9,17.07-3.74,25.75-6,7.84-2,13.24-8.53,20.12-12,8.22-4.19,18.22-4.68,26.18-9.17,6.73-3.79,12.9-6.83,20-10.33,6.35-3.11,10.25-7.29,17-10,7.94-3.26,16.71-4.92,25-7.62,8.64-2.81,13.29-9.58,21-14.37,6.29-3.9,11.92-4.46,18.8-6.31a31.6,31.6,0,0,0,9.33-3.66c2.22-1.44,3.59-4.84,5.34-5.87,4.64-2.74,13.36-3.38,19.3-6,7.42-3.24,13.69-8.26,21-11.82a161.53,161.53,0,0,1,26.8-10.24c8.15-2.41,16.46-3.7,23.65-8,8.81-5.19,17.53-10.6,27.16-14.85,8.4-3.71,17.24-5.75,26.24-7.56,10.25-2.06,20.9.56,29.76-4.61,11.93-7,21.27-15.12,34.71-19.64,11.67-3.93,27-7.16,36.63-13.34,5.57-3.6,10.45-8.56,17-11.07,10.56-4,23.56-2.3,34.45-6.56.23-9.31,14.83-13,22-13.07,9.09-.08,15.29-1.63,24-3.38a135,135,0,0,0,20.7-5.48c5.34-2,9.75-5,14.9-7.06,3.88-1.52,7.85-1.49,10.7-3.28,3.06-1.93,5.45-5,9-6.5,6.83-2.91,14-3.52,20.75-7.18A46.64,46.64,0,0,0,923,318.73c4.92-4.82,10.2-6.91,15.48-11.34"/><path class="cls-1" d="M197.59,558.8c10.18-4.24,19.13-12.54,29.51-17.19,6.81-3.05,14.29-2.68,22-4.1,15.55-2.87,31.23-9.81,45.85-15.41,31.4-12,64.86-22.62,97.32-32.33,11.94-3.57,20.91-12.4,33.09-15.15,15.52-3.51,29.91-6,43.15-15.07,3.93-2.67,7.87-5.63,12-8.12,7.9-4.8,17.54-3.91,26.08-5.51,11.39-2.13,19.71-6.73,30-11.83,17-8.39,33-18.12,52.06-20.67,9.5-1.27,18.69-2.17,27.8-4.52,10.06-2.58,16.54-8.84,26.07-12.78,11.12-4.6,21.12-10.21,31.32-16.34,9.25-5.56,16.87-7.81,27.55-9.07,18.63-2.21,33.32-13.44,50.35-20.66,5.72-2.42,15.26-3.7,20.16-7.41,3-2.23,2.22-6.43,3.76-7.92,2.38-2.3,6.94-1.33,10.12-1,7,.67,16.3,2.32,24,1C820.33,333,829,323.36,838.39,318.6c7-3.58,13.47-5.11,20.79-7.87,5.85-2.22,13.25-10.57,19.27-10"/><path class="cls-1" d="M447,446.76c8-3.54,15.57-8.52,23.93-11.35,11.3-3.83,23-5.94,34.21-10s24.25-6.56,34.51-12.17c10.74-5.89,18.55-17.41,30-23a172.46,172.46,0,0,1,24.58-9.37c11.06-3.34,22.08-7.64,33.43-11.45,24.6-8.27,51.43-18.88,74.51-30.6,10.51-5.33,18.07-12.48,29.93-15.25,16.31-3.81,27.31-7.5,40.85-16.87,6.87-4.76,13.12-7,20.72-10.06,10.52-4.21,11.7-13.14,21.44-17.25"/><path class="cls-1" d="M210.93,586.14c-.39-4.2,1.33-14,8-12.71,4.34.87,3.17,6.82,3.75,10.66a22.84,22.84,0,0,1,13-12.53c2.25,4.1,1.08,9.36,1.4,13.81A71.74,71.74,0,0,1,253.7,568.6c1.16,3.51.44,8.31.72,12.14,3.78-2.77,7.25-7.83,12-8.62-.05,1.42,1,3.7.68,5.32,7.19-3.61,10.31-14.46,18.72-18.42,2.84,2.75,1.77,7.83,1.79,11.71-.55-2.57-.18-5.35,1.86-6.57.11,1,.69,2.38.92,3.44,5.69-3.22,9.81-9.7,16.67-11,.79,2.57,1.06,6,2.27,8.19,1-3.49,2.71-9.53,6.71-9.85,0,0,.19,2.23.18,2.21.51-6.24,14.47-6.08,18.21-12.33.44.27.69.74,1.22,1.17a14.78,14.78,0,0,0,4.64-4.57"/><path class="cls-1" d="M357.63,542.12c3.65,5.69,9.5-11.68,11.52-14.16,1.58,2.86,1,6.75,1.85,9.23,5.1-11.55,9.93-22,18.42-31.55,1,7.32,3.5,14.47,3.79,22,3.55-4,5.1-9.68,8-14.27-.07,1.48.85,3.81.82,5.37a69.09,69.09,0,0,1,6.94-7.26"/><path class="cls-1" d="M454.33,498.11c9.81-1.49,16.56-19.41,20.75-26.68,0,2.59-.12,5.26-.05,7.79,3-3.74,3.45-8.91,6.7-12.38a100.17,100.17,0,0,0,.16,14c3.13-7.09,3.14-16.12,8.34-22.1-.19,1.66.43,3.76.33,5.32,2.05-2.17,3.59-5.06,5.74-7.06.16,4.76-1.11,11,.77,15.3C503.9,471,512,461.35,514.24,454.8c-.17,3.6-1.36,7.19-1.87,10.62,1.76-3.18,4.28-5.92,6-9-.13,3.72.39,7.63-.59,11.22,6-6.27,8.15-17.69,12.53-25.44a27.82,27.82,0,0,0-.62,6.58c2.1-1.64,3.9-3.75,5.94-5.51.22,3.79-1.26,7.39-2,11,3.21.53,5.63-1.73,7.93-3.49a17.65,17.65,0,0,1,0,1.78c1.35-1.31,1.62-2.67,2.07-4.48"/><path class="cls-1" d="M166.25,589.47c-1.38-4.9-1.84-14,.68-18.21,1.66,3.32,2.25,8.3,2.92,12,6.26-5.23,19-25,17.67-5.1,1-3.58.68-9,4.49-9.94.05,1.06.44,2.43.51,3.29,5-5.75,8.82-13.84,15.29-18,2.72,2.4,2.23,8.47,1.26,11.24,0-1.19-.08-2.48-.15-3.7,0,1.59,0,3.19,0,4.77.08-2.89,1.71-5.48,3.49-7.77a44.4,44.4,0,0,0,0,7.2,103.78,103.78,0,0,0,5.32-13c0,4-.09,7.79-1.47,11.6a23.23,23.23,0,0,1,8-16.75c-.39,1.64.43,3.88.18,5.58,7.38.46,10.27-14.37,17.26-16.58"/><path class="cls-1" d="M737.74,434.76c0,1.18,0,2.36,0,3.55-.54-4.08.85-8.1,2.68-11.65,2.09,4.64.74,13,.61,18.43a9.16,9.16,0,0,1,2.47-6.9c.41,3.19.11,6.76.43,9.79,3.27-4.58,4.62-10.18,7.26-15.12-.22,4.44.89,9.71-1.49,13.64.16-5.74-1-12.17,1.95-17.34.64,9-1,16.43-2.6,25.09-1-6,6.49-14.57,9.42-20.76-.16,6.11-.07,12.24-.05,18.36-.63-10.22,3.08-19.44,5.37-29.12.1,10.49-2.6,20.47-6.59,30.09a160.16,160.16,0,0,1,.56-31.27c.28,11.93-6,20.91-7.49,32.25a70.26,70.26,0,0,1,6-24.11c.52,7,1.22,17.42-2.4,23.4-.87-4.14-2.11-9.69-4-13-.24,3.45-.14,7-.14,10.52.38-4.42-.16-10.44-2.55-13.7a19.6,19.6,0,0,0,.6,8.38,10.42,10.42,0,0,0-1.94-6.31c-.75,6,9.28,11.59,10.46,17.7-3.53-4-4.31-25.73.09-30.75,4.61,5.8,2.92,15.37,4.72,22.56-.13-7.25,0-14.52,0-21.77"/><path class="cls-1" d="M525,480.11c3.33-4,11.93-6.74,13.21.49-.25-1.83.63-3.9.73-5.61,2.52,2,2.52,5.92,2.07,9,.21-1.83-.4-3.41-.6-5-2.16,3.71-2.33,8-2.07,12.24,0-5,.15-10.08-.08-15.05-4-.47-3.43,6.74-7.31,5-2.18-1-2.05-6.35-1.49-7.78,1.65,1.85,2.5,5.29,3,7,2.31-2.36,2.41-6.8,5.77-7a38.47,38.47,0,0,1,1.47,7.8,18.88,18.88,0,0,1,3.83-11.49c.84,3.15,2.42,6.09,2.15,9.41a16,16,0,0,1,1.35-4.52c.75,1.7,1,5,1.58,7.08,1.16-2.69,2.44-5.73,4.4-7.77.87,1.53,2.53,2.31,2.86,4.74,2.46-11.34,5.71,1.65,6.53,5.2a6.67,6.67,0,0,1,1.17-5.79,33.27,33.27,0,0,1,.8,9.75c0-1.43.06-2.82.1-4.25,2.17,2.31,2.16,6.64,1.9,10.1V478.14a82.06,82.06,0,0,0,.27,10.31c2.34-4.26,2.5-9.39,5.13-13.6.87,2.3.7,6.12.45,9.06-.24-.44-.3-1.11-.5-1.47-.31,1.82-1.15,3.63-1.51,5.4-1-4.18-.49-8.69-.51-13v9.88c-.1-4-.88-9.3,2.22-12.19.73,3.52.48,7.19.39,10.78,1-2.87,3.06-4.65,6-4.5-.4,2.63-.23,5.1,1.44,6.66a95.58,95.58,0,0,1,4.11-10.59c5.88,2.35,10.45-5.85,15.13-8.28.2,3.65-.23,7.42.38,11a29.86,29.86,0,0,0,2.91-6.46c0,.83.14,2.08.13,3.06,0-2.38,1.92-12.95,5.54-12.08,1.64.4,1.74,8.29,3,10,0-3.93.11-8,2-11.56a14.08,14.08,0,0,1-.57,6.38c-.15-1.24-.11-6.23,1.4-8.54,1.26,4.17.62,9.07.64,13.51a14.52,14.52,0,0,1,2-7.78c1.25.7,2.59.19,3.88.74l.6,1.64c2.22-4.91,1.32-10.7,4.25-15.32-.35,3.12.95,3,1.81,4.88,5.44-6,6.9,4.64,6.79,8.58v-5.53a23.1,23.1,0,0,1-.52,6.24c-.35-4.74-1.15-10.77,1.24-15.1,0,2.15,0,4.32-.08,6.47,0-2.54,2.25-13.11,6.26-10,2.14,1.69.45,14.45.39,17.17.28-3.18,2-5.9,2.72-8.93-.38,2,0,4.36.06,6.39,4.06-1.37,2.87-7.61,7.17-8.59.18,1.82.47,4.2-.05,6a14.48,14.48,0,0,1,.15-3.85c1.8,9.35,5.08,5.92,9.22-.16.13.66,0,1.25.16,1.9a6.83,6.83,0,0,0,5.82-2.54c0,1.19.63,2.8.63,3.77q1.54-3.07,2.87-6.25,0,.57,0,1.14a15.63,15.63,0,0,0,.09-3.27c-.72,1.61-2.06,2.93-2.77,4.58a28.25,28.25,0,0,1-.75-4.08c-1.56,5-11.54,7.39-9.8.25,3.73,5.26,11-.89,13.71-4.45-.2,1.08.42,3,.29,4.18,1.37-.28,4.42-1.1,5.88-.66,1.12.34,2.3,3.16,2.61,3.18,3.62.24,4-1.62,7.18-2.65,4.05-1.32,6.76-1.37,11.42-1.7-.05.94.38,2.22.27,3.16,1.39.38.94-.56,1.88-1.24"/><path class="cls-1" d="M639.05,496.11c0-4.52,2.9-11.4,7.38-11.86,1.53,4.44,1.26,9.16,1.4,13.78,1.49-3.89,4-10,7.27-13.1a26.63,26.63,0,0,1,.73,3.74c1.25-2.82,3.07-5.81,3.22-9.23"/><path class="cls-1" d="M615,501.45c-2.71-1.67-1.73-9.13.5-12-1.13,1.1-3.2,1.78-4.4,2.67a14.26,14.26,0,0,1,2.5-10,16.73,16.73,0,0,1-1.41,6,84.2,84.2,0,0,1,6.87-14.78c0-.85-.46.48-.73.76"/><path class="cls-1" d="M518.35,510.78c3.1-1,6.28-2.43,9.22-3.31,1.06,4.56-2.89,7.53-5,11.19,3.07-1.07,6.44-3.08,9.74-4.34.86,5.61-4.63,9.56-8.24,13,2-2.84,5.3-4.46,8.32-5.68-.3,1.4.35,3.23.11,4.46,6-1.7,9.4-10.3,15.42-12.09.37,5.32-3.19,11.39-6.21,15.58a11.11,11.11,0,0,1,3.36-8.82c-1,5.24-5.63,12-10,15.23-.15-3.22,1.63-5.8,3.56-8.36a18.45,18.45,0,0,1-.34,9.4c.29-1.38.7-2.6,1.1-3.94.52,3.61,1,9.19-.37,12.77-1.54-3.21-.68-8.44-.63-12.24-.92,5.17-3.47,10-5.27,15-.21-3.93-.09-7.93-.1-11.88,0,4.57.25,9.11-.7,13.61a150.56,150.56,0,0,1,2.89-26.29c.79,2.77-.06,6.89,1,9.76.31-3.83.14-7.73.15-11.6,0,1.94-.83,3.46-1.31,5.28-3.66-3.6-1.41-16.63-1.33-21.89-.13,2.73-2.63,14-6,14.53-5.21.79-5-5.83-4.74-9.27-.06,1.68,0,3.39,0,5.08.75-2.72,2-5.61,2.15-8.51,2.06,5,.07,16.31,7.92,11.29.68,3.2.68,6.73,1.73,10,3.17-3.81,3.43-9.45,5.44-13.88.28,3.8.12,7.81.12,11.69v-9.75c0,3.78.8,7.49-1.4,10.74.12-4.23.07-8.47.07-12.71a21.16,21.16,0,0,1-.52,7.15,116.49,116.49,0,0,1-.13-11.68c-.38,3.61-.19,12.3-4.57,12.31a44.56,44.56,0,0,0-2.15-12.45A82.85,82.85,0,0,1,525,537c.65-4.26,3.64-13.29,3.36-18.65,1,6,2.53,12.32,2,18.38.87-4.33,2.55-10.38,5.24-13.36,2.37,9,.8,19.51.8,28.76a25.55,25.55,0,0,1,.52-4.94c.3,4.36-.37,9,.77,13.06a11.53,11.53,0,0,1,4-4.91c-.3,5.26,1.44,10.66,1.38,16.11.25-3.26.41-7.12,2.43-9.78a73.51,73.51,0,0,1,.27,10.45c-.23-10.2,1.84-19.5,3.93-29.42.71,8.49-2.68,18.45-5.82,26.16-.49-5.83-1.56-15.32,2.46-19.91.39,6.71-.83,13.48-.57,20.19-.44-6.33.21-14,5.17-18.53.83,7.78.15,14.48-3.61,21.26-1.29-4.9,5.14-11.37,8.25-14.94a109.65,109.65,0,0,1,.18,12.18c-.06-4.59,2.24-8.65,4.27-12.67,1.26,3.91-.19,8.55-1.46,12.24-.18-7.56,5.72-13.07,11-17.87,1.68,4,.87,9,.89,13.36-.08.86,0-3.45,0-4.39a16.44,16.44,0,0,1-3.89,7.61,22.15,22.15,0,0,1-.92-7.65c-1.07,3.62-1.51,7.49-3.09,10.95-.3-4.21-.13-8.55-.13-12.81.6,8.76-3,19.62-8,26.29-3.5-4.92-1.2-11.48-2.61-16.73-2.58,2.19-3.56,5.83-6.73,7.55-3.29-4.07-2.77-9.15-2.6-14.16-1.31,5.78-3.45,12.3-7.25,16.68-.79-2.82-1.25-5.85-2.7-8.37-.06,1-.17,2.29-.14,3.4-.16-4,.9-7.79.68-11.73q0,4.22,0,8.43c.24-6.1,1.48-12.05,6.16-16.35-.32,6-.15,12-.13,18a15.79,15.79,0,0,0,5.43-4c2.11,3.08,2,7.17,2.14,10.63a8,8,0,0,0,4.35-5.09c-.14,2.26.18,4.11-.57,6.35,2.25-4.42,2.28-11.77,5.92-15,.27,7-.28,13-2.79,19.63,2-5,6.4-8.66,9-13.4,1.33,4.14.56,10.86.53,15.8-.31-4.63,1.57-8.84,3.46-13,.43,5.71-2.54,9.29-3.46,14.55-.1-3.76-.64-8.08,1.92-11.12-.16,2.1.47,4.55.6,6.4a4.69,4.69,0,0,1,.83-1.83"/><path class="cls-1" d="M441,568.13a10.29,10.29,0,0,1,2-6.81c2.41,6.25,1.49,15.63,1.25,22.73a50.49,50.49,0,0,1,5.29-16.47c.21,3.71.18,7.5,0,11.24,1.21-3.23,1.34-7.14,3.31-9.77.37,6.07.13,12.25.08,18.34a19.81,19.81,0,0,1,4.23-12.31,34.41,34.41,0,0,1,1,10.85c1.52-4,2.71-8.17,5.05-11.8,1.34,7.21.52,15.58.3,23,3.36-8.37,2.21-17.61,4.76-26.11,2,10.34-10.55,8.54-9.36-4.18a6.27,6.27,0,0,1-2,6.65c-3-3.07-1.77-8.37-4.79-12,.56,6.66-4.26,1.48-7.93,1.81-.55,2.22-.74,5.28-1.3,7.83a31,31,0,0,1,.14-5c.25.32.68,1.06,1,1.61,2-2.41,3.67-5.34,5.74-7.82,2.81,2.45,2.62,8.82,2.52,12.87a31.9,31.9,0,0,0,2.82-6.14,42.53,42.53,0,0,1,.6,7.24,15.08,15.08,0,0,0,.65-1.78c1.55,1.94,2,4.83,2.26,7.48,2.28-1,4.92-2.71,7.56-3.44,0,3.12,1.07,6.49,1.93,9.27,5.53-2.13,10.64-6.07,16.25-7.86.18,2.71.31,6.24,2.53,8.21.67-1.59,2.21-3.11,2.61-4.87-.12,1.64.27,3.54.14,5.17,1.79-2.74,2.59-6.15,3.83-9.07.16,3,.09,6,.11,9-.45-3.79-.19-7.72,3.26-9.93a35.22,35.22,0,0,0,.65,7.68,21.87,21.87,0,0,0,2.93-6.36c.76,2.88.52,6.2.42,9.32.23-2.19,1.87-3.85,2.76-5.38,1.25,2.7.7,7.36.53,10.79,2.38-4.72,3.84-10.43,7.38-14.37a32.63,32.63,0,0,1,.07,5.33v1.07"/><path class="cls-1" d="M479,561.46c-.71-5.57,5.53-3.49,6.15.44,1.68-2.37,1.91-5.61,3.89-7.94.37,1.32,1.84,2.93,2,4.73,2.55-.25,5.26-.15,7.23,1.23a2.52,2.52,0,0,0,1.35-1.12"/><path class="cls-1" d="M489,539.46a14.67,14.67,0,0,0-.56,6.55c4.23,1,4.57,5.67,9.14,5-.78,5.44,8.48,4.39,11.61,6.4s10.46,6.32,11.16,10"/><path class="cls-1" d="M510.34,544.13c4.64.31,4.11,11.07,4.09,15.23,1.25-2.12,2.47-4.51,4.49-5.16.07,2.71,1,3.78,2.09,3.93"/><path class="cls-1" d="M573.7,518.12c-1.12-4.23-1.68-10.78.63-14.61a11.4,11.4,0,0,1,3.74,5.45c.35-4.53,3.32-9.06,6.23-12.23a3,3,0,0,1,0,1.65c1.39-3.65,2.06-8,3.37-11.54.7.11.63.49,1.32.6a42.51,42.51,0,0,0,5.37-12"/><path class="cls-1" d="M657.72,500.78c-1.32-13.77,14.94,1.82,4.67.67"/><path class="cls-1" d="M667.72,474.77a14.39,14.39,0,0,0-.67,6.67"/><path class="cls-1" d="M676.39,484.77a7.47,7.47,0,0,1,2,2"/><path class="cls-1" d="M677.72,500.78c.66,1.59,2.49,1.86,4.67,1.33"/><path class="cls-1" d="M684.39,476.11c2.36.6,4.22,0,5.34-2"/><path class="cls-1" d="M681.73,465.44a7.9,7.9,0,0,0,2-5.34"/><path class="cls-1" d="M672.39,458.77c-1.81,1.71-2.43,4.62-2,7.33"/><path class="cls-1" d="M679.06,486.11c.06,1.59,1.06,2.4,2.67,2.67"/><path class="cls-1" d="M691.06,469.44c-.16.6.07,1.26-.1,1.89-.59-.08-1.11.19-1.79,0-.56-2-2.17-2.67-3.44-3.88"/><path class="cls-1" d="M691.06,456.77c3.79-.52,6.13,2.44,6,6"/><path class="cls-1" d="M702.4,474.77c-.89,3.53,1.11,5.85,4,4"/><path class="cls-1" d="M695.06,484.77c-2.81.72-5.25.3-5.33-2.66"/><path class="cls-1" d="M710.4,472.77a17.26,17.26,0,0,1,.09-1.9c3.36-.7,6.67,1,9.28,2.35a68.37,68.37,0,0,0,2.63-6.45"/><path class="cls-1" d="M708.4,451.43a6.34,6.34,0,0,1-2.56-5.25c3.73,1,5.56,3,9.85,3.28,3.46.24,7.74,0,11.38,0"/><path class="cls-1" d="M584.36,573.47c-1.3-14.85,16.25-19.88,27.55-25.34,3.74-1.81,9.33-4.21,12.49-1.7-8.29,3.9-18.35,10-24.52,16.78,9.46-9.66,28.65-11.38,40.72-16.63,5.86-2.55,12.21-4,17.93-6.22-3,3-7.41,4.39-11.16,6.36,6.57-3.11,12.77-8,19.34-10.65,6.18-2.54,13.28-3.17,19.95-4.1,8.15-1.14,20.35-.08,27-5.33a108.6,108.6,0,0,0-32.2,8.88c-4.35,2-9.49,4.59-14.49,4.53,7-8.33,18.94-11.56,28-17,6.15-3.64,11.12-9.65,17.48-12.68,5.19-2.46,12.58-2.62,17.28-6-14,6-26.5,15.49-40.59,21,16.56,1.28,34.42-12.09,48.58-19.45,5.12-2.65,11.34-3.61,16.09-6.37-8.24,3.77-16.51,11-23.67,15.91,7.75-.33,26.72-13.41,31-20.71-13-3-28,15.87-38.58,21.33,14.14.3,22.5-1.53,33.5-11,10.44-9,17.67-24.71,29.77-31-1.88,6.84-15.16,16-21.33,19.3-.67-9.32,15.06-17.63,21-22.86,7.41-6.51,14.27-16,22.38-21.35C812,457,790.76,468.42,785.43,472c-3.4-8.2,25.59-18.79,30.92-22.58,8-5.71,16.21-11.83,24.61-17.26-14.22,12-32,15.82-43.33,31.4,22.83-14.72,45.71-28.66,67.32-45.37,4.4-3.4,11.07-6.85,14.18-11.34-10.88.61-25.94,15.58-34.7,21.74-5.57,3.91-14.24,11.6-21.06,12.05,13.69-15.6,33.69-27.05,51.24-38,4-2.5,8.8-5.16,13-7.21-5,13.56-28.6,15-39.55,22.24,14.53-9.29,30.22-16.72,43.94-27a234,234,0,0,1,21.23-13.83c-3.13,6.76-19.49,14.78-26.57,17.3,3-16.27,33.81-26.73,46.42-34.65,3.93-2.47,17.25-8.84,15.24-14.54-5.69,3.83-21.43,10.57-23.22,17.17,7.44.76,21.19-10.46,26.14-16.19,2.48-2.87,3.71-7,5.79-10.12-1.22,2.69-4,5.6-5,8.82,4.66-2.84,6.17-10.35,6.69-15.66-11.62,10-13.71,28.94-26.18,37.13-5.72,3.75-12.48,4.27-18.71,6.68"/><path class="cls-1" d="M775.75,581.47c10.71-.06,23-10.75,31.43-16.55,5.89-4,11.72-8.24,17.47-12.46-9.89,7.62-20.89,15.27-32.29,20.42,2.14-6.55,11-10.21,16.29-13.94,8.92-6.27,17.92-12.35,27.14-18.19,7.51-4.75,15.15-9.49,22.68-13.93-18,4.64-31.8,18.31-47.94,26.65,12.84-13.82,28.16-22.45,45.06-30.06.45,6.79-11.65,17.3-16.47,22.48,2.4-13.5,26.32-25.89,38-31.49a11.33,11.33,0,0,1-3.41,10.2c6.4-8.37,16.78-15.15,24.7-20.44,8.25-5.5,13.55-16.45,22-22.72.12,6.82-9.13,11.91-13.74,15.93,2.28-9.78,16.3-15.49,22.92-22.28-.17,1.22.52,3.55.32,4.94,9.52-4.93,18-12.93,27.68-17.27.67,3.43-2.63,6.29-4.2,8.55,7.64-2.18,13.88-9.41,20.53-13.69-.24,3.92-3.36,6.94-4.67,10.59,5.56-6.66,12.22-12.25,17-19.56a8.5,8.5,0,0,1-1.81,7.34c3.79-6.89,7.93-15.09,11-21.54a53.62,53.62,0,0,1-1.66,8.31c1.28-7.81,6.82-16.06,6.75-23.94,0,2.09,0,4.17,0,6.25v-4.75a42.39,42.39,0,0,0,.09,5.53c2.81-4.33,2.82-9.1,2.58-14.05v2.5c0-6.72-.45-13.5,1.48-20,1.62,5.46,1.45,11.37,2.54,16.89,0-5.69-.25-11.46.1-17.12.65,1.18,1.9,2.42,2.43,4.07-.06-4,1.85-9.55.12-12.75"/><path class="cls-1" d="M232.27,532.79c3.35-4.88,15.22-4,19.88-9.27,2.06-2.31,1.85-7.12,3.42-9.9,2.59-4.56,7.94-7.92,12.62-10.55,18.84-10.61,38.73-19.28,58.12-28.3,10.47-4.88,21.29-9,31.49-14.63,4.66-2.59,7.92-4.55,13.13-6,5-1.39,10.31-1.44,15.24-2.72,5.1-1.33,10-3.89,15.13-6.06,21.2-9,45.2-7.5,65.23-19.13a265.69,265.69,0,0,0,22.93-14.93c14.57-10.67,17.84-30.78,29.4-43.73,7.2-8.05,16.16-8.21,26.73-8.15,11.93.06,14.13-9,24.24-12.87,8.75-3.36,15.9-4.2,24.37-9.27,8.29-5,14.37-13,22.68-18.08,8.7-5.29,15.4-9,21.65-17,7.06-9,14.79-16.32,25.12-21.68,9.36-4.85,19.09-9,27.75-14.61,7.92-5.13,7.89-12.45,13.67-18.57,5.35-5.68,16-9.07,22.63-13.16,4.79-3,16.57-8.9,18.71-13.48"/><path class="cls-1" d="M550.36,313.39c-1.05-8.3,8.7-16.43,13.13-22.59,6.25-8.69,9.48-18.37,13.72-27.57,4.58-9.91,16.48-13,23.8-20.39,2.08-2.11,5-7.14,8-8.19s8.67.11,11.83,0c.84-1.46,1.46-1.34,2.41-2.5.65,2.32.3,5.71,1,7.92,8.07-5.73,20.4-3.82,28.76-9.24,3.61-2.34,2.67-2.83,5.14-6.09a44,44,0,0,1,11.58-11.15c9.09-6.21,20.66-7.86,29.8-13.51,4.63-2.86,9.09-5.35,13.5-7.88,2.4-1.39,5.75-5.9,8.15-6.67,4.29-1.37,8.18,2.27,12.54,1.25s7.46-6.05,10.67-8.83c3.33,8.22,16.26,14.32,25.34,10.78"/><path class="cls-1" d="M136.9,470.77c12-10.61,32-15.74,47.32-19.5,18.09-4.45,36.39-6.42,54.42-11,17-4.32,29.86-17.32,47.78-20.16,21.33-3.39,37.61-16.61,59.11-18.72,6.4-.63,10.34-1.24,16.11-4,4.43-2.12,8-5.85,13.33-5.32"/><path class="cls-1" d="M485,365.41c16.14-2.6,25-15.53,36.5-24.14,6-4.46,12.84-6.87,18.2-11.84,5.67-5.25,11.22-10.61,17.19-15.44a244,244,0,0,1,36-23.94c12.24-6.84,21.54-16.93,34-23.66,13.9-7.54,28.36-12.52,43.19-18.37,13.2-5.2,23.62-14.48,35.65-21.3,4.48-2.54,9.23-3.67,13.71-6.67s6.57-6.61,10.34-10.24c8.79-8.44,24.51-12.08,34.7-18.45"/><path class="cls-1" d="M643.71,394.08c-.4-7.49,10.54-9.09,15.23-12.16,5.24-3.45,3.47-4.82,5.29-10,1.72-4.88,6.07-8,7.66-12.69s-1.34-10.55,2.5-14.52"/><path class="cls-1" d="M843.1,310.06c-5,.48-16,4.83-20,3.35-4.78-1.75-3.84-9.74-.88-13.5,6.22-7.9,20.91-11.35,29.23-17.06-9.12-1.4-17.54,4.72-26.36,5.88a132.88,132.88,0,0,1-17.32,1.32"/><path class="cls-1" d="M551.69,306.72c4.37,9.09,13,2.93,15.26-5.28,1.28-4.61.83-9.78.68-14.58,1.83,3.45,2.7,7.27,4.86,10.57,6.7-6.08,4-22.32,5.68-30.69,1.54,6.12,1.45,18.9,5.83,23.42,5.38-11.18,2.49-26.77,8.35-36.82,4.48,6.39-.68,23,6.57,27.91-.22-8.81,1.9-20.26,3.56-29.05,3.2,6.93,1.36,17.51,1.18,25.09,2.15-9.84,5.89-20.79,6.05-30.7,0,9.06-2.26,21.48,3.87,28.85,5.15-12-.4-27.59,3.31-39.46.33,6,0,22.48,4.67,26.53,4.09-6.28,3.29-17.23,7.63-23.83,3,4.48,3.68,10.47,5.93,15.34,4.93-2.89,1.75-12.3,6.93-14.54,2.25,5.14,1.5,13.39,4.93,17.37,5.8-3.17,2.31-17.46,2.89-23.32,2.11,7.08.21,15.31,2.37,21.89-.09-6.94,1.64-24.09,9.35-26.58,1,5.59,3.62,10.3,6.38,15.19,8.45-3.48,7.61-23.54,13.12-30.42,1.18,5.35,1.35,11.29,2.85,16.6,3.87-4.14,7.35-13,7.92-18.58a95,95,0,0,1,3.32,20.8c.86-6,1.05-19.05,4.7-23.77,3.14,2.93,2,8.28,3.15,12,3.23-3.3,1.77-10.32,3.06-14.67,1.12-3.8,2.74-7.43,5.53-10,0,8.31.94,18.72,3.52,26.63,6.49-9,9.78-20.24,15.58-29.3,2.3,3.11,1.4,8.89,2.49,13.07,3.22-10,3.91-20.61,9.85-8.25,3.22-2.95,3.37-8.81,6.7-11.6,1.23.68,1,1.55,1.32,2.76"/><path class="cls-1" d="M773.75,222c4.7.3,14.13-5.66,17.57-2.74,2.37,2,1.6,12.29,1.77,15.38.6,11.2-.06,22.31,1.33,33.38"/><path class="cls-1" d="M681.06,294.72c4.2.54,11.91,11.45,13.19,15.93.78-11.45-.44-23.12.25-34.61,6.41,8.73,3.44,22.89,5.73,33.11,1.6-10,.7-24.7,5.48-33.4,5.35,8.89.58,21.94,4.8,29.84,9.34-8.65,8.55-23.32,12-34.93,2.12,10.93,2.2,21.4,2.6,32.36,4.22-15.61,5.74-33.13,6.71-49.24,7.47,9.92,4.94,31.79,2.49,43.26.6-17.54,1.53-34.49,5-51.66,5,9.92,1.87,26.51,1.68,37.5,1.9-12,1.34-28.28,6-38.87,3.36,10.58,1,26.1,0,37.2-.3-12.84,1.75-26.91,2.81-39.74,2.61,8.17-3.26,28.69,2.36,33.93,3-4.49,4.91-9.71,7-14.67s3.6-14.57,7.17-18.27c7.21,8.61-1.26,24.75,4.18,34.29,6.17-12-3.25-30.1,4.4-42.49-2,13.08-2.75,26.76-5.78,39.6-1-13.68,1.7-28.66,4.8-41.84,9.42,7.52-3.72,33.6,4.79,38.64,1.7-11.29,0-28.87,7-38.26-.2,9.43-.69,18.81-.71,28.25,0-8.64.82-17.35.66-25.95"/><path class="cls-1" d="M779.75,195.36c1.37-3.11,7.55-6.67,11.11-8.53.63,5.9-.56,11.89-.35,17.74,5.16,2.24,2.48,15,2.62,20.08,10.13.1,6.48,4.67,6.48,12.74,0,9.2,1,21.72,11.27,25.14-2.87,1.68-7.62,2.73-7.12,6.85"/><path class="cls-1" d="M801.76,129.34c0,23.87-1.49,48.7,1.84,72,1.79,12.59,1.18,25.65,3.46,38.25,1.33,7.31,4.16,13.95,6.87,20.95,2,5.08,3.79,12.65,7.83,16.16"/><path class="cls-1" d="M1173.87,583.47c-2.72-1.6-3.59-10.16-4.69-14-1.5-5.27-2.59-10.62-4.83-16.08A189.87,189.87,0,0,0,1152.9,530c-4.66-8-5.45-15.73-7.74-25.25-1.71-7.06-2.18-16.11-7.14-21.7-4.67,4-2.58,11.07-6.82,15-3.38,3.15-9.47,3.63-14.07,4.46-4.1.73-18.69,4.19-22.52,1.51s-2.71-11.18-7.43-14.52c-4.56-3.23-16.07-.58-19.28-4.85-1-1.33-.17-6.08-.72-7.87-2.53-8.32-9.37-8.33-14.73-13.31-9.44-8.76-5.44-37.58-23.86-32.09-.55-7.23-6.78-12.5-10.17-18.47-3.74-6.59-5.24-13.16-7.38-20.12-4.42-14.37-15.87-25.71-23.08-38.29-3-5.26-6.18-10.58-9.2-16.11-2.09-3.83-1.7-4.95-5.72-6.3-3.79-1.27-9.91,1.78-13.45,0-4.88-2.4-2.6-7.73-4.44-12.05-3.39-8-14.51-3.39-16-10.67"/><path class="cls-1" d="M540.35,286.05c0-7.74,1.39-15.42,8-20.53,2-1.56,6.23-1.42,7.72-3.43,1.77-2.39.92-7.21.94-10,0-3.36-.8-7.23,1.32-10.05s6-2.43,8.2-6.1c3.93-6.51.08-14.4,2.31-21.24,1.86-5.72,7.1-9.35,8.21-15.31,1-5-1.81-11.89-.09-16.65,1.25-3.47,6.07-7.17,8-10.26a23.41,23.41,0,0,0,3.36-8.41,162.23,162.23,0,0,1,7.33-22.53c4.25-10.49,6.74-21.58,10.14-32.16,3.19-9.92,8-16.48,14-24.68,5.8-7.94,10.58-17.49,14.51-26.72,3-7,8.79-13.41,12.15-20.57,2,2.67,2.43,6.48,3.82,9.92,2.59,6.4,8.22,9.13,9.42,16.05.86,4.94-2.69,12.93-.78,17.19s7.83,4.32,8.75,9.46"/><path class="cls-1" d="M1173.87,426.09c-19.76-7.09-38.9-14.62-57.51-25.14-17.31-9.79-31.68-22.64-49-32.19-13.91-7.66-28.08-15.38-43-21.59-12.33-5.13-26-10.12-37.21-17.27-18.35-11.66-31.74-29.85-44.72-46.42C929.62,267.13,917.3,250.1,899.82,239c-17.12-10.83-35.8-22.89-50.71-36.55-7.94-7.27-11.25-13.45-12.68-23.89s-2.47-20.68-6.16-30.37c-5.84-15.35-12.11-30.76-19.68-45.38C807,95.91,803.46,89.26,800.93,82c-1.13-3.23-1.88-8-4.7-9.91-1.49-1-13.25-.9-14.41.1-1.62,1.41-1,5-1.37,7-2.41,11.48-16,23.6-12,35.52"/><path class="cls-1" d="M652.38,49.32c-.68-6.52,7.12-11,10.58-15.52,2.06-2.71,4.07-10.69,7.4-11.71,6.88-2.09,4.68,6,10-1.45,2.66-3.71,5.08-9.56,6.8-13.9,8.39-.42,9.71-.83,11.24,6.94,1,5,1.64,10.63,2.65,15.8,3.25,16.66,7.17,33.71,16.07,48,6.85,11,14.12,19.27,19.57,31.16,5,10.94,9.29,26.84,17.72,34.68"/><path class="cls-1" d="M569.69,236c9.88-4.17,17.24-14,25.16-20.16,6.71-5.17,5.66-7.16,8.17-14.52,1.62-4.71,6.64-8.35,10-2,5.77-7.13,12.55-13.11,16.66-22,3.27-7.05,2.8-8.93,10.84-9.34s10.42-.82,15.2-7.66c5-7.09,5.42-16.11,14.77-19.71,5.47-2.11,7.58.45,11-6,2.26-4.25,1-9.76,4.32-13.24,6.42.62,19.95,15.36,21.87,21.93"/><path class="cls-1" d="M625,228.7c9.84-.09,21.2-17.21,28.53-23,8.93-7,9.43-12,11.47-23,1.84-10,6.92-9,11.33-16.46,4.61-7.79,5.48-18.42,17.36-18.9"/><path class="cls-1" d="M726.41,166c1-8.34-4.79-10.29-10.22-14.49-4.83-3.73-5.27-9.22-9.79-12.82-4.67,3.11-5.44,8.64-8,13.3"/><path class="cls-1" d="M565,250c-4.47-.3,8-22.75,10.84-6.95.79-3.77,5.08-17.5,9.7-10,1.49-4.68,3.48-14.46,8.68-15.6.39,1.49,1.8,2.94,2.12,4.08.58-2.72,2.78-11.5,5.22-12.13.2,2.27,1.22,3.88,2.23,5.83,3.55-4.33,5.3-10.48,7.89-14.64,1.22,2.84,1.46,7.27,3.3,10.25,4.37-3.66,3.59-8.17,4.85-13.22.89-3.55,4-10,5.82-3.06,1.69-4.21,2-11.81,5.53-14.55,2.56,3,3.1,8.11,3.69,11.7-.29-5.49,2.63-13.86,5.66-18.38,2.33,3.47,2.13,10.13,3.94,14.59,6.09.05,4.33-15.34,6.65-19.8a1.84,1.84,0,0,1,1.6-.13c1.54,3.72.23,7.9,1.64,11.41,1.68-4.75,1.41-7.83,4.55-12.3,4.08-5.8,10.95-10.15,15.35-15,.13,1,.52,2.26.62,3.11.43-4.8.75-11.36-.25-15.67-3.12,3.69-6.43,12.47-7.65,17.41.08-2.37,0-6.73,0-9.84a64.36,64.36,0,0,1-2.8,20.1c-6.17-6.64,4.86-22.2,11.38-25a60.26,60.26,0,0,0,1.94,13.65c.77-8.78,2.86-16,5-24.37.69,4.61,2.18,9.83,2,14.64,2.88-4.71,1.51-14.3,5.12-17.42-.07,4.94.76,9.87.79,14.88-.34-3.14,1-5.89,1.33-8.9"/><path class="cls-1" d="M627.71,146c0-3.83-.21-15.77,4.82-17.38,5.49-1.75,7.09,7.42,13.77-.42,4.48-5.25,6.2-14.82,10.08-20.89,3.38-5.27,7.45-9.31,9.46-15.21a2.4,2.4,0,0,1,1.24-.24,61.39,61.39,0,0,1,3.93,12c4.92-5.78,4.55-15,8.1-21.7,1.2-2.25.36-5.79,4-4.19,2.22,1,2.27,5.43,2,7.38"/><path class="cls-1" d="M655.05,46.65c2.8-1.1,5.45-3.06,7.87-4.62,2.07,5.55.2,12.28,1.08,18.06,6.21-.29,11.3-7.87,16.9-10.69,1.8,12.37-12.44,18-17.77,27.74,4.08-1.19,7.77-4,11.77-4.16a59.53,59.53,0,0,1,.16,7.68"/><path class="cls-1" d="M687.73,76.66c6.56.87,8.94-6.23,14.37-7,2.84,17.48-4.9,33.23,1,50.46,2.44,7.13,5.95,11.21,11.32,16.6,4.91,4.94,6.33,10.7,10,16"/><path class="cls-1" d="M716.4,73.33c-.83-7.19,5.06-14.48,8.84-20,3.08-4.54,7.07-13.84,11.68-16.6,3,6.38,3.32,14.32,5.67,21.13C745.74,67,751.61,74,754.43,84c2.63,9.37,4.37,18.21,8,27.24,3.19,8,5.36,16.47,8,24.74"/><path class="cls-1" d="M806.43,90.66c3.86-.09,7.65-6.44,10.7-6.12,2.12.22,3.92,4.77,5.82,6,1.31-2.42,1.89-5.72,3.66-7.92,3.55-4.39,4.8-2.82,11-2.5,8.85.45,10-5.1,16.13-11,11.05-10.62,28.44-30.76,44.69-19.82,8.21,5.52,15.16,12.24,19.49,21.07,2.28,4.64,3.1,10.27,6.28,14.38,2.39,3.08,6.59,3.72,9,6.49,3,3.47,2.63,5.86,3.19,10,1,7.55.53,7.06,8.23,9.89,12.24,4.51,3.32,14.86,12.31,22.37,5.62,4.7,9.9,3.16,13.63,9.61,1.52,2.63,2,6.18,4.13,9,5,6.64,10.41,11.42,13.21,19.23,4.81,13.43,5.39,29.18,16.49,40,5.23,5.09,13.49,8.57,17.24,14.84,3.46,5.79-1.19,17.94,2.92,22.37,4.25,4.59,17.08-1.53,23.07,2.46,5.2,3.47,6.61,12.63,10.28,17.52,2.24,3,4.84,6.38,7.3,9.2,3.65,4.18,4.62,6.52,7.72,11.82,3.77,6.43,8.17,11,13.68,15.61,5.94,5,12.28,11.52,19.68,14.7,4.38,1.87,9.32,1.66,13.86,3.48s7.41,5.14,11.26,8c6.54,4.87,13.8,8.78,19.4,14.05a114.49,114.49,0,0,0,18.77,14.09c8,5,16.15,9.62,23.53,15.35,4.6,3.57,6.6,6.82,10,11.84,4.34,6.42,4.75,13,9.34,19.37,6.32,8.78,15,18,24,24"/><path class="cls-1" d="M573.7,226c2.54-7.48,12.53-16.79,18-22.64s11.67-11.24,16-18c3.56-5.57,9.95-12.33,11.89-18.7s-1.85-14.74-1.87-21.34"/><path class="cls-1" d="M865.11,199.36c-1.11-10.09,9.42-24.84,15.14-32.65,5.3-7.24,5.19-11.07,6.84-19.55,2.12-10.92,11.2-17.88,17.36-27,5.39-8,9.86-17.31,14.41-26,1.82,11.48.21,24.17,1.6,35.77,1.28,10.65,5.08,20.08,6.63,30.66,1.38,9.38,5.07,17.9,7.89,26.82,1.61,5.06,3.94,9.91,5,15.24,1.19,6.07.3,11.88,2.66,18,18.71-4,11,20.13,14.59,28.64,3,7.34,9.84,6.91,11.28,16.71.92,6.3-.6,13.24,1.32,19.36"/><path class="cls-1" d="M826.43,124c.06-9.94.84-19.11,9.23-24.67,7.71-5.13,11.94-4.57,15.56-12.66,4.67-10.41,7.7-10.76,17.91-9.84,6.8.62,12.06-1.91,12.75-9.41,7.76,1.66,11.3-6,12.57-12.78"/><path class="cls-1" d="M923.13,79.33c-.07-2.58,1.54-12.74,5.15-12.77,4,0,1.63,5.4,3,6.8,2.83,2.91,4.38,1.57,8.6,1.12,12.87-1.38,21.78,2.79,26.12,14.85,3.43,9.53,2.66,20.9,5.17,30.69,3,11.65,5.65,24.1,10,35.33"/><path class="cls-1" d="M991.15,198.69c-.58,8.46,4.49,18.36,6.83,26.36,2.57,8.78,4.6,17.39,8.51,25.59,2.19,4.61,5.17,10,5.9,15.13.8,5.69-1.12,11.72,1.27,17,2.61,5.78,9,8.27,13.05,12.64,4.53,4.87,6.31,10.56,8.4,16.6,4.65,13.48,8.88,25.79,14.72,38.75"/><path class="cls-1" d="M1099.84,322.06c4.24,6.4,4.75,15.25,9,22.14,3.67,6,8.51,10.81,11.22,17.24,3.2,7.59,2.32,16.26,5,24,2,5.91,4.57,12.15,8.15,17.32"/><path class="cls-1" d="M867.11,590.81c4.95.57,8.83-7.45,12.66-10.77,8,6.61,13.74-6.67,17.39-11.92,3,7.45,18.08-4.75,22.41-7.27a17.08,17.08,0,0,1-2.34,2.23c.18-8.84,17.3-6.44,22.33-13a27.28,27.28,0,0,0-2.45,1.45c2.37-7.63,21.8-12.06,28.62-17.92-.2,1.64.31,3.46-.05,5.14,9.77-12,26.34-19.52,32.17-34.14a12,12,0,0,1-2.81,8.08c2.42-5.39,6-10.74,8.81-15.48-.1-7.18.36-14.52-.18-21.63a48.46,48.46,0,0,0-1.1,8.93c4.34-6.62,4.91-15.37,10-21.36-.1,3.44.27,6.75-.79,10.06,2-6.14,3.56-14.07,7.08-19.45,5.2-7.94,14.11-10.91,21.65-15.69,0,2.69,0,5.39,0,8.09a12.3,12.3,0,0,0-2-7.37"/><path class="cls-1" d="M715.74,589.47c5.13-5.19,9.4-11.86,14-17.58,2.84,2.59,2.35,6.63,1.35,10.15-1.49-7.57,9.23-16.43,16-17.85.06.85.09,1.72.15,2.53,7,1.29,15.09-5.89,20.64-9.56.13,2.9-1.8,5.05-4.65,4.93-.57-8.71,2.29-17.08,10.56-21.29a23.54,23.54,0,0,1-3.42,4.43c.81-6.88,5.35-12,8.67-17.65-.42,2,0,3.82-1,5.85,4.52-.27,8.88-2.75,13.06-4.17a18.43,18.43,0,0,1-5.58,5.61c.2-11.58,20.29-22.17,28.19-29.81a6.26,6.26,0,0,1-3.11,7.72c-.29-2.95,1.93-5.13,4.72-6.22a7.85,7.85,0,0,1-2.29,6.27c8.92-3.55,17.63-9.92,25.2-15.66a5.83,5.83,0,0,1-5.86,5.08c2.29-9.89,18.28-23.84,28.11-26.1a14.25,14.25,0,0,1-4.6,7.23c-1.08-6.38,14-14.5,19-17.75a1.54,1.54,0,0,1,.32,1.14c6.13-5.08,12.36-11.07,18.51-16.47-.13,3.43-4.72,7.27-8,7.65,4.83-10.5,22.1-9.92,29.65-17.93a7,7,0,0,0-6.38,1.21c7.1-2.18,17.94-8.2,21.25-15.06a19.92,19.92,0,0,0-2.33,1.54c0-4,7.74-6.72,10.08-10.26a5.2,5.2,0,0,1-2.32,7c2-5.8,14.36-13.86,18-15-1-1.78,6.76-7.21,9.39-9.13-.06,2.05.34,4.25,0,6.3,2.6-5.37,5.69-10.6,7.54-16.27-.12,1.19-.05,2.5-.18,3.73.59-5.1,4.67-9.82,6.8-14.48,0,1.6.09,3.31-.08,4.91,0-8.39,1.42-12.48,4.72-20-.06,1.78.07,3.59-.06,5.36.89-4.94.54-13.75,4-17.17"/><path class="cls-1" d="M279.61,502.78c0,1.33-.19,2.16.61,3.26,5.83-2.05,11.62-7,16.66-10.41.16,3.87.12,7.78,0,11.64-.55-5.67,8.5-17.95,14-19.15-.25,2.11.33,4.49.14,6.63,5.16-1.44,7.72-9.18,12.52-10.44.22,3.61.15,7.27.08,10.9,1.31-2.94.2-6.41,1.46-9.59,2.51-6.3,12.7-12,19-13.52.34,2.42.08,5.5.46,7.65,3.33-2.67,6.23-6.13,9.76-8.42-.29,1.54.36,4,.2,5.18,6.5-6,12.89-14.73,20.27-19a52,52,0,0,1-.28,14.47c3-3,5.87-6.46,9.24-8.88-.08,1.25.91,3.41.79,4.84,4.23.65,12.86-13.88,13.42-17.36a16.41,16.41,0,0,1,1,2.78c5.89-.16,14-7,19.35-9.8.24,1.29,1.78,3.19,1.65,4.86,3.75-2.34,6.48-6.41,10.29-8.28-1.57,9,10.74-.68,14-.77.09.75,0,1.43.06,2.18,3.51,1,6.05-1.94,8.2-4.76.26.7,1.54,1.9,1.85,2.72,5.12-1.63,4.48-9.64,9.31-11.39,1,2.84.65,6.23.7,9.29,3.23-.59,4.32-4.21,4.6-7.28"/><path class="cls-1" d="M519,392.75a18.73,18.73,0,0,0,0-3.09c-3.29,5.31-7.78,12.64-11.92,16.37-.52-7.6,12.21-16.68,18.6-19.52-.28,1.72.38,4.32.33,5.62,3-3.47,6.23-7.46,7.76-11.8-.06,2.85-.41,6,.53,8.46a51.44,51.44,0,0,0,10.34-13.35c.64,2.64.39,5.95.43,8.83,2-5.44,7.64-18.1,12.55-20.85.17,3.27.1,6.6.09,9.9.18-3.36.62-7.1,2.76-9.82-.28,1.48.14,3.07,0,4.51,3.53,0,8.34-6.94,11.36-8.81,9.42-5.86,30.15-17,41.41-16,.38,2.7.05,4.31-1.86,5.48a14,14,0,0,1-.28-5.3"/><path class="cls-1" d="M874.45,209.36c2.71-7.63,10.19-13.25,13.17-20.85,1.64-4.2,1.8-14.54,6.87-15.13,6.12,14.41,14.8,27.55,21.11,41.91,3.18,7.24,5.86,10.46,10.63,16.35,2.89,3.57,2.4,4.88,3.55,9.17,2.66,9.91,12.85,17.2,14.64,27.19,0,.82-.47.83-1.29.05"/><path class="cls-1" d="M899.12,156c1.63-3.77-.68-9.67.66-14,1.63-5.31,5.55-6.38,9-10.17,6.84-7.57-1-11,.37-19.86"/><path class="cls-1" d="M857.78,123.34c6.34,1.64.81,17.18,2,21.86,1.06,4.33,4.55,5.72,4.71,10.82s-3,8,2,10.67"/><path class="cls-1" d="M839.1,140.68c-.36-8,6.4-14.06,8.38-4,.92,4.67-.16,9.41,1.63,14"/><path class="cls-1" d="M883.78,98c1.31,3.9,4.54.35,7.25,2.77,1.63,1.45,1.79,7.91,1.47,10-1.37,9.14-4.15,6.92.62,14.53"/><path class="cls-1" d="M885.78,76.66c.35-2.9,2.38-5.19,5.24-5.24.16,3.21,0,6.7.31,9.81,1.08-.2,2.63.41,3.69.2.63,4.77,3.48,7.21,5.44,10.57"/><path class="cls-1" d="M909.79,78c-.6,1.41-2.39,4.67-2,6.07.77,3.17,3.92,1.28,4.65,3.17,1.64,4.21-2,8.65-4.46,11.34,1.09-.25,2.66.3,3.76.2.11,1.51.51,3.76.09,5.23"/><path class="cls-1" d="M905.79,187.36c-2.35-3.71,2.83-6.47,6-8,3.07,8.29-6.49,16.66,3.3,20.64"/><path class="cls-1" d="M943.13,174.69c1.69,3.85.61,10.64.08,15.21a5.94,5.94,0,0,1,1.66.36c.6,4.49-2.25,13.75,4.84,13.2,1.27,5.13-2.35,6.86-5.17,9.76,1.77,1.61,1.16,3.05,1.26,5.48"/><path class="cls-1" d="M968.47,178.69c1.51,4.56.95,13.74,7.94,12.06a8.35,8.35,0,0,1-3.24,8.77c2.92,1.89,6.21,1.42,8.49,4.48,1.91,2.57,1,6.73,2.25,9.42,1.81,3.92,4.12,1.35,3.3,7.11-.54,3.81-6.94,5.76-.06,8.84"/><path class="cls-1" d="M971.14,272.05c-.52-4.2,11.47-12,15.31-11.88-1.54,1.54-1.19,3-1.81,4.46,4.66.26,10.27,1,14.47-1.18-3.19,4.4-19.41,9.67-26,8.6"/><path class="cls-1" d="M937.13,220.7c3.53,3,4.56,8.3,7.07,12.24-.15-3,0-6.88-1.82-9.94a16.23,16.23,0,0,0,2.67,5.42,18.65,18.65,0,0,0-2.47-9.43c-.14,2.55-.11,7.87-.12,9.22,0-3.77-1-7.36-.66-11.19a54.09,54.09,0,0,1,.07,5.84,14.09,14.09,0,0,1-2.07-4.16"/><path class="cls-1" d="M843.1,106.67a14.29,14.29,0,0,0,0,1.85c-.5-4.17,2.65-10.39,5.2-13.65.53,3.43,1.33,6.94,2.17,10.22-.84-5.53,2.5-13.94,4.79-19.07a27.22,27.22,0,0,1,1.27,2.62c3.08-2.13,3.89-6.7,6.76-9.15.47,2.06,1.9,2.73,3,3.85a14,14,0,0,1,2.78-6"/><path class="cls-1" d="M939.8,102.67c9.08-13.58,7.29,2,15.74-1.22.8-.31,3.72-7.33,3.63-8.15-.15-1.33-3.44-3.37-3.95-5.2,6.51,0,4.74-5.76,1.9-8.25-3.32-2.91-9.76-3.1-13.92-4.27.71,9.39-7.74,8.57-8.07.41"/><path class="cls-1" d="M872.45,152c0-6-1-13.26,2.07-18.58-.18,6.1,0,12.21-.12,18.31a20.48,20.48,0,0,1,2.61-6.15c.23,4.17.1,10.85.1,13.94V164"/><path class="cls-1" d="M1015.82,398.08c.54,5.77,11.4,11,16.75,12.7a114.78,114.78,0,0,1,24.1,10.68c14.73,8.53,29.6,15.57,44.36,24,28.82,16.43,60.09,29.24,90.18,43.18,35.08,16.24,66.16,39.09,102.69,52.16"/><path class="cls-1" d="M983.81,343.4c.4,6.42,14.24,10.36,19.21,13.54,5.46,3.5,11.08,6.89,16.92,10.75,18.64,12.35,39.24,18.82,56,33.53,23.36,20.44,53.19,31.89,80,46.37,16.21,8.78,33.1,18.21,49.08,27.82,9.6,5.77,21,9.15,31.46,14,6.49,3,12.82,7,19.42,8.7"/><path class="cls-1" d="M1021.82,414.09c3.9,5.31,14,10.79,19.83,14.15,7.74,4.46,16.2,5.12,24.2,8,11.52,4.1,21.84,14.55,31.66,21.19,26.3,17.78,61.72,22.77,89.71,39.53,16.28,9.74,34.09,19.81,51.4,26a59,59,0,0,1,12.6,6.65c5.94,3.83,13.17,5.89,19.83,9,8.3,3.84,17.28,7.63,24.18,12.87"/><path class="cls-1" d="M998.48,363.41c3,10,28.93,17.68,38,22.71,14.07,7.79,24.66,16.7,37.08,27.85,27.6,24.78,65.54,29.3,97,45.52,15.1,7.78,28.91,19.58,45,26.77A267.45,267.45,0,0,0,1243,496.63c9.38,3,18.33,8.19,27.57,10.82"/><path class="cls-1" d="M981.14,339.4c6.17,1.69,12,9.43,18,12.5,7.31,3.75,15.23,4.56,22.09,8.34,11.89,6.54,23.6,14.14,35.84,20.84,26.91,14.73,49.84,32.33,78.6,43.14,11.48,4.31,22,11.48,33.53,16.36,13,5.48,24.85,12.34,37.67,18.19,10.36,4.72,20.72,8.93,31,13.86,5.06,2.43,10.4,3.54,15.56,5.44s10.22,5.68,15.84,6.71"/><path class="cls-1" d="M1013.15,388.08c4.15-.45,6.19,1.69,9.36,3.67,6.15,3.86,12.76,6.46,19.22,9.83,6.31,3.3,11.46,9.16,17.81,13.21,7,4.47,15.12,6.89,22.28,11.32,5.52,3.41,11.33,6.81,16.73,10.14,24.92,15.34,54.85,20.43,80.65,34.32,32.38,17.43,66.2,32,100,47.55"/><path class="cls-1" d="M1045.83,444.1c3.15,4.76,13.14,8.21,18.14,11.48,6.53,4.29,14.34,7,21.71,9.69,12.36,4.51,29.57,9.79,39.5,18.17"/><path class="cls-1" d="M1147.19,496.78a325.81,325.81,0,0,0,62,28"/><path class="cls-1" d="M1134.52,456.77c5.12-.87,9,4,13.37,5.71,4.68,1.84,8.67,2.72,13.29,5,13.12,6.46,27.16,12.21,40.68,18.44,6.4,2.95,11.44,8,17.22,11.57,6.21,3.85,12.36,5.72,19.21,7.75,16.19,4.81,31.1,12.21,45.61,20.89"/><path class="cls-1" d="M1142.52,472.77c7,.76,12.94,5.42,18.82,8.54,6.13,3.26,13.17,5.19,19.86,7.3,6.43,2,9.36,3,14.51,7.68a45.6,45.6,0,0,0,15.4,9.35c6.25,2.39,12.41,5.95,18.62,8.68a94.38,94.38,0,0,0,12.85,4.31c6.18,1.67,6.1,2.44,10.11,6.16,12.81,11.9,28.21,12.56,43.21,19.34"/><path class="cls-1" d="M1153.86,486.78c-.91,2.06,56.14,30.92,63.89,34.54,11.86,5.54,24,9.2,36.52,13.62,9.84,3.48,19.47,10.42,28.29,15.85"/><path class="cls-1" d="M1131.85,428.09c7.3,1.89,13.78,7.4,20.19,11.34,6.66,4.08,13.69,6.06,20.64,9,11.34,4.77,21.28,11.58,32.79,16.21,12.66,5.1,23.27,13.2,35.8,18.19,8.58,3.41,21,5,28.62,10"/><path class="cls-1" d="M613.71,582.14c13.46-2.46,26.49-5.88,40.13-7.67,11.18-1.46,24.64-6.05,35.95-5a54.14,54.14,0,0,1-27.41,5.18c-2-12,30.46-21.72,41.31-23.28-4.12.73-8,2.28-11.92,3.64,12.38-6.86,29-11.53,42.9-15.51-9.94-.75-20.28,3.15-30.08,4.53a217,217,0,0,1,41.77-16.59c9.26-2.66,35.34-9.65,38.14-20.64-9.33-.84-21.74,6.26-30.78,8.6.86-8,30.85-9.86,37.51-15.74-1.25.95-3.42,1.52-4.77,2.35-1.9-7.93,18.72-22.27,25.37-24.57-2.42,8.34-10.7,10.85-14.27,17.62,13.49-7.31,27.56-21.36,37.44-33.32-2.91,5.19-6.06,10.8-10.9,14.43,4.65-9.37,14.18-17,20.38-25.52,4.56-6.22,11.87-15.95,19.81-17.13.19,7.42-14.42,15.06-19.52,19.93,5.09-12.58,19.91-15.14,27.43-25.18-.67,1.16-1,2.3-1.69,3.51,4.29-5.92,9.63-11,14.17-16.75,3.37-4.28,6.63-11.09,11.74-13.26.32,7.33-5,13.9-8.85,19.53,11-3.64,22.78-12.45,32.25-19.08a42.93,42.93,0,0,1-8.89,7.22c7.3-12,21.53-18,28.47-29.32-5.22,2.84-9.31,8.23-14.18,11.87,5.31-8.47,15.36-13.26,20.28-21.73a28.74,28.74,0,0,0-4,6.31c8.55-2.06,15.43-12.07,19.11-19.61-2.31,3.88-5.86,7.24-6.17,11.87,6.64-4.09,14.72-16.14,16.7-24.13"/><path class="cls-1" d="M713.74,408.09c2.35,2.54,2.12,6.37,2.75,9.93,7.61,1,9.14-2.38,10.58,5.76.79,4.44,0,9.86,0,14.32"/><path class="cls-1" d="M776.42,537.46c0,4.42,0,8.84,0,13.26,0-4.43,3.22-7.53,4.05-11.8-.06,4.26.49,8.79-.76,12.81,2.83-5.94,7.5-10.75,10.17-16.77,0,7.73-2.18,22-6.08,28.17.47-7.31,9.47-14.14,12.51-20.41.45,6.8.13,13.75.14,20.59.08-.81.08-1.69.13-2.51,1.44,2.11,1.44,5.52,1.14,8.41.26-1.88,1.38-2.72,2.06-4.41"/><path class="cls-1" d="M819.1,512.78c-.5,5-1.71,10.28-1.31,15.29,5.67-.58,6.44-7.65,8.8-11.78-1.68,5.54-4.27,11.06-6.38,16.51-1.84-6,3.56-12.18,4.3-18.07,4.09,3.67,1.57,12.86,2.11,18.13,4.1-1.67,7.35-7.67,8.56-12-.15,4.4-.08,8.82-.08,13.22"/><path class="cls-1" d="M888.45,455.43c-3.15,3.59-5.81,16-5.66,20.57,4.72-1.78,9.52-9.75,11.58-14.38.41,9.59-.51,17.7-5.71,26a12.1,12.1,0,0,1,3.74-7.33c.34,5.08.19,10.48-1.95,15.2"/><path class="cls-1" d="M985.81,369.41c0,7.31-2.06,18.36.84,25.23,2-6.12,4.28-13,7.71-18.43.94,8.82-3.58,16.4-3.21,24.94a20.66,20.66,0,0,1,3.25-12.93c.19,5.51,1.66,13.29-2.57,17.55a18.69,18.69,0,0,1,3.38-8.83c-.16,6.38-.06,12.77-.06,19.15"/><path class="cls-1" d="M834.44,548.13c6.49-4,9.3,15,9.28,19.13,2.11-5.44,2.91-12.15,5.4-17.06,1.68,4.3,1.41,12.52,0,17a14.53,14.53,0,0,1,3.43-5.75c2.12,3.64,1,8.92,1.29,13.25,1-.71,3.24-1,4.5-2.32,1.36,2.61.71,6.53.73,9.75"/><path class="cls-1" d="M892.45,550.79a9.62,9.62,0,0,0-1.39,6.43c-.31-2.15.5-4.27,1.13-6.13a9.89,9.89,0,0,1,3.6,5"/><path class="cls-1" d="M880.45,554.13c3.28,1.32,14.14,2.32,17.2-1,.4,4.19-1.22,10.13-3.77,13.26-.51-4.71,0-10.71,2.59-14.42,1.69,3.25.7,9.92.6,14,.33-1.84,1.51-3,2.1-4.47a9.54,9.54,0,0,1,.62,5.23"/><path class="cls-1" d="M911.79,542.79c10.78.82,22.21-6.52,29.62-13.91-.08,4.62-5.44,7.06-9.39,7.18,14.38-11.49,28.24-17.64,39.67-31.64.83,4.92-.53,8.82-3.71,12.59,4.11-7,12.31-11.74,16-18.19-1.78,1.18-2.32,1.26-3.66,3,3.77-6.31,8.4-13.55,12.8-19.46-.8,2.2-1.8,4.61-2.47,6.63,5.21-5.41,9.64-16.88,10.52-24-.25,2.88-.92,5.76-.32,8.43,8.18-1.14,10.16-19.22,12.15-25.9-.07,2.19-.27,4.61-.51,6.89-.25-7.07,2.47-15.62,4.7-22.1a77.2,77.2,0,0,1-.76,12.72c1.54-6.66,3.21-15.31,6.73-21"/><path class="cls-1" d="M881.78,420.09c-1.09-.47.33,3.86,2,5.38,6.2,5.58,22.91-4.37,29-6.17-8.38,2.23-15.7,7.21-23.93,9.6,4.67-.91,9.78-4,14.35-3.89,0,6.73-9.31,10.3-11.33,16.41a11.85,11.85,0,0,0,6.52-2.49c-.09,3.88-4.36,5.45-6.59,7.71,4.7.36,10.35-.89,14.64.79"/><path class="cls-1" d="M889.12,356.07c-.2-1.43.12-2.33-1.29-3.21-2.65,2.71-5.94,6.69-5.91,10.41,5.19-2.42,10.25-6.19,15.32-9-4.17,2.44-8.53,4.92-12.56,7.42,4.14-.07,8.39-.12,12.38-1.38-.46.44-1.79,3-2.77,3.83.77.21,2.29,1.07,3.1,1.23C893,368,886.77,370,883.7,374.11c3.5,1,26.75,1.29,10.09,6"/><path class="cls-2" d="M337.52,583.42c6.86-2,13-5.48,20-7.37,6.6-1.78,13.76-1.93,20.71-4.13,14.12-4.49,24.31-16.71,35.14-26,9.16-7.84,24-4.83,35.28-7.7,2.75-.7,7.56-1.73,9-4.27,1.76-3.24.8-15.94.47-19.24-.52-5.16-4.15-1-1-7.5,1.12-2.35,7.09-9.09,9.52-10.5,6.13-3.59,11.77,1.72,14.85-7.18a22.19,22.19,0,0,0,1.07-6.75c6.2.75,18.46-7,24.53-9.39,8-3.16,17.25-5.23,24-10.75,3-2.45,3.25-5.58,5.26-7.93,3.7-4.33,12.56-2.92,19-5.47,7.83-3.1,15-8.15,23-10.65,7.45-2.3,13.85-4.41,20.62-9.23,7.68-5.48,14.13-10.14,22.73-12.83,7.38-2.3,13.48-2.21,21.24-3.16,19.65-2.4,39.33-10.16,58.07-16.83,7.8-2.77,13.69-4,20.2-9.84,8.41-7.48,11-12.88,21.66-16.68,21.61-7.7,45.56-9.7,67.37-16.69,16.8-5.39,35.74-9.72,52.51-16.12,5.66-2.16,11.07-5.82,17-7.89,5.56-1.93,14.57-2.94,19-6.64,3.32-2.75,4-5.75,6.94-8.52,4.05-3.8,10.88-5.17,15.88-7.48,2.09-1,12.51-4.87,10.09-8.73-1.66-2.63-12.36.37-15.19,0a13.25,13.25,0,0,0-1.37-8c5.33-1.33,11.18-2.74,16.52-4.55.72,4.59,2.81,8,7.86,7.32-.77-5.08-11.55-8.66-16.42-9.39-8.08-1.2-15.09,2.1-22.68,3.5-3.86.72-8.13.43-12,1.17-5.17,1-6.06,3-10.44,5.66-7,4.2-18,2.72-26.12,2.24a5.68,5.68,0,0,1,6.22-7.2c-3.11-1.9-8.08-1.07-8.25-5.27,10.2-.58,18.08-5.33,27.34-9.58,5.4-2.47,23.09-5.66,21.17-12.42-8-.42-13.78,3.12-21.24,3.9s-14.7,1-22,2c-8.3,1.14-16,4.44-24,6.12-3.69.77-9.56,2.71-13.33,1.85s-5-4.08-9.24-4.78a13.46,13.46,0,0,0,0-1.79c2.5.28,3.79-.57,5.85-1.59-5.53-6.29-14,2-19.82.71a59.65,59.65,0,0,1-1.37-6.68c-26.67,15.47-56.47,28.22-84.62,39.51-6.44,2.58-29.36,22.24-36.88,16.16-6.66-5.38,2.77-11.84,4.72-14.16,5.51-6.55-3.63-7.23-9.28-9.23,1.85-1.76,4.2-3.34,6-4.81-1.73-2.09-4-4.08-4.65-6.57,10.76-2.86,14.08-10.77,22-17.26,4-3.25,9.38-5.32,13.07-8.15,5.49-4.2,5.25-10,9.5-15.08,6.6-7.84,19.49-9.24,28-14.49,6.12-3.78,20.82-10.74,23.14-17-6.33-1-13.09,2.61-19.17,2.46,2.6-3.62,5.28-7.44,8-11.08,1.24-1.67,2.46-1.4,3.39-3.49s-.93-4.71.6-6.67c2.58-3.31,10.38-2.23,14.05-4.62s5.34-5.83,7.64-8.59c-2.94-.15-6-.16-8.89,0-.68,4-6.06,9.34-10.47,8.43-2.06-.42-5.9-6.77-7-8.53-3.8-6.25-2.17-7.89,2.5-12.81a85.72,85.72,0,0,0,6.36-7.09,36.84,36.84,0,0,0,3.16-4.77c2.6-4.54,3.41-7.92,9.34-10.17,4.17-1.58,13.74-1.44,16.05-5.15.88-1.41,1.22-9.78,1.29-11.36.19-4.06-1.36-7.22-1.42-11.23-.63-.28-3.54-1.29-3.91-1.35a64.61,64.61,0,0,0-7.34,5.93c-1.4,1.2-2.77.73-4.2,2s-1.7,4.15-3.1,5.38c-2.1,1.84-5.88,3.08-8.41,5.14-3.47,2.83-4.71,4.44-10.2,4.27.66,6-5.15,2.77-8.62,4.42s-3.51,3.93-6.13,6.8c-2.78,3-7.49,3.6-10.59,6.15-2.64,2.17-.13,5.18-6.1,5.2"/><path class="cls-2" d="M445.55,578.09c-11.24-3.62-15.41-7.9-14.59-19.91,5.7-2.74,11.89-3.25,16.92-7.42,6.13-5.09,5.3-10.85,13.5-7.84,4,1.48,9.45,7,12.89,1.82,2-2.94-2-12.57,6.5-8.07,1-6-6-8.47-5.1-13.93.78-4.78,7.58-3.71,1.89-10.67"/><path class="cls-2" d="M464.22,502.06c16.06,0,21.86,3.11,34,12.67,1.95,1.54,7.48,3.12,8.57,4.61,2.4,3.27.09,6.58,2.81,9.41.63.66,3.35.13,4,.77a28.43,28.43,0,0,1,2,3.22c1,.71,3,6.87,5.89,2,1.58-2.66-4.81-17.73-6.59-19.69-3.46-3.79-13-10.6-1.3-14.9,7.07-2.59,8.51,4.86,13.35,3.75,2.71-.63,2.35-5.9,7.19-.75,2.31,2.47,2.7,7.66,2.78,10.82,3.85-.46,7.43-1.6,11.34-1.17-.39,3.95,0,8.72,4.68,9.79,2.19.5,4.77-2.21,6-1.92.4.1,1.76-.76,2.68-.54,1.32.31.22,3.89.59,4,7.51,1.29,5.88-12,10.7-12.13,3.84-.14,4.32,7.36,8.67,8.08"/><path class="cls-2" d="M556.25,571.42a8.65,8.65,0,0,1-.42-5.92c2.79.89,9.18,5.68,10.37.17-3.33-.09-7.35,3.78-6.55,7.68,5.43,1.52,7.32-1.94,8.75-6.27,1-2.94-1.4-8.77-.68-10.2,2.18-4.34,23.75-2.73,12.2-10.9,5.27,2,9.17,6.18,9.67-1.24.38-5.6-5.2-6.78-4.88-11.34.29-4.16,5-8.63,5.55-13.33.79-7-.12-6.61,6.43-8-8.89-10,4.21-17.15,13.47-17.95a12.69,12.69,0,0,0,1.39,6.48c4.93-.8,11.46-17,17.25-11.26s-5.26,16.54-6.65,21.27c-8.16-.57-9.18,4.88-1.29,6.89-.45,1.29.1,3.18-.51,4.38,1.95.65,3.84,1.82,5.8,2.27.89,3.63-1.6,6.09-1.88,9.53.6-6.11.82-14.11,6.12-18.18,3.19-2.46,5.32.42,6.54-4.77.74-3.12-1-6.33-1.78-9.09,2.43-1.5,8.81-4,11.32-1.7,1.49,1.39-.67,5,.57,6.13,3,2.76,9.78-1.48,12.44-2.78,9.4-4.59,19.2-5.43,29.45-7.28,4.45-.81,8.45-.85,10-6,.51-1.66-1.29-4.06-.71-5.32,1.94-4.26,2.15-1,5.86-2.82,9-4.49,19.88-10.34,10.91-21,3.66-1.38,4-4.77,7-7,1.93-1.41,11.33-4.56,14.1-3.05,5.58,3.05,4.48,14.76,8.7,19.69.08-2.27.07-4.74.21-7,4.87.88,3.45,8,7.38,10.28s7.71-1.68,11.13-4.66c8.76-7.65,1.86-13.51,2.73-23.06.78-8.51,13.59-13.5,18.69-18.66.86-.87.85-2.92,2.49-4.21,1.8-1.43,3.9-.28,5.55-1.27,2.89-1.74,5.6-3.29,5.35-7.07,2.59-1.49,5-1.59,8-1.47,2.2.09,6.16,2.19,7.29,2.09,9.44-.88,5.54-12.11,10-17.28,5.38-6.32,9-2.11,6.71-11.52-2.05-8.32.21-11.09,9-15.15,5.49-2.54,12-3.43,17.41-6.34,5.95-3.22,9.76-10.05,15.11-13.68,6-4.1,10.39-3,14-11.11,2.2-4.92,1-10.11,4.49-14.37"/><path class="cls-2" d="M238.82,586.09c9.29-2.86,17.53-6.73,26.69-10,9.56-3.38,20.67-6.6,30.81-10,8.57-2.91,17.07-3.75,25.75-6,7.83-2,13.23-8.53,20.11-12,8.23-4.19,18.22-4.68,26.19-9.17,6.72-3.8,12.9-6.84,20-10.33,6.35-3.12,10.24-7.29,16.95-10,7.94-3.26,16.7-4.93,25-7.63,8.65-2.8,13.29-9.57,21-14.37,6.29-3.89,11.92-4.45,18.8-6.3a32,32,0,0,0,9.33-3.66c2.22-1.44,3.59-4.84,5.34-5.87,4.64-2.74,13.36-3.38,19.3-6,7.42-3.24,13.69-8.27,21-11.82A160.65,160.65,0,0,1,552,452.68c8.14-2.41,16.46-3.7,23.65-7.95,8.8-5.19,17.53-10.6,27.16-14.85,8.4-3.71,17.23-5.75,26.24-7.56,10.25-2.06,20.9.56,29.75-4.61,11.94-7,21.28-15.12,34.71-19.64,11.67-3.93,27-7.17,36.63-13.34,5.58-3.6,10.46-8.56,17-11.07,10.56-4.05,23.57-2.3,34.46-6.56.23-9.31,14.83-13,21.95-13.08,9.08-.07,15.29-1.62,24-3.37a135.31,135.31,0,0,0,20.7-5.48c5.34-1.95,9.75-5,14.9-7.06,3.88-1.52,7.85-1.49,10.7-3.28,3.06-1.93,5.45-5,9-6.5,6.84-2.91,14-3.53,20.76-7.18a46.84,46.84,0,0,0,11.28-8.47c4.92-4.82,10.2-6.91,15.49-11.34"/><path class="cls-2" d="M189.48,552.74c10.18-4.23,19.12-12.53,29.51-17.18,6.8-3,14.29-2.68,22-4.11,15.55-2.86,31.22-9.8,45.85-15.4,31.4-12,64.86-22.62,97.31-32.33,11.95-3.58,20.92-12.4,33.1-15.16,15.52-3.51,29.91-6,43.15-15.06,3.93-2.68,7.87-5.63,12-8.12,7.9-4.81,17.54-3.92,26.07-5.51,11.4-2.13,19.72-6.73,30.05-11.83,17-8.4,33-18.13,52.06-20.67,9.5-1.27,18.69-2.18,27.79-4.52,10.06-2.58,16.55-8.84,26.08-12.78,11.11-4.6,21.11-10.22,31.31-16.34,9.25-5.56,16.88-7.81,27.56-9.07,18.63-2.21,33.32-13.44,50.34-20.66,5.73-2.42,15.26-3.7,20.17-7.41,2.94-2.23,2.21-6.43,3.76-7.92,2.37-2.3,6.94-1.33,10.12-1,7,.68,16.3,2.33,24,1,10.57-1.79,19.27-11.37,28.64-16.14,7-3.57,13.47-5.1,20.78-7.87,5.86-2.21,13.25-10.56,19.27-10"/><path class="cls-2" d="M438.88,440.71c7.95-3.54,15.56-8.52,23.92-11.35,11.3-3.83,23-5.94,34.22-10s24.25-6.56,34.5-12.18c10.75-5.89,18.56-17.4,30-23a169.21,169.21,0,0,1,24.58-9.37c11.06-3.34,22.07-7.64,33.43-11.45,24.59-8.27,51.43-18.88,74.51-30.6,10.5-5.33,18.07-12.49,29.92-15.25,16.31-3.81,27.32-7.5,40.85-16.87,6.88-4.76,13.13-7,20.72-10.07,10.53-4.2,11.71-13.13,21.44-17.24"/><path class="cls-2" d="M202.81,580.09c-.38-4.21,1.34-14.05,8-12.71,4.35.87,3.18,6.82,3.76,10.66a22.81,22.81,0,0,1,13-12.53c2.25,4.1,1.07,9.36,1.39,13.81a72.13,72.13,0,0,1,16.63-16.77c1.16,3.5.45,8.31.72,12.14,3.79-2.77,7.26-7.83,12-8.62,0,1.42,1,3.7.68,5.32,7.19-3.61,10.31-14.46,18.73-18.42,2.84,2.75,1.76,7.83,1.78,11.71-.54-2.58-.17-5.35,1.87-6.57.11,1,.68,2.38.91,3.44,5.69-3.22,9.81-9.7,16.68-11,.79,2.57,1.05,6,2.27,8.19,1-3.49,2.71-9.53,6.71-9.85,0,0,.18,2.23.18,2.21.5-6.24,14.47-6.08,18.21-12.33.43.27.68.74,1.22,1.17a14.85,14.85,0,0,0,4.63-4.57"/><path class="cls-2" d="M349.52,536.07c3.64,5.69,9.49-11.68,11.52-14.17,1.57,2.87,1,6.76,1.84,9.24,5.11-11.55,9.93-22,18.43-31.55,1,7.32,3.5,14.47,3.79,22,3.54-4,5.09-9.68,8-14.28-.07,1.49.85,3.82.81,5.38a70.22,70.22,0,0,1,6.95-7.26"/><path class="cls-2" d="M446.21,492.06c9.82-1.49,16.56-19.41,20.76-26.68,0,2.59-.13,5.26-.05,7.79,3-3.75,3.44-8.91,6.7-12.38a98.67,98.67,0,0,0,.15,14c3.13-7.1,3.14-16.12,8.35-22.1-.19,1.66.43,3.76.33,5.32,2-2.17,3.59-5.06,5.74-7.06.16,4.76-1.11,11,.76,15.3,6.83-1.26,14.91-10.93,17.17-17.49-.16,3.61-1.35,7.2-1.86,10.63,1.75-3.18,4.27-5.92,6.05-9-.13,3.72.39,7.63-.59,11.22,6-6.27,8.15-17.69,12.53-25.44a28.36,28.36,0,0,0-.63,6.58c2.11-1.64,3.9-3.75,6-5.52.22,3.8-1.27,7.4-2,11,3.2.52,5.63-1.74,7.92-3.49a13.24,13.24,0,0,1,0,1.78c1.35-1.31,1.63-2.68,2.07-4.48"/><path class="cls-2" d="M158.13,583.42c-1.37-4.9-1.84-14,.69-18.21,1.66,3.31,2.25,8.3,2.92,12,6.25-5.22,19-25,17.67-5.09,1-3.58.68-9,4.49-9.94,0,1.06.44,2.43.51,3.29,5-5.76,8.82-13.84,15.29-18,2.71,2.4,2.22,8.47,1.26,11.24-.05-1.19-.09-2.48-.15-3.7,0,1.59,0,3.19,0,4.77.08-2.89,1.71-5.48,3.49-7.77a44.4,44.4,0,0,0-.05,7.2,105.26,105.26,0,0,0,5.31-13c0,4-.09,7.79-1.46,11.59-.05-6.07,3.37-12.93,8-16.74-.39,1.64.43,3.88.17,5.58,7.39.46,10.27-14.37,17.27-16.58"/><path class="cls-3" d="M729.63,428.71c0,1.18,0,2.36,0,3.54-.55-4.08.85-8.1,2.68-11.65,2.09,4.65.73,13,.61,18.44a9.23,9.23,0,0,1,2.46-6.91c.42,3.19.12,6.77.43,9.8,3.28-4.58,4.63-10.18,7.27-15.12-.22,4.44.89,9.7-1.5,13.64.17-5.74-1-12.17,1.95-17.34.65,9-1,16.43-2.6,25.09-1-6,6.49-14.57,9.43-20.76-.17,6.11-.07,12.24-.05,18.36-.63-10.22,3.07-19.44,5.37-29.12.1,10.49-2.6,20.47-6.6,30.09a161,161,0,0,1,.57-31.27c.28,11.93-6,20.91-7.49,32.25a70,70,0,0,1,6-24.11c.52,7,1.22,17.42-2.4,23.4-.87-4.14-2.11-9.69-4-13-.23,3.46-.13,7-.13,10.53.37-4.42-.16-10.44-2.55-13.7a19.23,19.23,0,0,0,.6,8.37,10.42,10.42,0,0,0-1.94-6.3c-.76,6,9.28,11.59,10.46,17.7-3.53-3.95-4.31-25.73.08-30.75,4.62,5.8,2.93,15.36,4.72,22.56-.13-7.25,0-14.52,0-21.77"/><path class="cls-2" d="M516.9,474.06c3.33-4,11.93-6.75,13.21.49-.26-1.83.62-3.9.73-5.61,2.52,2,2.52,5.92,2.07,9,.2-1.82-.4-3.4-.6-5-2.16,3.71-2.33,8-2.07,12.24,0-5,.14-10.08-.09-15.06-4-.46-3.43,6.75-7.3,5-2.18-1-2.05-6.35-1.49-7.78,1.64,1.85,2.5,5.29,3,7,2.3-2.36,2.4-6.81,5.77-7a37.78,37.78,0,0,1,1.46,7.8c.12-4.1,1.25-8.37,3.83-11.49.85,3.14,2.42,6.08,2.16,9.4a15.93,15.93,0,0,1,1.34-4.51c.76,1.69,1,5,1.59,7.08,1.16-2.69,2.44-5.73,4.4-7.77.86,1.53,2.52,2.31,2.85,4.73,2.46-11.33,5.72,1.66,6.54,5.21a6.64,6.64,0,0,1,1.17-5.79,33.27,33.27,0,0,1,.8,9.75c0-1.44,0-2.82.09-4.25,2.18,2.31,2.17,6.64,1.91,10.1V472.08a82.19,82.19,0,0,0,.26,10.32c2.35-4.26,2.5-9.39,5.14-13.6.87,2.3.69,6.12.45,9.06-.24-.44-.31-1.11-.5-1.47-.31,1.82-1.15,3.63-1.52,5.4-1-4.18-.49-8.69-.5-13v9.88c-.11-4-.88-9.31,2.22-12.19.73,3.52.48,7.19.38,10.78,1-2.87,3.07-4.65,6-4.5-.4,2.63-.24,5.1,1.44,6.66a91.79,91.79,0,0,1,4.11-10.59c5.87,2.35,10.45-5.85,15.13-8.28.2,3.65-.23,7.42.38,11a30.58,30.58,0,0,0,2.91-6.46c0,.83.14,2.08.12,3.05,0-2.37,1.92-12.95,5.55-12.07,1.64.4,1.74,8.29,3,10,0-3.93.11-8,2-11.56a13.89,13.89,0,0,1-.57,6.37c-.14-1.23-.11-6.22,1.41-8.53,1.26,4.16.62,9.07.63,13.5a14.6,14.6,0,0,1,2-7.77c1.25.69,2.59.19,3.88.74.21.54.41,1.09.61,1.63,2.22-4.9,1.32-10.7,4.25-15.32-.36,3.13,1,3,1.8,4.89,5.45-6,6.91,4.64,6.8,8.58v-5.53a23.1,23.1,0,0,1-.52,6.24c-.35-4.74-1.15-10.77,1.24-15.1,0,2.14,0,4.32-.08,6.47,0-2.54,2.25-13.11,6.26-9.95,2.14,1.69.44,14.45.39,17.17.27-3.18,2-5.9,2.72-8.93-.38,2,0,4.36.06,6.39,4.06-1.37,2.86-7.61,7.17-8.6a17.46,17.46,0,0,1-.05,6,14.08,14.08,0,0,1,.15-3.85c1.8,9.35,5.08,5.91,9.22-.16.13.66,0,1.25.16,1.9a6.85,6.85,0,0,0,5.82-2.55c0,1.2.63,2.81.62,3.78,1-2.05,2-4.13,2.88-6.25l0,1.14a15,15,0,0,0,.08-3.27c-.71,1.61-2.05,2.92-2.76,4.58a29.81,29.81,0,0,1-.76-4.08c-1.56,5-11.54,7.39-9.8.25,3.74,5.26,11-.89,13.71-4.45-.2,1.08.42,3,.3,4.18,1.37-.28,4.42-1.1,5.88-.66,1.12.34,2.3,3.16,2.6,3.18,3.62.24,4-1.62,7.19-2.65,4.05-1.32,6.76-1.37,11.42-1.7-.06.94.38,2.22.26,3.16,1.39.38.95-.56,1.89-1.24"/><path class="cls-2" d="M630.93,490.06c0-4.52,2.9-11.4,7.39-11.86,1.53,4.44,1.25,9.16,1.4,13.78,1.48-3.89,4-10,7.26-13.1a26.62,26.62,0,0,1,.74,3.74c1.24-2.82,3.06-5.81,3.22-9.23"/><path class="cls-2" d="M606.93,495.39c-2.71-1.66-1.73-9.13.5-12-1.13,1.1-3.21,1.77-4.4,2.67a14.23,14.23,0,0,1,2.49-10,16.33,16.33,0,0,1-1.41,6A83.2,83.2,0,0,1,611,467.3c0-.85-.46.48-.73.75"/><path class="cls-3" d="M510.23,504.73c3.11-1,6.28-2.43,9.23-3.31,1.06,4.56-2.89,7.53-5,11.18,3.08-1.06,6.45-3.07,9.75-4.33.86,5.6-4.63,9.56-8.25,13,2-2.84,5.3-4.46,8.33-5.68-.3,1.4.35,3.23.1,4.45,6-1.69,9.41-10.29,15.43-12.08.37,5.32-3.19,11.39-6.21,15.58a11.08,11.08,0,0,1,3.36-8.82c-1,5.24-5.64,12-10,15.23-.14-3.22,1.63-5.8,3.57-8.36a18.34,18.34,0,0,1-.35,9.4c.3-1.39.7-2.6,1.1-3.95.53,3.62,1,9.2-.37,12.78-1.53-3.22-.67-8.44-.63-12.24-.91,5.17-3.47,10-5.26,15-.21-3.93-.1-7.93-.11-11.88,0,4.57.25,9.11-.7,13.61a151.78,151.78,0,0,1,2.9-26.3c.79,2.78-.06,6.9,1,9.77.31-3.83.14-7.74.15-11.6,0,1.93-.83,3.45-1.32,5.28-3.65-3.6-1.4-16.63-1.32-21.89-.13,2.73-2.63,14-6,14.53-5.21.79-5-5.83-4.73-9.28-.06,1.69,0,3.4,0,5.09.76-2.73,2-5.61,2.16-8.51,2.06,5,.07,16.31,7.92,11.29.68,3.2.67,6.73,1.73,10,3.17-3.81,3.42-9.45,5.44-13.89.27,3.81.12,7.82.12,11.7v-9.75c0,3.78.8,7.49-1.4,10.74.12-4.23.06-8.47.06-12.71a20.93,20.93,0,0,1-.51,7.15c-.35-3.81-.17-7.81-.14-11.68-.38,3.61-.18,12.3-4.56,12.31a44.34,44.34,0,0,0-2.16-12.46,82.83,82.83,0,0,1-6.69,26.8c.64-4.26,3.63-13.29,3.36-18.65.95,6,2.52,12.32,2,18.38.88-4.33,2.56-10.38,5.25-13.36,2.37,9,.8,19.5.8,28.76a25.46,25.46,0,0,1,.52-4.94c.3,4.36-.37,9,.77,13.06a11.47,11.47,0,0,1,4-4.91c-.29,5.25,1.44,10.66,1.38,16.1.26-3.25.41-7.12,2.44-9.78a73.71,73.71,0,0,1,.26,10.46c-.22-10.2,1.85-19.5,3.93-29.43.72,8.5-2.67,18.45-5.81,26.17-.49-5.83-1.56-15.32,2.45-19.91.39,6.71-.83,13.48-.56,20.19-.44-6.33.21-14,5.16-18.54.84,7.79.16,14.49-3.6,21.27-1.29-4.91,5.14-11.37,8.25-14.94a112.13,112.13,0,0,1,.18,12.18c-.07-4.6,2.24-8.65,4.27-12.67,1.26,3.91-.2,8.54-1.46,12.23-.19-7.55,5.71-13.06,11-17.86,1.69,4,.87,9,.9,13.36-.08.86,0-3.45,0-4.4a16.35,16.35,0,0,1-3.9,7.62,22.17,22.17,0,0,1-.91-7.65c-1.07,3.62-1.51,7.49-3.09,11-.31-4.21-.14-8.55-.14-12.81.6,8.76-2.94,19.61-8,26.29-3.49-4.92-1.2-11.48-2.6-16.74-2.58,2.19-3.57,5.84-6.74,7.56-3.28-4.07-2.77-9.15-2.6-14.16-1.3,5.77-3.44,12.3-7.24,16.68-.8-2.82-1.26-5.85-2.71-8.37-.05,1-.16,2.28-.13,3.4-.16-4,.9-7.79.68-11.74,0,2.82,0,5.63,0,8.44.23-6.11,1.48-12,6.15-16.35-.31,6-.15,12-.12,18a16,16,0,0,0,5.43-4c2.11,3.08,2,7.17,2.13,10.63a8,8,0,0,0,4.35-5.09c-.14,2.26.19,4.11-.56,6.35,2.25-4.42,2.27-11.78,5.91-15,.28,7.05-.28,13-2.78,19.64,2.05-5,6.4-8.66,9-13.4,1.32,4.14.56,10.86.53,15.8-.31-4.63,1.57-8.84,3.46-13,.42,5.71-2.54,9.29-3.46,14.55-.11-3.76-.65-8.08,1.91-11.12-.15,2.1.48,4.55.61,6.4a4.55,4.55,0,0,1,.83-1.83"/><path class="cls-3" d="M432.88,562.08a10.28,10.28,0,0,1,2-6.81c2.4,6.25,1.48,15.63,1.24,22.73a50.66,50.66,0,0,1,5.3-16.47c.2,3.71.17,7.5.05,11.24,1.21-3.23,1.33-7.15,3.3-9.77.37,6.07.13,12.24.09,18.34A19.81,19.81,0,0,1,449.1,569a34.38,34.38,0,0,1,1,10.84c1.52-4,2.71-8.17,5.05-11.79,1.34,7.21.51,15.58.3,23,3.36-8.38,2.21-17.61,4.76-26.11,2,10.34-10.55,8.54-9.37-4.18a6.21,6.21,0,0,1-2,6.64c-2.95-3.06-1.76-8.36-4.78-12,.55,6.66-4.27,1.48-7.94,1.81-.55,2.22-.73,5.28-1.3,7.83a32.12,32.12,0,0,1,.15-5c.24.32.68,1.06,1,1.61,2-2.41,3.67-5.34,5.74-7.82,2.8,2.45,2.62,8.82,2.52,12.87a31.86,31.86,0,0,0,2.81-6.14,43.56,43.56,0,0,1,.61,7.24,14,14,0,0,0,.64-1.78c1.56,1.94,2,4.83,2.26,7.48,2.29-1,4.92-2.71,7.57-3.45,0,3.12,1.06,6.5,1.92,9.28,5.53-2.13,10.65-6.07,16.26-7.86.18,2.71.31,6.24,2.52,8.21.67-1.59,2.22-3.11,2.62-4.87-.13,1.64.27,3.54.13,5.17,1.79-2.74,2.6-6.16,3.84-9.07.16,3,.09,6,.1,9-.44-3.79-.18-7.72,3.27-9.94a35.11,35.11,0,0,0,.64,7.68,21.25,21.25,0,0,0,2.93-6.36c.77,2.89.52,6.21.43,9.32.22-2.18,1.87-3.84,2.76-5.37,1.25,2.7.7,7.36.53,10.79,2.38-4.72,3.84-10.43,7.37-14.37a30.52,30.52,0,0,1,.07,5.33v1.07"/><path class="cls-2" d="M470.89,555.41c-.72-5.57,5.52-3.49,6.15.44,1.67-2.37,1.9-5.62,3.88-8,.38,1.32,1.84,2.94,2.06,4.74,2.55-.25,5.25-.16,7.23,1.22a2.44,2.44,0,0,0,1.35-1.12"/><path class="cls-2" d="M480.89,533.41a14.67,14.67,0,0,0-.56,6.55c4.23,1,4.57,5.67,9.13,5-.78,5.43,8.49,4.39,11.62,6.4s10.46,6.31,11.15,10"/><path class="cls-2" d="M502.23,538.07c4.64.32,4.1,11.08,4.08,15.24,1.26-2.12,2.48-4.51,4.49-5.16.07,2.71,1,3.78,2.1,3.93"/><path class="cls-2" d="M565.58,512.07c-1.11-4.24-1.67-10.78.63-14.61a11.35,11.35,0,0,1,3.75,5.45c.34-4.53,3.32-9.06,6.22-12.23a3,3,0,0,1,0,1.65c1.39-3.65,2.06-8,3.37-11.54.7.11.63.49,1.31.6a42,42,0,0,0,5.37-12"/><path class="cls-2" d="M649.61,494.73c-1.33-13.77,14.94,1.82,4.66.66"/><path class="cls-2" d="M659.61,468.72a14.26,14.26,0,0,0-.67,6.67"/><path class="cls-2" d="M668.28,478.72a7.74,7.74,0,0,1,2,2"/><path class="cls-2" d="M669.61,494.73c.66,1.59,2.48,1.86,4.67,1.33"/><path class="cls-2" d="M676.28,470.05c2.36.61,4.22.05,5.33-2"/><path class="cls-2" d="M673.61,459.38a7.76,7.76,0,0,0,2-5.33"/><path class="cls-2" d="M664.28,452.72c-1.81,1.71-2.43,4.62-2,7.33"/><path class="cls-2" d="M670.94,480.06c.07,1.59,1.07,2.4,2.67,2.66"/><path class="cls-2" d="M683,463.39c-.17.6.06,1.26-.1,1.89-.6-.08-1.11.19-1.79,0-.56-2-2.18-2.67-3.45-3.88"/><path class="cls-2" d="M683,450.72c3.78-.52,6.13,2.44,6,6"/><path class="cls-2" d="M694.28,468.72c-.89,3.53,1.11,5.85,4,4"/><path class="cls-2" d="M687,478.72c-2.81.72-5.25.29-5.34-2.66"/><path class="cls-2" d="M702.29,466.72a17.25,17.25,0,0,1,.08-1.9c3.36-.7,6.68,1,9.28,2.35,1-2.09,1.93-4.42,2.64-6.45"/><path class="cls-2" d="M700.29,445.38a6.35,6.35,0,0,1-2.57-5.25c3.74,1,5.57,3,9.85,3.28,3.46.24,7.75,0,11.39,0"/><path class="cls-2" d="M576.25,567.42c-1.31-14.85,16.25-19.89,27.54-25.34,3.74-1.81,9.34-4.21,12.5-1.7-8.3,3.9-18.35,10-24.52,16.78,9.46-9.66,28.65-11.39,40.72-16.63,5.85-2.55,12.2-4,17.92-6.22-3,3-7.41,4.39-11.16,6.36,6.58-3.11,12.78-8,19.34-10.65,6.19-2.54,13.28-3.17,20-4.1,8.15-1.14,20.35-.09,27-5.33a108.6,108.6,0,0,0-32.2,8.88c-4.36,2-9.5,4.59-14.5,4.52,7-8.33,19-11.55,28-17,6.14-3.64,11.12-9.65,17.48-12.68,5.18-2.47,12.58-2.62,17.27-6-13.94,6-26.5,15.49-40.58,21,16.55,1.29,34.41-12.08,48.58-19.44,5.12-2.65,11.33-3.61,16.09-6.37-8.25,3.77-16.51,11-23.68,15.91,7.76-.33,26.73-13.41,31-20.71-13-3-28,15.87-38.58,21.33,14.14.3,22.51-1.53,33.51-11,10.44-9,17.66-24.71,29.77-31.05-1.89,6.84-15.17,16-21.33,19.3-.67-9.32,15-17.63,21-22.86,7.4-6.51,14.27-16,22.38-21.36,4.13,7.8-17.11,19.17-22.44,22.72-3.4-8.2,25.58-18.8,30.91-22.58,8-5.71,16.21-11.83,24.61-17.27-14.21,12-32,15.82-43.32,31.41,22.82-14.72,45.71-28.66,67.32-45.37,4.4-3.41,11.07-6.85,14.17-11.34-10.88.61-25.93,15.58-34.69,21.74-5.57,3.91-14.24,11.6-21.06,12.05,13.68-15.6,33.69-27.05,51.24-38,4-2.5,8.79-5.16,13-7.22-5,13.57-28.61,15-39.55,22.25,14.53-9.29,30.21-16.72,43.94-27a232.61,232.61,0,0,1,21.23-13.83c-3.13,6.76-19.49,14.78-26.57,17.3,3-16.28,33.8-26.73,46.42-34.66,3.93-2.46,17.25-8.83,15.24-14.53-5.7,3.82-21.44,10.57-23.22,17.17,7.44.76,21.19-10.46,26.13-16.19,2.48-2.87,3.71-7,5.8-10.12-1.22,2.69-4,5.6-5,8.82,4.66-2.84,6.18-10.35,6.69-15.66-11.61,10-13.7,28.94-26.18,37.12-5.72,3.76-12.48,4.27-18.7,6.69"/><path class="cls-2" d="M767.64,575.42c10.71-.07,23-10.75,31.43-16.55,5.89-4,11.72-8.25,17.47-12.47-9.9,7.63-20.89,15.28-32.3,20.42,2.15-6.55,11-10.2,16.3-13.93,8.92-6.27,17.91-12.36,27.14-18.19,7.51-4.75,15.15-9.49,22.67-13.93-18,4.64-31.79,18.31-47.94,26.64,12.85-13.82,28.17-22.44,45.07-30,.45,6.79-11.65,17.3-16.47,22.48,2.39-13.5,26.31-25.89,38-31.49a11.25,11.25,0,0,1-3.41,10.19c6.4-8.36,16.78-15.14,24.71-20.43,8.24-5.5,13.54-16.45,22-22.72.11,6.82-9.13,11.91-13.75,15.93,2.29-9.78,16.31-15.49,22.92-22.28-.17,1.22.52,3.55.32,4.94,9.52-4.93,18-12.93,27.69-17.27.67,3.42-2.63,6.29-4.21,8.55,7.64-2.18,13.89-9.41,20.54-13.69-.25,3.92-3.36,6.94-4.67,10.59,5.56-6.66,12.22-12.25,17-19.56a8.46,8.46,0,0,1-1.8,7.34c3.79-6.89,7.93-15.09,11-21.54a53.64,53.64,0,0,1-1.67,8.31c1.29-7.81,6.82-16.07,6.76-23.94,0,2.08,0,4.17,0,6.25v-4.75a44.24,44.24,0,0,0,.08,5.53c2.81-4.33,2.83-9.1,2.59-14.05,0,.83,0,1.66,0,2.5,0-6.72-.46-13.5,1.48-20,1.62,5.45,1.45,11.37,2.53,16.89,0-5.69-.24-11.46.1-17.12.65,1.18,1.91,2.42,2.44,4.07-.06-4,1.85-9.55.11-12.75"/><path class="cls-2" d="M224.15,526.74c3.36-4.88,15.23-4,19.89-9.27,2.05-2.32,1.84-7.12,3.42-9.9C250,503,255.4,499.65,260.08,497c18.83-10.6,38.73-19.27,58.12-28.29,10.47-4.88,21.28-9,31.49-14.63,4.66-2.59,7.91-4.56,13.13-6,5-1.39,10.31-1.44,15.24-2.72,5.1-1.33,10-3.89,15.12-6.06,21.21-9,45.21-7.5,65.23-19.13a265.69,265.69,0,0,0,22.93-14.93c14.58-10.67,17.84-30.78,29.41-43.73,7.19-8.06,16.15-8.21,26.73-8.16,11.93.07,14.13-9,24.23-12.86,8.75-3.36,15.91-4.2,24.38-9.27,8.28-5,14.36-13,22.67-18.08,8.71-5.3,15.41-9,21.66-17,7.05-9,14.78-16.32,25.12-21.68,9.35-4.85,19.08-9,27.74-14.61,7.93-5.13,7.9-12.45,13.67-18.57,5.36-5.68,16-9.07,22.64-13.16,4.79-2.95,16.56-8.9,18.71-13.48"/><path class="cls-2" d="M542.24,307.34c-1-8.3,8.7-16.43,13.14-22.59,6.25-8.69,9.48-18.37,13.72-27.57,4.58-9.91,16.48-13,23.8-20.4,2.08-2.1,5-7.14,8-8.18s8.67.11,11.83,0c.83-1.45,1.45-1.33,2.4-2.5.66,2.32.3,5.72,1,7.93,8.07-5.73,20.41-3.82,28.77-9.24,3.6-2.34,2.67-2.83,5.13-6.09a44.23,44.23,0,0,1,11.59-11.15c9.09-6.21,20.66-7.86,29.8-13.51,4.62-2.86,9.09-5.35,13.49-7.89,2.41-1.38,5.75-5.89,8.16-6.66,4.28-1.38,8.17,2.27,12.53,1.25s7.47-6.05,10.67-8.83c3.33,8.22,16.27,14.32,25.35,10.78"/><path class="cls-2" d="M128.79,464.72c12-10.62,32-15.74,47.32-19.51,18.09-4.44,36.38-6.41,54.41-11,17-4.32,29.86-17.32,47.78-20.17,21.33-3.38,37.61-16.6,59.12-18.72,6.4-.62,10.34-1.24,16.1-4,4.43-2.12,8-5.85,13.34-5.32"/><path class="cls-2" d="M476.89,359.36c16.13-2.6,25-15.53,36.5-24.14,6-4.46,12.84-6.88,18.2-11.84,5.67-5.25,11.22-10.61,17.19-15.44a243.5,243.5,0,0,1,36-23.94c12.24-6.84,21.54-16.93,34-23.66,13.9-7.54,28.36-12.52,43.18-18.37,13.2-5.2,23.63-14.48,35.65-21.3,4.48-2.55,9.24-3.67,13.72-6.67s6.57-6.61,10.34-10.24c8.78-8.44,24.51-12.08,34.69-18.45"/><path class="cls-2" d="M635.6,388c-.4-7.49,10.54-9.09,15.22-12.17,5.25-3.44,3.47-4.81,5.29-10,1.72-4.87,6.08-8,7.66-12.68s-1.34-10.55,2.51-14.53"/><path class="cls-2" d="M835,304c-5,.48-16,4.83-20,3.34-4.77-1.75-3.83-9.73-.87-13.49,6.22-7.9,20.9-11.35,29.23-17.06-9.13-1.4-17.54,4.72-26.36,5.88A132.88,132.88,0,0,1,799.65,284"/><path class="cls-2" d="M543.58,300.67c4.37,9.09,13,2.93,15.26-5.28,1.28-4.61.83-9.78.67-14.59,1.84,3.46,2.71,7.28,4.87,10.58,6.7-6.08,4-22.32,5.67-30.69,1.54,6.12,1.46,18.9,5.84,23.42,5.38-11.18,2.49-26.77,8.34-36.82,4.49,6.39-.68,23,6.58,27.91-.22-8.82,1.9-20.26,3.56-29,3.2,6.93,1.36,17.51,1.18,25.09,2.15-9.84,5.88-20.79,6-30.7,0,9.05-2.25,21.48,3.87,28.85,5.16-12-.39-27.59,3.32-39.46.33,6,0,22.48,4.66,26.53,4.09-6.28,3.3-17.24,7.64-23.83,3,4.48,3.68,10.47,5.93,15.34,4.93-2.89,1.74-12.3,6.93-14.54,2.25,5.13,1.5,13.39,4.93,17.37,5.79-3.17,2.3-17.46,2.89-23.32,2.11,7.07.21,15.31,2.36,21.89-.09-6.94,1.64-24.09,9.35-26.58,1,5.59,3.63,10.3,6.38,15.19,8.45-3.48,7.62-23.54,13.13-30.42,1.18,5.35,1.35,11.29,2.85,16.6,3.87-4.14,7.35-13,7.91-18.58a94.29,94.29,0,0,1,3.33,20.8c.86-6,1-19,4.7-23.77,3.13,2.93,2,8.28,3.15,12,3.22-3.31,1.77-10.32,3.05-14.67,1.13-3.8,2.74-7.43,5.53-10,0,8.31,1,18.72,3.52,26.63,6.5-9,9.79-20.24,15.58-29.3,2.31,3.11,1.41,8.89,2.5,13.07,3.22-10,3.9-20.61,9.85-8.25,3.22-3,3.36-8.81,6.7-11.61,1.23.68,1,1.56,1.31,2.77"/><path class="cls-2" d="M765.64,216c4.7.3,14.13-5.66,17.57-2.74,2.37,2,1.6,12.29,1.77,15.38.6,11.2-.06,22.31,1.33,33.38"/><path class="cls-2" d="M672.94,288.67c4.21.53,11.91,11.45,13.19,15.92.78-11.44-.43-23.11.25-34.6,6.41,8.73,3.44,22.88,5.74,33.11,1.6-10,.69-24.7,5.47-33.4,5.36,8.88.58,21.94,4.8,29.83,9.35-8.64,8.55-23.31,12-34.93,2.12,10.93,2.2,21.41,2.61,32.37,4.22-15.62,5.74-33.13,6.71-49.24,7.47,9.92,4.94,31.79,2.48,43.26.61-17.54,1.53-34.49,5-51.66,5,9.92,1.87,26.51,1.67,37.5,1.91-12,1.35-28.28,6.05-38.87,3.35,10.58,1,26.1,0,37.2-.31-12.84,1.74-26.92,2.81-39.74,2.61,8.17-3.27,28.69,2.36,33.93,3-4.5,4.91-9.71,7-14.67s3.61-14.57,7.18-18.27c7.2,8.6-1.27,24.75,4.18,34.29,6.17-12-3.26-30.1,4.39-42.49-2,13.08-2.75,26.76-5.77,39.6-1-13.68,1.7-28.66,4.79-41.85,9.42,7.53-3.71,33.61,4.8,38.65,1.7-11.29,0-28.87,7-38.26-.2,9.43-.69,18.81-.72,28.25,0-8.64.83-17.35.67-25.95"/><path class="cls-2" d="M771.64,189.31c1.36-3.11,7.55-6.67,11.1-8.53.64,5.9-.56,11.89-.35,17.73,5.17,2.24,2.49,15,2.62,20.08,10.14.11,6.49,4.68,6.49,12.75,0,9.2,1,21.71,11.26,25.14-2.87,1.68-7.61,2.72-7.11,6.85"/><path class="cls-2" d="M793.65,123.29c0,23.87-1.5,48.7,1.83,72,1.8,12.58,1.18,25.65,3.47,38.24,1.32,7.32,4.16,14,6.87,21,2,5.08,3.78,12.65,7.83,16.15"/><path class="cls-2" d="M1165.75,577.42c-2.71-1.6-3.59-10.16-4.68-14-1.51-5.26-2.59-10.61-4.83-16.07a189.18,189.18,0,0,0-11.45-23.47c-4.66-8-5.45-15.73-7.75-25.25-1.7-7.06-2.17-16.11-7.13-21.7-4.67,4-2.58,11.06-6.82,15-3.39,3.15-9.47,3.63-14.07,4.46-4.11.73-18.7,4.18-22.52,1.5-4-2.78-2.71-11.17-7.43-14.51-4.57-3.23-16.07-.58-19.29-4.86-1-1.32-.17-6.07-.71-7.87-2.54-8.31-9.38-8.33-14.73-13.3-9.45-8.76-5.44-37.58-23.86-32.09-.56-7.24-6.78-12.5-10.17-18.47-3.74-6.59-5.25-13.16-7.38-20.13-4.42-14.36-15.88-25.7-23.08-38.28-3-5.26-6.18-10.58-9.21-16.12-2.09-3.82-1.69-4.94-5.72-6.29-3.78-1.27-9.91,1.78-13.44,0-4.89-2.4-2.61-7.73-4.45-12.05-3.38-8-14.5-3.39-16-10.67"/><path class="cls-2" d="M532.24,280c0-7.74,1.38-15.42,8-20.53,2-1.56,6.23-1.42,7.72-3.43,1.78-2.39.93-7.21.95-10,0-3.36-.8-7.23,1.32-10s6-2.43,8.2-6.11c3.92-6.5.07-14.39,2.3-21.24,1.86-5.71,7.1-9.34,8.22-15.3.94-5-1.82-11.89-.1-16.66,1.26-3.46,6.07-7.17,8-10.25a23.41,23.41,0,0,0,3.36-8.41,161.8,161.8,0,0,1,7.33-22.53c4.24-10.49,6.74-21.58,10.13-32.16,3.19-9.93,8-16.48,14-24.69,5.8-7.93,10.58-17.48,14.51-26.71,3-7,8.79-13.42,12.15-20.57,2,2.67,2.42,6.48,3.82,9.92,2.59,6.4,8.22,9.13,9.42,16,.86,4.94-2.69,12.93-.78,17.19s7.83,4.32,8.75,9.46"/><path class="cls-2" d="M1165.75,420c-19.75-7.09-38.9-14.62-57.5-25.14-17.32-9.79-31.68-22.64-49-32.19-13.92-7.66-28.08-15.39-43-21.59-12.33-5.13-26-10.12-37.22-17.27-18.34-11.66-31.74-29.85-44.71-46.42C921.51,261.08,909.19,244,891.71,233c-17.13-10.83-35.8-22.89-50.71-36.55-7.94-7.27-11.26-13.45-12.68-23.89s-2.48-20.69-6.16-30.37c-5.84-15.35-12.11-30.76-19.68-45.38-3.59-6.93-7.13-13.58-9.67-20.85-1.12-3.23-1.87-8-4.69-9.9-1.49-1-13.25-.9-14.41.1-1.62,1.4-1,5-1.37,7-2.42,11.48-16,23.6-12,35.52"/><path class="cls-2" d="M644.27,43.27c-.68-6.52,7.11-11,10.57-15.52,2.07-2.71,4.08-10.69,7.4-11.71,6.88-2.1,4.69,6,10-1.45,2.66-3.71,5.09-9.56,6.81-13.9,8.39-.42,9.7-.83,11.23,6.94,1,5,1.65,10.63,2.66,15.8,3.24,16.66,7.17,33.71,16.06,48,6.86,11,14.13,19.28,19.57,31.17,5,10.94,9.3,26.84,17.73,34.67"/><path class="cls-2" d="M561.58,230c9.87-4.17,17.24-14.05,25.16-20.16,6.71-5.17,5.66-7.16,8.17-14.52,1.61-4.72,6.64-8.36,10-2,5.77-7.12,12.55-13.11,16.65-22,3.27-7,2.8-8.92,10.84-9.33s10.42-.82,15.21-7.67c4.94-7.08,5.42-16.1,14.77-19.71,5.46-2.1,7.58.46,11-6,2.26-4.25,1-9.76,4.31-13.24,6.43.62,20,15.36,21.88,21.92"/><path class="cls-2" d="M616.93,222.65c9.84-.1,21.19-17.21,28.53-23,8.92-7,9.43-12,11.46-23,1.85-10,6.93-9,11.34-16.46,4.6-7.79,5.48-18.42,17.36-18.9"/><path class="cls-2" d="M718.29,160c1-8.34-4.79-10.29-10.22-14.49-4.82-3.74-5.26-9.22-9.79-12.82-4.67,3.11-5.43,8.64-8,13.3"/><path class="cls-2" d="M556.91,244c-4.46-.3,8-22.75,10.84-7,.8-3.77,5.09-17.5,9.71-10,1.49-4.68,3.48-14.46,8.68-15.6.39,1.48,1.8,2.94,2.11,4.08.59-2.72,2.79-11.5,5.23-12.13.2,2.26,1.22,3.88,2.23,5.83,3.55-4.33,5.29-10.48,7.89-14.64,1.22,2.84,1.46,7.27,3.3,10.25,4.37-3.66,3.58-8.18,4.84-13.22.89-3.55,4-10,5.83-3.06,1.68-4.21,2-11.81,5.52-14.55,2.57,2.95,3.11,8.11,3.69,11.69-.28-5.48,2.63-13.86,5.67-18.37,2.33,3.47,2.13,10.13,3.93,14.59,6.1,0,4.34-15.34,6.65-19.8a1.86,1.86,0,0,1,1.61-.13c1.53,3.72.23,7.9,1.63,11.41,1.68-4.75,1.42-7.83,4.56-12.3,4.07-5.8,10.95-10.15,15.35-15.05.12,1,.51,2.26.62,3.11.42-4.8.74-11.36-.26-15.67-3.11,3.69-6.42,12.47-7.64,17.41.07-2.37,0-6.73,0-9.84a63.77,63.77,0,0,1-2.8,20.1c-6.16-6.65,4.86-22.2,11.39-25a60.25,60.25,0,0,0,1.93,13.65c.78-8.78,2.86-16,5-24.37.69,4.61,2.18,9.83,2,14.64,2.87-4.72,1.51-14.31,5.12-17.42-.08,4.94.75,9.87.78,14.88-.34-3.14,1-5.89,1.34-8.9"/><path class="cls-2" d="M619.6,140c0-3.83-.22-15.78,4.81-17.38,5.49-1.75,7.09,7.41,13.77-.42,4.49-5.25,6.2-14.82,10.09-20.89,3.38-5.27,7.44-9.31,9.45-15.22a2.52,2.52,0,0,1,1.24-.23,61.43,61.43,0,0,1,3.94,12c4.92-5.78,4.55-15.05,8.1-21.7,1.2-2.25.35-5.79,4-4.19,2.23,1,2.27,5.43,2,7.38"/><path class="cls-2" d="M646.94,40.6A46.12,46.12,0,0,0,654.8,36c2.08,5.56.21,12.29,1.09,18.07,6.21-.29,11.3-7.87,16.89-10.69,1.8,12.37-12.44,18-17.76,27.73,4.07-1.18,7.77-4,11.77-4.15a57.76,57.76,0,0,1,.15,7.68"/><path class="cls-2" d="M679.61,70.61c6.57.87,8.95-6.23,14.37-7,2.84,17.47-4.9,33.22,1,50.46,2.45,7.13,5.95,11.21,11.32,16.6,4.92,4.94,6.33,10.7,10,16"/><path class="cls-2" d="M708.29,67.27c-.83-7.19,5.06-14.47,8.83-20,3.08-4.53,7.08-13.83,11.69-16.6,3,6.39,3.32,14.33,5.67,21.14,3.15,9.13,9,16.16,11.84,26.21,2.63,9.37,4.37,18.21,8,27.24,3.2,8,5.37,16.47,8,24.74"/><path class="cls-2" d="M798.31,84.61c3.87-.09,7.66-6.44,10.7-6.12,2.13.22,3.93,4.77,5.83,6,1.3-2.42,1.89-5.73,3.66-7.92,3.55-4.39,4.8-2.82,11-2.5,8.85.45,10-5.1,16.12-11,11.06-10.62,28.45-30.76,44.69-19.82,8.22,5.52,15.16,12.24,19.5,21.07,2.27,4.64,3.1,10.27,6.28,14.38,2.38,3.08,6.59,3.71,9,6.49,3.05,3.46,2.63,5.86,3.19,10,1,7.55.54,7,8.23,9.89,12.25,4.51,3.32,14.86,12.31,22.37,5.63,4.7,9.91,3.16,13.63,9.61,1.52,2.63,2,6.18,4.14,9,5,6.64,10.41,11.42,13.2,19.23,4.82,13.43,5.39,29.18,16.49,40,5.23,5.09,13.49,8.56,17.24,14.84,3.47,5.79-1.18,17.94,2.92,22.37,4.26,4.59,17.09-1.53,23.08,2.46,5.19,3.47,6.6,12.63,10.28,17.51,2.23,3,4.84,6.38,7.3,9.21,3.64,4.18,4.62,6.52,7.72,11.81,3.77,6.44,8.17,11,13.67,15.61,6,5,12.29,11.53,19.69,14.7,4.37,1.88,9.32,1.67,13.85,3.49,4.68,1.88,7.42,5.14,11.27,8,6.53,4.87,13.8,8.78,19.39,14a116.15,116.15,0,0,0,18.78,14.09c8,5,16.15,9.62,23.53,15.35,4.6,3.57,6.59,6.82,10,11.84,4.34,6.42,4.74,13,9.34,19.37,6.31,8.77,15,18,24,24"/><path class="cls-2" d="M565.58,220c2.55-7.47,12.53-16.78,18-22.63s11.68-11.24,16-18c3.55-5.57,9.95-12.33,11.88-18.71s-1.84-14.73-1.87-21.34"/><path class="cls-2" d="M857,193.31c-1.12-10.09,9.42-24.84,15.13-32.65,5.3-7.24,5.2-11.07,6.84-19.55,2.12-10.92,11.2-17.88,17.37-27,5.39-8,9.86-17.32,14.4-26,1.83,11.48.22,24.17,1.61,35.77,1.27,10.64,5.08,20.07,6.63,30.66,1.38,9.38,5.06,17.9,7.89,26.82,1.6,5.06,3.94,9.91,5,15.24,1.19,6.07.29,11.88,2.66,18,18.7-4,11,20.12,14.58,28.64,3,7.34,9.85,6.91,11.29,16.71.92,6.3-.6,13.24,1.31,19.35"/><path class="cls-2" d="M818.32,118c.06-9.94.84-19.11,9.22-24.68,7.72-5.12,11.94-4.56,15.57-12.65,4.67-10.41,7.7-10.76,17.9-9.84,6.81.62,12.07-1.91,12.76-9.42,7.75,1.67,11.29-6,12.57-12.77"/><path class="cls-2" d="M915,73.28c-.06-2.58,1.55-12.74,5.16-12.77,4,0,1.62,5.4,3,6.79,2.84,2.92,4.38,1.58,8.6,1.13,12.87-1.38,21.79,2.79,26.13,14.85,3.43,9.53,2.66,20.9,5.17,30.69,3,11.64,5.65,24.1,10,35.33"/><path class="cls-2" d="M983,192.64c-.57,8.46,4.49,18.36,6.84,26.36,2.57,8.78,4.6,17.39,8.5,25.59,2.2,4.61,5.17,10,5.9,15.13.81,5.69-1.11,11.71,1.27,17,2.62,5.78,9,8.27,13.05,12.64,4.53,4.87,6.32,10.56,8.41,16.6,4.65,13.48,8.88,25.79,14.72,38.75"/><path class="cls-2" d="M1091.73,316c4.23,6.4,4.74,15.25,9,22.14,3.67,6,8.5,10.8,11.22,17.24,3.2,7.59,2.31,16.26,5,24,2,5.91,4.57,12.15,8.14,17.32"/><path class="cls-2" d="M859,584.75c4.94.58,8.83-7.45,12.65-10.76,8.05,6.61,13.74-6.68,17.4-11.92,3,7.45,18.08-4.75,22.4-7.27a16.53,16.53,0,0,1-2.34,2.23c.19-8.84,17.31-6.44,22.34-13a24,24,0,0,0-2.45,1.45c2.37-7.63,21.79-12.06,28.62-17.92-.21,1.64.3,3.46-.06,5.14,9.78-12,26.35-19.52,32.17-34.14a11.94,11.94,0,0,1-2.81,8.07c2.43-5.38,6-10.74,8.82-15.47-.1-7.18.36-14.52-.18-21.63a47.61,47.61,0,0,0-1.1,8.93c4.33-6.62,4.9-15.38,10-21.36-.1,3.44.26,6.75-.79,10.06,2-6.14,3.56-14.07,7.08-19.45,5.19-7.94,14.1-10.91,21.64-15.7.06,2.69,0,5.4.05,8.1a12.3,12.3,0,0,0-2-7.37"/><path class="cls-2" d="M707.62,583.42c5.14-5.19,9.41-11.86,14-17.58,2.85,2.59,2.35,6.62,1.35,10.14-1.48-7.56,9.23-16.43,16-17.84.06.85.09,1.71.15,2.53,7,1.29,15.09-5.89,20.64-9.57a4.42,4.42,0,0,1-4.65,4.94c-.57-8.71,2.28-17.08,10.56-21.29a24,24,0,0,1-3.42,4.43c.81-6.88,5.34-12,8.66-17.65-.42,2,0,3.81-1,5.85,4.52-.27,8.88-2.75,13.06-4.17-1.29,2.35-3.49,4.07-5.58,5.61.2-11.58,20.29-22.17,28.18-29.81a6.25,6.25,0,0,1-3.1,7.72c-.3-3,1.93-5.13,4.72-6.23a7.87,7.87,0,0,1-2.3,6.28c8.93-3.55,17.64-9.92,25.2-15.66a5.82,5.82,0,0,1-5.85,5.08c2.29-9.89,18.27-23.85,28.11-26.1a14.27,14.27,0,0,1-4.61,7.23c-1.07-6.38,14-14.5,19-17.75a1.5,1.5,0,0,1,.32,1.14c6.13-5.09,12.36-11.07,18.52-16.47-.13,3.43-4.73,7.27-8,7.65,4.84-10.5,22.1-9.93,29.66-17.93a7.06,7.06,0,0,0-6.38,1.2C908,433,918.8,427,922.11,420.11a21.29,21.29,0,0,0-2.32,1.55c0-4,7.74-6.72,10.07-10.26a5.18,5.18,0,0,1-2.31,7c2-5.8,14.35-13.86,18-15-1-1.78,6.75-7.22,9.39-9.13-.06,2,.34,4.24,0,6.3,2.6-5.37,5.68-10.6,7.54-16.28-.13,1.2,0,2.5-.19,3.74.59-5.1,4.68-9.82,6.81-14.48,0,1.6.08,3.31-.08,4.91,0-8.39,1.42-12.48,4.72-20-.07,1.77.07,3.58-.07,5.36.9-4.94.55-13.75,4-17.17"/><path class="cls-2" d="M271.5,496.73c0,1.33-.19,2.16.61,3.26,5.83-2.05,11.61-7,16.65-10.41.16,3.87.12,7.77,0,11.64-.55-5.67,8.5-18,13.95-19.16-.25,2.12.33,4.5.14,6.64,5.16-1.44,7.72-9.18,12.52-10.44.21,3.61.14,7.27.08,10.9,1.3-2.94.19-6.41,1.46-9.59,2.51-6.3,12.7-12,19-13.52.34,2.42.07,5.5.46,7.65,3.33-2.67,6.23-6.13,9.75-8.42-.29,1.54.37,4,.21,5.18,6.5-6,12.88-14.73,20.27-19a52,52,0,0,1-.29,14.47c3-3,5.88-6.46,9.24-8.88-.08,1.25.92,3.41.79,4.84,4.24.65,12.87-13.88,13.43-17.36a16.08,16.08,0,0,1,1,2.78c5.89-.17,14-7,19.35-9.8.24,1.29,1.77,3.19,1.65,4.85,3.75-2.33,6.47-6.4,10.28-8.27-1.56,9,10.74-.68,14-.77a19.77,19.77,0,0,1,.07,2.18c3.51,1,6-1.94,8.2-4.76.26.7,1.54,1.9,1.85,2.72,5.11-1.63,4.48-9.64,9.3-11.39,1,2.84.66,6.22.7,9.29,3.23-.59,4.33-4.21,4.61-7.28"/><path class="cls-2" d="M510.9,386.7a18.71,18.71,0,0,0,0-3.09c-3.3,5.31-7.79,12.64-11.92,16.37-.52-7.6,12.21-16.69,18.59-19.52-.27,1.71.39,4.32.34,5.62,3-3.47,6.22-7.46,7.76-11.8-.07,2.85-.42,6,.53,8.46a51.88,51.88,0,0,0,10.34-13.35c.64,2.63.38,5.95.43,8.83,2-5.44,7.64-18.1,12.55-20.86.17,3.28.1,6.61.08,9.9.18-3.35.63-7.09,2.77-9.81-.28,1.48.13,3.07,0,4.51,3.53,0,8.34-6.94,11.35-8.81,9.43-5.86,30.15-17,41.42-16,.38,2.7,0,4.31-1.86,5.48a14,14,0,0,1-.28-5.3"/><path class="cls-2" d="M866.33,203.31c2.72-7.63,10.19-13.25,13.17-20.85,1.65-4.2,1.81-14.54,6.87-15.14,6.12,14.42,14.81,27.56,21.11,41.91,3.19,7.25,5.87,10.47,10.64,16.36,2.89,3.56,2.4,4.88,3.55,9.17,2.65,9.9,12.85,17.2,14.64,27.19,0,.81-.47.83-1.29.05"/><path class="cls-2" d="M891,150c1.63-3.76-.68-9.67.65-14,1.64-5.31,5.56-6.38,9-10.17,6.83-7.57-1-11,.37-19.86"/><path class="cls-2" d="M849.66,117.29c6.35,1.64.81,17.18,2,21.85,1,4.34,4.55,5.73,4.71,10.83s-3,8,2,10.66"/><path class="cls-2" d="M831,134.63c-.36-8,6.39-14.06,8.37-4,.92,4.67-.16,9.41,1.63,14"/><path class="cls-2" d="M875.67,92c1.31,3.9,4.54.35,7.25,2.77,1.63,1.45,1.79,7.91,1.47,10-1.37,9.15-4.16,6.93.62,14.54"/><path class="cls-2" d="M877.67,70.61c.34-2.9,2.38-5.19,5.24-5.25.15,3.22,0,6.71.31,9.82,1.08-.21,2.63.41,3.68.2.64,4.77,3.49,7.21,5.44,10.57"/><path class="cls-2" d="M901.68,71.94c-.61,1.41-2.39,4.67-2,6.07.78,3.17,3.93,1.28,4.66,3.17,1.63,4.2-2,8.64-4.46,11.34,1.08-.25,2.65.3,3.76.2.1,1.51.5,3.76.09,5.23"/><path class="cls-2" d="M897.68,181.31c-2.35-3.71,2.83-6.48,6-8,3.06,8.28-6.49,16.66,3.29,20.64"/><path class="cls-2" d="M935,168.64c1.69,3.84.61,10.64.08,15.2a6.33,6.33,0,0,1,1.66.37c.59,4.49-2.25,13.74,4.84,13.2,1.27,5.13-2.36,6.86-5.18,9.76,1.77,1.61,1.17,3.05,1.27,5.48"/><path class="cls-2" d="M960.36,172.64c1.5,4.56.94,13.74,7.93,12.05a8.34,8.34,0,0,1-3.23,8.78c2.92,1.88,6.21,1.41,8.49,4.48,1.91,2.56,1,6.73,2.25,9.42,1.8,3.92,4.11,1.35,3.3,7.11-.54,3.81-6.94,5.75-.07,8.84"/><path class="cls-2" d="M963,266c-.53-4.2,11.47-12,15.3-11.88-1.53,1.54-1.18,3-1.81,4.45,4.66.26,10.28,1,14.47-1.17-3.19,4.4-19.41,9.67-26,8.6"/><path class="cls-2" d="M929,214.65c3.52,3,4.56,8.3,7.06,12.24-.14-3,0-6.89-1.81-9.94a16,16,0,0,0,2.67,5.42,18.75,18.75,0,0,0-2.47-9.43c-.14,2.55-.11,7.87-.12,9.22,0-3.77-1-7.36-.66-11.19a56.8,56.8,0,0,1,.06,5.84,14.3,14.3,0,0,1-2.06-4.16"/><path class="cls-2" d="M835,100.62a14.12,14.12,0,0,0,0,1.84c-.5-4.16,2.66-10.38,5.2-13.64.53,3.43,1.34,6.94,2.17,10.22-.83-5.53,2.51-13.94,4.8-19.07a27.22,27.22,0,0,1,1.27,2.62c3.08-2.13,3.89-6.7,6.76-9.16.47,2.07,1.9,2.74,3,3.86a13.87,13.87,0,0,1,2.78-6"/><path class="cls-2" d="M931.69,96.62c9.08-13.58,7.29,2,15.74-1.22.8-.31,3.72-7.33,3.63-8.15-.15-1.33-3.44-3.37-3.95-5.2,6.5,0,4.74-5.76,1.9-8.25-3.32-2.91-9.77-3.1-13.93-4.27.71,9.39-7.73,8.57-8.06.41"/><path class="cls-2" d="M864.33,146c0-6-1-13.26,2.07-18.58-.18,6.1,0,12.21-.11,18.31a20.23,20.23,0,0,1,2.61-6.15c.23,4.17.1,10.85.1,13.94V158"/><path class="cls-2" d="M1007.71,392c.54,5.77,11.39,11,16.75,12.69a115.57,115.57,0,0,1,24.1,10.69c14.72,8.53,29.6,15.57,44.36,24,28.81,16.43,60.08,29.24,90.18,43.18,35.07,16.23,66.15,39.09,102.69,52.16"/><path class="cls-2" d="M975.7,337.35c.4,6.41,14.23,10.35,19.2,13.54,5.47,3.5,11.09,6.88,16.92,10.75,18.64,12.35,39.25,18.82,56,33.53,23.35,20.44,53.18,31.89,79.94,46.37,16.21,8.77,33.1,18.21,49.08,27.82,9.61,5.77,21,9.14,31.46,14,6.5,3,12.83,7,19.43,8.7"/><path class="cls-2" d="M1013.71,408c3.89,5.31,14,10.79,19.82,14.15,7.75,4.46,16.21,5.12,24.21,8,11.51,4.1,21.83,14.54,31.66,21.19,26.3,17.78,61.72,22.77,89.7,39.52,16.28,9.75,34.09,19.82,51.41,26a59.24,59.24,0,0,1,12.6,6.65c5.94,3.83,13.16,5.89,19.82,9,8.31,3.83,17.29,7.63,24.19,12.87"/><path class="cls-2" d="M990.37,357.36c3,10,28.92,17.68,38,22.71,14.07,7.78,24.66,16.7,37.07,27.85,27.6,24.78,65.55,29.3,97,45.51,15.11,7.79,28.91,19.59,45,26.77a265,265,0,0,0,27.44,10.38c9.38,3,18.34,8.19,27.58,10.82"/><path class="cls-2" d="M973,333.35c6.16,1.69,12,9.43,18,12.5,7.31,3.74,15.22,4.56,22.09,8.34,11.89,6.54,23.6,14.13,35.84,20.84,26.91,14.73,49.83,32.33,78.6,43.14,11.48,4.31,22,11.48,33.53,16.36,13,5.48,24.85,12.34,37.67,18.19,10.36,4.72,20.71,8.93,31,13.85,5.06,2.43,10.39,3.55,15.56,5.45s10.21,5.68,15.83,6.7"/><path class="cls-2" d="M1005,382c4.15-.46,6.18,1.68,9.35,3.67,6.15,3.86,12.76,6.46,19.22,9.83s11.47,9.16,17.82,13.21c7,4.46,15.11,6.89,22.28,11.32,5.52,3.41,11.32,6.81,16.72,10.13,24.93,15.35,54.85,20.44,80.66,34.33,32.38,17.43,66.2,32,100,47.55"/><path class="cls-2" d="M1037.72,438.05c3.14,4.76,13.14,8.2,18.13,11.48,6.53,4.28,14.34,7,21.71,9.69,12.37,4.5,29.58,9.79,39.51,18.17"/><path class="cls-2" d="M1139.08,490.73a325.72,325.72,0,0,0,62,28"/><path class="cls-2" d="M1126.41,450.72c5.11-.87,9,4,13.37,5.7,4.67,1.85,8.67,2.73,13.28,5,13.13,6.46,27.17,12.21,40.68,18.44,6.41,2.95,11.45,8,17.23,11.57,6.21,3.84,12.36,5.72,19.2,7.75,16.2,4.81,31.11,12.21,45.61,20.89"/><path class="cls-2" d="M1134.41,466.72c7,.76,12.94,5.42,18.82,8.54,6.13,3.25,13.17,5.19,19.86,7.3,6.43,2,9.35,3,14.5,7.68a45.8,45.8,0,0,0,15.4,9.35c6.25,2.39,12.41,6,18.63,8.67a93,93,0,0,0,12.85,4.32c6.18,1.67,6.1,2.44,10.1,6.16,12.81,11.9,28.22,12.56,43.22,19.33"/><path class="cls-2" d="M1145.75,480.72c-.92,2.07,56.14,30.93,63.89,34.55,11.85,5.54,24,9.2,36.52,13.62,9.83,3.48,19.47,10.42,28.29,15.85"/><path class="cls-2" d="M1123.74,422c7.3,1.89,13.78,7.4,20.19,11.34,6.65,4.08,13.69,6.06,20.64,9,11.34,4.77,21.28,11.58,32.79,16.21,12.66,5.1,23.27,13.2,35.79,18.19,8.59,3.41,21,5,28.63,10"/><path class="cls-2" d="M605.59,576.08c13.46-2.45,26.49-5.88,40.14-7.66,11.18-1.46,24.63-6,35.95-5a54.16,54.16,0,0,1-27.41,5.18c-2-12,30.45-21.72,41.3-23.28-4.11.72-8,2.28-11.92,3.64,12.39-6.86,29-11.53,42.9-15.51-9.93-.75-20.27,3.15-30.08,4.53a217.37,217.37,0,0,1,41.78-16.59c9.26-2.66,35.33-9.65,38.14-20.64-9.33-.84-21.75,6.26-30.79,8.6.86-8,30.86-9.86,37.52-15.74-1.26,1-3.42,1.51-4.77,2.35-1.91-7.93,18.72-22.28,25.36-24.58-2.41,8.35-10.7,10.86-14.27,17.63,13.5-7.31,27.57-21.36,37.44-33.32-2.9,5.19-6.06,10.8-10.89,14.43,4.64-9.38,14.17-17.05,20.38-25.52,4.56-6.22,11.87-15.95,19.8-17.13.2,7.41-14.42,15.06-19.51,19.93,5.08-12.58,19.91-15.14,27.42-25.18-.67,1.16-1,2.3-1.68,3.5,4.28-5.91,9.63-11,14.16-16.75,3.38-4.27,6.64-11.08,11.75-13.25.32,7.33-5,13.9-8.86,19.53,11-3.64,22.78-12.46,32.25-19.08a42.87,42.87,0,0,1-8.88,7.22c7.29-12,21.53-18,28.47-29.32C926.07,377,922,382.34,917.1,386c5.32-8.47,15.37-13.26,20.28-21.73a28.7,28.7,0,0,0-4,6.31c8.54-2.07,15.43-12.07,19.11-19.61-2.32,3.88-5.86,7.24-6.18,11.87C953,358.73,961,346.67,963,338.68"/><path class="cls-2" d="M705.62,402c2.36,2.54,2.12,6.37,2.76,9.93,7.61,1,9.14-2.38,10.58,5.75.79,4.45,0,9.87,0,14.32"/><path class="cls-2" d="M768.31,531.41c0,4.41,0,8.84,0,13.25,0-4.42,3.23-7.52,4.05-11.79-.05,4.26.5,8.79-.75,12.81,2.82-5.94,7.5-10.75,10.17-16.77,0,7.73-2.18,22-6.08,28.16.46-7.3,9.47-14.13,12.5-20.4.45,6.8.14,13.75.14,20.59.09-.82.09-1.7.13-2.51,1.45,2.11,1.44,5.52,1.14,8.41.27-1.88,1.39-2.73,2.07-4.41"/><path class="cls-2" d="M811,506.73c-.49,5-1.7,10.27-1.31,15.29,5.67-.58,6.45-7.65,8.81-11.78-1.68,5.54-4.27,11.06-6.38,16.51-1.84-6,3.55-12.18,4.29-18.07,4.1,3.67,1.57,12.86,2.12,18.13,4.09-1.67,7.34-7.68,8.55-12-.14,4.4-.07,8.81-.07,13.22"/><path class="cls-2" d="M880.34,449.38c-3.16,3.59-5.82,16-5.66,20.57,4.72-1.78,9.51-9.75,11.57-14.38.42,9.58-.5,17.7-5.7,26a12,12,0,0,1,3.74-7.33c.33,5.08.18,10.48-1.95,15.19"/><path class="cls-2" d="M977.7,363.36c0,7.3-2.06,18.36.84,25.23,2-6.13,4.27-13,7.71-18.43.94,8.82-3.59,16.4-3.21,24.94a20.72,20.72,0,0,1,3.24-12.93c.19,5.5,1.66,13.28-2.56,17.55a18.77,18.77,0,0,1,3.38-8.84c-.16,6.38-.07,12.78-.07,19.16"/><path class="cls-2" d="M826.32,542.08c6.5-4.05,9.31,15,9.29,19.12,2.1-5.43,2.91-12.14,5.4-17.05,1.68,4.3,1.4,12.52,0,17a14.64,14.64,0,0,1,3.43-5.75c2.12,3.64,1,8.91,1.29,13.25,1-.72,3.25-1,4.5-2.33,1.37,2.62.71,6.54.74,9.75"/><path class="cls-2" d="M884.34,544.74a9.63,9.63,0,0,0-1.4,6.43c-.31-2.15.51-4.27,1.13-6.13a9.77,9.77,0,0,1,3.6,5"/><path class="cls-2" d="M872.34,548.08c3.28,1.32,14.14,2.32,17.2-1,.4,4.2-1.22,10.14-3.78,13.26-.5-4.7.06-10.7,2.59-14.41,1.7,3.25.71,9.92.61,14,.33-1.84,1.51-3,2.1-4.47a9.63,9.63,0,0,1,.61,5.23"/><path class="cls-2" d="M903.68,536.74c10.78.82,22.21-6.52,29.62-13.92-.08,4.63-5.44,7.07-9.39,7.18,14.38-11.49,28.24-17.64,39.66-31.63.84,4.92-.52,8.82-3.7,12.59,4.11-7,12.31-11.74,16-18.19-1.78,1.18-2.32,1.26-3.66,3,3.77-6.32,8.4-13.55,12.79-19.46-.8,2.2-1.8,4.6-2.47,6.63,5.22-5.41,9.64-16.88,10.52-24-.25,2.88-.91,5.76-.31,8.43,8.17-1.14,10.16-19.22,12.15-25.9-.07,2.18-.28,4.61-.51,6.89-.25-7.07,2.46-15.62,4.69-22.1a75.07,75.07,0,0,1-.76,12.72c1.55-6.66,3.21-15.31,6.73-21"/><path class="cls-2" d="M873.67,414c-1.09-.47.33,3.86,2,5.38,6.2,5.58,22.91-4.37,29-6.17-8.38,2.23-15.71,7.21-23.94,9.6,4.67-.91,9.79-4,14.35-3.89,0,6.73-9.3,10.3-11.32,16.41a11.88,11.88,0,0,0,6.52-2.49c-.09,3.88-4.36,5.44-6.59,7.71,4.69.35,10.34-.89,14.63.79"/><path class="cls-2" d="M881,350c-.19-1.43.13-2.33-1.29-3.21-2.64,2.71-5.93,6.69-5.9,10.41,5.18-2.42,10.25-6.19,15.32-9-4.17,2.44-8.53,4.93-12.56,7.43,4.14-.07,8.39-.12,12.38-1.38-.47.44-1.79,3-2.77,3.83.77.21,2.28,1.07,3.1,1.22-4.43,2.69-10.62,4.63-13.7,8.77,3.51,1,26.76,1.29,10.09,6"/><path class="cls-4" d="M.34,471.06c66.64,23.84,139.77-2.83,210.55-2.95"/></g></g></svg>