<svg xmlns="http://www.w3.org/2000/svg" viewBox="0 0 57.75 87.6"><defs><style>.cls-1{fill:none;stroke:#000;stroke-miterlimit:10;stroke-width:2px;}</style></defs><g id="Слой_2" data-name="Слой 2"><g id="Слой_1-2" data-name="Слой 1"><path class="cls-1" d="M1,15.92,10.3,76.1c.48,3.07,1.11,6.43,3.5,8.4s5.43,2,8.35,2l26.27.13c2.33,0,4.94-.09,6.54-1.78,1.44-1.52,1.57-3.81,1.62-5.9q.66-30.77-1.32-61.51c-.23-3.55-.55-7.31-2.62-10.2-3.08-4.32-9-5.38-14.25-5.81-10.77-.87-21.84-.53-32,3a7.33,7.33,0,0,0-4,2.6,7.81,7.81,0,0,0-.73,4.53,708.92,708.92,0,0,0,7,74.8"/><path class="cls-1" d="M15.75,31.13c.81,2.43,1.89,5,4.16,6.21a10.61,10.61,0,0,0,5.15.76l16.62-.34a7.54,7.54,0,0,0,4.1-.87c2.36-1.58,2.18-5,1.74-7.83L44.35,8.79A2,2,0,0,0,44.09,8c-.59-.86-1.89-.35-2.91-.14-3.37.68-6-3.07-9.39-3.72-1.88-.36-3.8.28-5.61.92-4.09,1.44-13.88,2.76-14.53,7.39C10.75,18.74,15.75,25.08,15.75,31.13Z"/><path class="cls-1" d="M14.87,59.08a3.88,3.88,0,0,0,2.19-1.18,7.79,7.79,0,0,1,4.11-1.6,1.52,1.52,0,0,0,1-.31,1.21,1.21,0,0,0,.26-.77c.3-4.15-5.07-7.77-8.81-5.7C10.76,51.12,11.25,59.06,14.87,59.08Z"/><path class="cls-1" d="M25.45,49.61a22.78,22.78,0,0,0,.25,4.65A2.58,2.58,0,0,0,26.46,56a2.73,2.73,0,0,0,1.89.32l5.15-.39a12,12,0,0,0,.12-5.33,5,5,0,0,0-3.5-3.73c-2-.42-3.91.78-5.53,2"/><path class="cls-1" d="M47.18,56.85a.72.72,0,0,0,.9-.85l0-3.8a2.46,2.46,0,0,0-.16-1.1c-1.46-3-9.5-2.73-10.75.47C34.6,58.19,43.65,56.87,47.18,56.85Z"/><path class="cls-1" d="M15.72,65a28.57,28.57,0,0,0,1,7.41,1.12,1.12,0,0,0,.32.61,1.13,1.13,0,0,0,.7.17,29,29,0,0,0,5.41-.44c.69-2.21.92-4.73-.24-6.73s-4.11-3-5.9-1.56"/><path class="cls-1" d="M27.35,63.8,28,71.23a1,1,0,0,0,1.18,1.09l4.95-.08c0-1.41.82-2.73.82-4.13a3.84,3.84,0,0,0-5.7-3.36"/><path class="cls-1" d="M37.63,64.71a39.92,39.92,0,0,1,.2,5.31L45,70.7a1.54,1.54,0,0,0,1.38-.32,1.52,1.52,0,0,0,.22-1V66.17a1.47,1.47,0,0,0-.22-.93,1.45,1.45,0,0,0-1-.39,40.73,40.73,0,0,0-5.7-.11"/><path class="cls-1" d="M16.85,79.55l.43,3.26,4.75.44A1.18,1.18,0,0,0,23,83a1.13,1.13,0,0,0,.23-.68,16.89,16.89,0,0,0-.13-4.3,1.9,1.9,0,0,0-.58-1.27,2,2,0,0,0-1.22-.27L17,76.5a1,1,0,0,0-.87.28,1,1,0,0,0-.06.76l.49,2.61"/><path class="cls-1" d="M27.72,77.09l.7,4.4a4,4,0,0,0,1,2.48,4,4,0,0,0,2.71.67l4.71,0,.07-4.87a2.79,2.79,0,0,0-.35-1.72,2.46,2.46,0,0,0-1.26-.77,10.44,10.44,0,0,0-6.52,0"/><path class="cls-1" d="M39.82,77.23A3.8,3.8,0,0,0,40.4,81a7,7,0,0,0,3.32,2.2,3.58,3.58,0,0,0,3.37-.15c.93-.74,1-2.1,1.06-3.29A4.06,4.06,0,0,0,48,78.22a4,4,0,0,0-1.1-1.38c-1.41-1.3-3.24-2.63-5.08-2.08a3,3,0,0,0-2,2.37"/></g></g></svg>