<svg xmlns="http://www.w3.org/2000/svg" viewBox="0 0 326.57 301.34"><defs><style>.cls-1,.cls-2{fill:none;stroke-miterlimit:10;stroke-width:2px;}.cls-1{stroke:#fce300;}.cls-2{stroke:#000;}</style></defs><title>Ресурс 3</title><g id="Слой_2" data-name="Слой 2"><g id="Слой_1-2" data-name="Слой 1"><path class="cls-1" d="M119.07,300.45C55.17,267.66,5.71,189.68,1.3,114.78.65,103.82.9,92.85,3.55,83c8.86-33.07,41.06-46.08,70.26-55.88C99.73,18.37,126,9.61,154.17,8.93c23-.56,46.91,4.35,69.86,14.34A157.52,157.52,0,0,1,253.76,40c42.29,30.67,68.83,96.94,48.18,139.6-8.41,17.38-23.07,29.05-38.14,39a325.69,325.69,0,0,1-144.54,51.48c-8.16.88-16.55,1.46-25-.78-22.42-5.92-39.94-29.6-53.87-52.11-14.46-23.34-28.22-49.06-29.65-75.34C8.22,95.88,43.1,66.73,76.26,47c25.47-15.18,52.34-29,82.51-32.18,42.68-4.5,90.32,13.86,127,48.94,13.66,13,26,28.51,34.13,46.16,3.75,8.11,6.65,17.15,5.35,25.23-.81,5-3.18,9.24-5.51,13.34-15.84,27.94-32,56.28-55.09,76.44-16,14-35,23.64-53.73,33.18s-38,19.29-58.93,24A177.51,177.51,0,0,1,121.73,286c-13.71.69-28.85-.13-41.18-10.15-7.8-6.33-13.46-15.56-18.88-24.52-15.89-26.23-32-52.87-41.8-81.78S7.1,108.64,17.78,84.28c10-22.71,30.1-36,49.48-48.33,13.62-8.69,27.38-17.45,42.87-22.26,10.08-3.13,20.74-4.54,31.36-5.95l40.74-5.39C194.9.68,208.61-.78,221.09,6.65c14.56,8.67,23.14,26.72,34.29,40.91,15.14,19.26,36.26,32.65,48.24,54.3C323.92,138.54,309,181,287.78,208.6c-35.49,46.17-87.68,74.79-145.28,79.66-20.43,1.72-43.32-.17-61.61-15.62-9.9-8.36-17.44-19.88-24.77-31.16-18.88-29-38.94-62.58-35.06-94.42,1.57-12.94,6.61-27.3-1.35-38.89,18.09-26,36.47-52.25,60.77-70.77s55.63-28.67,87.63-19.7c11.32,3.17,22.71,8.68,33.88,8.69,8.17,0,15.68-3,23.76-3.41C246,21.88,267.35,37,282,56.37s24,42.56,33,65.28c2.5,6.3,5,12.73,5.77,19.25,1,8.6-1.28,16.59-4.1,23.89-12.44,32.31-36.85,56.65-67.05,66.86"/><path class="cls-2" d="M252.83,138.3l21.88.24c4.36,5.13,1.81,13.4-3.06,18s-11.42,7-17,10.77-10.59,10-9.37,16.58c1.11,6,7.15,10.11,13.2,11s12.15-.83,18-2.5"/><line class="cls-2" x1="248.39" y1="160.52" x2="272.77" y2="160.52"/><line class="cls-2" x1="235.09" y1="176.04" x2="259.48" y2="176.04"/><path class="cls-2" d="M68.09,91.28c0,37.78-4.43,74.08-4.43,112.31"/><path class="cls-2" d="M146.41,85.37c-14,3.92-29.36-4.68-38.5,8.83-9,13.31-3.61,39.25-10.08,54.33,6.72-15.66,24.64-14,35.31-4.38,8.72,7.9,11.62,23.5,10.31,35.79-3.3,31.17-40.2,30.49-59.1,13.3"/><path class="cls-2" d="M187.88,97.43c-27.18-4.59-32.53,64.73-32.6,83.48-.06,14,.71,25.17,20,19.79,8.8-2.46,23.91-14.29,29.6-21,16.84-19.81,17.84-58.33,4.58-79.69s-35.66-11.11-46,9.53"/></g></g></svg>