<svg xmlns="http://www.w3.org/2000/svg" viewBox="0 0 371.92 277.32"><defs><style>.cls-1,.cls-2{fill:none;stroke-miterlimit:10;stroke-width:2px;}.cls-1{stroke:#000;}.cls-2{stroke:#fce300;}</style></defs><title>Ресурс 1</title><g id="Слой_2" data-name="Слой 2"><g id="Слой_1-2" data-name="Слой 1"><path class="cls-1" d="M60.74,209.05c-2.94-41.71,2.54-91-8.72-131C50.1,120.72,57.65,166.19,60.74,209.05Z"/><path class="cls-1" d="M230.42,72.82c19-5.28,38.91,9.64,46.24,28,12.76,31.89.25,123.24-52.3,86.7C194.65,166.82,190.46,83.91,230.42,72.82Z"/><path class="cls-1" d="M301,134.13l21.88.25c4.36,5.13,1.81,13.39-3.05,18s-11.42,7-17,10.77-10.59,10-9.37,16.58c1.11,6,7.15,10.11,13.2,11s12.15-.83,18-2.5"/><line class="cls-1" x1="296.54" y1="156.36" x2="320.92" y2="156.36"/><line class="cls-1" x1="283.24" y1="171.87" x2="307.62" y2="171.87"/><path class="cls-2" d="M47.6,261.61C-3.46,204.75-13.86,115,22.86,48c5.37-9.81,11.72-19.23,20.08-26.66C70.86-3.43,113-.44,150,4c32.9,4,66.2,8,97.12,19.93a200.7,200.7,0,0,1,67.75,43.5,156,156,0,0,1,22.93,27.76C366.64,140.65,358.7,210,312.69,237.9c-18.75,11.36-41.1,15-62.93,16.91A487.49,487.49,0,0,1,64.64,235.33c-9.34-2.86-18.76-6.09-26.69-11.79-21-15.11-26.87-43.46-29.5-69.2-2.73-26.69-3.39-55.16,9.62-78.62C40.83,34.66,94.78,24.83,141.66,22.39c36-1.87,72.78-1.95,107.23,8.69C297.62,46.13,339.07,83.24,359.4,130c7.56,17.41,12.34,36.31,11.4,55.26-.43,8.71-2.3,17.86-8.18,24.29-3.66,4-8.56,6.62-13.36,9.15-32.64,17.24-65.85,34.68-102,41.94-25.13,5-51,5-76.6,5-25.83-.05-51.86-.12-77.17-5.29A253.15,253.15,0,0,1,58.5,250.23c-15.24-5.48-31.19-12.92-39-27.1-4.94-9-6-19.49-6.87-29.69-2.69-29.84-5.36-60.13,0-89.61s19.9-58.58,45-75C81,13.53,110.16,11,138,8.82c19.57-1.5,39.33-3,58.78-.29,12.65,1.75,25,5.26,37.28,8.76l47.12,13.42c14.66,4.17,30.32,9,39.72,21,11,14,10.28,33.49,14.5,50.77,5.73,23.46,21.19,44.47,22.18,68.6,1.68,40.89-38,71.15-76.29,85.69a304.89,304.89,0,0,1-201.55,4.67c-23.1-7.57-46.85-19.38-58.1-40.93-6.1-11.66-7.89-25-9.58-38.07-4.36-33.63-7.52-71.67,14.32-97.6C35.26,74.29,48.68,64,46.47,50.44c34-14.53,68.47-29.19,105.06-34.48s76.15-.2,105.85,21.8c10.51,7.79,19.81,17.64,31.91,22.6,8.84,3.63,18.62,4.39,27.63,7.6,22.53,8,37.3,30.66,42.49,54s2.41,47.64-.4,71.38c-.78,6.58-1.59,13.29-4.41,19.28-3.72,7.9-10.58,13.85-17.67,18.94a158.19,158.19,0,0,1-109.69,28.3"/><path class="cls-1" d="M115.46,82.73c7.8-8.1,16.16-16.54,27-19.49s24.8,2.09,27.23,13c2.08,9.35-4.57,18.18-10.8,25.47l-39.18,45.86c11.41-4,25.53-7.44,34.43.7a23.38,23.38,0,0,1,5.77,9.11c5.91,15.66-.07,34.94-13.82,44.58s-34,8.74-46.87-2.06"/></g></g></svg>