<svg xmlns="http://www.w3.org/2000/svg" viewBox="0 0 374.49 273.85"><defs><style>.cls-1,.cls-2{fill:none;stroke-miterlimit:10;stroke-width:2px;}.cls-1{stroke:#000;}.cls-2{stroke:#fce300;}</style></defs><title>Ресурс 2</title><g id="Слой_2" data-name="Слой 2"><g id="Слой_1-2" data-name="Слой 1"><path class="cls-1" d="M85.46,57.81Q87,131,88.63,204.12"/><path class="cls-1" d="M210.75,143.62c.24,16.79,1.27,35.5,13.42,47.09,4.74,4.52,11.39,7.58,17.82,6.33,5-1,9.2-4.36,12.67-8.1,22.4-24.1,20.78-61.5,15-93.89-1.92-10.72-4.48-22-12.14-29.79C217.5,24.83,210.5,126.51,210.75,143.62Z"/><path class="cls-2" d="M319,8.57c54.44,53.64,70.28,142.55,37.71,211.69-4.76,10.12-10.53,19.91-18.42,27.83-26.35,26.45-68.55,26-105.82,23.83-33.08-1.94-66.57-4-98.16-14A200.8,200.8,0,0,1,64,218.65a155.11,155.11,0,0,1-24.57-26.32C7.88,148.74,11.58,79,55.81,48.38c18-12.48,40.11-17.46,61.78-20.71a487.31,487.31,0,0,1,186,8.17c9.49,2.29,19.08,4.93,27.35,10.14,21.89,13.8,29.47,41.74,33.66,67.28,4.35,26.47,6.74,54.84-4.82,79.06-20.21,42.36-73.46,55.46-120.1,60.75-35.83,4.06-72.54,6.38-107.57-2.14-49.55-12.06-93.18-46.57-116.32-92C7.15,142,1.23,123.42,1,104.45c-.11-8.72,1.2-18,6.68-24.75,3.41-4.22,8.15-7.12,12.78-9.94C52,50.57,84.09,31.14,119.77,21.69c24.78-6.56,50.57-8.1,76.16-9.61,25.78-1.53,51.77-3,77.34.58a252.42,252.42,0,0,1,35.5,7.93c15.55,4.54,31.92,11,40.58,24.68,5.48,8.64,7.13,19.09,8.67,29.21,4.5,29.63,9,59.69,5.43,89.45s-16.29,59.68-40.31,77.6c-22.39,16.69-51.36,21-79,24.86-19.45,2.69-39.08,5.39-58.66,3.88-12.74-1-25.26-3.74-37.74-6.48L99.86,253.27C85,250,69.06,246.14,58.94,234.74c-11.81-13.3-12.3-32.81-17.56-49.8-7.15-23.06-23.87-43.1-26.33-67.12C10.89,77.11,48.69,44.49,86,27.64A305,305,0,0,1,286.88,10.7C310.4,16.86,334.82,27.2,347.37,48c6.8,11.27,9.39,24.5,11.88,37.42,6.4,33.3,11.86,71.07-8.35,98.29-8.22,11.06-21,22.1-18,35.55-33,16.57-66.56,33.31-102.75,40.81s-76,4.84-107-15.31c-11-7.13-20.84-16.4-33.22-20.62-9.06-3.08-18.86-3.24-28.05-5.89-23-6.65-39.09-28.34-45.7-51.32s-5.3-47.4-4-71.28c.38-6.61.78-13.35,3.23-19.51,3.23-8.11,9.72-14.46,16.49-20A158.16,158.16,0,0,1,139.76,21.26"/><path class="cls-1" d="M313,126.18l21.88.25c4.36,5.13,1.81,13.39-3.06,18s-11.42,7-17,10.76-10.59,10-9.37,16.58c1.11,6,7.15,10.12,13.2,11s12.15-.83,18-2.5"/><line class="cls-1" x1="308.6" y1="148.41" x2="332.98" y2="148.41"/><line class="cls-1" x1="295.3" y1="163.92" x2="319.69" y2="163.92"/><path class="cls-1" d="M121.68,58.41c0,18.74.47,37.66-1.15,56.15-1,11.35-9,35.08-2.31,43.25,3.61,4.4,22,6.64,27.47,7,10.7.74,16.56-1.33,21.91-10.79,7.15-12.63,4.32-39.81,4.32-50.54,0,35.13-3.47,66.24-5.91,99.71"/></g></g></svg>