<svg xmlns="http://www.w3.org/2000/svg" viewBox="0 0 54.28 76.8"><defs><style>.cls-1,.cls-2{fill:none;stroke:#000;stroke-miterlimit:10;}.cls-2{stroke-width:0.75px;}</style></defs><g id="Слой_2" data-name="Слой 2"><g id="Слой_1-2" data-name="Слой 1"><path class="cls-1" d="M5.69,4.56c0,9,.42,16,4.3,20.33C18.75,34.64,31.23,38,42.23,46.79c8.44,6.75,6.93,16.86,6.08,24.72"/><path class="cls-1" d="M7.46,71.5c-1.67-5.21-1.15-9.87,0-15.17,3.69-17.07,19.88-13.48,33.42-27,6.08-6.05,4.7-17,3.85-24.82"/><path class="cls-2" d="M2.43,1.68a2.68,2.68,0,0,0,1,3.73A4.18,4.18,0,0,0,8,5.09c.61-.53,1-1.26,1.76-1.62a4.85,4.85,0,0,1,2.7-.14Q25.71,5.16,39.13,6a13,13,0,0,0,4.46-.26C46,5,47.46,3,48.75,1.2L.38.38l0,4.71c.84.67,2.27.34,3.18-.27A14.08,14.08,0,0,1,6.26,3a7.72,7.72,0,0,1,3.51-.18l7.43.76a74.2,74.2,0,0,0,12.53.58C35.48,3.74,41.31,2,46.86,3.3,45.52,3.19,45,4.69,44.32,5.66c-1.7,2.34-6,1.87-8.91.66S29.3,3.39,26.16,4.2a19.67,19.67,0,0,1-3.29,1,10.25,10.25,0,0,1-3.34-.6c-4.62-1.19-9.6-.18-14.28.84L19,3.23A95.33,95.33,0,0,0,3.46,1.28,43.25,43.25,0,0,1,18.57,3.41,10.54,10.54,0,0,0,23,4.27c2-.23,3.42-1.59,5.26-2.16C33,.66,38.08,4.59,42.86,3.43"/><path class="cls-2" d="M7.87,72.21c3.27-1.26,6.86.95,10.42,1.42,6.85.91,12.93-4.72,19.85-4.33,4.12.23,8.14,2.6,12.09,1.58a6.31,6.31,0,0,1,2.63-.45c.89.16,1.47,1.28.68,1.65-7.1-1.15-14.06,2-21.18,3.11-6.71,1-13.6.08-20.33-.83C9,73.94,5.39,73.21,4.21,70.81a86,86,0,0,0,28-.21,4.31,4.31,0,0,1-3.08,2q11.39,0,22.77.2c-.87,2.23-4.32,3.47-6.87,2.47-.93-.37-1.71-1-2.63-1.35a11.76,11.76,0,0,0-3.67-.7,73.17,73.17,0,0,0-25.4,2.6,9.07,9.07,0,0,1-4.09.55c-1.37-.25-2.55-1.52-1.95-2.57a307.59,307.59,0,0,0,36.89.4,11.16,11.16,0,0,0,4.1-.73c1.19-.55,3-1.4,3.57-.39-.68-2.1-4.09-2.36-6.69-2.19l-11.08.73"/><path class="cls-2" d="M28.05,34c-2.53.56-4.79-1.59-5.52-3.68s-.72-4.43-2.22-6.22-5.49-2.23-6.35-.18a1.53,1.53,0,0,1-.46-2.46,12.71,12.71,0,0,1,5.68,3.91c1.4,1.74,2.18,3.82,3.84,5.4s4.77,2.47,6.68,1.1c1.25-1.47.17-3.65-1.66-4.61s-4.11-1-6.27-1.06A92.61,92.61,0,0,1,37.24,22.9c1,.77.38,2.26-.74,2.94s-2.55.88-3.72,1.49A8,8,0,0,0,29.55,31c-4.66,8.95-3.91,19.11-3.08,28.84.3,3.53.58,7.07.92,10.6a267.94,267.94,0,0,0-1.87-36.65c-.45-3.57-.86-6.64,2-9.59,3.33-3.37,15.8-7,13.49.72C32.61,24.23,27,26.06,28.05,34Z"/></g></g></svg>