<svg xmlns="http://www.w3.org/2000/svg" viewBox="0 0 69 69"><defs><style>.cls-1{fill:#fff;}.cls-2{fill:none;stroke:#fce300;stroke-miterlimit:10;}</style></defs><g id="Слой_2" data-name="Слой 2"><g id="Слой_1-2" class="circle-border" data-name="Слой 1"><circle class="cls-1" cx="34.5" cy="34.5" r="34"/><path d="M34.5,1A33.5,33.5,0,1,1,1,34.5,33.54,33.54,0,0,1,34.5,1m0-1A34.5,34.5,0,1,0,69,34.5,34.5,34.5,0,0,0,34.5,0Z"/><path class="cls-2" d="M13.71,35.58l8.82,10.25c2.92,3.4,5.88,6.84,7.85,10.87.91,1.86,2.05,4.16,4.12,4.21A28.59,28.59,0,0,0,28.1,52c-.85-.8-1.76-1.55-2.55-2.4a26.48,26.48,0,0,1-2.48-3.29l-8-11.78c.15,2.33,1.79,4.26,3.34,6l8,8.92a93.2,93.2,0,0,1,8.22,10.08c-3.19-1.38-5.54-4.13-7.78-6.79l-3-3.64c-3.65-4.35-7.36-8.82-9.28-14.15.26,2.87,2.08,5.33,3.83,7.62l10,13c1.93,2.52,5.11,5.32,7.82,3.67,1.51-.92,2-2.83,2.63-4.49,3-8,11.68-12.74,14.69-20.71.32,4.07-3.77,6.88-7,9.44A33.08,33.08,0,0,0,36.05,58.63c-.69,2-1.44,4.48-3.48,5.19,3.86-5,7.58-10,11.29-15.07l4.78-6.51a81.78,81.78,0,0,0,6.65-10.06c-1.12,3.21-3.18,6-5.21,8.72q-8,10.7-16,21.35c-1.41-1.78,0-4.35,1.37-6.15Q42.79,46.54,50.1,37"/><path class="cls-2" d="M13.71,14.58l8.82,10.25c2.92,3.4,5.88,6.84,7.85,10.87.91,1.86,2.05,4.16,4.12,4.21A28.59,28.59,0,0,0,28.1,31c-.85-.8-1.76-1.55-2.55-2.4a26.48,26.48,0,0,1-2.48-3.29l-8-11.78c.15,2.33,1.79,4.26,3.34,6l8,8.92a93.2,93.2,0,0,1,8.22,10.08c-3.19-1.38-5.54-4.13-7.78-6.79l-3-3.64c-3.65-4.35-7.36-8.82-9.28-14.15.26,2.87,2.08,5.33,3.83,7.62l10,13.05c1.93,2.52,5.11,5.32,7.82,3.67,1.51-.92,2-2.83,2.63-4.49,3-8,11.68-12.74,14.69-20.71.32,4.07-3.77,6.88-7,9.44A33.08,33.08,0,0,0,36.05,37.63c-.69,2-1.44,4.48-3.48,5.19,3.86-5,7.58-10,11.29-15.07l4.78-6.51a81.78,81.78,0,0,0,6.65-10.06c-1.12,3.21-3.18,6-5.21,8.72q-8,10.7-16,21.35c-1.41-1.78,0-4.35,1.37-6.15Q42.79,25.55,50.1,16"/></g></g></svg>