<svg xmlns="http://www.w3.org/2000/svg" viewBox="0 0 285.53 83.57"><defs><style>.cls-1{fill:none;stroke:#000;stroke-miterlimit:10;stroke-width:2px;}</style></defs><g id="Слой_2" data-name="Слой 2"><g id="Слой_1-2" data-name="Слой 1"><path class="cls-1" d="M19,6.7,18.8,31.32c0,2.88.08,6,2,8.18,2.24,2.48,6.31,2.55,9.25,1s5-4.44,6.66-7.32A64.77,64.77,0,0,0,45.55,2.59q-2.4,27-4.79,54c-.27,3.11-.58,6.33-2.08,9.07-3.09,5.66-10.14,7.6-16.43,9-4.74,1.06-9.76,2.1-14.35.54S-.39,68.43,1.51,64"/><path class="cls-1" d="M87.37,18.32c3-5-2-12.42-7.71-11.54-5.4.84-8.18,6.78-10,11.93L65.11,31.24c-2.35,6.54-4.74,13.24-4.83,20.2s2.55,14.34,8.36,18.18C76.48,74.8,88.69,70.81,92,62"/><path class="cls-1" d="M134,.73q-11.7,38.66-23.85,77.18c-.4-8.63,2.52-17,5.4-25.16L133.32,2.39c-2.45,12.53,1.48,25.33,5.37,37.49L149.4,73.4"/><path class="cls-1" d="M160.25.43l-2.12,11.5C157,18,155.88,24.46,157.8,30.38s8,11,14,9.55c6.55-1.54,9.37-9.12,11.12-15.61l4.44-16.4c-6.44,11.62,1.81,25.86,1.21,39.13-.23,5-1.73,9.81-3.25,14.55-1.37,4.25-2.83,8.6-5.74,12S172,79.16,167.71,77.8s-6.8-7.18-4-10.65"/><path class="cls-1" d="M209.29,12.18A626.75,626.75,0,0,0,214,74.92L212.33,8.58,240.6,3.71"/><path class="cls-1" d="M259,7.18l-.62,71.29C269.17,53.07,280,27.37,284.53.16l-.19,76"/></g></g></svg>