<svg xmlns="http://www.w3.org/2000/svg" viewBox="0 0 309.43 90.37"><defs><style>.cls-1{fill:none;stroke:#000;stroke-miterlimit:10;stroke-width:2px;}</style></defs><g id="Слой_2" data-name="Слой 2"><g id="Слой_1-2" data-name="Слой 1"><path class="cls-1" d="M8.3,5.44a616,616,0,0,0,2.11,78.39c4-18.4-4.13-36.95-8.52-55.27-1.63-6.8-1.57-16,4.89-18.47,3.38-1.3,7.22,0,10.76-.76,3-.63,5.49-2.62,8.14-4.18A30.54,30.54,0,0,1,48.83,2q-1.53,37.3-.76,74.65"/><path class="cls-1" d="M90.32,46.81a32.1,32.1,0,0,0-7.44-8.87,4.72,4.72,0,0,0-3.46-1.45,4.8,4.8,0,0,0-2.94,2.3,35.6,35.6,0,0,0-1.15,38.53c3.06,4.88,10.16,9,14,4.71a9.82,9.82,0,0,0,1.8-3.47A63.74,63.74,0,0,0,94.69,57c0-4.28-.55-8.69-2.6-12.43S86.18,37.84,82,37.92s-8.31,4-7.8,8.21"/><path class="cls-1" d="M130.17,54c4.16.39,7.27-5.52,4.64-8.81-6-4-14.67-.31-18.46,5.88S112.42,65,112.79,72.3c.14,2.84.41,5.87,2.16,8.1,2,2.58,5.57,3.42,8.83,3.43a25.06,25.06,0,0,0,18.64-8.4"/><path class="cls-1" d="M168.82,32.46c1,6.81-2.27,13.39-4.71,19.81a91,91,0,0,0-6,31.56C152.28,66.41,170.54,49.37,169.79,31a431.1,431.1,0,0,0,12,51.3"/><path class="cls-1" d="M197.49,32.31c-3.53,8.59,1.54,18.11,6.44,26a18.17,18.17,0,0,0,16.29-8.88A18.69,18.69,0,0,0,220,30.67l-3.74,40.7c-.31,3.36-.71,6.95-2.87,9.52-2.92,3.48-8.56,3.83-12.31,1.27s-5.56-7.41-5.21-12"/><path class="cls-1" d="M241,39.76a183.56,183.56,0,0,1,7.58,44.07q-3.12-23.18-6.26-46.34l23.25-.3"/><path class="cls-1" d="M281.83,32.49l4.34,51.11c4.36,1.35,7.68-3.43,8.89-7.24a342,342,0,0,0,11-44.83l2.36,50.65"/></g></g></svg>