<svg xmlns="http://www.w3.org/2000/svg" viewBox="0 0 234.42 133.05"><defs><style>.cls-1{fill:none;stroke:#000;stroke-miterlimit:10;stroke-width:2px;}</style></defs><g id="Слой_2" data-name="Слой 2"><g id="Слой_1-2" data-name="Слой 1"><path class="cls-1" d="M.88,122.5c10.69-19.78,14-42.74,23.23-63.24C28.59,49.32,34.5,39.9,37.18,29.33a520.48,520.48,0,0,0,4,90.37"/><path class="cls-1" d="M66.5,36.43l1.35,84.16"/><path class="cls-1" d="M10.41,87.52l28.72-3.25"/><path class="cls-1" d="M67,84.8c3.25-3.28,4.28-8.07,6.05-12.33a69.35,69.35,0,0,1,6-10.71L95.88,35.64"/><path class="cls-1" d="M124.65,38.47c-.57,15.83-1.14,31.73.56,47.48.68,6.34,1.89,13,6,17.85s12.14,6.94,17,2.8c3-2.53,4.05-6.59,4.86-10.41a203.74,203.74,0,0,0,3.89-57l7.43,91.3c-.62,1.8-3.36,2-4.76.68s-1.74-3.34-1.83-5.24a32.3,32.3,0,0,1,10.93-25.54c.37-.32,2.48-4.12,2.82-4.47"/><path class="cls-1" d="M66.54,82.87,93,118.93"/><path class="cls-1" d="M186.46,39.23c-.33,24.79,14.13,48.7,10.42,73.21"/><path class="cls-1" d="M182.88,15.89l.17-6c2.33-1.23,5.57,1.35,4.91,3.9C187.45,15.76,182.82,17.9,182.88,15.89Z"/><path class="cls-1" d="M225.42,40.66a230.6,230.6,0,0,1,5.6,67.6"/><path class="cls-1" d="M228,7.65a5.89,5.89,0,0,1,3.53-6.46,8.45,8.45,0,0,1,1.15,8.6,8.07,8.07,0,0,1-4.25-5.3"/><path class="cls-1" d="M215.67,11.66a4.5,4.5,0,0,1,5.68,4,4.5,4.5,0,0,1-5.51,4.21l-.15-8.06"/></g></g></svg>