<svg xmlns="http://www.w3.org/2000/svg" viewBox="0 0 342.4 112.71"><defs><style>.cls-1{fill:none;stroke:#000;stroke-miterlimit:10;stroke-width:2px;}</style></defs><g id="Слой_2" data-name="Слой 2"><g id="Слой_1-2" data-name="Слой 1"><path class="cls-1" d="M1.34,107.7C-.12,101.81,3.47,96,6.23,90.42c3.71-7.5,6-15.4,8.37-23.27L31.84,8.69c1.4,12.52,3.52,25,5.64,37.43l10.6,62.38L42.67,76a4.59,4.59,0,0,0-1.24-2.89c-1.11-1-2.92-1.08-4.54-1.12l-26.66-.53"/><path class="cls-1" d="M138.5,8.62,135,54.51c-.68,8.88-1.11,18.54,5.06,25.83,4,4.73,10.24,7.76,16.28,10.64,2.46,1.17,5.28,2.39,8,1.71,3-.76,4.53-3.5,5.62-6a204.85,204.85,0,0,0,17.74-81c-3.54,9.53-3.41,19.7-3.26,29.67.21,13.53.45,27.21,4.57,40.3,2,6.36,4.92,12.63,5.13,19.2s-3,13.78-10.23,16.6A16.51,16.51,0,0,1,182,93.84c2.85-5.67,9.22-10,16.48-11.31"/><path class="cls-1" d="M118.76,103.09c-5.26,2.15-10.45-3-12.85-7.42a147.56,147.56,0,0,1-8.08-17.5c-1.78-4.66-3.56-9.71-8.18-12.76-5.5-3.63-13.27-3.33-20.27-2.85L66.32,9.76v98.93c1.6-15.25-3.71-31.6,4.4-45.37,2.84-4.81,7.14-8.91,11.4-13l28.53-27.08c3.71-3.52,4.53-11.21,8.16-14.79"/><path class="cls-1" d="M215.55,8.47a597.32,597.32,0,0,0,5.32,81.24c.73,5.38,1.56,10.86,4.31,15.77,1.07,1.91,3.52,4,5.73,3a4.34,4.34,0,0,0,1.82-2c16.71-30,33.74-61.07,34.11-94.07l0,94.15"/><path class="cls-1" d="M291.94,4.7q-.88,40.28.9,80.55c.25,5.76,1,12.3,6.59,15.76l29.25-54.76c6.91-12.93,14-26.59,12.35-40.66a402.56,402.56,0,0,1-9.8,106.9"/></g></g></svg>