<svg xmlns="http://www.w3.org/2000/svg" viewBox="0 0 708.68 735.43"><defs><style>.cls-1,.cls-2,.cls-3{fill:none;stroke-miterlimit:10;}.cls-1,.cls-2{stroke:#000;}.cls-2{stroke-width:2px;}.cls-3{stroke:#fce300;}</style></defs><g id="Слой_2" data-name="Слой 2"><g id="Слой_1-2" data-name="Слой 1"><path class="cls-1" d="M708.18,280.36c-.18,3.12-5.59,11.47-7.5,14.47-2.72,4.28-7.16,7.23-10.7,10.9-8.59,8.94-14.87,18.51-25.15,26-17,12.34-29.27,44.06-27.31,64"/><line class="cls-2" x1="646.52" y1="300.69" x2="646.52" y2="312.69"/><path class="cls-2" d="M489.52,575.69c-17.44,6.68-38.33,7.64-57.32,11.3-8.89,1.71-24.94,5.61-33.35.75-7.34-4.24-12.09-19.86-6-26"/><path class="cls-1" d="M427.85,574.68a1.63,1.63,0,0,1-.7-.57c-1.25,4.36,0,6.17,4.32,5.86a15.9,15.9,0,0,0-.35-5.28c-.79,2.89,2.68,6.7,5,8.27.22-2.14-.54-4.15-.23-6.23,1.42.39,1.64,2.5,1.62,4,0-1.64-.91-7,1.41-7.45s2.79,6.6,3.53,8.28c-.07-1,.17-2.18.11-3.21,4.75-.63,5.48,5.64,2.29,6"/><path class="cls-1" d="M592.85,185.7c-2.13-2.49,2.5-9.74,3.68-12.56,2.1-5,3.69-9.6,5.57-14.59s3.46-9.71,6.33-14.27c2.51-4,7.72-9.46,7.89-14.16-3,1.53-4.36,5.1-6.47,7.57"/><path class="cls-1" d="M635.18,137a38.5,38.5,0,0,1,2.33,15.58c-.71-3.08-1.71-8.56-1.33-11.58"/><path class="cls-3" d="M131.27,699.19c3.42,0,6.46-.73,9.75-1"/><path class="cls-3" d="M127.27,703.69c.51,1.8,12,2,14.5,2"/><path class="cls-3" d="M121,709.44c6.43,2.3,13.86,0,20.25,0"/><path class="cls-3" d="M129.52,700.94a80.38,80.38,0,0,0,12.25,1"/><path class="cls-3" d="M117.77,713.44c4.31,0,8.15.75,12.5.75,3.84,0,7.23-1,11-1"/><path class="cls-3" d="M113,717.94c3.83,1.6,11.12.25,15.58.25a37.13,37.13,0,0,0,10.42-1"/><path class="cls-3" d="M108.52,721.44c1.38-.59,6.68,1.24,8.43,1.56,1.91.35,3.91.76,5.82.94,3.44.34,6.9,1,10.5,1"/><path class="cls-3" d="M103.27,724.19c6,2.57,13.41,6.19,20,5.75"/><path class="cls-3" d="M94.77,725.94c2.6,2,6.49,2.5,9.57,3.37s5.32,2.11,8.68,2.13"/><path class="cls-3" d="M60.52,706.69c3.26-.78,6.72-6.41,7.25-9.5"/><path class="cls-2" d="M392.85,572.36c0-6.68-.38-13.5,0-20.17.35-6.14,3-10.85,3.85-16.65,2.27-15,1.76-27.62,7.33-41.82,2.4-6.12,5.92-11.25,8-17.35,4-11.47,6.13-22.24,13.6-32.37C437,428.63,455.87,421.21,469,407.86c6.31-6.4,14.26-9.14,21.67-13.46,4.47-2.6,8.49-6,13-8.53,10.67-5.92,23.46-7.09,34.47-11.5"/><path class="cls-2" d="M635.52,65.69c14.16.41,27.42-8.41,40.53-12.83,6.39-2.16,10.68-2,7.49,6.85-1.59,4.39-6.29,10.87-8.72,14.63-6.48,10-14.31,19.9-24.47,26.65C640,107.85,627.19,114.55,630.82,129c1.38,5.52,9.38,11.88,14.87,12,7.17.14,8.76-7.4,12.38-12.28-.47,9,.48,22.31-2.57,30.9-4.8,13.54-15.22,18.72-14.56,34.62,4.57,2.19,24.33,4.53,25.26,8.1s-6.86,9.6-8.58,12.67c-2.29,4.09-3.19,9.51-5.43,14.07-9.87,20-4.67,51.07-4.67,73.93"/><path class="cls-2" d="M636.18,64.36c-10,.65-19.87-9.35-28.15-14-9.72-5.42-17-12.34-27.69-16.57C570.55,30,560.41,27.15,552,20.36c-3.55-2.87-8.46-3.69-11.16-6-.52-.44-1.88-4.65-2.49-5.53a24.24,24.24,0,0,0-5.48-5.15"/><path class="cls-1" d="M626.18,326.36c0-2.83-1.37-5.92-.66-8.65.91-3.52,3.57-4.14,5.15-7.35,4.27-8.67-5.84-11.3-.25-21.12,4.31-7.56,9.73-12.74,10.45-21.71.33-4.09-1-9.15.12-13.07.92-3.13,4.05-5.38,4.53-8.77"/><path class="cls-1" d="M650.18,262.36c2.63-8.06,16.25-10.22,18.16-18.65,1.57-6.93-8.18-17.18-10.83-24"/><path class="cls-1" d="M610.85,377.69c5.18,0,10.38-.12,15.55.08-8.34-8.2-10.1-13.3-9.45-25.31A31.64,31.64,0,0,1,630.73,355c.45-4.32-3-14.78-.61-18.49,2.64-4.11,6.73-.8,10.75-2.15,7-2.34,1.79-10.17,8-12.66,3.86-1.55,8.44,2.13,12.17.31,3.33-1.62,4.17-7.75,6.55-10.34,2.61-2.83,1.71-1.8,4.8-2.84,2.78-.94,1.5,3.22,5.85-.4,2.56-2.13,2.71-8.65,5.3-10.77,4.43-3.62,5.66.83,10.15-.61,2.91-.93,8.5-8.1,9.85-11.36"/><path class="cls-1" d="M400.18,574.36c-.11-11.18-6.91-24.85-3.87-35.7,1.5-5.36,6.48-10.31,7.87-16.3,1.21-5.25.76-10.87,2-16,1.72-7.11,6.86-10,13.31-12.83,7.83-3.5,7.24-6.47,12-12.8,4-5.32,13.05-8.73,18.75-11.75,4.57-2.42,9.23-5.08,13.77-7.81-2.69,2.2,3.7,1.26,5.58,0,2.36-1.53,2.8-7.54,5.28-8.28,4.35-1.3,3,5.61,8,4.13,4.66-1.37.28-11.13,6.42-10.59.1.73.15,1.65.31,2.45,3.73,1.59,8.92,3.92,13.26,3.48,6.24-.64,5.07-2.51,8.19-7.25,4.49-6.83,4.49-2.59,9.81-2.88,6.47-.35,3.35-4.47,8-5.25,3.5-.58,6.18,3.87,10.65,3.34,6.06-.72,4.72-3,4.7-8.67,0-2.63,2.09-9.4,1.87-10.8-.74-4.71-4.23-4-8.42-6-.41-2.38-.18-10,3.05-10.79,3.88-.91,4,7.51,6.69,9.77,7.55,6.32,10.71-5.7,17.53-7.49.41,4,.88,8.49,4.45,5.69,3.2-2.51,2.18-12.53,2.17-16.39,0-2-1-8.78.1-10.08,2.31-2.63,8,.12,11.23-3.92"/><path class="cls-1" d="M521.52,371.69c6.83-8.92,6.33-22.49,14-31.85,2.21-2.71,4.53-3.74,6.82-6,4.7-4.55,6.82-9,9-15.4,2.82-8.15,3.92-16.45,6.14-24.67,2.81-10.37,12.5-9.68,16.28-20,2.31-6.31-.46-14,1.69-20.08s11.05-8.85,14.88-14.15c5.3-7.36,5.52-16.09,7.16-24.5,1.47-7.57,6.63-11.27,8.68-18,2.68-8.87,4.72-18.53,7.32-27.5,2.73-9.42,3.61-18.85,6.2-28.17,4.8-17.26.48-33.52.48-51.64"/><path class="cls-1" d="M493.18,323.69c-2.31-.3-1.89,2.09-1.27,3.63a5.13,5.13,0,0,0,2.48-.08,15.41,15.41,0,0,1,.36-1.55c.94,1.35.84.47,2,.95.13-2.56,1-5.24,1-7.57a11.11,11.11,0,0,0-2.95,0"/><path class="cls-1" d="M476.85,360c2.12-.59,5.31-2.35,6-4.67"/><path class="cls-1" d="M640.85,173.37c-.1-2.15.14-5.59,1.6-7,.12.4.19.77.32,1.16.11-2.37-1.15-5.51.64-7.49.88,1.73,1.61,3.86,3,5a42.94,42.94,0,0,1,.2-4.32,12.59,12.59,0,0,1,1.17,2c1.83-2.35,2.78-6.28,4.14-9,1.16.62,1.63,2.14,2.27,3.35,1.58-1.42,1.52-6.15,1.61-8.35"/><path class="cls-1" d="M637.52,213.7c-1.59.06-2.53,1.31-3.92,1.84,1.73,2.88,3.15,5.51,5.87,7.47a39.38,39.38,0,0,0-1.21-12.14c1,5.69-2.73,1.61-4-.74.47,2.3,1.73,4.29,1.94,6.57"/><path class="cls-1" d="M647.52,99.7c-1-4.61,4.58-6,6.92-8.51,1.3-1.39,5-9.78,6.46-4.9,3.12-.57,6.47-4.43,7-7.59"/><path class="cls-1" d="M532.85,367.69c9.65-6.5,27.43-10.46,39-12.44a69.62,69.62,0,0,1,11.38-.89c-13.91,0-28.2.85-42-.13,8.6-10.48,29.31-13.51,41.39-18.92a116.78,116.78,0,0,0,18.82-10.15c-12.12-.83-24.46.36-36.6.57,7.13.71,18.07-7.29,24.31-10.28s18.05-7.67,21-13.65c-7.67-.46-15.54,0-23.23-.15-3.65-11.22,28.49-19.19,34.58-26.41-10.32-5.45-26.11,2.65-36.7.8,7.32-8.6,20.71-11.73,29.34-19.14-2.62.12-5.27.17-7.89.08,2.63-7.33,12.88-13.06,19.48-16.84-7.62-1.9-22.27,3.22-28.25-1.38,7.63-5.39,14.84-12,23-16.45-3.26.08-15.07,1.78-16.3-1.28-2.57-6.41,14.1-11.88,17.75-15.25-5.5.52-7.38-2.19-7.71-7.05-.49-7.2,5.4-9.71,9.84-14.27-4.36-.21-8.83.07-13.2-.18,1.72-5.83,15.31-8.26,20.83-11.23-3.68-2.37-10.6-4.21-11.53-9.37-1.42-7.91,9.66-9.09,14.68-12.24-2.92-.77-10.13,1.11-12-1.72-3.15-4.73,4.81-12.33,7.24-15.41-2.22-1.09-5.59-1.73-6.6-4.48,4.63-4.14,14.62-5.73,11.27-13.42-2.51-5.75-8-4.79-5.28-12.71-1.31-1.52-.62-1.43-1.19-3.27,4.93,0,9.36.06,13.24-3.41-3-1.29-8.55-1-10-4"/><path class="cls-1" d="M536.18,7.69c1.58,3.55-1.44,9.69,4.58,10.8.35,2.58-.2,5.27-.54,7.77,4.23.36,8.4-.52,12.55-.5-.2,3.78-4.16,6.75-6.42,9.7,4.06.61,8.29-.55,12.46-.36-.73,3.51-4.25,5.82-5.67,9.28,6.63.11,12.16-2.29,18.27-2.61-.48,1.35.14,3.11-.75,4.67,3.61,1.28,8.56.65,12.57.51a17,17,0,0,0-5.58,5.44c3.39,1.46,8,.79,11.16-1.24-.17,3.46-3.62,5.93-4.48,9.14,8.56.78,17.89-.57,25.3-5.16-3.6,7.36-12.34,10-17.09,16.17,9.48,2.33,16.53-2.16,24.91-3.33-.48,4.6-5.87,5.9-7,10.36.62,0,1.35-.34,1.9-.35-2.14,2.16-4.69,3.7-6.93,5.77,5.92,2.43,18.49,1.18,23.86-2.71-3.78,3.59-11.08,5.51-14.17,8.64-2.6,2.63-2.12,4.31-2.89,8"/><path class="cls-3" d="M329.85,614.73c-2.92.36-5.94,3.61-2.72,6.16,3.5,2.78,4.5-2.22,7.7-1.73,7.71,1.17-2.1,14.72-6.14,9.1"/><path class="cls-3" d="M335.93,611.09c2.53,3.51,3.68,7.32,6,10.88"/><path class="cls-3" d="M342.49,606.28a52.18,52.18,0,0,0,6.3,10.62c1.59-.95,3.14-2,4.7-3.08"/><path class="cls-3" d="M336.12,610.11c1.58,1.61,4,2.1,5.75,3.51s2.7,3.37,4.37,4.62"/><path class="cls-3" d="M346.81,602.54c2.26,3.38,5.27,6.59,7.17,10.09"/><path class="cls-3" d="M339.08,617.07a8.72,8.72,0,0,1,2-2.16"/><line class="cls-3" x1="347.39" y1="602.61" x2="351.84" y2="599.64"/><line class="cls-3" x1="353.12" y1="612.57" x2="358.84" y2="608.74"/><line class="cls-3" x1="351.21" y1="608.33" x2="355.66" y2="605.36"/><path class="cls-3" d="M362.21,509.79c-2.49.3-5.06,3.07-2.31,5.25,3,2.37,3.83-1.89,6.56-1.47,6.57,1-1.79,12.54-5.23,7.75"/><path class="cls-3" d="M367.39,506.69c2.15,3,3.14,6.24,5.11,9.27"/><path class="cls-3" d="M373,502.58a44.41,44.41,0,0,0,5.37,9c1.35-.81,2.68-1.74,4-2.62"/><path class="cls-3" d="M367.56,505.85c1.34,1.37,3.39,1.79,4.9,3s2.3,2.87,3.72,3.94"/><path class="cls-3" d="M376.66,499.4c1.92,2.88,4.49,5.61,6.11,8.6"/><path class="cls-3" d="M370.07,511.78a7.45,7.45,0,0,1,1.67-1.84"/><line class="cls-3" x1="377.15" y1="499.46" x2="380.94" y2="496.93"/><line class="cls-3" x1="382.04" y1="507.94" x2="386.91" y2="504.69"/><line class="cls-3" x1="380.41" y1="504.33" x2="384.2" y2="501.8"/><path class="cls-1" d="M4.52,700.69c-4.65.48-5.23-2.22-1.91-4.67,2.73-2,5.66-3.58,8.31-5.34,11.47-7.62,11-23.16,20.26-32.66a25.65,25.65,0,0,1,8.13-5.29c11.31-4.27,23.56-4.45,35.42-2.91,14.92,1.94,32.29,2.63,43.69,13.86,3.77,3.72,4.62,9.35,8.29,13.12,4.25,4.38,11.35,6,17.28,5.88,6.51-.14,11.52-5.87,17.52-7.9,3.52-1.19,6.79-2.7,10.34-3.77"/><path class="cls-1" d="M3.85,700.36c-.29,1.25-.66,2.67-.95,3.95,6.72.34,14.21.15,20,3.37C36.08,714.94,49.4,726,65.18,726c15.18,0,31.71,3,45-6.26,11.52-8,19.28-27.71,36.32-23.35,3.29.84,7.76,4.62,10.34,6.94,3.29,3,6.38,6.1,10.27,8.21,1.5-3.33,1.24-7.33,3.79-10.21,3.39-3.81,4.6-4.24,4.6-10,0-3.56.12-7-1-10.33-.56-1.69-1.93-3.46-2.28-5.26-.31-1.6.13-3.17-.39-4.74"/><path class="cls-1" d="M37.77,653.19c.28-3.75,10.87-6.93,13.82-7.81,6.68-2,13.55-4.81,20.34-6.35,10.84-2.45,22.94-1.9,33.85-.85a69.67,69.67,0,0,1,17.73,4.32c5.55,2,7.52,5.87,9.46,11.22,1.52,4.21,3,9.91,5.61,13.4a15,15,0,0,1,3,5.87,13,13,0,0,0,1.11,3.42c.7,1.33,1.68,2.3,1.33,4a21,21,0,0,0-4.46,2"/><path class="cls-1" d="M49.52,699.94a16.33,16.33,0,0,1,3,5c.78.42,1.52,1.19,2.4,1.6,1.62.76,2.44.21,4.08.42,2.65.34,3.9,2.1,6.24.27,3.95-3.08,5.9-7.21,7.43-12a26.93,26.93,0,0,1,3.07-7c1.84-2.7,2.46-3.26,2.74-6.5.39-4.43,3-10.65-3-11.74-5.27-1-6.46,1.86-9.32,5.5-1.79,2.29-4,4.09-5.68,6.54a133.85,133.85,0,0,0-10.26,17.94"/><path class="cls-1" d="M142,696.44c-.85,2,.42,5.17.74,7.44a16.2,16.2,0,0,1-1,9.06c-1.83,4.64-4,8.79-8,12.08a30.71,30.71,0,0,1-14.22,6.69,73.56,73.56,0,0,1-8.26,1.74,55.32,55.32,0,0,0-8.94,1.06c-7.23,1.78-13-2.46-20.12-3.56-4.69-.73-9.43-1.34-14.21-2.06-3.49-.52-6.86-.88-9.48-2.94"/><path class="cls-3" d="M60.27,650.19c3.89.14,6.44-2,9.93-2.77a83.81,83.81,0,0,0,11.32-3.68c4-1.45,8.77-1.63,12.94-2.6,2.69-.62,9.39-.28,11.32-2.2"/><path class="cls-3" d="M76.27,649.94c2.33-.63,5.2-1.74,7.74-2.26,4.12-.85,8.6,0,12.79-.49A61.61,61.61,0,0,0,114,641.94"/><path class="cls-3" d="M92.27,652.44a38.79,38.79,0,0,0,17-4.56,61.85,61.85,0,0,1,7-3.24c2-.75,5.08-1,6.7-2.2"/><path class="cls-3" d="M104.52,654.44c4.3-1,8.64-3.27,12.73-4.75,3-1.08,7.16-2.37,9.27-4.75"/><path class="cls-3" d="M110,656.69c7,.74,14.26-5,19.75-8"/><path class="cls-3" d="M114.27,660.69a31.78,31.78,0,0,0,11.81-2c2.33-.84,4.53-1.86,6.94-2.75"/><path class="cls-3" d="M133.27,658.94a27.33,27.33,0,0,1-7.07,2.32c-2.19.54-6.19,1-7.43,2.93"/><path class="cls-3" d="M121.27,667.19c1.64,2.6,11.69-2.25,13.25-4.5"/><path class="cls-3" d="M124.52,673.19c4.74,0,9.2-.34,12.75-3.5"/><path class="cls-3" d="M131,679.19c1.44.74,9.66-3.43,10.25-5"/><path class="cls-3" d="M123.77,670.44c4.28,0,9.61-1.12,13-3.75"/><path class="cls-3" d="M127.52,677.44c3.82-2.5,8.36-2.8,11.75-6.5"/><path class="cls-3" d="M137.27,680.69c1.88-.72,3.3-2.84,4.75-4.25"/><path class="cls-3" d="M153.77,682.19c7.31,0,13.25-2.73,19-6.5"/><path class="cls-3" d="M153,686.69c3.78-.51,7.85-.39,11.5-1.32,2.87-.73,5.44-2.75,8.25-3.18"/><path class="cls-3" d="M152,690.69c3.45-1.53,10.21-.25,14.25-.25,2.93,0,6-.61,8.25,1.5"/><path class="cls-3" d="M168.77,706.94c-2.33-2.19-3.61-3.9-6.62-5.43-2.69-1.37-8.18-3.06-9.63-5.82"/><path class="cls-1" d="M7.27,700.44c6.16,2.09,14.65-.44,21-.5,6-.06,12.53-.8,17.24-4.82,3.69-3.15,4.76-10.62,4.75-15.37,0-2.92.42-6.31-.49-9-.74-2.21-2.41-3.55-3.63-5.47-2.38-3.75-3.22-7.77-8.62-7.57"/><path class="cls-1" d="M29,673.69c-2.32,2.35,1,4.47,3.5,4,2.08-.38,4.43-3.3,3-5.69-1.24-2-5.38-1.34-6.22.69-1.29,3.12,1.75,4.08,4.17,3.72.59-2.41-2.07-5-1.66-2.22"/><path class="cls-1" d="M33.77,663.19c.45-1.39,2.63-1.22,4-1.47a5.16,5.16,0,0,1-.47,3.41c1.74.14,3.52,0,5.27.09A3.65,3.65,0,0,1,41,668.69c2.19,1.29,7.29-.19,5.52,3.31-.81,1.6-4.15,2.58-5.5,4,1.19.29,2.55.09,3.76.27.26,2.62-3.43,2.5-4.28,4.38a17.2,17.2,0,0,1,2.25.06c.94,3.89-6.14,3.58-6,6.61,2.73.6,6.12.21,8.59,1.05-1.94,3-8.69,2.65-12,3.49,6.35.55,2,2.33-1,4.58,2.45-.05,4.91,0,7.36,0"/><path class="cls-1" d="M79.77,690.44c.09,3.19-1.33,6.54.11,9.57.62,1.3,2,2,2.33,3.43.51,1.89-.76,2.83-1.14,4.51-.65,2.8,1.91,4.62,1.45,7.49-.52,3.27-3.36,4.11-2.25,8"/><path class="cls-1" d="M28.77,667.44c-5.16-.64-4.21,6.58-2.54,9,2.07,3,7.38,5.87,10.79,2.46,2.19-2.2,3.23-7.7,1-10.19-2.88-3.16-8.75-3.17-12-.75"/><path class="cls-3" d="M50.27,700.94c.91-2.27,5.12-4.59,7-6.25a36.89,36.89,0,0,0,5.83-6.77c1.82-2.46,3.53-4.87,5.33-7.3s3.86-4.4,4.79-7.19"/><path class="cls-3" d="M53,703.19c4.08-1.75,7.9-6.08,10.3-9.7,2.68-4,6.11-8.07,9-12.05"/><path class="cls-3" d="M55.77,705.94c3-.82,5.27-4.35,7.43-6.5,2.59-2.58,4.61-5.76,6.82-8.5"/><path class="cls-2" d="M530.85.36C526,12.87,540,30.3,547.68,39.54c9,10.85,20.83,18.73,29.69,28.85,5.13,5.86,8.3,13,12.93,19.26s10.87,10.66,15.93,16.44c6.09,7,8.4,24,3.15,32.67-5.43,9-18.19,9.72-27.1,13-.7,14.15,6.4,25.45,6.57,39.22.14,11.74-4.67,25.54-11.06,35.31-3.72,5.68-9.17,9.91-12,16.2-13.44,29.55-19.82,68.76-59.62,72.77-12.49,1.26-23.12-3.84-35.27-4.28-7.83-.29-16.88.46-17,9.79-.17,11.45,7.07,25.56,9.27,36.91,1.67,8.63,4.83,16.91,6,25.64,2,15.34-4.8,22.86-11.58,35.67"/><path class="cls-2" d="M576.18,393c0-7.2,12.5-18.66,17-24.15,6-7.33,11.38-14.85,17-22.39,8.66-11.58,23.83-22.92,35.31-31.31,10.65-7.78,22.39-11.65,33-18.3a205.17,205.17,0,0,1,29-15.19"/><path class="cls-2" d="M636.85,394.36c.75-4.23-1-6.06-3.85-3.35-1.63,1.56-2.05,7.62-2.84,9.87-2.18,6.22-5.65,12.42-8.14,18.83A239,239,0,0,1,604.88,455c-6,10.18-9.86,23-8,35.37,1.63,11,13.92,20,19.15,30,3.55,6.79,6.44,14.25,10.85,20.67,4.3,6.25,12.7,10.15,15.95,16.55-11.25,7.74-36.12-.16-46.63-6.05-6.59-3.69-13.3-8.18-19.93-11.71-7.26-3.86-15.08-5.12-22-10.13"/><path class="cls-1" d="M558.85,526.36c-7.63,9.48-20.29,12.92-29.05,22.66s-18.73,21-32,25.19c-11,3.49-25.38,2-32.43-6.54-6.86-8.29-6.66-27.07-5.18-38,1.92-14.21,14.47-24,20.52-36.52,2.6-5.39,4.63-11.1,8.3-16.18,4.58-6.35,11.66-11.38,15.85-18"/><path class="cls-2" d="M436.18,443c3.11,7.37,8.73,6.93,15.9,6.57.77-6.42-4.13-12.4-11.23-8.6-7.63,4.09-.08,12.36,7.22,9.25.66-2.72,1.38-10.07-3.9-8.59-6.44,1.8.95,6.66,4.6,6.61a10.05,10.05,0,0,0,.66-4.46,51,51,0,0,0-9.14.15c-.92,3.9,1.79,7.52,5.9,7.08"/><path class="cls-1" d="M408.18,582.36a48.87,48.87,0,0,1,12.76,1.33c-9.6,4.33-15.29-8.37-7.43-8.67"/><path class="cls-1" d="M504.18,458.36c-17,10.84-36.28,32.58-43.48,52-6.8,18.32-9.18,45.21,4.81,59.33"/><path class="cls-2" d="M473.18,398c1.66-3.14,3.84-5.6,5.41-8.87,1.83-3.79,3.81-7.4,5.91-11.14,5-8.93,10.93-16.8,16.86-25.17,3.4-4.8,5.93-9.08,9.81-13.74s8.52-9.14,11.16-14.58c4.19-8.59,8.47-18.92,14.85-26.17"/><path class="cls-1" d="M600.52,389.69c-3.46-.89-3.87,4.06-2,5.94-3.54-.14-7.22,3.25-4.74,6.08.45.51,2.08-.44,2.72.29.45.51-.33,1.83,0,2.36,1,1.48,1,2.28,3.64,2.28a4.22,4.22,0,0,1-1.26-3.85c1.53,1.63,2.5,3.8,4.25,4.8-.31-2.14-1.36-3.49-1.3-5.9.05-2,1.09-4.26.62-6.21a13.53,13.53,0,0,0-1.92-.2,6.86,6.86,0,0,1,4.88-1.24c-1.75-.78-3.15-1.9-2.52-4,.77.14,1.82-.27,2.58-.1-.93-2.65-4.59-.65-5.3-4"/><path class="cls-1" d="M441.52,497c-.83-4.45,5.1-4.16,4.28.28-1.95.34-4.09.21-3.95-2.28"/><path class="cls-1" d="M448.18,491.68c0,3.33-.18,7.28,3.87,7.63-1.91-2.49-2.4-9.77-2.16-12.84.66.11,1.9-.35,2.57-.24.18-2.88,1.32-5.6-1.26-6.55-4.08-1.5-3.62,2-3.73,4.62-3.94.37-2.49-4.6-6.27-4-5.4.88-2.29,5,1.2,5a3.16,3.16,0,0,1-.89,2"/><path class="cls-1" d="M421.52,493.35c-3.48,1.85-1.06,8.75,3.58,8,5.88-1,2-12.18.75-15.66"/><path class="cls-1" d="M628.52,560c-1-1.08-.92-3-2-3.67s-3.49-.26-4.92-.33c-1.65-.08-3.41.31-4.72-1-.74-.73-.57-2.73-1.65-3.66a8.28,8.28,0,0,1-.38,2c-1.78-.2-2.62-1.82-2.69-3.47,0,1.35,0,2.73,0,4.06a26.22,26.22,0,0,0-4.68-4.7c-1.78-1.31-4.44-2.23-4-4.92-.79,2.61.64,4.57-2.6,3.31-2.48-1-2.27-2.3-5.34-2.33-3.92,0-4.3,1.23-6.73-1.72-2.3-2.79-2.65-5.39-3.31-8.83-4,1.47-6.7-4.3-6.95-7.38-.28-3.42,2.62-8.6,5.07-10.72-1.31-1.64-4.31-1.49-6.16-3-2.08-1.68-4.2-5.16-3.47-7.91,5.56-1.25,10.69-2.72,9.83-8.52-.27-1.84-1.34-4.71-.54-6.61,1.5-3.55,7.93-8.18,10.61-10.67"/><path class="cls-1" d="M541.18,454.68a26.19,26.19,0,0,0-1,6.27c.13-2.62,1.57-4.51,1.34-7.27"/><path class="cls-1" d="M541.85,442c1.23,1.14,2.06,2.78,3.6,3.65.13-1.88.41-4.8-.27-6.31"/><path class="cls-1" d="M406.52,522.68c-1.86,2.1-2.71,4.18.68,4.71,2-3,1.44-4.54,5.61-4.5.26-1.69-.64-7.37-3.23-5.57-.89.62.23,3.16-.69,3.65-1.78.94-3.39-2.8-3.7-3.95"/><path class="cls-1" d="M477.18,396.36c3.5-.2,9.28-7.72,12-9.94s5.49-4.68,8.55-6.75a22,22,0,0,0-9.56,3.27c.37-5.34,11-7.91,11.6-13.2a4.82,4.82,0,0,0-3.6.55c-.71-4.69,7.82-8.48,9-12.88-2.69-.51-6.07.78-8.25,2.3,4,.24,13.7-5.4,15.42-9.32-1,.22-1.8,0-2.86.54,2-2.78,5.21-7.33,8.22-8.82a27.9,27.9,0,0,1-3.05,2.44,101.44,101.44,0,0,1,22.44-19.6,22.55,22.55,0,0,0-4.89,1.71,57.2,57.2,0,0,1,3.55-5.5c-9.17.23,2.54-8.21,1.76-10.67a48.14,48.14,0,0,0,8.56-8.75,14.25,14.25,0,0,1-3.14-.24c-.69-2.58,3.32-5.66,5.29-6.81a19.71,19.71,0,0,1-7,3.5c1-6.47,11.68-13.44,15.35-19.17-1.91-1-5.51.34-7.5,1.11,1.09-3.36,6.64-5.53,9.2-8.15,3.76-3.86,8.64-7.6,11.8-12-1.84.09-3.71.08-5.55,0,2.07-5.39,6.67-10.78,8.45-15.92a11.35,11.35,0,0,1-1.7.79c-.3-5.7,8.61-11,8.86-17.5a31.81,31.81,0,0,0-3.45.88c1.92-3.2,4.57-6.1,5.83-9.57"/><path class="cls-3" d="M173.9,646.87c-3.85.47-7.84,4.76-3.59,8.14,4.62,3.66,5.94-2.93,10.16-2.28,10.17,1.54-2.77,19.43-8.11,12"/><path class="cls-3" d="M181.92,642.07c3.33,4.63,4.86,9.67,7.91,14.36"/><path class="cls-3" d="M190.59,635.72a68.9,68.9,0,0,0,8.31,14c2.1-1.25,4.15-2.69,6.2-4.06"/><path class="cls-3" d="M182.18,640.78c2.08,2.12,5.25,2.77,7.58,4.63s3.56,4.45,5.76,6.1"/><path class="cls-3" d="M196.28,630.79c3,4.47,7,8.7,9.47,13.32"/><path class="cls-3" d="M186.08,650a11.58,11.58,0,0,1,2.58-2.85"/><line class="cls-3" x1="197.05" y1="630.88" x2="202.92" y2="626.96"/><line class="cls-3" x1="204.62" y1="644.02" x2="212.17" y2="638.98"/><line class="cls-3" x1="202.09" y1="638.43" x2="207.96" y2="634.51"/><path class="cls-3" d="M206,659.91c-2.83.34-5.76,3.5-2.63,6,3.4,2.69,4.36-2.15,7.47-1.68,7.48,1.13-2,14.28-6,8.83"/><path class="cls-3" d="M211.94,656.38c2.45,3.41,3.57,7.1,5.82,10.55"/><path class="cls-3" d="M218.31,651.71A50.63,50.63,0,0,0,224.42,662c1.54-.92,3.05-2,4.56-3"/><path class="cls-3" d="M212.13,655.43c1.53,1.56,3.86,2,5.57,3.4s2.62,3.27,4.23,4.48"/><path class="cls-3" d="M222.49,648.09c2.19,3.28,5.11,6.39,7,9.79"/><path class="cls-3" d="M215,662.18a8.47,8.47,0,0,1,1.9-2.1"/><line class="cls-3" x1="223.06" y1="648.16" x2="227.37" y2="645.27"/><line class="cls-3" x1="228.62" y1="657.81" x2="234.17" y2="654.1"/><line class="cls-3" x1="226.77" y1="653.7" x2="231.08" y2="650.82"/><path class="cls-3" d="M236.86,667.82c-1.79.22-3.64,2.21-1.66,3.78,2.15,1.7,2.76-1.36,4.72-1.06,4.72.72-1.29,9-3.76,5.58"/><path class="cls-3" d="M240.58,665.59c1.55,2.15,2.26,4.49,3.67,6.67"/><path class="cls-3" d="M244.6,662.64a32,32,0,0,0,3.86,6.5c1-.58,1.93-1.25,2.88-1.88"/><path class="cls-3" d="M240.7,665c1,1,2.44,1.29,3.52,2.15s1.65,2.06,2.67,2.83"/><path class="cls-3" d="M247.24,660.35c1.39,2.07,3.23,4,4.39,6.19"/><path class="cls-3" d="M242.51,669.25a5.36,5.36,0,0,1,1.2-1.32"/><line class="cls-3" x1="247.6" y1="660.39" x2="250.33" y2="658.57"/><line class="cls-3" x1="251.11" y1="666.49" x2="254.62" y2="664.15"/><line class="cls-3" x1="249.94" y1="663.9" x2="252.67" y2="662.08"/><path class="cls-3" d="M269.54,663.54c-3,.36-6.09,3.7-2.79,6.32,3.59,2.85,4.61-2.27,7.89-1.77,7.9,1.2-2.15,15.09-6.3,9.33"/><path class="cls-3" d="M275.76,659.81c2.59,3.6,3.77,7.51,6.15,11.15"/><path class="cls-3" d="M282.49,654.88a53.43,53.43,0,0,0,6.46,10.88c1.63-1,3.22-2.09,4.81-3.15"/><path class="cls-3" d="M276,658.81c1.62,1.65,4.07,2.15,5.89,3.6s2.77,3.45,4.48,4.74"/><path class="cls-3" d="M286.91,651.05c2.32,3.47,5.4,6.75,7.35,10.35"/><path class="cls-3" d="M279,665.94a9,9,0,0,1,2-2.21"/><line class="cls-3" x1="287.51" y1="651.12" x2="292.07" y2="648.08"/><line class="cls-3" x1="293.39" y1="661.33" x2="299.25" y2="657.41"/><line class="cls-3" x1="291.43" y1="656.98" x2="295.98" y2="653.94"/><path class="cls-3" d="M253.53,642.08c-2.14.26-4.36,2.65-2,4.53,2.57,2,3.3-1.63,5.65-1.27,5.66.86-1.54,10.81-4.51,6.68"/><path class="cls-3" d="M258,639.41c1.85,2.58,2.7,5.38,4.4,8"/><path class="cls-3" d="M262.81,635.88a38.26,38.26,0,0,0,4.62,7.79c1.17-.7,2.31-1.5,3.45-2.26"/><path class="cls-3" d="M258.14,638.69c1.16,1.18,2.92,1.54,4.22,2.58s2,2.47,3.2,3.39"/><path class="cls-3" d="M266,633.14c1.66,2.48,3.87,4.84,5.26,7.41"/><path class="cls-3" d="M260.3,643.8a6.44,6.44,0,0,1,1.44-1.59"/><line class="cls-3" x1="266.41" y1="633.19" x2="269.67" y2="631.01"/><line class="cls-3" x1="270.62" y1="640.49" x2="274.82" y2="637.69"/><line class="cls-3" x1="269.21" y1="637.39" x2="272.48" y2="635.2"/><path class="cls-3" d="M286.6,627.65c-1.94.24-3.94,2.39-1.8,4.08,2.32,1.84,3-1.47,5.1-1.15,5.11.78-1.39,9.76-4.07,6"/><path class="cls-3" d="M290.62,625.24c1.67,2.33,2.44,4.86,4,7.21"/><path class="cls-3" d="M295,622.05a34.62,34.62,0,0,0,4.18,7c1.05-.63,2.08-1.35,3.11-2"/><path class="cls-3" d="M290.75,624.59c1,1.07,2.63,1.39,3.81,2.32s1.79,2.23,2.89,3.06"/><path class="cls-3" d="M297.84,619.58c1.5,2.24,3.49,4.37,4.75,6.69"/><path class="cls-3" d="M292.71,629.2a5.81,5.81,0,0,1,1.3-1.43"/><line class="cls-3" x1="298.22" y1="619.62" x2="301.17" y2="617.65"/><line class="cls-3" x1="302.02" y1="626.22" x2="305.81" y2="623.69"/><line class="cls-3" x1="300.76" y1="623.41" x2="303.7" y2="621.44"/><path class="cls-3" d="M239.31,685.86c-2.15.26-4.37,2.65-2,4.54,2.58,2,3.31-1.63,5.67-1.27,5.67.86-1.55,10.84-4.52,6.7"/><path class="cls-3" d="M243.79,683.18c1.86,2.58,2.71,5.39,4.41,8"/><path class="cls-3" d="M248.62,679.63a38.35,38.35,0,0,0,4.63,7.81c1.17-.7,2.31-1.5,3.46-2.26"/><path class="cls-3" d="M243.93,682.46c1.16,1.18,2.92,1.54,4.23,2.58s2,2.48,3.21,3.4"/><path class="cls-3" d="M251.79,676.89c1.66,2.49,3.88,4.85,5.28,7.43"/><path class="cls-3" d="M246.1,687.58a6.45,6.45,0,0,1,1.44-1.59"/><line class="cls-3" x1="252.22" y1="676.94" x2="255.5" y2="674.75"/><line class="cls-3" x1="256.44" y1="684.26" x2="260.65" y2="681.45"/><line class="cls-3" x1="255.04" y1="681.15" x2="258.31" y2="678.96"/><path class="cls-3" d="M279.26,688.45c-1.76.21-3.58,2.17-1.64,3.71,2.11,1.67,2.71-1.34,4.64-1,4.65.7-1.27,8.87-3.7,5.49"/><path class="cls-3" d="M282.92,686.26c1.52,2.12,2.22,4.41,3.61,6.56"/><path class="cls-3" d="M286.88,683.36a31.43,31.43,0,0,0,3.8,6.4c1-.57,1.89-1.23,2.83-1.85"/><path class="cls-3" d="M283,685.67c.95,1,2.39,1.27,3.46,2.11s1.62,2,2.63,2.79"/><path class="cls-3" d="M289.48,681.11c1.36,2,3.18,4,4.32,6.08"/><path class="cls-3" d="M284.82,689.87a5.28,5.28,0,0,1,1.18-1.3"/><line class="cls-3" x1="289.83" y1="681.15" x2="292.51" y2="679.36"/><line class="cls-3" x1="293.29" y1="687.15" x2="296.73" y2="684.85"/><line class="cls-3" x1="292.13" y1="684.6" x2="294.81" y2="682.81"/><path class="cls-3" d="M308.1,662.29c-3,.36-6,3.67-2.76,6.27,3.56,2.83,4.58-2.25,7.83-1.76,7.84,1.19-2.14,15-6.25,9.26"/><path class="cls-3" d="M314.28,658.58c2.57,3.57,3.75,7.45,6.1,11.07"/><path class="cls-3" d="M321,653.69a53.06,53.06,0,0,0,6.41,10.8c1.62-1,3.2-2.07,4.78-3.13"/><path class="cls-3" d="M314.48,657.59c1.6,1.64,4,2.13,5.85,3.57s2.75,3.43,4.44,4.7"/><path class="cls-3" d="M325.35,649.89c2.3,3.44,5.36,6.71,7.3,10.27"/><path class="cls-3" d="M317.48,664.67a8.93,8.93,0,0,1,2-2.2"/><line class="cls-3" x1="325.94" y1="649.96" x2="330.47" y2="646.93"/><line class="cls-3" x1="331.78" y1="660.08" x2="337.59" y2="656.2"/><line class="cls-3" x1="329.83" y1="655.78" x2="334.35" y2="652.75"/><path class="cls-3" d="M305.64,641.76c-2,.25-4.08,2.48-1.87,4.24,2.41,1.91,3.09-1.52,5.29-1.19,5.3.8-1.44,10.12-4.22,6.26"/><path class="cls-3" d="M309.82,639.26c1.74,2.41,2.53,5,4.12,7.48"/><path class="cls-3" d="M314.33,636a35.76,35.76,0,0,0,4.33,7.3c1.09-.65,2.16-1.4,3.23-2.11"/><path class="cls-3" d="M310,638.59c1.08,1.1,2.73,1.44,4,2.41s1.85,2.32,3,3.18"/><path class="cls-3" d="M317.29,633.39c1.55,2.33,3.62,4.53,4.93,6.94"/><path class="cls-3" d="M312,643.37a6,6,0,0,1,1.35-1.48"/><line class="cls-3" x1="317.69" y1="633.43" x2="320.75" y2="631.39"/><line class="cls-3" x1="321.64" y1="640.28" x2="325.57" y2="637.65"/><line class="cls-3" x1="320.32" y1="637.37" x2="323.38" y2="635.32"/><path class="cls-3" d="M308.06,686.33c-1.44.18-2.93,1.78-1.34,3s2.22-1.09,3.8-.85c3.81.58-1,7.27-3,4.49"/><path class="cls-3" d="M311.06,684.53c1.25,1.73,1.82,3.62,3,5.37"/><path class="cls-3" d="M314.3,682.16a25.91,25.91,0,0,0,3.11,5.24c.79-.47,1.55-1,2.32-1.52"/><path class="cls-3" d="M311.15,684c.78.79,2,1,2.84,1.73s1.33,1.66,2.16,2.28"/><path class="cls-3" d="M316.43,680.31c1.12,1.67,2.6,3.25,3.54,5"/><path class="cls-3" d="M312.61,687.49a4.3,4.3,0,0,1,1-1.07"/><line class="cls-3" x1="316.72" y1="680.35" x2="318.91" y2="678.88"/><line class="cls-3" x1="319.55" y1="685.26" x2="322.37" y2="683.37"/><line class="cls-3" x1="318.6" y1="683.17" x2="320.8" y2="681.7"/><path class="cls-3" d="M340.71,575.23c-2.63.32-5.36,3.25-2.45,5.56,3.16,2.5,4.06-2,6.95-1.56,7,1.06-1.9,13.28-5.54,8.21"/><path class="cls-3" d="M346.19,571.95c2.28,3.17,3.32,6.61,5.41,9.82"/><path class="cls-3" d="M352.11,567.6a47.13,47.13,0,0,0,5.68,9.57c1.43-.86,2.83-1.84,4.24-2.77"/><path class="cls-3" d="M346.36,571.06c1.42,1.45,3.59,1.89,5.18,3.16s2.43,3,3.94,4.17"/><path class="cls-3" d="M356,564.23c2,3.05,4.75,5.95,6.47,9.11"/><path class="cls-3" d="M349,577.34a7.88,7.88,0,0,1,1.77-1.95"/><line class="cls-3" x1="356.53" y1="564.3" x2="360.54" y2="561.62"/><line class="cls-3" x1="361.7" y1="573.28" x2="366.86" y2="569.83"/><line class="cls-3" x1="359.97" y1="569.46" x2="363.99" y2="566.77"/><path class="cls-3" d="M333.21,543.63c-2.22.27-4.52,2.74-2.07,4.69,2.66,2.11,3.42-1.68,5.86-1.31,5.86.89-1.6,11.2-4.67,6.92"/><path class="cls-3" d="M337.84,540.86c1.92,2.67,2.8,5.57,4.56,8.28"/><path class="cls-3" d="M342.83,537.2a39.66,39.66,0,0,0,4.79,8.07c1.21-.72,2.39-1.55,3.57-2.34"/><path class="cls-3" d="M338,540.12c1.2,1.22,3,1.6,4.37,2.67s2.05,2.56,3.32,3.52"/><path class="cls-3" d="M346.11,534.36c1.72,2.58,4,5,5.46,7.68"/><path class="cls-3" d="M340.23,545.41a6.7,6.7,0,0,1,1.49-1.64"/><line class="cls-3" x1="346.55" y1="534.41" x2="349.94" y2="532.16"/><line class="cls-3" x1="350.91" y1="541.99" x2="355.26" y2="539.08"/><line class="cls-3" x1="349.46" y1="538.77" x2="352.84" y2="536.5"/><path class="cls-3" d="M360.76,539.62c-1.41.17-2.88,1.75-1.32,3s2.18-1.07,3.73-.84c3.73.57-1,7.13-3,4.41"/><path class="cls-3" d="M363.7,537.86c1.22,1.7,1.78,3.54,2.9,5.26"/><path class="cls-3" d="M366.88,535.53a25.24,25.24,0,0,0,3,5.14c.77-.46,1.52-1,2.27-1.49"/><path class="cls-3" d="M363.8,537.39c.76.78,1.92,1,2.78,1.7s1.31,1.63,2.11,2.24"/><path class="cls-3" d="M369,533.73c1.09,1.64,2.55,3.19,3.47,4.88"/><path class="cls-3" d="M365.23,540.76a4.24,4.24,0,0,1,.95-1"/><line class="cls-3" x1="369.25" y1="533.76" x2="371.4" y2="532.32"/><line class="cls-3" x1="372.02" y1="538.58" x2="374.79" y2="536.73"/><line class="cls-3" x1="371.1" y1="536.53" x2="373.25" y2="535.09"/><path class="cls-3" d="M358.4,589c-2,.24-4.07,2.47-1.86,4.22,2.4,1.9,3.08-1.52,5.28-1.18,5.28.8-1.44,10.09-4.21,6.24"/><path class="cls-3" d="M362.56,586.5c1.73,2.41,2.52,5,4.11,7.46"/><path class="cls-3" d="M367.06,583.2a35.76,35.76,0,0,0,4.32,7.27c1.09-.65,2.15-1.4,3.22-2.11"/><path class="cls-3" d="M362.7,585.83c1.08,1.1,2.73,1.44,3.94,2.4s1.85,2.31,3,3.17"/><path class="cls-3" d="M370,580.65c1.55,2.32,3.61,4.51,4.92,6.92"/><path class="cls-3" d="M364.72,590.6a6,6,0,0,1,1.34-1.48"/><line class="cls-3" x1="370.41" y1="580.69" x2="373.46" y2="578.66"/><line class="cls-3" x1="374.35" y1="587.51" x2="378.26" y2="584.9"/><line class="cls-3" x1="373.04" y1="584.61" x2="376.08" y2="582.57"/><path class="cls-3" d="M337.89,634.14c-1,.12-2.09,1.27-1,2.17s1.58-.78,2.71-.61c2.71.41-.74,5.17-2.16,3.2"/><path class="cls-3" d="M340,632.86c.89,1.23,1.29,2.58,2.11,3.82"/><path class="cls-3" d="M342.33,631.17a18.35,18.35,0,0,0,2.21,3.73c.56-.33,1.11-.72,1.65-1.08"/><path class="cls-3" d="M340.09,632.52c.55.56,1.4.74,2,1.23s1,1.18,1.54,1.63"/><path class="cls-3" d="M343.85,629.86c.8,1.19,1.85,2.32,2.52,3.55"/><path class="cls-3" d="M341.13,635a3,3,0,0,1,.69-.76"/><line class="cls-3" x1="344.05" y1="629.88" x2="345.62" y2="628.84"/><line class="cls-3" x1="346.07" y1="633.38" x2="348.08" y2="632.04"/><line class="cls-3" x1="345.4" y1="631.89" x2="346.96" y2="630.85"/></g></g></svg>