<svg xmlns="http://www.w3.org/2000/svg" viewBox="0 0 367.79 76.88"><defs><style>.cls-3,.cls-4{fill:none;stroke-miterlimit:10;}.cls-3{stroke:#fce300;stroke-width:3px;}.cls-4{stroke:#000;}</style></defs><title>Замовити</title><g id="Слой_2" data-name="Слой 2"><g id="Слой_1-2" data-name="Слой 1"><polygon class="cls-3" points="7.4 8.62 7.4 68.45 360.38 68.41 358.25 8.43 7.4 8.62"/><path class="cls-4" d="M41,15.47c1.67-2.86,6.65-2.78,9.24-.63s3.42,5.49,4.12,8.62c.56,2.51,1,5.53-1.14,7.32a8.38,8.38,0,0,1-3.06,1.44,64.39,64.39,0,0,1-10.76,2.3c4.35-1,9.24-.25,12.54,2.39s4.67,7.21,2.9,10.92a17,17,0,0,1-4.15,5c-2.86,2.61-6,5.16-10,6.11S32,58.68,30.33,55.4"/><path class="cls-4" d="M72.59,57.31c1.12-14.36,9.2-27.72,9-42.13q6.36,19.38,12,39"/><path class="cls-4" d="M75.72,38.84H88"/><path class="cls-4" d="M112,17.48A240.27,240.27,0,0,0,113.6,55"/><path class="cls-4" d="M112.2,19.08C111.68,21,114.32,22,116.08,23c2.34,1.28,3.75,3.73,5,6.07l4.43,8L134,17.56l.63,37.38"/><path class="cls-4" d="M158.63,48.85c1.54,4.59,5.69,9.42,10.33,8.06,3.55-1,5.16-5.1,5.91-8.71a55.46,55.46,0,0,0,.31-20.94c-.62-3.55-1.74-7.27-4.52-9.57C156.27,5.8,156.63,42.88,158.63,48.85Z"/><path class="cls-4" d="M194.59,55.48v-36c2.74-2,7-3.79,10.17-2.73,3,1,4.66,4.31,4.72,7.44s-1.16,6.14-2.35,9l-2.71,6.57a10.71,10.71,0,0,1-2.41,4,3.63,3.63,0,0,1-4.33.61l0-1.94c3-2.8,6-6.6,9.93-7.81s8.78-.22,10.77,3.33a9.45,9.45,0,0,1,.92,5.65C218.31,52.69,203.36,58,194.59,55.48Z"/><path class="cls-4" d="M240.4,18.8l1.78,37q4.42-9.15,8-18.67c2.48-6.57,4.68-13.46,4.28-20.47A201.1,201.1,0,0,1,255.78,54"/><path class="cls-4" d="M285.4,19.18l2.76,37.58"/><path class="cls-4" d="M270,17.46a97.09,97.09,0,0,0,27.53-1.72"/><path class="cls-4" d="M312.81,15q3.84,21.66,5.86,43.48c-.39-7,5.52-13,8.15-19.69,3.23-8.18,1.67-17.76,7.93-24.72l.33,42.25"/><polygon class="cls-4" points="0.5 0.74 0.5 76.39 367.27 76.33 365.07 0.5 0.5 0.74"/></g></g></svg>