<svg xmlns="http://www.w3.org/2000/svg" xmlns:xlink="http://www.w3.org/1999/xlink" viewBox="0 0 405.64 868.53"><defs><style>.cls-1,.cls-3{fill:none;}.cls-2{clip-path:url(#clip-path);}.cls-3{stroke:#fce300;stroke-miterlimit:10;stroke-width:3px;}</style><clipPath id="clip-path" transform="translate(-49.62)"><rect class="cls-1" y="45.93" width="440" height="781"/></clipPath></defs><title>Ресурс 2</title><g id="Слой_2" data-name="Слой 2"><g id="Слой_1-2" data-name="Слой 1"><g class="cls-2"><path class="cls-3" d="M262.79,1.49c52,6.29,98.12,47.28,110.44,98.25-27.61,18.59-63.16,18.43-96.32,21.28a455.47,455.47,0,0,0-141.46,35.63l154.21-3.46c-14.15,5.38-29.71,12.06-35.68,26-8.36,19.49,6.58,40.61,21,56.19s30.42,35.21,24.28,55.51q-123.61-.64-247,9.84c22.53,33.57,46.26,68.27,81.23,88.56,37.88,22,88,26.65,114.22,61.72A338.23,338.23,0,0,0,124,557.88c69.28,25,140.25,54.75,188.37,110.48,9.75,11.29,18.87,25.08,17.2,39.9-.93,8.3-5.18,15.87-6.75,24.07-4.27,22.29,12.27,43.76,31.69,55.51s42.07,17.09,62,27.89,38.22,30.06,37.2,52.74" transform="translate(-49.62)"/></g></g></g></svg>