<svg xmlns="http://www.w3.org/2000/svg" viewBox="0 0 367.78 76.89"><defs><style>.cls-1,.cls-2,.cls-3{fill:none;stroke-miterlimit:10;}.cls-1{stroke:#fce300;stroke-width:3px;}.cls-2,.cls-3{stroke:#000;}.cls-3{stroke-width:2px;}</style></defs><title>Заказать</title><g id="Слой_2" data-name="Слой 2"><g id="Слой_1-2" data-name="Слой 1"><g id="Слой_2-2" data-name="Слой 2"><g id="Слой_1-2-2" data-name="Слой 1-2"><polygon class="cls-1" points="7.4 8.62 7.4 68.45 360.38 68.41 358.25 8.43 7.4 8.62"/><polygon class="cls-2" points="0.5 0.74 0.5 76.39 367.27 76.33 365.07 0.5 0.5 0.74"/></g></g><path class="cls-3" d="M82.22,19,77.29,58.36c.06-4.78,2-9.38,3.62-14a83.39,83.39,0,0,0,4.52-28c-1,15.19,14,29,12.06,44.18a18,18,0,0,0-2.63-14.06,4.47,4.47,0,0,0-1.52-1.57A6.91,6.91,0,0,0,90,44.38l-13.38.07"/><path class="cls-3" d="M118.48,12.69q2.23,25.71,2.68,51.5l-.36-23.71a12.88,12.88,0,0,1,.65-5.19,15,15,0,0,1,2.25-3.44l14.48-18.2c1.24,3.84-4.92,6.29-7.42,9.71-1.45,2-1.65,4.48-3.21,6.43-1.39,1.74-3.73,2.86-5.21,4.56a6.29,6.29,0,0,0,.24,8.59c1.1,1.14,2.6,2,3.73,3.09,2.36,2.31,3.07,5.61,5.87,7.56,3.32,2.31,9.53,3,9.6,6.51"/><path class="cls-3" d="M165.05,18.81l-4.76,40.68.48-15.76c.28-9.19.6-18.57,4.39-27.24q4.35,9,8.68,18c4.07,8.45,8.18,17,10,25.92a10.32,10.32,0,0,0-4-5.84c-2-1.47-1.86-6.58-2.18-8.74s-1.76-4.74-4.45-4.77c-4.08,0-7.21.37-11.29.37"/><path class="cls-3" d="M203.6,15c6.26-2.46,14.25,1.65,16.06,7.1,2.31,7-4.55,15-13.46,15.68,3.08-2,8-.9,10.48,1.53,3.65,3.49,3.55,8.84,3.78,12.91a21.59,21.59,0,0,1-.31,4.68c-.22,1.33-.22,2.93-1.27,4.07-1.43,1.56-4.2,1.72-6.6,1.67a23.48,23.48,0,0,1-8.69-1.36c-2.64-1.12-4.73-3.42-4.35-5.81"/><path class="cls-3" d="M242,20.06a190.63,190.63,0,0,1-3,43.29q1.61-23,3.68-45.87A91.81,91.81,0,0,1,255,44.36c.79,3,1.47,6,3.51,8.54,1.52,1.87,3.8,3.49,4.14,5.7a30.25,30.25,0,0,1-6.39-15.41,2.67,2.67,0,0,0-1.05-2.28,4.16,4.16,0,0,0-1.91-.37,94.29,94.29,0,0,0-11.15.39"/><path class="cls-3" d="M280.35,19.11q3.16,21.66,4.74,43.45l-5.51-42.64a46.18,46.18,0,0,0-19.2,0,240.37,240.37,0,0,1,33.84-1.55"/><path class="cls-3" d="M305.23,16.88c.68,17.18.84,27.94,1.52,45.12l.35-19.27a7.73,7.73,0,0,1,.85-4.09,8.06,8.06,0,0,1,6.57-3.72c17.53.61,12.86,22.77,7.62,26.26-6.94,4.63-9.51,2.77-17.21-.64"/><path class="cls-3" d="M38,15c6.27-2.46,14.25,1.65,16.06,7.1,2.32,7-4.55,15-13.45,15.68,3.08-2,7.94-.9,10.48,1.53,3.64,3.49,3.54,8.84,3.77,12.91a21.59,21.59,0,0,1-.31,4.68c-.22,1.33-.22,2.93-1.27,4.07-1.43,1.56-4.2,1.72-6.59,1.67A23.5,23.5,0,0,1,38,61.26c-2.64-1.12-4.73-3.42-4.35-5.81"/></g></g></svg>