<svg xmlns="http://www.w3.org/2000/svg" viewBox="0 0 116.45 115.89"><defs><style>.cls-1{fill:none;stroke:#000;stroke-miterlimit:10;}</style></defs><title>Ресурс 3</title><g id="Слой_2" data-name="Слой 2"><g id="Слой_1-2" data-name="Слой 1"><path class="cls-1" d="M57.77,101.45a9.33,9.33,0,0,0-.1-5.56,12.3,12.3,0,0,1-.83-2.69,8.42,8.42,0,0,1,.65-3.44A37.55,37.55,0,0,0,56.37,63.9c-1.65-3.89-4.16-7.68-8-9.49-6.1-2.89-13.59.26-18.16,5.22S23.16,71.05,19.93,77c-2.12,1.91-5.53,1.18-8-.24s-4.74-3.44-7.56-3.92C3.17,72.6,1.81,72.62,1,71.73c-1.13-1.24-.22-3.37,1.23-4.22s3.2-.94,4.81-1.41c5.37-1.57,8.31-7.14,12.32-11a49.16,49.16,0,0,1,8.88-6.29A17.12,17.12,0,0,0,33,45a6,6,0,0,0,1.13-5.77c-1-2.49-3.94-3.47-6.33-4.7A15.48,15.48,0,0,1,20,25.59L8.51,19.11a5,5,0,0,1-1.67-1.28A3.47,3.47,0,0,1,6.94,14a10.24,10.24,0,0,1,2.94-2.73c1.84-1.31,4-2.68,6.18-2.27,2,.37,3.41,2.05,4.57,3.7,2,2.81,3.78,5.89,6.51,8s6.82,3,9.62,1c1.13-3-1.43-6.08-1.81-9.27a10.85,10.85,0,0,1,1.18-5.7C37.24,4.31,38.89,2,41.35.94s5.79-.23,6.84,2.22a2.12,2.12,0,0,1,.17,1.26c-.18.78-1,1.23-1.63,1.7a7.13,7.13,0,0,0-2.95,7.39c.74,2.73,3.82,4.73,6.52,3.91a6.82,6.82,0,0,0,3.53-2.92c1.9-2.91,1.9-7.63-1.25-9.11L56.42,3.5a8.56,8.56,0,0,1,3.19-1.08c2.57-.15,4.73,2.05,5.73,4.43s1.2,5,2,7.44a14.94,14.94,0,0,0,10.14,9.34c4.86,1.26,10.37,0,14.76,2.48A11,11,0,0,0,95,27.47c1.27.28,2.57-.17,3.87-.16,4.4,0,6.9,4.85,8.95,8.74a53.59,53.59,0,0,0,8,11.33,17.23,17.23,0,0,1-3.88,4.68,5.84,5.84,0,0,1-5.75,1c-2.66-1.21-3.35-4.56-4.28-7.32a19.16,19.16,0,0,0-8.76-10.77,15.25,15.25,0,0,0-13.67-.53c-2.41,1.16-4.65,3.93-3.44,6.31a6,6,0,0,0,1.59,1.78l8.06,7c-.38,2.28-4.23,2.17-5.12,4.3a3.16,3.16,0,0,0,1.11,3.38,37.88,37.88,0,0,0,3.18,2.09c1.92,1.38,3.14,3.5,4.59,5.37A25.24,25.24,0,0,0,105.36,74c.82.13,1.84.36,2,1.17s-.64,1.57-1.19,2.27c-1,1.24-1,2.94-1,4.51s0,3.26-.82,4.57-3,1.93-4,.74c-.81-5.17-5.36-8.81-9.58-11.92-2.88-2.12-5.84-4.28-9.29-5.21s-7.17-.62-10.15-2.46c1.39,4.88-.74,10-2.38,14.77-1.71,5-2,9.18.14,14,1.11,2.45-.92,2.78-3.22,3.59A24.56,24.56,0,0,1,57.77,101.45Z"/><path class="cls-1" d="M61.41,60.14c-.43,1-.81,2.35,0,3.12a2.77,2.77,0,0,0,1.65.58,4.69,4.69,0,0,0,2.83-.23,1.62,1.62,0,0,0,.6-2.41c-.26-.24-.61-.35-.87-.58a7.61,7.61,0,0,1-.78-1.08,2.14,2.14,0,0,0-3.32.17"/><path class="cls-1" d="M70.29,46.43a2.84,2.84,0,0,0,.12,2.32,1.79,1.79,0,0,0,2,.85,2.62,2.62,0,0,0,1-.86,2.58,2.58,0,0,0,.74-1.86c-.09-.69-.92-1.26-1.49-.88"/><path class="cls-1" d="M62.2,38c.9,1.55,1.78,3.12,2.66,4.7l2.52,4.49c2.26,4,4.6,8.17,8.22,11,1.77,1.42,3.84,2.51,5.3,4.25S83,67,81.64,68.74"/><path class="cls-1" d="M49.47,56.69a10.59,10.59,0,0,1-.14,3.6,14.44,14.44,0,0,1-.89,2.16c-1.46,3.31-1.8,7-2,10.61a3.31,3.31,0,0,0,.29,2c.6.93,1.91,1,3,1A4.59,4.59,0,0,0,53,75a5.43,5.43,0,0,0,.66-1,19.12,19.12,0,0,1,3.93-4.75"/><path class="cls-1" d="M41.44,42.87a3.67,3.67,0,0,0-1.35.86,2.11,2.11,0,0,0,.66,3.09,2.54,2.54,0,0,0,3.18-.91,2.26,2.26,0,0,0,.12-2.37A1.61,1.61,0,0,0,41.88,43"/><path class="cls-1" d="M12.66,85.81a7.67,7.67,0,0,0-1.23,2.58,2.67,2.67,0,0,0,.8,2.6,2,2,0,0,0,2.58-.16,2.67,2.67,0,0,0,.59-2.35,7.67,7.67,0,0,0-1-2.31l-1.18-.06"/><path class="cls-1" d="M35.46,32.79a2.09,2.09,0,0,0,.3,2.28,1.9,1.9,0,0,0,2.13.49,1.62,1.62,0,0,0,.85-2,1.41,1.41,0,0,0-1.93-.71"/><path class="cls-1" d="M42,27.05a2.27,2.27,0,0,1-2.56-2.31,2.06,2.06,0,0,1,1.18-1.68,1.8,1.8,0,0,1,2,.39A3.31,3.31,0,0,1,43.05,26a2.79,2.79,0,0,1-.27,1.18,1,1,0,0,1-1,.52"/><path class="cls-1" d="M36.61,22a2.64,2.64,0,0,0,2.9-.79c.59-.74.81-1.84,1.66-2.25.42-.2.93-.18,1.36-.37s.77-.78.45-1.12"/><path class="cls-1" d="M45.35,8.55a5.27,5.27,0,0,0-.46,3.13,1.41,1.41,0,0,0,.74,1.19,1,1,0,0,0,1.12-.39,2.32,2.32,0,0,0,.41-1.18,5.76,5.76,0,0,0-.26-2.4"/><path class="cls-1" d="M49.58,9.3a8.88,8.88,0,0,0,0,3,3.1,3.1,0,0,0,1.78,2.28,17.86,17.86,0,0,0,.1-3.19c0-.37-.16-.85-.54-.86"/><path class="cls-1" d="M51.42,7.82a5.3,5.3,0,0,0,.94,1.92,1.77,1.77,0,0,0,2,.56,1.66,1.66,0,0,0-.41-1.79,1.64,1.64,0,0,0-1.82-.21"/><path class="cls-1" d="M48.4,8.5a.39.39,0,0,1-.15.51,2.66,2.66,0,0,1-.56.2,1.27,1.27,0,0,0,.8,2.41L50.1,8.1c.12-.26.22-.62,0-.8-.42-.31-.77.59-1.28.7"/><path class="cls-1" d="M47.15,13.06a2.86,2.86,0,0,0-1.27.25,1,1,0,0,0-.49,1.1c.2.49.85.58,1.37.52a2.2,2.2,0,0,0,2-1.38,1.39,1.39,0,0,0-1-.12"/><path class="cls-1" d="M47.24,6.43c.5-.77,1.29-1.66,2.15-1.35.34.13.6.42.93.56s.84,0,.87-.33"/><path class="cls-1" d="M75,25.83c-.67-.38-1.44.46-1.48,1.24a12.69,12.69,0,0,1,.07,2.3l2.27,0a.76.76,0,0,0,.66-.19.79.79,0,0,0,.12-.42,4.3,4.3,0,0,0-.07-1.52,1.42,1.42,0,0,0-1-1"/><path class="cls-1" d="M51.53,27.32a10.14,10.14,0,0,0,.11,3.52,4.59,4.59,0,0,0,2,2.85,7.19,7.19,0,0,0,3.85.68l4.18-.06a1.15,1.15,0,0,0,.66-.14,1.08,1.08,0,0,0,.34-.56A46.33,46.33,0,0,0,64.53,27a1.54,1.54,0,0,0-.07-1.16c-.17-.24-.46-.37-.65-.59-.36-.45-.22-1.13-.51-1.62a2,2,0,0,0-.91-.69,9.46,9.46,0,0,0-5.22-1.05C54.69,22.21,51.8,24.82,51.53,27.32Z"/><path class="cls-1" d="M45.87,26.5a2.14,2.14,0,1,0,3.64,1.12,1.1,1.1,0,0,0-.27-.6c-.14-.15-.33-.24-.48-.39a2,2,0,0,1-.47-1,1.47,1.47,0,0,0-.58-.94c-.33-.19-.87,0-.86.38"/><path class="cls-1" d="M45.26,32.65c-.5,1.26.58,2.66,1.83,3.19a2.05,2.05,0,0,0,1.55.13c1-.39,1.07-1.82.55-2.74A2.64,2.64,0,0,0,47.71,32a1.82,1.82,0,0,0-1.85.43"/><path class="cls-1" d="M67.59,37.09A13.41,13.41,0,0,0,67,39a3.39,3.39,0,0,0,.17,2.51,1.43,1.43,0,0,0,2.17.39,2,2,0,0,0,.35-.74l.8-2.52a2.25,2.25,0,0,0,.06-1.76C70.13,36,69,36.11,68,36.3"/><path class="cls-1" d="M104.08,37.52a1.76,1.76,0,0,0-.74,3.12,2,2,0,0,0,.6.31,2.22,2.22,0,0,0,2.65-1.36,4.26,4.26,0,0,0-.58-3.08,1.49,1.49,0,0,0-.56-.74,1,1,0,0,0-1.26.45,3,3,0,0,0-.34,1.42"/><path class="cls-1" d="M65.8,30.94l-.31,1.2c-.23.91-.42,2,.24,2.7a1.63,1.63,0,0,0,2.17,0,2.22,2.22,0,0,0,.57-2.2.54.54,0,0,0-.18-.32.67.67,0,0,0-.37-.07l-1.53,0"/><path class="cls-1" d="M71.6,47.89l0-.68a.94.94,0,0,1,1.28.62c.08.54-.63,1.05-1.07.72A1.75,1.75,0,0,1,72,47.07"/><path class="cls-1" d="M60.5,83.73a1.89,1.89,0,0,1-.74-1.25c0-.5.65-1,1-.61a.88.88,0,0,1,.2.9,1.63,1.63,0,0,1-1.14.43c-.41-.07-.69-.68-.34-.91"/><path class="cls-1" d="M58.12,113.06c.18.43,0,.93,0,1.4s.35,1.07.8.9a1.61,1.61,0,0,0,.41-.33,1.09,1.09,0,0,1,1.55.22,2,2,0,0,0,.86-2.8,2.28,2.28,0,0,0-3.3-.83,1.93,1.93,0,0,0-.66,1.42"/><path class="cls-1" d="M13.21,87.24c.31.45-.54.84-.69,1.36a.72.72,0,0,0,.73.83,1.08,1.08,0,0,0,.92-.78c.19-.58-.2-1.38-.8-1.28a.8.8,0,0,0-.45.24,1,1,0,0,0-.15,1.24.76.76,0,0,0,1.17,0A.61.61,0,0,0,13.4,88a.76.76,0,0,0-.11.84.29.29,0,0,0,.28-.35"/><path class="cls-1" d="M42,44.65l-.05-.59a.86.86,0,0,0-.44,1.24,1.39,1.39,0,0,0,1.27,0A.78.78,0,0,0,43,44.17l-1.18,0a1.49,1.49,0,0,0,0,.81.59.59,0,0,0,.64.42c.27-.06.4-.47.18-.63"/><path class="cls-1" d="M41.43,26,41,26a1,1,0,0,1,.73-1.45,3.32,3.32,0,0,1,.45,2,1.12,1.12,0,0,1-1-1.38,1.71,1.71,0,0,1,1-.06.59.59,0,0,1,.4.75,1.47,1.47,0,0,1-1.06-.38c-.26-.29-.19-.86.18-.94l.05.75"/><path class="cls-1" d="M75,28.31A1.77,1.77,0,0,1,75.22,27a10.75,10.75,0,0,1,.32,1.87.66.66,0,1,1-.17-1.23"/><path class="cls-1" d="M104.15,38.8a2,2,0,0,1,.82-.44,2.53,2.53,0,0,1,.16,1.58c-.53.37-1.17-.34-1.33-1-.1-.38-.1-.87.23-1.08s.89.1,1,.53a1.78,1.78,0,0,1-.29,1.25"/><path class="cls-1" d="M53,50.2a2.62,2.62,0,0,0,.74,1c.72.52,1.73.26,2.62.41s1.75.76,2.69,1a3.29,3.29,0,0,0,3.85-4.28c-.14-.4-.36-.78-.51-1.18-.67-1.78,0-4.08-1.38-5.44-.87-.88-2.25-1-3.24-1.74-.36-.26-.66-.6-1-.86a3.78,3.78,0,0,0-3.2-.37C47.7,40.37,51.07,46.6,53,50.2Z"/><path class="cls-1" d="M97.78,102.84a.84.84,0,0,1,0-1l.66,2.14c.06.19.18.43.38.4s.23-.2.28-.34l.37-1.09.52.16"/><path class="cls-1" d="M56.32,50.13l1.7.57a3.38,3.38,0,0,0,1.87.25,2.27,2.27,0,0,0,1.49-1.55,6.42,6.42,0,0,0,.21-2.23c0-1.23-.3-2.77-1.48-3.12-.25-.08-.52-.09-.77-.17-1.49-.53-1.16-2.8-2.71-3.41C55.3,40,53,41,52.18,42.07,49.67,45.36,53.37,49.14,56.32,50.13Z"/></g></g></svg>