<svg xmlns="http://www.w3.org/2000/svg" viewBox="0 0 82.84 88.69"><defs><style>.cls-1{fill:none;stroke:#000;stroke-miterlimit:10;}</style></defs><title>Ресурс 8</title><g id="Слой_2" data-name="Слой 2"><g id="Слой_1-2" data-name="Слой 1"><path class="cls-1" d="M17.27,47.47c-.16,2.07-.42,4.25-1.68,5.89a23.11,23.11,0,0,1-2.75,2.57c-2.14,2-3.43,4.72-4.67,7.37L2,76.62c-1.2,2.57-2.33,5.84-.52,8,1.22,1.47,3.35,1.81,5.25,1.67s3.8-.65,5.7-.44a20.49,20.49,0,0,1,3.51.88c9.21,2.71,19.07,1,28.52-.65a5.65,5.65,0,0,0,2.7-1,4.49,4.49,0,0,0,1.29-3.48,10.91,10.91,0,0,0-4-8.5c-.7-.56-1.47-1-2.13-1.64A14.89,14.89,0,0,1,39,66.07a94.38,94.38,0,0,0-7.32-14.38,28.11,28.11,0,0,1-2.45-4.17C28,44.59,28,41.3,28,38.11l.12-8.79a8.91,8.91,0,0,0-.88-4.91A6,6,0,0,0,21.62,22c-6.34.54-5.05,3.59-4.55,8.59A98.11,98.11,0,0,1,17.27,47.47Z"/><path class="cls-1" d="M50.62,26.83c2.44,16.41-2.69,33.22-.5,49.66a6.11,6.11,0,0,0,1,3,6.19,6.19,0,0,0,3.77,1.9,65,65,0,0,0,18.72,1.46c2.5-.16,5.1-1.56,7.49-2.3-.31-6.93-.32-14.3-.64-21.23a155.09,155.09,0,0,1-.09-18.42c.36-4.94,1.21-9.86,1-14.8a2.49,2.49,0,0,0-.4-1.5,2.6,2.6,0,0,0-1.74-.77C69.67,22.22,59.9,24.37,50.62,26.83Z"/><path class="cls-1" d="M16.22,24.78c.5,1,1.8,1.13,2.89,1.17,2.62.09,5.33.17,7.78-.77"/><path class="cls-1" d="M7.71,67.67C7.32,67,8.28,66.26,9.06,66c1.72-.54,3.6-1,5.27-.33s2.92,2.38,4.65,3.08a9.06,9.06,0,0,0,3.48.46h6.75a3.16,3.16,0,0,0,1.67-.3c.73-.43,1-1.34,1.41-2.09a5.06,5.06,0,0,1,4.29-2.57"/><path class="cls-1" d="M50.88,56.32c.09,1.41,1.88,1.88,3.26,2.18a14.5,14.5,0,0,1,5.71,2.65A6.38,6.38,0,0,0,62,62.46c1.16.3,2.35-.22,3.5-.57s2.57-.43,3.36.48a2.8,2.8,0,0,0,.57.62,1.26,1.26,0,0,0,.57.17c1.86.17,3.55-1.1,4.81-2.49s2.37-3,4-3.86"/><path class="cls-1" d="M9,62.74a13.31,13.31,0,0,1,13.66-5.41c.78.18,1.55.43,2.34.55,1.24.19,2.52.06,3.74.34a3,3,0,0,1,2.52,2.43,7.32,7.32,0,0,1,4.84.74"/><path class="cls-1" d="M50.69,56.09a12.46,12.46,0,0,0,1.59-1.73c1.65-1.71,4.32-1.76,6.69-1.7L71.5,53a7.73,7.73,0,0,1,4.31,1A7.65,7.65,0,0,1,78,57"/><path class="cls-1" d="M38.06,17.89a371.41,371.41,0,0,1-.39,45"/><path class="cls-1" d="M44.09,74.3a3.61,3.61,0,0,0,3.36.32c1.08-3.43,1-7.1.91-10.7L47.24,17.33"/><path class="cls-1" d="M50.65,26.77c.79.38.84,1.5,1.44,2.14a2.71,2.71,0,0,0,1.2.68,22,22,0,0,0,9.65,1.18,2.92,2.92,0,0,0,1-.22c.27-.14.49-.35.76-.48a3.24,3.24,0,0,1,1.9,0c4.14.83,8.36-.65,12.33-2.11"/><path class="cls-1" d="M20.93,62.63a.8.8,0,0,1-1.21.48l0-1.32A1.85,1.85,0,0,1,22,63.1,1.66,1.66,0,0,1,20.27,65a1.49,1.49,0,0,1-1-2.25"/><path class="cls-1" d="M27.24,55.91c-.36.71-1.56.39-1.86-.35a3.17,3.17,0,0,1,.3-2.3c.18-.46.53-1,1-.9a1,1,0,0,1,.47.35,3.14,3.14,0,0,1,1,2.46c-.16.9-1.35,1.58-2,1"/><path class="cls-1" d="M19.5,47.68a8.93,8.93,0,0,1-.35-3,2.26,2.26,0,0,1,2.63.63,1.7,1.7,0,0,1-.58,2.47,1.36,1.36,0,0,1-1.81-1.47"/><path class="cls-1" d="M22.27,36.81a1.39,1.39,0,0,1,1.67-1.66l0,1.86a2.71,2.71,0,0,1-1.59.64c-.58,0-1.16-.6-.95-1.15"/><path class="cls-1" d="M18.28,29.06a.83.83,0,0,1,.52-1.13,2.4,2.4,0,0,1,1.4.06v1.89a1,1,0,0,1-1.44-.8"/><path class="cls-1" d="M22.81,24.78a10.74,10.74,0,0,1-.12,3,5,5,0,0,1-1.28-1.91"/><path class="cls-1" d="M18.84,18.74a2.33,2.33,0,0,1-.57-1.62,1.52,1.52,0,0,1,2,.56c.31.72-.7,1.64-1.27,1.11"/><path class="cls-1" d="M23.9,18.45a4.56,4.56,0,0,0,1.42-4.51.75.75,0,0,0-1.08.51"/><path class="cls-1" d="M24.27,8.72l-1.63.08A1.47,1.47,0,0,0,24.46,11c.23-1.08.28-2.52-.74-2.94"/><path class="cls-1" d="M18.51,8.16a4.22,4.22,0,0,1-2.08-1.49c-.43-.75-.16-1.95.69-2.12a1.43,1.43,0,0,1,1.5,1.17,4.18,4.18,0,0,1-.23,2.06l-1,.12"/><path class="cls-1" d="M38.18,37.82a6.58,6.58,0,0,0,5,1.89,1.47,1.47,0,0,0,.85-.26c.53-.44.51-1.5,1.18-1.57"/><path class="cls-1" d="M68.7,50.89a31.49,31.49,0,0,1,.61-4.55,41.49,41.49,0,0,1,2-5.31c5.13-12.77,3.56-28,11-39.56C82.93,7.57,79,13.12,77.35,19a56.73,56.73,0,0,0-1.41,7.68c-2.53,17.53-7.51,34.63-12.62,51.55A131.57,131.57,0,0,0,68.7,50.89Z"/><path class="cls-1" d="M38.26,38.64a5.55,5.55,0,0,1,5.06-2.81,3.58,3.58,0,0,1,3.37,2.41"/><path class="cls-1" d="M37.54,17.78a5.7,5.7,0,0,1,9.81-.18,3.31,3.31,0,0,1-2.48.46l-7.4-.62"/><path class="cls-1" d="M39.83,41.71l-.63,2.94a5.07,5.07,0,0,1,3.17-2.42,13.88,13.88,0,0,1-1.43,4.3,7.42,7.42,0,0,0,2.62-.69,18.87,18.87,0,0,0-3.46,7.27,31,31,0,0,1,4.74-4.56,66,66,0,0,0-5.12,6.77l3.15-1.08a18.67,18.67,0,0,0-2.41,5.88,14.55,14.55,0,0,0,5.2-4.34c.73.56.33,1.72-.12,2.52l-2.7,4.77,1.21.13a6.14,6.14,0,0,1-1.37,4l1.44-.68a4.62,4.62,0,0,1,.18,2.36"/><path class="cls-1" d="M51.76,62.88a3.69,3.69,0,0,1,3.3-1.38c-.59,1.58-1.24,3.15-1.93,4.7A6.83,6.83,0,0,1,59.42,61q-2.36,5.16-4.75,10.29c2.58-2,3.85-5.16,5.65-7.85a21.88,21.88,0,0,1,7.84-7.12Q64,63.65,60.33,71.21a74.54,74.54,0,0,1,8.38-10.37c-2.14,7.07-7,13.14-8.61,20.36a67.11,67.11,0,0,1,9.42-12.62L65.58,81.84a27.88,27.88,0,0,1,3.14-7.61l7.22-13.58a23.84,23.84,0,0,1-.47,8.12l2.31-1.19a19.24,19.24,0,0,1-1.43,7.71l.61-.86L77,76.37"/></g></g></svg>