<svg xmlns="http://www.w3.org/2000/svg" viewBox="0 0 145.81 96.1"><defs><style>.cls-1{fill:none;stroke:#000;stroke-miterlimit:10;}</style></defs><title>Ресурс 5</title><g id="Слой_2" data-name="Слой 2"><g id="Слой_1-2" data-name="Слой 1"><path class="cls-1" d="M63.69,5.88q.59,17.17.26,34.36c-6.22.54-12.47-.08-18.71-.07-15,0-30.33,3.76-44.82-.17"/><path class="cls-1" d="M1,57.84a29.93,29.93,0,0,1,8.43-2.08,60.42,60.42,0,0,1,8-.08c15.68.55,31.36,1.19,47,1.83a212.26,212.26,0,0,0-.54,34.2"/><path class="cls-1" d="M81.47,92a153.48,153.48,0,0,1-.38-35.2l30.06,1a64.62,64.62,0,0,0,8.91-.13c3.42-.36,6.77-1.27,10.21-1.35,4.65-.1,9.34,1.35,13.9.46"/><path class="cls-1" d="M81.46,5.61q.57,17.06.84,34.12h62.24"/><path class="cls-1" d="M86.85,5a191.09,191.09,0,0,0,.45,26.32c2.17-3.26,5.44-5.62,8.77-7.69,3.76-2.33,7.69-4.38,11.65-6.37,6.81-3.44,13.83-6.83,19.27-12.18"/><path class="cls-1" d="M145.68,16.9c-2.9.78-4.91,3.39-7.56,4.81s-6.09,1.55-9.1,2.5c-3.84,1.21-7.06,3.8-10.19,6.33L113.33,35c-.07-.47.39-.4.86-.43,9.92-.46,19.87-.5,29.79-.11"/><path class="cls-1" d="M58.14,5.05q.06,12.32,0,24.64L46.58,21.3c-4.39-3.21-8.93-6.48-14.21-7.76a9.36,9.36,0,0,1-3.76-1.38c-.68-.55-1.14-1.31-1.77-1.92a9.81,9.81,0,0,0-2.39-1.55l-6.53-3.4"/><path class="cls-1" d="M1,16a26.24,26.24,0,0,0,8.2,5.39c2.46,1,5.09,1.68,7.34,3.09,3.34,2.11,5.72,5.81,9.51,6.9,2.17.63,4.89.48,6.19,2.34q-7-.36-14-1Q9.13,33.28,0,33.3"/><path class="cls-1" d="M1,81.17l8.73-6.08A60.26,60.26,0,0,1,18,70a16.58,16.58,0,0,0,2.32-1.23c1-.67,1.73-1.6,2.65-2.33,2.26-1.79,5.29-2.31,7.7-3.9Q16,63.15,1.4,62.74"/><path class="cls-1" d="M18.73,90.81c2.11,0,4-1.13,5.81-2.24l10.29-6.42a15.6,15.6,0,0,0,2.8-2.05c.54-.54,1-1.15,1.56-1.67a15.13,15.13,0,0,1,5-2.51c5.15-2,9.73-5.19,14.25-8.36l0,25.83"/><path class="cls-1" d="M87.51,91.16a223.21,223.21,0,0,0-.82-23.27c2.38,1.64,4.87,3.12,7.35,4.6L96.64,74c5.67,3.37,11.35,6.75,17.31,9.6a5.53,5.53,0,0,1,1.47.9,14.19,14.19,0,0,1,1.08,1.35c1.19,1.38,3.12,1.8,4.85,2.35s3.61,1.53,4,3.31"/><path class="cls-1" d="M144.1,81.17l-10.18-5.73A24.81,24.81,0,0,1,127.66,71c-1-1.11-1.9-2.44-3.28-3s-3.4-.56-4-2a3.25,3.25,0,0,0-.43-1.07c-.36-.4-1-.36-1.52-.35a7.85,7.85,0,0,1-4.55-1.39c2.82.54,5.72-.72,8.57-.37,1.28.16,2.5.64,3.76.9a22.33,22.33,0,0,0,5.72.19l12.88-.67"/><path class="cls-1" d="M23,8a39.39,39.39,0,0,1,5.53-2.12L27.7,9.45a8,8,0,0,1,4.52-2.17A15.43,15.43,0,0,1,30,12.62a8.27,8.27,0,0,1,4.82-4.07l-2.07,5.11c1.36-1.08,2.07-2.75,3-4.23s2.26-2.94,4-3a20.77,20.77,0,0,0-1.26,8l6.78-9c.61-.82,1.74-1.71,2.51-1l-3.41,11a19,19,0,0,1,4.74-5.14A27.64,27.64,0,0,1,45,21.74c1.84-5.39,3.91-11.11,8.48-14.51A76.44,76.44,0,0,1,49.2,21.28c.84-4.3,4-7.74,7-10.92.17,5.53-5,10.63-3.49,16l4.08-4.76a12.73,12.73,0,0,1-.93,4l1.49.21L57,27.4"/><path class="cls-1" d="M86.68,26.26l4,1.14a18,18,0,0,0-3.57-4.91l5.71,2.44a15.06,15.06,0,0,0-4-7.91c-.92-.94-2.07-2.09-1.68-3.35a25.36,25.36,0,0,0,8.9,9.1C95.4,17.93,92,14,88.83,10.3a29.6,29.6,0,0,0,10.89,9.47,48.38,48.38,0,0,0-6.2-7.44L88,6.56c2.33.11,3.46,2.83,5.23,4.36,2.24,1.93,5.77,2,7.71,4.24.82.94,1.41,2.3,2.63,2.55A21.69,21.69,0,0,0,98.3,7.47a3.48,3.48,0,0,1,1.75,1.36q2.16,2.63,4.14,5.37l1.58,2.2a42.15,42.15,0,0,0,.45-9,7.43,7.43,0,0,0,2.83,5.77l1.66-4.85.77,4.61a8.13,8.13,0,0,1,2.39-5.68l1.53,5.61a60.85,60.85,0,0,1,3.66-10A12.42,12.42,0,0,0,119.92,9l4.13-2.69"/><path class="cls-1" d="M117.79,31.94a2.4,2.4,0,0,0-.12,1.27.87.87,0,0,0,.94.69c.4-.1.6-.53.74-.92l1.51-4.11a12.32,12.32,0,0,0,1.26,4.32l1.78-6.26,2,5.28a15.09,15.09,0,0,1,.8-3.44c.22-.62.79-1.35,1.37-1.06a1.24,1.24,0,0,1,.5.66,45.82,45.82,0,0,1,1.84,5,38.31,38.31,0,0,1,2-8.64A32.91,32.91,0,0,1,135,30.24a34.23,34.23,0,0,1,.91-7c.45-.23.82.44.9.95l.85,5.4c.17-2.54.42-5.25,2-7.21l1.43,10.82a73.55,73.55,0,0,1,2.14-14.5"/><path class="cls-1" d="M117.14,64.32A1.67,1.67,0,0,1,119.36,63"/><path class="cls-1" d="M117.82,64.42a4.61,4.61,0,0,1,2.9-1.52l.11,4.17a4.34,4.34,0,0,1,3.26-2.77l.08,4.47c1.52.35,1.48-3.15,3-3l.47,4.42a8.89,8.89,0,0,1,4.08-4.67L131.3,72c1.32-2.83,2.76-5.61,4.32-8.31.34-.58,1-1.24,1.55-.89l-1.78,12.83a27.79,27.79,0,0,1,4.16-8.82,44.78,44.78,0,0,1-1.61,13.08l4.7-16.11A48.09,48.09,0,0,1,142.3,75a2.4,2.4,0,0,0,1.4-.51l-1.23,4.23.58-1.89"/><path class="cls-1" d="M88.33,71.28a4.81,4.81,0,0,1,2.26-.77,3.39,3.39,0,0,1-1.29,2.15l2.16.08a8.1,8.1,0,0,1-3.75,4.52A19.43,19.43,0,0,1,95,73.39c.73,1.4-.8,2.85-2.07,3.77a36.36,36.36,0,0,0-5.65,5.08,12.17,12.17,0,0,1,6.84-4.74,19,19,0,0,0-4.44,6.61,17.63,17.63,0,0,1,7.94-6c-1.69,4.23-7.69,5-10.23,8.74a28.31,28.31,0,0,0,6.45-4.21c2.91-2.55,5.85-5.93,9.72-5.75.14,1.59-1.13,2.92-2.3,4L91.46,90c2.06-1.51,3.69-3.53,5.68-5.14s4.57-2.81,7.06-2.23l-4.35,7c3-3.47,6.3-7.11,10.71-8.46a31.53,31.53,0,0,1-4.75,10.23,9.83,9.83,0,0,1,4-5.44,11.28,11.28,0,0,1-.6,3.9,17.42,17.42,0,0,1,5.36-6l.12,6.72,3.4-1.41a1.39,1.39,0,1,0,2.58,1.05"/><path class="cls-1" d="M22.36,89.75l1.43-.25.49,1.09a5.29,5.29,0,0,1,2.17-3.5l1,3.44,2-4.76a26.85,26.85,0,0,0,1.79,5.15A68.76,68.76,0,0,0,34,82.4l1.22,5.08c.15.61.51,1.38,1.13,1.27.43-.07.65-.54.8-1l3.24-8.89a38,38,0,0,1,.37,8.85,26.84,26.84,0,0,1,3-9.53l1.86,14.15,1.65-11.85c.18-1.32.48-2.82,1.64-3.47a82.26,82.26,0,0,1,1.23,10.39A51.47,51.47,0,0,0,54.39,72a108.27,108.27,0,0,1-.6,16.5,165,165,0,0,1,4.37-18.2L56.5,89.51"/><path class="cls-1" d="M2.48,63.72a15.28,15.28,0,0,1-.75,4.51,22.91,22.91,0,0,0-.44,8.29,61.29,61.29,0,0,0,3-11L3.83,77.06A91.66,91.66,0,0,1,8.07,61.62Q8,67.52,8.33,73.4c.48-2.94,1.06-6.08,3.15-8.21l-.11,6.46L15.52,61a28.82,28.82,0,0,1,.67,8.73,7,7,0,0,1,1.71-3.62A12,12,0,0,1,19,70.47a54.08,54.08,0,0,1,3.78-8.09c.13-.23.32-.49.58-.48s.48.46.51.81l.33,3.55A7.84,7.84,0,0,1,27,63.82"/><path class="cls-1" d="M1.92,18.47,2,29.71a61.31,61.31,0,0,0,4.05-12.6,88.56,88.56,0,0,1-.57,11.63,17.21,17.21,0,0,1,.59-4L6.19,31c0,.76.34,1.81,1.09,1.66.51-.1.7-.72.79-1.24L9.4,23.56l.33,7.54L12,26.73a50.61,50.61,0,0,1,1,7.55L15.77,23.7a35.14,35.14,0,0,1,.42,8.87l.39-4.91c.57,1.78,1.15,3.54,1.76,5.3l1.8-2.83a1.77,1.77,0,0,0,2,1.7,3.45,3.45,0,0,1,.83-.15c.52,0,.88.53,1.31.82s1.25.21,1.24-.32a3.52,3.52,0,0,0,1.88,1.47"/></g></g></svg>