<svg xmlns="http://www.w3.org/2000/svg" viewBox="0 0 108.85 111.26"><defs><style>.cls-1{fill:none;stroke:#000;stroke-miterlimit:10;stroke-width:2px;}</style></defs><title>Ресурс 1</title><g id="Слой_2" data-name="Слой 2"><g id="Слой_1-2" data-name="Слой 1"><path class="cls-1" d="M1.28,60.37C.52,49.42,1,37.86,6.61,28.41c4.48-7.6,11.79-13,18.9-18.29a70.07,70.07,0,0,1,6.9-4.66A35,35,0,0,1,58.73,2.24a25,25,0,0,0,4.43,1c1.88.18,3.78-.24,5.67-.13C72.05,3.33,75,5,77.73,6.67,79.49,7.76,81.23,8.87,83,10,88,13.43,93,17.18,96.77,22c5.22,6.68,7.85,15,9.47,23.33,2.3,11.76,2.66,24.42-2.46,35.26a56.65,56.65,0,0,1-10,14,37.19,37.19,0,0,1-6.09,5.54,42.14,42.14,0,0,1-7.78,3.95,103.8,103.8,0,0,1-9.78,3.69,55.47,55.47,0,0,1-16.63,2.47c-20-.14-39.61-12.7-48-30.9C2.74,73.38,1.73,66.87,1.28,60.37Z"/><path class="cls-1" d="M51.86,29.24c.43.79-.42,1.64-1.16,2.14l-5,3.32c-.8,1.06.85,2.31,1.06,3.62a6.85,6.85,0,0,1-.43,2.25c-.15.75.12,1.74.88,1.85A2,2,0,0,0,46,44.48a8.4,8.4,0,0,0,.67,2.42A13.39,13.39,0,0,1,47,54.75c1.5-.85,3.09.82,4.6,1.65,1.72,1,3.81.79,5.76.61l5.35-.5a2.88,2.88,0,0,0,1.3-.33c1.27-.79.91-3.12,2.3-3.69a2.13,2.13,0,0,1-1.24-2.8,1.11,1.11,0,0,0,.2-.74c-.11-.42-.71-.44-1.14-.36l-3.21.6a20.68,20.68,0,0,1-.25-5.78c0-.69.3-1.62,1-1.57"/><path class="cls-1" d="M36.21,19.09c-3.54-2.07-7.53-4.22-11.53-3.32-3.5.78-6.09,3.72-9.38,5.13a10.11,10.11,0,0,0-2.07,1,6.54,6.54,0,0,0-1.63,2A34.79,34.79,0,0,0,7.43,35.1a3.34,3.34,0,0,0,0,1.44A3.67,3.67,0,0,0,8,37.75c1.7,2.31,4.06,4.91,6.87,4.33-.11,1.23-1.1,2.17-1.66,3.27s-.42,2.84.79,3.07c-2.39.93-2.07,4.31-2.09,6.87,0,3.09-1.2,6-2,9s-1.24,6.29.14,9.06a12.2,12.2,0,0,1,1.42,3c.22,1.14-.15,2.32,0,3.46A7.14,7.14,0,0,0,12.41,82c1.49,2.76,4,5.92,7.06,5,1.73-.51,2.78-2.21,3.94-3.59s3-2.64,4.67-1.89a6.4,6.4,0,0,0,1.26.62c1.28.29,2.26-1.24,2.29-2.55s-.45-2.64-.14-3.92a6.56,6.56,0,0,1,2.39-3.1c2.71-2.32,5.61-4.73,9.14-5.24a21.65,21.65,0,0,0,3.51-.49c2.86-.93,4.58-4.29,7.56-4.7l-8-2.74a4.61,4.61,0,0,1-2-1.08,4,4,0,0,1-.8-1.68,17.79,17.79,0,0,1-.41-7.85A6.24,6.24,0,0,0,43,45.75c-.19-.55-.56-1-.75-1.58a5.25,5.25,0,0,1-.14-1.9l.48-10.07a4.56,4.56,0,0,0-.07-1.33C41.74,28,37.06,28,35.24,26,34,24.5,32.51,18.3,36.21,19.09Z"/><path class="cls-1" d="M33.87,84.78c.87-1.37,3.51.15,4.47-1.15a5.5,5.5,0,0,0,.39-.81A1.87,1.87,0,0,1,41.16,82a1.58,1.58,0,0,1,.36,2.43c-.37.34-.91.47-1.22.87a5.05,5.05,0,0,0-.47,1.15c-.68,1.48-5,4.69-6.81,3.85C30.92,89.35,32.94,86.27,33.87,84.78Z"/><path class="cls-1" d="M45.57,93.37c1.33,1,3.27,0,4.37-1.31s2.09-2.91,3.75-3.22A4.05,4.05,0,0,0,53.42,86a13,13,0,0,0-1.15-1.2A3.08,3.08,0,0,1,53.8,80"/><path class="cls-1" d="M60.79,65.86c.14.07-.11.29-.21.16s0-.32.13-.41c.57-.43,1.43.09,1.69.76a9.84,9.84,0,0,1,.27,2.12,3.69,3.69,0,0,0,2.5,2.88"/><path class="cls-1" d="M54.75,105.09a10.78,10.78,0,0,1,1.52-5,2,2,0,0,1,.55-.66c.84-.57,1.93.2,2.65.92l2.74,2.76a1.11,1.11,0,0,0,.6.38c.37,0,.67-.29.89-.59a15,15,0,0,0,2.71-8.75c1.14.07,1.48,1.71,2.52,2.18A1.92,1.92,0,0,0,71,95.85a5.58,5.58,0,0,0,1.13-1.93l1.17-2.8a1.12,1.12,0,0,1,.55-.68c.67-.22,1,.8,1.44,1.32a1.73,1.73,0,0,0,2.48-.35,5,5,0,0,0,.77-2.7"/><path class="cls-1" d="M95.22,72.27l-.77,1a6.59,6.59,0,0,1,1.06-5.34c-1,.64-2.42,1.21-3.12.28s.07-2,.51-2.93.07-2.57-1-2.33c-1.12-.63-2.54,0-3.51.81a13.92,13.92,0,0,1-2.92,2.46,16,16,0,0,1-1.85.61,6.67,6.67,0,0,0-4.36,6.58,1.12,1.12,0,0,1-1.66-.15,3.21,3.21,0,0,1-.54-1.8l-.61-6.38c-.23-2.43-.27-5.33,1.69-6.79a5.14,5.14,0,0,0-2.64.13l-.13-3.63A2.23,2.23,0,0,1,72.88,52a12.24,12.24,0,0,1-4-1c-.12.52-.87.48-1.36.28a10.07,10.07,0,0,1-5.82-6.48,15.24,15.24,0,0,0-1.22-3.93"/><path class="cls-1" d="M51.65,29.23,46.56,25.7c-.44-.3-.94-.75-.81-1.27s.93-.68,1.53-.65l7.66.31c.7,1.39,1.56,2.92,3.06,3.34s3.36-1.35,2.42-2.59A4,4,0,0,0,59,23.92a4.56,4.56,0,0,1-2.29-3.25c-2.06-.47-4.7-.72-5.83,1.07a6.53,6.53,0,0,1-.59,1c-1.09,1.28-3.19.06-4.12-1.34a4.25,4.25,0,0,1-1.22,1.89,1.44,1.44,0,0,1-2-.2c-.49-.81.25-1.76.76-2.55a5.74,5.74,0,0,0,.43-5.25l-1.92,3.78a4.59,4.59,0,0,1-1,1.45,2.35,2.35,0,0,1-3.41-.58,5.77,5.77,0,0,1,3.11-1,2.55,2.55,0,0,1-.15-2.9,9.27,9.27,0,0,0,1.2-2.86,7,7,0,0,1-6.7,2.48l0-2.06a4.81,4.81,0,0,1-5,2.3c-1.51-1.31-.57-4.05,1.23-4.93s3.93-.52,5.9-.12c1,.2,2.19.53,2.57,1.5a4.84,4.84,0,0,1,3-2.32c.8-.21,1.64-.21,2.45-.38,1.27-.26,2.73-.87,3.72,0a7.58,7.58,0,0,1,1,1.31c1.46,1.83,4.33,1.06,6.58.41s5.53-.37,5.87,1.95a1.23,1.23,0,0,0,.57-1.87c-.6.65-1.62-.21-1.94-1s-.78-1.89-1.65-1.78a4.12,4.12,0,0,1,3.49.9c.32-.5-.14-1.21-.71-1.36a2.87,2.87,0,0,0-1.74.29l-7.38,2.88a3.8,3.8,0,0,1,2-3A12.19,12.19,0,0,0,51.38,8C53.17,6.28,56,6.45,58.45,6.74l6.27.73c1.94.23,4.47,1.2,4.15,3.11a2.06,2.06,0,0,0-1.8,2.26l2.82-1.05A36.74,36.74,0,0,1,81.13,15.7l1.54-.58a11.88,11.88,0,0,0,2.08,3.07l.06-4.37A7.49,7.49,0,0,1,89,16.26"/><path class="cls-1" d="M42.5,8.17a9.67,9.67,0,0,0,4.58.61.8.8,0,0,0-.18-1.06,1.74,1.74,0,0,0-1.12-.32,4.3,4.3,0,0,0-1.92.45"/><path class="cls-1" d="M58.37,45.22c-.39-.18-.79.4-.6.79a1.32,1.32,0,0,0,1.08.6,3.08,3.08,0,0,0,3.27-1.45c.53-1.16-.57-2.84-1.79-2.45"/><path class="cls-1" d="M47.9,5.55a1,1,0,0,0-1.09,1A2.18,2.18,0,0,0,47.38,8c.28.34.71.68,1.12.51A1.23,1.23,0,0,0,49,8.11a16.54,16.54,0,0,0,1.52-2.65"/></g></g></svg>