<svg xmlns="http://www.w3.org/2000/svg" viewBox="0 0 69.33 96.94"><defs><style>.cls-1,.cls-2{fill:none;stroke:#000;stroke-miterlimit:10;}.cls-1{stroke-width:2px;}</style></defs><title>Ресурс 2</title><g id="Слой_2" data-name="Слой 2"><g id="Слой_1-2" data-name="Слой 1"><path class="cls-1" d="M10.16,12.93c-2.48,19.84.81,39.92.5,59.91a49.66,49.66,0,0,0,10.83-.25,29,29,0,0,0,5.81.62c10.84.38,21.7.24,32.52-.42l0-58.15c0-1-.68-2.42-1.53-1.9A44.57,44.57,0,0,0,45.5,37.09a16,16,0,0,0-.25,4.52,15.47,15.47,0,0,0,3.39,7.33A14.47,14.47,0,0,1,51.17,53c1.33,4.13-2.32,8.54-6.53,9.57-1.13.27-2.29.38-3.39.75-4.65,1.59-6.38,7.33-6.32,12.24s1.23,10-.39,14.64C36.82,83.09,44,77.61,44,70.12a22.31,22.31,0,0,0-2-7.84,137.33,137.33,0,0,1-5.79-16.89c-2.12-8.67-2.43-17.66-2.73-26.58-.11-3.47-.19-7.13,1.44-10.2l-.25,15.28c-.12,7.61-.25,15.29-2,22.7-1.37,5.93-3.72,11.59-5,17.52s-1.46,12.43,1.4,17.8a35,35,0,0,0,6,7.55l-.64-13.33a29.9,29.9,0,0,0-1-7.66,10.24,10.24,0,0,0-4.53-6c-2.83-1.54-6.64-1.31-8.84-3.67a5.12,5.12,0,0,1-1.21-4.59A17.05,17.05,0,0,1,20,51.46c1.23-2.92,1.25-6.19,1.26-9.36,0-5,0-10.18-2-14.76A36.1,36.1,0,0,0,15.29,21L9.82,13.34,11.54,75.2a51.9,51.9,0,0,1,2.32-18.32c.4-1.27,1.2-2.77,2.53-2.7a2.52,2.52,0,0,1,2,1.91,18.51,18.51,0,0,0,.81,2.78c.78,1.55,2.58,2.31,4.29,2.63a25,25,0,0,1,5.11,1,9.16,9.16,0,0,1,4.71,5.17,26.9,26.9,0,0,1,1.5,7c.31-3.58.86-7.61,3.75-9.75,2.44-1.82,5.91-1.71,8.39-3.49s3.48-5.08,6.36-6.5a3.83,3.83,0,0,1,2.87-.28c2.39.77,2.69,3.53,2.74,5.83L59.12,73,59,13.41"/><path class="cls-2" d="M.91,1.07Q0,35.86,1.16,70.65a18.24,18.24,0,0,0,.66,5C3.29,80.22,7.88,82.83,12.1,85a141.25,141.25,0,0,0,13.21,6.36c2.84,1.1,9,1.55,10.28,4.74,5.12-4.26,11.1-7.25,17.11-10.06,4.69-2.19,10.35-3.7,13.33-8.31,3.1-4.77,2.79-11.42,2.78-16.88,0-18.4-.91-36.8-.65-55.2,0-1.78.2-3.31.18-5.09C62.49.42,56.63.53,50.77.64L45.11.75c-2,0-3.93.07-5.9.13C26.33,1.24,13.71,2.52.91,1.07Z"/></g></g></svg>