<svg xmlns="http://www.w3.org/2000/svg" viewBox="0 0 161.35 90.81"><defs><style>.cls-1{fill:none;stroke:#000;stroke-miterlimit:10;}</style></defs><title>Ресурс 4</title><g id="Слой_2" data-name="Слой 2"><g id="Слой_1-2" data-name="Слой 1"><path class="cls-1" d="M4,87.09,160.85,90.3l-.18-84C142.56,3.15,124.3,0,105.93.57c-9.85.31-19.64,1.7-29.48,2.3C51.18,4.41,25.36.73.53,7,0,14.1,5.89,87.13,4,87.09Z"/><path class="cls-1" d="M6.74,83c12.28-3.16,25.19,1,37.87.67,6.92-.16,13.93-1.65,20.7-.2,2.15.46,4.24,1.22,6.43,1.49a31.49,31.49,0,0,0,7.75-.34,289.86,289.86,0,0,1,59.77-1.14c3.27.27,7,.48,9.41-1.69a7.92,7.92,0,0,0,7.56,2.36A382.61,382.61,0,0,1,155,15.29a5,5,0,0,0-.52-3.31c-.88-1.23-2.63-1.38-4.15-1.42l-15.65-.34L126.11,10,34.66,8a95.8,95.8,0,0,0-14.77.43c-5.5.73-14-.51-15.33,5.09C2.91,20.32,4.85,30,5,37,5.14,41,7.9,82.7,6.74,83Z"/><path class="cls-1" d="M12.52,21.89a15.65,15.65,0,0,1,7.42-6.19c-.19,4.81-3.12,9-6,12.92a17.61,17.61,0,0,0,6.27-8.72,10.09,10.09,0,0,1,0,6.22L23,26a7.67,7.67,0,0,1-1,5.59c-.16.27-.35.6-.2.88s.72,0,.5-.21"/><path class="cls-1" d="M132,62.7v-9c0-.49.08-1.11.55-1.27s1,.36,1.23.82L136.58,58a76.64,76.64,0,0,0,1.93-15.16,15.1,15.1,0,0,1,3.88,4.57,41.4,41.4,0,0,0,1.86-8.59c.36-3.48.32-7.16,2-10.2"/><path class="cls-1" d="M115.12,38.21,114.2,18c-.7,1.25-2.26,1.13-3,2.38a8.34,8.34,0,0,1,3.45-4.94,38.93,38.93,0,0,0,3,5.18"/><path class="cls-1" d="M103.62,28.55a167.91,167.91,0,0,0,24,.37,4.35,4.35,0,0,0-2.28-2.7,12.44,12.44,0,0,0,2.24,4.24,4.52,4.52,0,0,1-3.3,1.8l-.8,2.14"/><path class="cls-1" d="M36.07,33.56a75.7,75.7,0,0,0,8.68,7.2"/><path class="cls-1" d="M38.94,41.6c-.43.45-.79-.62-.5-1.18a41.26,41.26,0,0,1,4.72-7.26"/><path class="cls-1" d="M49.9,35.67a11.16,11.16,0,0,1,4.74.31"/><path class="cls-1" d="M48.6,39.93h6.45"/><path class="cls-1" d="M59.84,30a6.14,6.14,0,0,0,4.21,5.42l0-9.47a1.59,1.59,0,0,1,.42-1.33,1.57,1.57,0,0,1,1-.22l8.91,0"/><path class="cls-1" d="M67.7,28.42a2.75,2.75,0,0,0,2.35,3.86A4.83,4.83,0,0,1,71,28.91c-.42,1.51.2,3.12,0,4.69s-2,3.15-3.17,2.13"/><path class="cls-1" d="M59.35,38.25A127.37,127.37,0,0,1,74,38.46"/><path class="cls-1" d="M62.47,41.73a1.82,1.82,0,1,0,3.21.31l.11,7.34"/><path class="cls-1" d="M71.62,49.19a1.79,1.79,0,0,1-2.57-.37A2.82,2.82,0,0,1,68.94,46a3.89,3.89,0,0,0,2.83-4.25,2,2,0,0,0-2-.34c-.89,1.15-.07,2.8.8,4s1.82,2.68,1.13,4"/><path class="cls-1" d="M19.31,68.3c0-.71.87-1.13,1.58-1.06,2.12.2,3.11,3,2.32,5s-2.69,3.23-4.48,4.36a18.06,18.06,0,0,1,6.63.46"/><path class="cls-1" d="M35.71,72.59h-6"/><path class="cls-1" d="M31.87,67.43a42,42,0,0,0,.34,9"/><path class="cls-1" d="M39.19,67.9c1.14-1.34,3.58.08,3.7,1.84S41.78,73,40.61,74.36l-3,3.44,5.85-.57"/><path class="cls-1" d="M47.31,70.87h6"/><path class="cls-1" d="M48.17,74.74h5.16"/><path class="cls-1" d="M57.26,78.21a6.61,6.61,0,0,0,5.32,0c1.61-.86,2.49-3.16,1.38-4.61-1.33-1.72-4.09-1-5.93.11l0-5.45c1.86,0,4.58-1.29,6.44-1.29"/><path class="cls-1" d="M104.27,56.88c3.93,5.26,3.59,12.68,7,18.27-3.72-.4-9.21.51-12.45-1C99.33,70.44,107,60.5,104.27,56.88Z"/></g></g></svg>