<svg xmlns="http://www.w3.org/2000/svg" viewBox="0 0 103.78 94.58"><defs><style>.cls-1{fill:none;}.cls-1,.cls-2{stroke:#000;stroke-miterlimit:10;}</style></defs><title>Ресурс 7</title><g id="Слой_2" data-name="Слой 2"><g id="Слой_1-2" data-name="Слой 1"><path class="cls-1" d="M23.44,76a65.09,65.09,0,0,1,5-18.78c2-4.75,4.26-9.35,6.56-13.95l5.32-10.65a66.9,66.9,0,0,1,5.43-9.49A65.83,65.83,0,0,1,52.19,16c3.46-3.5,7-7,11.13-9.65A56,56,0,0,1,73.78,1.57,6.85,6.85,0,0,1,76.2,1c2,0,3.57,1.7,4.43,3.48,2.44,5,.91,11-.67,16.41L75.73,35.32c-.45,1.54-.91,3.08-1.39,4.61A113.73,113.73,0,0,1,61,68C54.75,77.5,46.79,86.44,36.67,91.85c-3.67,2-8.76,4-11.54-.29C22.51,87.52,23,80.5,23.44,76Z"/><path class="cls-1" d="M23.2,15.15a12.27,12.27,0,0,1,0-4C24.07,7,29.59,4.7,33.15,7a28.72,28.72,0,0,1,2.74,2.32,33.39,33.39,0,0,0,3.26,2.28C46.27,16.27,52,22.76,57.34,29.42q3.75,4.69,7.29,9.56A112.8,112.8,0,0,1,74.69,55a71,71,0,0,1,7.21,27.4c.12,2.09.08,4.38-1.22,6-2.19,2.73-6.57,2.11-9.65.44-4.9-2.66-8.5-7.15-11.94-11.54C53.35,76.43,49.63,71,46.6,66,37.57,51.21,23.2,33.52,23.2,15.15Z"/><path class="cls-1" d="M5.34,54.17c-2.41-2.12-5-4.71-4.83-7.91A7.15,7.15,0,0,1,4,41,21.18,21.18,0,0,1,10,38.58L19.43,36A66.56,66.56,0,0,1,31,33.47c5.64-.54,11.38.35,17-.59,3.33-.55,6.69-1.75,10-1,1,.21,2,.61,3,.78a19.32,19.32,0,0,0,5.36-.23c6.33-.64,12.65.9,18.82,2.44,5.14,1.28,10.46,2.65,14.61,6,2,1.55,3.67,3.76,3.57,6.24-.15,3.47-3.64,5.77-6.9,7A73.16,73.16,0,0,1,84,57.07c-11.79,2.17-23.61,4.36-35.58,5.22-5.38.38-11.15.93-16.48-.11-3.26-.64-6.28-2-9.57-2.56C15.4,58.52,10.92,59.09,5.34,54.17Z"/><path class="cls-2" d="M29.26,25.16c.52.76-.51,1.62-1.36,2-2.75,1.12-5.93,2.22-8.55.84a10.22,10.22,0,0,1-3.19-3.19,5.2,5.2,0,0,1-1.23-2.47,3.87,3.87,0,0,1,.33-1.8c1.48-3.72,5.71-5.61,9.69-6a6.11,6.11,0,0,1,4.11.68c2,1.37,2.1,4.28,2,6.72a3.46,3.46,0,0,1-.17,1,4,4,0,0,1-.94,1.26,39.71,39.71,0,0,1-2.68,3.1,3.65,3.65,0,0,1-3.77.86"/><path class="cls-2" d="M52.13,7.26A4.81,4.81,0,0,1,53.2,4.83,10.91,10.91,0,0,1,63.42.63,3.66,3.66,0,0,1,66.08,2.1c.25.42.35.92.63,1.32.47.67,1.32.94,2,1.46,1.5,1.22,1.51,3.46,1.4,5.39a3.09,3.09,0,0,1-.43,1.67,3.12,3.12,0,0,1-1.21.83c-3.37,1.59-6.63,3.89-10.36,2C55.77,13.57,51.94,10,52.13,7.26Z"/><path class="cls-2" d="M83.32,37.45c0-1.66-.26-3.42.49-4.9a5.41,5.41,0,0,1,3.54-2.62,16.3,16.3,0,0,1,4.52-.31,6,6,0,0,1,2.19.34,4.76,4.76,0,0,1,1.2.83c4.45,3.92,3.56,10.48-1.55,13.52S83.37,42.64,83.32,37.45Z"/><path class="cls-2" d="M77.74,69.08a9.74,9.74,0,0,1,2-1.58c2-1.13,4.52-.9,6.83-.65a5.51,5.51,0,0,1,1.61.34c1.41.64,2,2.33,2.27,3.86,1.11,5.72-.27,14.2-8.27,12.4C74.9,81.82,72.52,74.11,77.74,69.08Z"/><path class="cls-2" d="M51.47,82.45a3.75,3.75,0,0,1,.9,1.19,3.68,3.68,0,0,1,.19,1.4,29.75,29.75,0,0,1-.45,5c-.64,3.76-7.33,4.3-10.38,3.54a8.06,8.06,0,0,1-5.91-6.22c-.65-3.51,1.4-6.42,4.37-8.11C44.67,76.68,48.24,79.17,51.47,82.45Z"/><path class="cls-2" d="M21.22,53a6.68,6.68,0,0,1,.93,2.22A14.53,14.53,0,0,1,22.39,59a12.17,12.17,0,0,1-1.16,5.16c-3.86,7.23-11,.41-12.09-4.77C7.75,52.5,16.63,46.11,21.22,53Z"/><path class="cls-2" d="M55.18,37.65a2.75,2.75,0,0,1,1,.19,2.8,2.8,0,0,1,.88.73c1.76,1.88,3.59,3.92,4,6.45a13.71,13.71,0,0,1-.22,4.42c-.37,2.24-.92,4.77-2.86,6a6.87,6.87,0,0,1-2.56.78c-5.26.78-13.56-1.52-13.77-8.09C41.47,40.76,49,37.31,55.18,37.65Z"/></g></g></svg>