<svg xmlns="http://www.w3.org/2000/svg" viewBox="0 0 79.6 107.11"><defs><style>.cls-1{fill:none;stroke:#000;stroke-miterlimit:10;}</style></defs><title>Ресурс 6</title><g id="Слой_2" data-name="Слой 2"><g id="Слой_1-2" data-name="Слой 1"><path class="cls-1" d="M9.36,25.16c.15-6.38.59-13.44,5.11-17.95,2.78-2.76,6.67-4.07,10.46-5A41.59,41.59,0,0,1,37.7.55a26.58,26.58,0,0,1,16,6.68,17.17,17.17,0,0,1,3.54,4.25c1.83,3.24,2.13,7.1,2.12,10.81,0,13-3.33,25.74-6.62,38.32"/><path class="cls-1" d="M12,45.23c0,4.94.08,10.11,2.45,14.44a29.64,29.64,0,0,0,3.83,5.11,46.09,46.09,0,0,0,8.1,7.88c3.11,2.16,6.91,3.55,10.66,3s7.3-3.23,8-6.93"/><path class="cls-1" d="M36.27,37.09a1.54,1.54,0,0,0-2-.93A3.35,3.35,0,0,0,33,33.42L32.88,36a4.57,4.57,0,0,1-1.58-2.82l-.18,2.53a11.78,11.78,0,0,1-2.34-2.39,5.08,5.08,0,0,0-.68,2.14L27,33.6a7,7,0,0,0-.75,2.32c-.22.24-.62,0-.79-.22s-.26-.61-.51-.8a.71.71,0,0,0-1.05.75"/><path class="cls-1" d="M45.42,37.71a1.18,1.18,0,0,1,2.14.14,1.85,1.85,0,0,1,.83-.59c.34-.08.77.11.8.45.46-.23.45-.86.45-1.38s.23-1.17.74-1.13c.92.07.32,1.93,1.18,2.26.41-.64,1.38-.29,2,.06s1.78.46,1.92-.29"/><path class="cls-1" d="M25.68,68.64A6.93,6.93,0,0,1,27,59.84,12.24,12.24,0,0,0,28.2,70.76c-.28-3.88-.55-7.91.86-11.54l.08,8.18c0,.72.18,1.65.89,1.79a19.26,19.26,0,0,1,1.32-10.91l.11,12.17a67.24,67.24,0,0,1,.36-10c.13-1.19.65-2.71,1.86-2.7l-.52,7.85a36.8,36.8,0,0,1,2.25-8.81,39.91,39.91,0,0,1-.42,7.8A20.18,20.18,0,0,1,37,57l.12,6.52a22.19,22.19,0,0,0,1.18-6.45,40.78,40.78,0,0,1,.32,7.73,10.52,10.52,0,0,0,1.76-6.69l.23,5.95a11.65,11.65,0,0,0,1.56-7.39l.41,7.74a24.33,24.33,0,0,0,2-8,80.93,80.93,0,0,1-.33,9.85l2.45-8.63a20.89,20.89,0,0,1-.41,8.62L48,58a18.4,18.4,0,0,1-.3,10.6,14.48,14.48,0,0,0,1.72-7.85,43.67,43.67,0,0,1,0,10.22,13.74,13.74,0,0,0,1.79-7.85c.13,3.28.23,6.68-1,9.72a31.6,31.6,0,0,0,2-9.09,9.69,9.69,0,0,1,0,9.09"/><path class="cls-1" d="M35,39.82a4.18,4.18,0,0,1-5.39,1.8c-1.44-.73-2.48-2.33-4.09-2.51"/><path class="cls-1" d="M45,40.87a4.89,4.89,0,0,0,4.34.56A10.28,10.28,0,0,0,53.1,39"/><path class="cls-1" d="M36.8,50.34a3.06,3.06,0,0,0-3,.08,2,2,0,0,0-.58,2.78c1.06,1.41,3.52.49,4.92,1.58.28.22.51.52.79.73a2.67,2.67,0,0,0,2.5.24,8,8,0,0,0,2.19-1.41c.8-.65,1.7-1.53,1.5-2.55-.26-1.35-2.15-1.65-2.92-2.8a4.16,4.16,0,0,1-.48-2.16l-.29-9.06"/><path class="cls-1" d="M30,38.24a.93.93,0,1,0,.91.32h-.92a1.75,1.75,0,0,0,.27,1.61A2,2,0,0,0,30.55,38a1.72,1.72,0,0,0-.14,2.14,1.84,1.84,0,0,0,.71-2.12c-.47-.31-1.14.11-1.3.66a2.77,2.77,0,0,0,.24,1.64,1.8,1.8,0,0,0,1.38-1.55c0-.75-.91-1.4-1.52-1V40.3a1.51,1.51,0,0,0,1.85-.94c.19-.74-.6-1.59-1.32-1.33l0,1.27"/><path class="cls-1" d="M47.65,38.28l-.3,1.49a2.29,2.29,0,0,0,1.49-.16.9.9,0,0,0,.35-1.28c-.36-.43-1.14-.19-1.41.3a2.64,2.64,0,0,0-.11,1.67l1.43,0a2.17,2.17,0,0,0,0-1.21.76.76,0,0,0-1-.5,3.06,3.06,0,0,0-.29,1.49h1a1,1,0,0,0-.5-1.3l-.4.84"/><path class="cls-1" d="M14,36.73a14,14,0,0,1,2.71-9.44,9,9,0,0,0-5.77,1.6,57,57,0,0,1,5.55-7.54L9.66,27.56C9.3,25.1,11,22.87,12.75,21.07s3.65-3.75,3.81-6.23a20.42,20.42,0,0,1-4.24,5,18.88,18.88,0,0,1,7.15-8.94l-4.74,4.29A53.14,53.14,0,0,1,23.43,5c-2.54-.6-4.38,3.61-6.9,3a10.05,10.05,0,0,1,4.95-5.56L13.91,9.2,18.65,7c0,1.38-1.61,2.06-2.79,2.76a8.39,8.39,0,0,0-4.07,6.66A64.69,64.69,0,0,1,18,10.25L11.7,19.18A81.1,81.1,0,0,1,23.44,7.56a4.17,4.17,0,0,1-2.1,2A11.32,11.32,0,0,1,27,5.33a11.22,11.22,0,0,0-4.88,1.29,3.46,3.46,0,0,1,3.31-2.23l-2.73,0"/><path class="cls-1" d="M21.91,59.85a11.81,11.81,0,0,1,.89-4q-2.84,1-5.74,1.82a2.78,2.78,0,0,1,.62-1.76l2.82-4.44L17.7,53c.34-2.46,1.76-4.62,3.15-6.68A3.51,3.51,0,0,0,18,47.61a8.67,8.67,0,0,1,.45-5l-2.15.41,1.11-4.41A4.74,4.74,0,0,0,14,42.48a.93.93,0,0,1,.7-1.1"/><path class="cls-1" d="M8.76,43.79,3.23,54.66C2,57.11.71,59.64.52,62.39c-.24,3.58,1.41,7,3,10.22l8.08,16.26a3.6,3.6,0,0,0,1.18,1.55,3.33,3.33,0,0,0,1.65.34,36.23,36.23,0,0,0,14.37-2.57,40.33,40.33,0,0,1-13,8l18.13,7.13a21.78,21.78,0,0,1,5.58,2.85c.58-5.67-2.92-10.82-5.45-15.92a102.45,102.45,0,0,1-5.84-16.1"/><path class="cls-1" d="M44.06,73.78l1.46,5a7.57,7.57,0,0,1,2.17-1.43,2.59,2.59,0,0,1,2.49.29,3.82,3.82,0,0,1,1,2.81q.47,8.71.31,17.43"/><path class="cls-1" d="M54.73,70.4A39.51,39.51,0,0,1,55.8,76c.15,1.2.24,2.41.29,3.63a57.2,57.2,0,0,1-3.48,22.29"/><path class="cls-1" d="M53.42,61.69c1.85,4.29,6.06,7,9.37,10.29a37.7,37.7,0,0,1,6.38,8.71c1.18,2.16,2.2,4.4,3.22,6.64l6.75,14.84"/><path class="cls-1" d="M31.21,77.6l6.17,6.82a23.29,23.29,0,0,1,2.34,2.91c.82,1.32,1.41,2.87,2.7,3.73a22.08,22.08,0,0,1,2.29,1.28c1,.9,1.27,2.45,2.2,3.46.48.52,1.13.88,1.56,1.45,1,1.23.69,3.23,1.93,4.18"/><path class="cls-1" d="M55.64,70.93a37,37,0,0,0,3.46,8.84c.82,1.66,1.65,3.31,2.48,5,2.66,5.3,5.36,10.57,8.07,15.85"/><path class="cls-1" d="M45.61,50.48a60.4,60.4,0,0,1,3.91,6.75"/><path class="cls-1" d="M43.6,38.42a4.32,4.32,0,0,1-1.18-4.79"/><path class="cls-1" d="M50.17,5.33a1.33,1.33,0,0,1,1.28,1.82l1,.09a6.77,6.77,0,0,1-.18,2.29l1.44-.48a11.92,11.92,0,0,1,0,2.8l1.41-.19a3.1,3.1,0,0,0,0,2.1c.32.65,1.36.92,1.74.31a5.14,5.14,0,0,1-1,3.52,1.94,1.94,0,0,1,1.06-.69c.49.24.13,1,0,1.49-.21,1.46,2.18,2.68,1.41,3.94"/></g></g></svg>